<?xml version="1.0" encoding="utf-8"?>
<!-- Generator: Adobe Illustrator 27.1.1, SVG Export Plug-In . SVG Version: 6.00 Build 0)  -->
<svg version="1.1" id="Layer_1" xmlns="http://www.w3.org/2000/svg" xmlns:xlink="http://www.w3.org/1999/xlink" x="0px" y="0px"
	 viewBox="0 0 702.7 135.33" style="enable-background:new 0 0 702.7 135.33;" xml:space="preserve">
<style type="text/css">
	.st0{fill:#FFFFFF;}
</style>
<g>
	<path class="st0" d="M642.78,0c-3.52,2.03-6.43,3.71-9.34,5.39c-15.75,9.11-31.47,18.26-47.27,27.29c-2.03,1.16-2.71,2.5-2.7,4.75
		c0.07,19.34,0.05,38.67,0.04,58.01c0,4.59,1.94,8.06,5.92,10.36c16.15,9.35,32.31,18.69,48.47,28.02c3.43,1.98,6.9,2.03,10.36,0.04
		c16.06-9.28,32.08-18.63,48.19-27.8c4.35-2.48,6.27-6,6.27-10.83c-0.01-19.22,0-38.44-0.01-57.66c0-0.86-0.12-1.72-0.19-2.75
		c-0.76,0.29-1.21,0.4-1.6,0.63c-18.2,10.47-36.38,20.99-54.61,31.4c-2.05,1.17-3.06,2.4-2.9,4.88c0.24,3.73,0.06,7.5,0.06,11.25
		c0,2.48,0,4.97,0,8.1c13.47-7.72,26.14-14.98,39.46-22.62c0,7.19-0.15,13.39,0.07,19.57c0.09,2.52-0.94,3.76-2.95,4.9
		c-11.55,6.59-23.01,13.34-34.6,19.84c-1.21,0.68-3.47,0.67-4.68-0.02c-11.59-6.52-23.04-13.28-34.58-19.88
		c-1.79-1.03-2.68-2.13-2.67-4.34c0.11-13.48,0.1-26.95,0.01-40.43c-0.01-2.15,0.68-3.31,2.57-4.38
		c11.66-6.62,23.26-13.36,34.82-20.17c0.88-0.52,1.77-1.89,1.79-2.88C642.85,14.02,642.78,7.35,642.78,0z M229.07,73.41
		c12.49,0,24.99,0,37.77,0c0-2.58-0.16-4.79,0.04-6.98c0.25-2.74-0.64-3.67-3.52-3.61c-9.63,0.18-19.26,0.07-28.9,0.07
		c-1.81,0-3.63,0-5.48,0c0.85-6.97,4.79-10.53,11.27-10.55c8.77-0.02,17.54,0,26.34,0c0-3.73,0-7.04,0-10.53
		c-10.8,0-21.38-0.41-31.92,0.11c-12.24,0.6-20.8,9.47-21.66,21.65c-0.25,3.49-0.15,7.04,0.18,10.52
		c1.05,10.99,7.8,18.91,18.75,19.88c11.3,1,22.74,0.41,34.12,0.5c0.18,0,0.37-0.24,0.77-0.51c0-2.18-0.15-4.52,0.04-6.83
		c0.2-2.51-0.79-3.21-3.23-3.18c-7.87,0.13-15.76-0.26-23.61,0.16C234.76,84.37,228.86,79.53,229.07,73.41z M462.2,94.41
		c0-2.63-0.15-4.87,0.04-7.07c0.22-2.6-0.68-3.47-3.35-3.41c-8.1,0.16-16.21,0.1-24.31,0.04c-5.79-0.04-10.16-4.65-9.86-10.58
		c12.37,0,24.77,0,37.48,0c0-2.63-0.17-4.96,0.04-7.25c0.25-2.74-0.93-3.33-3.46-3.3c-10.22,0.12-20.43,0.05-30.65,0.05
		c-1.21,0-2.42,0-3.71,0c1.15-7.42,4.76-10.54,11.67-10.55c5.28-0.01,10.57,0,15.85,0c3.35,0,6.71,0,9.96,0c0-3.81,0-7.13,0-10.55
		c-1.46,0-2.63,0-3.8,0c-9.16,0-18.32-0.19-27.48,0.05c-10.03,0.26-18.5,6.48-21.01,16.07c-1.27,4.85-1.35,10.19-1.03,15.25
		c0.76,12.08,7.89,20.11,19.87,21.07C439.51,95.11,450.69,94.41,462.2,94.41z M335.25,94.56c0-10.6,0.03-20.77-0.01-30.95
		c-0.04-10.81-6.98-19.94-17.75-21.04c-11.05-1.13-22.26-0.62-33.41-0.65c-0.58,0-1.63,1.74-1.65,2.68
		c-0.15,5.97-0.08,11.95-0.08,17.93c0,9.61-0.05,19.22,0.08,28.83c0.01,1.06,1.03,2.99,1.66,3.03c4.75,0.26,9.53,0.14,14.68,0.14
		c0-14.34,0-28.21,0-42.2c3.92,0,7.44-0.05,10.97,0.01c6.07,0.1,9.28,3.35,9.29,9.39c0.02,9.73,0.12,19.46-0.06,29.18
		c-0.06,3,0.94,3.85,3.82,3.7C326.75,94.4,330.75,94.56,335.25,94.56z M492.98,94.44c0-14.19,0-28.06,0-42.1
		c3.58,0,6.74-0.01,9.91,0c7.42,0.02,10.74,3.28,10.76,10.64c0.03,9.25,0.01,18.5,0.01,27.75c0,1.23,0,2.46,0,3.62
		c5.55,0,10.56,0,15.86,0c0-10.15,0.03-20.08-0.01-30.02c-0.04-12-6.82-20.69-18.78-21.93c-10.34-1.08-20.85-0.48-31.28-0.59
		c-0.77-0.01-1.55,0.19-2.17,0.27c0,17.61,0,34.99,0,52.37C482.46,94.44,487.37,94.44,492.98,94.44z M122.74,52.34
		c0-3.68,0-6.99,0-10.52c-12.07,0-23.94-0.36-35.77,0.14c-6.95,0.3-13.01,3.32-17.29,9.32c-3.98,5.58-4.61,11.89-4.52,18.35
		c0.24,17.04,11.07,25.55,25.95,24.99c7.39-0.28,14.81-0.05,22.21-0.05c3.13,0,6.26,0,9.38,0c0-8.92,0-17.4,0-25.88
		c-4.21,0-8.16,0-12.52,0c0,5.12,0,10.08,0,15.31c-6.15,0-11.88,0.01-17.62,0c-6.84-0.01-11.11-4.26-11.18-11.12
		c-0.03-3.05-0.03-6.09,0-9.14c0.06-7.11,4.31-11.37,11.39-11.38C102.64,52.32,112.51,52.34,122.74,52.34z M347.72,94.52
		c10.58,0,21.17,0.37,31.7-0.19c4-0.21,8.21-2,11.77-4.04c7.35-4.21,9.33-12.76,4.77-19.3c-2.58-3.71-6.12-6.34-10.69-7.49
		c-6.02-1.52-11.99-3.22-17.97-4.89c-1.91-0.53-4.18-0.91-3.78-3.69c0.38-2.71,2.61-2.57,4.59-2.58c7.05-0.02,14.1-0.01,21.15-0.01
		c7.52,0,7.42,0,7.42-7.4c0-2.47-0.76-3.23-3.22-3.2c-8.81,0.13-17.62-0.03-26.43,0.08c-5.29,0.07-10.11,1.89-14.26,5.12
		c-6.93,5.38-7.59,13.86-0.93,19.61c3.3,2.85,7.75,4.61,11.94,6.15c5.04,1.85,10.42,2.79,15.52,4.49c1.31,0.44,2.15,2.28,3.2,3.48
		c-1.3,1.1-2.52,2.33-3.94,3.24c-0.58,0.38-1.61,0.08-2.43,0.08c-6.58,0-13.16,0-19.74,0c-9.76,0-9.76,0-9.04,9.85
		C347.34,93.93,347.44,94.03,347.72,94.52z M53.99,41.8c-11.09,0-21.78-0.39-32.43,0.11c-9.91,0.47-17.81,7.07-20.2,16.2
		c-1.86,7.1-1.87,14.33,0.31,21.44c1.7,5.55,5.42,9.52,10.39,12.2c2.42,1.31,5.28,2.45,7.97,2.52c11.24,0.28,22.48,0.12,33.87,0.12
		c0-3.5,0-6.81,0-10.4c-8.91,0-17.59,0.01-26.26,0c-7.04-0.01-11.17-4.07-11.18-11.02c-0.01-3.63-0.41-7.33,0.14-10.87
		c0.38-2.43,1.59-5.24,3.38-6.79c1.92-1.66,4.93-2.75,7.52-2.85c8.76-0.34,17.55-0.13,26.49-0.13
		C53.99,48.69,53.99,45.46,53.99,41.8z M613.53,73.49c0.91-0.32,1.26-0.38,1.54-0.54c18.49-10.6,36.98-21.19,55.44-31.85
		c0.9-0.52,2.02-1.66,2.05-2.53c0.17-6.83,0.09-13.67,0.09-21.24c-4.28,2.46-7.89,4.52-11.5,6.59
		c-15.25,8.75-30.52,17.48-45.73,26.3c-0.84,0.49-1.78,1.67-1.8,2.55C613.46,59.54,613.53,66.32,613.53,73.49z M158.02,94.45
		c7.23,0,14.19,0.59,21-0.13c12.14-1.28,19.5-7.67,20.49-18.91c0.96-11,0.21-22.14,0.21-33.42c-4.99,0-10.07,0-15.43,0
		c0,9.54,0.01,18.88-0.01,28.21c0,1.63-0.04,3.28-0.29,4.89c-0.94,5.84-4.24,8.74-10.22,8.86c-5.22,0.11-10.44,0.02-15.74,0.02
		C158.02,87.7,158.02,90.84,158.02,94.45z"/>
	<path d="M642.78,0c0,7.35,0.08,14.02-0.08,20.68c-0.02,0.99-0.91,2.36-1.79,2.88c-11.56,6.81-23.15,13.55-34.82,20.17
		c-1.88,1.07-2.58,2.23-2.57,4.38c0.09,13.48,0.1,26.95-0.01,40.43c-0.02,2.21,0.87,3.31,2.67,4.34
		c11.54,6.61,22.99,13.37,34.58,19.88c1.21,0.68,3.47,0.69,4.68,0.02c11.6-6.5,23.06-13.25,34.6-19.84c2.01-1.15,3.04-2.39,2.95-4.9
		c-0.22-6.18-0.07-12.38-0.07-19.57c-13.32,7.63-25.99,14.9-39.46,22.62c0-3.14,0-5.62,0-8.1c0-3.75,0.18-7.51-0.06-11.25
		c-0.16-2.48,0.85-3.71,2.9-4.88c18.23-10.41,36.41-20.93,54.61-31.4c0.39-0.22,0.84-0.33,1.6-0.63c0.07,1.03,0.19,1.89,0.19,2.75
		c0.01,19.22,0,38.44,0.01,57.66c0,4.83-1.91,8.35-6.27,10.83c-16.12,9.17-32.13,18.52-48.19,27.8c-3.45,1.99-6.92,1.94-10.36-0.04
		c-16.16-9.33-32.32-18.67-48.47-28.02c-3.97-2.3-5.92-5.77-5.92-10.36c0.01-19.34,0.04-38.67-0.04-58.01
		c-0.01-2.25,0.67-3.59,2.7-4.75c15.8-9.03,31.52-18.18,47.27-27.29C636.34,3.71,639.25,2.03,642.78,0z"/>
	<path d="M229.07,73.41c-0.21,6.12,5.69,10.97,10.97,10.69c7.85-0.42,15.74-0.03,23.61-0.16c2.44-0.04,3.43,0.66,3.23,3.18
		c-0.18,2.31-0.04,4.65-0.04,6.83c-0.4,0.27-0.59,0.51-0.77,0.51c-11.38-0.09-22.82,0.49-34.12-0.5
		c-10.95-0.97-17.7-8.88-18.75-19.88c-0.33-3.48-0.43-7.03-0.18-10.52c0.86-12.17,9.42-21.05,21.66-21.65
		c10.53-0.52,21.11-0.11,31.92-0.11c0,3.49,0,6.81,0,10.53c-8.8,0-17.57-0.01-26.34,0c-6.48,0.01-10.43,3.58-11.27,10.55
		c1.85,0,3.67,0,5.48,0c9.63,0,19.27,0.11,28.9-0.07c2.87-0.05,3.77,0.87,3.52,3.61c-0.2,2.18-0.04,4.4-0.04,6.98
		C254.06,73.41,241.55,73.41,229.07,73.41z"/>
	<path d="M462.2,94.41c-11.5,0-22.68,0.7-33.74-0.19c-11.98-0.96-19.11-8.99-19.87-21.07c-0.32-5.06-0.24-10.39,1.03-15.25
		c2.51-9.6,10.98-15.81,21.01-16.07c9.15-0.24,18.32-0.05,27.48-0.05c1.17,0,2.34,0,3.8,0c0,3.41,0,6.73,0,10.55
		c-3.25,0-6.61,0-9.96,0c-5.28,0-10.57-0.01-15.85,0c-6.91,0.01-10.52,3.13-11.67,10.55c1.29,0,2.5,0,3.71,0
		c10.22,0,20.43,0.07,30.65-0.05c2.53-0.03,3.71,0.56,3.46,3.3c-0.21,2.3-0.04,4.62-0.04,7.25c-12.71,0-25.11,0-37.48,0
		c-0.3,5.92,4.08,10.53,9.86,10.58c8.1,0.06,16.21,0.12,24.31-0.04c2.67-0.05,3.57,0.81,3.35,3.41
		C462.05,89.55,462.2,91.78,462.2,94.41z"/>
	<path d="M335.25,94.56c-4.5,0-8.49-0.16-12.47,0.05c-2.87,0.16-3.87-0.7-3.82-3.7c0.18-9.72,0.08-19.45,0.06-29.18
		c-0.01-6.04-3.21-9.29-9.29-9.39c-3.52-0.06-7.05-0.01-10.97-0.01c0,13.99,0,27.86,0,42.2c-5.15,0-9.92,0.12-14.68-0.14
		c-0.63-0.03-1.65-1.96-1.66-3.03c-0.13-9.61-0.08-19.22-0.08-28.83c0-5.98-0.07-11.96,0.08-17.93c0.02-0.95,1.08-2.69,1.65-2.68
		c11.14,0.02,22.36-0.48,33.41,0.65c10.77,1.1,17.71,10.23,17.75,21.04C335.28,73.79,335.25,83.96,335.25,94.56z"/>
	<path d="M492.98,94.44c-5.61,0-10.52,0-15.71,0c0-17.38,0-34.75,0-52.37c0.63-0.08,1.4-0.28,2.17-0.27
		c10.43,0.12,20.95-0.48,31.28,0.59c11.96,1.24,18.74,9.93,18.78,21.93c0.04,9.93,0.01,19.87,0.01,30.02c-5.3,0-10.3,0-15.86,0
		c0-1.16,0-2.39,0-3.62c0-9.25,0.02-18.5-0.01-27.75c-0.02-7.36-3.34-10.62-10.76-10.64c-3.16-0.01-6.33,0-9.91,0
		C492.98,66.38,492.98,80.25,492.98,94.44z"/>
	<path d="M122.74,52.34c-10.23,0-20.1-0.01-29.97,0c-7.08,0.01-11.33,4.27-11.39,11.38c-0.03,3.05-0.03,6.09,0,9.14
		c0.06,6.86,4.34,11.11,11.18,11.12c5.74,0.01,11.48,0,17.62,0c0-5.22,0-10.19,0-15.31c4.36,0,8.31,0,12.52,0
		c0,8.49,0,16.96,0,25.88c-3.12,0-6.25,0-9.38,0c-7.4,0-14.82-0.23-22.21,0.05c-14.88,0.56-25.71-7.95-25.95-24.99
		c-0.09-6.46,0.54-12.77,4.52-18.35c4.28-6,10.34-9.02,17.29-9.32c11.83-0.5,23.69-0.14,35.77-0.14
		C122.74,45.34,122.74,48.66,122.74,52.34z"/>
	<path d="M347.72,94.52c-0.28-0.49-0.37-0.59-0.38-0.69c-0.73-9.85-0.73-9.85,9.04-9.85c6.58,0,13.16,0,19.74,0
		c0.82,0,1.84,0.29,2.43-0.08c1.42-0.91,2.64-2.14,3.94-3.24c-1.05-1.2-1.89-3.04-3.2-3.48c-5.1-1.7-10.48-2.64-15.52-4.49
		c-4.19-1.54-8.64-3.3-11.94-6.15c-6.66-5.75-6-14.23,0.93-19.61c4.16-3.23,8.97-5.05,14.26-5.12c8.81-0.11,17.62,0.05,26.43-0.08
		c2.47-0.04,3.23,0.73,3.22,3.2c0,7.4,0.1,7.4-7.42,7.4c-7.05,0-14.1-0.01-21.15,0.01c-1.99,0.01-4.21-0.13-4.59,2.58
		c-0.39,2.79,1.88,3.16,3.78,3.69c5.98,1.67,11.95,3.37,17.97,4.89c4.57,1.15,8.11,3.78,10.69,7.49c4.56,6.54,2.58,15.1-4.77,19.3
		c-3.56,2.04-7.76,3.82-11.77,4.04C368.88,94.89,358.3,94.52,347.72,94.52z"/>
	<path d="M53.99,41.8c0,3.65,0,6.89,0,10.53c-8.94,0-17.72-0.21-26.49,0.13c-2.58,0.1-5.59,1.19-7.52,2.85
		c-1.79,1.54-3,4.36-3.38,6.79c-0.56,3.54-0.15,7.24-0.14,10.87c0.02,6.94,4.14,11.01,11.18,11.02c8.67,0.01,17.34,0,26.26,0
		c0,3.59,0,6.9,0,10.4c-11.39,0-22.64,0.16-33.87-0.12c-2.69-0.07-5.55-1.21-7.97-2.52c-4.97-2.68-8.69-6.65-10.39-12.2
		c-2.18-7.11-2.17-14.34-0.31-21.44c2.39-9.12,10.29-15.72,20.2-16.2C32.21,41.41,42.91,41.8,53.99,41.8z"/>
	<path d="M613.53,73.49c0-7.17-0.07-13.95,0.08-20.72c0.02-0.88,0.96-2.06,1.8-2.55c15.21-8.82,30.48-17.55,45.73-26.3
		c3.61-2.07,7.22-4.14,11.5-6.59c0,7.57,0.08,14.41-0.09,21.24c-0.02,0.87-1.14,2.01-2.05,2.53
		c-18.45,10.66-36.95,21.26-55.44,31.85C614.79,73.12,614.45,73.18,613.53,73.49z"/>
	<path d="M158.02,94.45c0-3.61,0-6.75,0-10.47c5.3,0,10.52,0.08,15.74-0.02c5.98-0.12,9.28-3.02,10.22-8.86
		c0.26-1.6,0.29-3.26,0.29-4.89c0.03-9.34,0.01-18.67,0.01-28.21c5.36,0,10.44,0,15.43,0c0,11.28,0.75,22.42-0.21,33.42
		c-0.98,11.23-8.34,17.62-20.49,18.91C172.21,95.04,165.25,94.45,158.02,94.45z"/>
</g>
</svg>
