<?xml version="1.0" encoding="utf-8"?>
<!-- Generator: Adobe Illustrator 27.0.1, SVG Export Plug-In . SVG Version: 6.00 Build 0)  -->
<svg version="1.1" id="Layer_1" xmlns="http://www.w3.org/2000/svg" xmlns:xlink="http://www.w3.org/1999/xlink" x="0px" y="0px"
	 viewBox="0 0 409.8 133.3" style="enable-background:new 0 0 409.8 133.3;" xml:space="preserve">
<style type="text/css">
	.st0{fill:#333333;}
</style>
<g>
	<path class="st0" d="M280.9,86.3c-2.2,0-4.3-0.4-6.2-1.1c-1.9-0.7-3.5-1.8-4.9-3.2c-1.4-1.4-2.5-3-3.3-4.8c-0.8-1.8-1.2-3.8-1.2-6
		s0.4-4.2,1.2-6c0.8-1.8,1.9-3.4,3.3-4.8s3.1-2.4,5-3.2c1.9-0.7,4-1.1,6.2-1.1s4.4,0.4,6.3,1.2c1.9,0.8,3.6,1.9,4.9,3.4l-2.7,2.7
		c-1.1-1.2-2.4-2.1-3.8-2.6c-1.4-0.6-2.9-0.9-4.5-0.9c-1.6,0-3.2,0.3-4.6,0.8c-1.4,0.6-2.6,1.4-3.7,2.4c-1,1-1.9,2.2-2.4,3.6
		c-0.6,1.4-0.9,2.9-0.9,4.5s0.3,3.1,0.9,4.5c0.6,1.4,1.4,2.6,2.4,3.6c1,1,2.3,1.8,3.7,2.4s3,0.8,4.6,0.8c1.7,0,3.1-0.3,4.5-0.9
		c1.4-0.6,2.7-1.5,3.8-2.7l2.7,2.7c-1.4,1.5-3,2.7-4.9,3.5C285.3,85.9,283.2,86.3,280.9,86.3L280.9,86.3z"/>
	<path class="st0" d="M306.3,86.2c-2.2,0-4.2-0.5-6-1.5s-3.1-2.3-4.1-4.1c-1-1.7-1.5-3.7-1.5-5.9s0.5-4.2,1.5-5.9
		c1-1.7,2.4-3.1,4.1-4c1.7-1,3.7-1.5,6-1.5s4.2,0.5,6,1.5c1.8,1,3.1,2.3,4.1,4c1,1.7,1.5,3.7,1.5,5.9s-0.5,4.2-1.5,5.9
		c-1,1.7-2.4,3.1-4.1,4.1C310.5,85.7,308.5,86.2,306.3,86.2z M306.3,82.6c1.4,0,2.7-0.3,3.9-1c1.1-0.6,2-1.6,2.7-2.8
		c0.6-1.2,1-2.6,1-4.2c0-1.6-0.3-3-1-4.2c-0.6-1.2-1.5-2.1-2.7-2.7s-2.4-1-3.9-1s-2.7,0.3-3.8,1s-2,1.6-2.7,2.7
		c-0.7,1.2-1,2.6-1,4.2c0,1.6,0.3,3,1,4.2c0.7,1.2,1.6,2.1,2.7,2.8C303.5,82.3,304.8,82.6,306.3,82.6z"/>
	<path class="st0" d="M323.5,85.9V54.6h4v31.3H323.5z"/>
	<path class="st0" d="M335.2,85.9V54.6h4v31.3H335.2z"/>
	<path class="st0" d="M357,86.2c-2.4,0-4.5-0.5-6.3-1.5c-1.8-1-3.2-2.3-4.2-4.1c-1-1.7-1.5-3.7-1.5-5.9s0.5-4.2,1.5-5.9
		c1-1.7,2.3-3.1,4-4c1.7-1,3.6-1.5,5.8-1.5c2.1,0,4.1,0.5,5.7,1.4c1.7,1,3,2.3,3.9,4c0.9,1.7,1.4,3.7,1.4,6.1c0,0.2,0,0.4,0,0.6
		c0,0.2,0,0.4-0.1,0.6h-19v-2.9H365l-1.6,1c0-1.4-0.3-2.7-0.9-3.8c-0.6-1.1-1.5-2-2.6-2.6c-1.1-0.6-2.3-1-3.8-1
		c-1.4,0-2.7,0.3-3.8,1c-1.1,0.6-2,1.5-2.6,2.7c-0.6,1.1-0.9,2.4-0.9,3.9v0.7c0,1.5,0.3,2.8,1,4c0.7,1.2,1.7,2.1,2.9,2.7
		c1.2,0.6,2.7,1,4.3,1c1.3,0,2.5-0.2,3.6-0.7c1.1-0.4,2-1.1,2.8-2l2.2,2.6c-1,1.2-2.3,2.1-3.8,2.7C360.5,85.9,358.8,86.2,357,86.2
		L357,86.2z"/>
	<path class="st0" d="M382.6,86.2c-2.3,0-4.3-0.5-6.1-1.5c-1.8-1-3.2-2.3-4.2-4.1c-1-1.7-1.5-3.7-1.5-5.9s0.5-4.2,1.5-5.9
		c1-1.7,2.4-3.1,4.2-4c1.8-1,3.8-1.5,6.1-1.5c2,0,3.8,0.4,5.4,1.2c1.6,0.8,2.8,2,3.7,3.6l-3.1,2c-0.7-1.1-1.6-1.9-2.7-2.4
		c-1.1-0.5-2.2-0.8-3.4-0.8c-1.5,0-2.8,0.3-3.9,1c-1.2,0.6-2.1,1.6-2.7,2.7c-0.7,1.2-1,2.6-1,4.2c0,1.6,0.3,3,1,4.2
		c0.7,1.2,1.6,2.1,2.7,2.7c1.2,0.6,2.5,1,3.9,1c1.2,0,2.3-0.3,3.4-0.8c1.1-0.5,1.9-1.3,2.7-2.4l3.1,1.9c-0.9,1.5-2.1,2.7-3.7,3.6
		C386.4,85.8,384.6,86.2,382.6,86.2L382.6,86.2z"/>
	<path class="st0" d="M394,66.9v-3.3h14.3v3.3H394z M404.9,86.2c-2.2,0-4-0.6-5.2-1.8c-1.2-1.2-1.9-2.9-1.9-5.2V58.7h4V79
		c0,1.2,0.3,2.1,0.9,2.8c0.6,0.6,1.5,1,2.6,1c1.3,0,2.3-0.3,3.2-1.1l1.3,2.9c-0.6,0.5-1.4,0.9-2.2,1.2
		C406.7,86,405.8,86.2,404.9,86.2L404.9,86.2z"/>
</g>
<g>
	<path class="st0" d="M156.9,85.9V50.5h8.2v28.8h17.8v6.7H156.9L156.9,85.9z"/>
	<path class="st0" d="M203.9,86.5c-2.7,0-5.3-0.4-7.6-1.3c-2.3-0.9-4.4-2.2-6.1-3.8s-3.1-3.6-4-5.8c-1-2.2-1.4-4.7-1.4-7.3
		s0.5-5.1,1.4-7.3c1-2.2,2.3-4.2,4.1-5.8c1.7-1.7,3.8-2.9,6.1-3.8c2.3-0.9,4.9-1.3,7.6-1.3c3.1,0,5.9,0.5,8.3,1.6
		c2.5,1.1,4.6,2.6,6.2,4.7l-5.3,4.9c-1.2-1.4-2.6-2.4-4.1-3.1c-1.5-0.7-3.1-1-4.9-1c-1.7,0-3.2,0.3-4.6,0.8
		c-1.4,0.5-2.6,1.3-3.6,2.3s-1.8,2.2-2.4,3.6c-0.6,1.4-0.8,2.9-0.8,4.6s0.3,3.2,0.8,4.6c0.6,1.4,1.3,2.6,2.4,3.6s2.2,1.8,3.6,2.3
		c1.4,0.5,2.9,0.8,4.6,0.8c1.8,0,3.4-0.3,4.9-1c1.5-0.7,2.8-1.7,4.1-3.2l5.3,4.9c-1.7,2.1-3.8,3.6-6.2,4.7S207,86.5,203.9,86.5
		L203.9,86.5z"/>
	<path class="st0" d="M218.6,85.9l15.8-35.4h8.1l15.8,35.4h-8.6l-13-31.3h3.2l-13,31.3H218.6L218.6,85.9z M226.5,78.3l2.2-6.2h18.2
		l2.2,6.2H226.5L226.5,78.3z"/>
</g>
<path class="st0" d="M66.7,133.3C29.9,133.3,0,103.4,0,66.7S29.9,0,66.7,0s66.7,29.9,66.7,66.7S103.4,133.3,66.7,133.3z M66.7,6.8
	c-33,0-59.9,26.9-59.9,59.9s26.9,59.9,59.9,59.9s59.9-26.9,59.9-59.9S99.7,6.8,66.7,6.8z"/>
<path class="st0" d="M66.7,118.6c-28.6,0-51.9-23.3-51.9-51.9S38,14.8,66.7,14.8s51.9,23.3,51.9,51.9c0,6.2-1.1,12.2-3.2,18l-5-1.9
	c1.9-5.2,2.9-10.6,2.9-16.1c0-25.7-20.9-46.5-46.5-46.5S20.1,41,20.1,66.7s20.9,46.5,46.5,46.5c7.4,0,14.7-1.8,21.2-5.1V59
	L68.6,39.9L45.4,59.8v29.6H56V65.9h19.9v28.9H40.1V57.3l28.8-24.7l24.4,24.1v54.5l-2.1,1.1C83.7,116.4,75.2,118.6,66.7,118.6
	L66.7,118.6z M61.4,89.4h9.1V71.3h-9.1V89.4z"/>
</svg>
