<?xml version="1.0" encoding="utf-8"?>
<!-- Generator: Adobe Illustrator 18.0.0, SVG Export Plug-In . SVG Version: 6.00 Build 0)  -->
<!DOCTYPE svg PUBLIC "-//W3C//DTD SVG 1.1//EN" "http://www.w3.org/Graphics/SVG/1.1/DTD/svg11.dtd">
<svg version="1.1" id="Realdania_logo" xmlns="http://www.w3.org/2000/svg" xmlns:xlink="http://www.w3.org/1999/xlink" x="0px"
	 y="0px" width="340.2px" height="203.8px" viewBox="0 0 340.2 203.8" enable-background="new 0 0 340.2 203.8"
	 xml:space="preserve">
<g>
	<path fill="#FA1E32" d="M339.9,190.1c0,0-75.2,30.7-169.8,0c-94.6-30.7-169.8,0-169.8,0V13.6c0,0,75.2-30.7,169.8,0
		c94.6,30.7,169.8,0,169.8,0V190.1z"/>
	<g>
		<path fill="#FFFFFF" d="M53.2,117l-8.3-15.8h-7.2V117h-9.9v-44H47c9.6,0,16,4.5,16,13.8c0,6.3-3.7,10.4-8.5,12.5l10,17.6H53.2z
			 M47,93c3.5,0,5.9-2.5,5.9-5.9c0-3.3-2.3-5.5-6-5.5h-9.3V93H47z"/>
		<path fill="#FFFFFF" d="M74.6,103.1c0.2,4.1,3.5,6.5,6.8,6.5c2.9,0,5-1.4,6.3-3.5h9.6c-1.6,6.9-7.9,11.4-16.2,11.4
			c-9.7,0-16.5-6.9-16.5-16.7c0-9.7,7.2-17,16.8-17c9.6,0,16.4,7.3,16.4,17c0,0.8-0.1,1.4-0.2,2.3H74.6z M87.7,97.8
			c-0.1-3.6-3.3-5.8-6.5-5.8c-3.2,0-6.1,2.1-6.6,5.8H87.7z"/>
		<path fill="#FFFFFF" d="M125.1,117v-3.7c-2.3,2.7-5.4,4.3-9.3,4.3c-8.4,0-15-7.2-15-16.9c0-9.6,6.8-16.8,15.2-16.8
			c3.7,0,6.8,1.5,9,4v-3.5h9.3V117H125.1z M124.9,100.7c0-4.7-3.3-7.8-7.3-7.8c-4,0-7.3,3.2-7.3,7.8c0,4.7,3.3,8,7.3,8
			C121.6,108.6,124.9,105.3,124.9,100.7z"/>
		<path fill="#FFFFFF" d="M140.3,117v-44h9.6v44H140.3z"/>
		<path fill="#FFFFFF" d="M178.3,117v-3.7c-2.3,2.7-5.4,4.3-9.2,4.3c-8.4,0-15-7.2-15-16.9s6.9-16.8,15.2-16.8
			c3.5,0,6.5,1.4,8.7,3.7V73.1h9.6v44H178.3z M178.2,100.7c0-4.6-3.3-7.8-7.3-7.8c-4,0-7.3,3.3-7.3,7.8c0,4.6,3.3,8,7.3,8
			C174.9,108.6,178.2,105.3,178.2,100.7z"/>
		<path fill="#FFFFFF" d="M215.9,117v-3.7c-2.3,2.7-5.5,4.3-9.3,4.3c-8.4,0-15-7.2-15-16.9c0-9.6,6.8-16.8,15.2-16.8
			c3.7,0,6.8,1.5,9,4v-3.5h9.3V117H215.9z M215.8,100.7c0-4.7-3.3-7.8-7.3-7.8c-4,0-7.3,3.2-7.3,7.8c0,4.7,3.3,8,7.3,8
			C212.5,108.6,215.8,105.3,215.8,100.7z"/>
		<path fill="#FFFFFF" d="M250,117V97.2c0-3.4-2.2-4.8-4.5-4.8c-2.4,0-4.8,1.5-4.8,4.6v20h-9.6V84.4h9.3v4.1c1-1.9,3.9-4.6,8.6-4.6
			c6.6,0,10.6,4.1,10.6,11.3V117H250z"/>
		<path fill="#FFFFFF" d="M264.8,76.1c0-2.8,2.4-5.3,5.2-5.3c2.8,0,5.2,2.5,5.2,5.3c0,2.8-2.4,5.3-5.2,5.3
			C267.2,81.4,264.8,78.9,264.8,76.1z M265.1,117V84.4h9.6V117H265.1z"/>
		<path fill="#FFFFFF" d="M303.1,117v-3.7c-2.3,2.7-5.4,4.3-9.3,4.3c-8.4,0-15-7.2-15-16.9c0-9.6,6.8-16.8,15.2-16.8
			c3.7,0,6.8,1.5,9,4v-3.5h9.3V117H303.1z M303,100.7c0-4.7-3.3-7.8-7.3-7.8c-4,0-7.3,3.2-7.3,7.8c0,4.7,3.3,8,7.3,8
			C299.7,108.6,303,105.3,303,100.7z"/>
	</g>
</g>
</svg>
