<?xml version="1.0" encoding="UTF-8" standalone="no"?>
<svg
   xmlns:svg="http://www.w3.org/2000/svg"
   xmlns="http://www.w3.org/2000/svg"
   version="1.1"
   id="svg3508"
   viewBox="0 0 510.00001 113.75"
   height="113.75"
   width="510">
  <defs
     id="defs3510" />
  <g
     transform="translate(-96.42859,-312.63006)"
     id="layer1">
    <path
       d="m 530.59109,393.24756 c -3.1388,0 -5.4238,-1.965 -5.4238,-5.5825 l 0,-38.9275 c 0,-3.615 2.285,-5.58125 5.4238,-5.58125 3.1375,0 5.4275,1.96625 5.4275,5.58125 l 0,34.56625 20.365,0 c 2.8712,0 4.9475,1.96875 4.9475,5 0,2.9225 -2.0763,4.94375 -4.9475,4.94375 l -25.7925,0 z m -50.6288,0 c -3.1337,0 -5.4237,-1.965 -5.4237,-5.5825 l 0,-38.9275 c 0,-3.615 2.29,-5.58125 5.4237,-5.58125 3.1425,0 5.4225,1.96625 5.4225,5.58125 l 0,34.56625 20.3175,0 c 2.8738,0 4.9438,1.96875 4.9438,5 0,2.9225 -2.07,4.94375 -4.9438,4.94375 l -25.74,0 z m -327.8512,-44.1375 c 0,-3.615 2.1775,-5.58375 5.3162,-5.58375 l 17.3375,0 c 6.3288,0 11.2225,1.8075 14.5188,5.0525 2.7112,2.76625 4.2525,6.7 4.2525,11.38 l 0,0.105 c 0,7.81875 -3.935,12.6575 -9.945,15.15875 l 7.5,9.0925 c 1.0637,1.33125 1.86,2.3925 1.86,4.09625 0,3.03 -2.765,5.26375 -5.53,5.26375 -2.4475,0 -3.7763,-1.22375 -5.0513,-2.8725 l -10.635,-13.4575 -8.7762,0 0,10.745 c 0,3.61625 -2.2863,5.585 -5.4238,5.585 -3.1387,0 -5.4237,-1.96875 -5.4237,-5.585 l 0,-38.98 z m 216.2812,-5.58375 c 5.6388,0 10.1588,1.59625 13.0313,4.46875 2.235,2.2325 3.3462,5.105 3.3462,8.40125 0,5.74125 -2.9737,8.88 -6.54,10.84875 5.7438,2.17875 9.3063,5.5275 9.3063,12.22625 0,9.25625 -7.3875,13.77625 -18.6125,13.77625 l -18.1875,0 c -3.135,0 -5.4238,-1.965 -5.4238,-5.5825 l 0,-38.555 c 0,-3.615 2.2888,-5.58375 5.4238,-5.58375 l 17.6562,0 z m -44.4075,44.56375 c 0,3.61625 -2.2825,5.585 -5.4225,5.585 -3.1362,0 -5.4237,-1.96875 -5.4237,-5.585 l 0,-24.67375 -9.5725,14.78 c -1.1175,1.70375 -2.5513,2.77 -4.52,2.77 -2.0213,0 -3.4563,-1.06625 -4.575,-2.77 l -9.41,-14.5675 0,24.46125 c 0,3.61625 -2.2888,5.585 -5.4263,5.585 -3.1375,0 -5.4237,-1.96875 -5.4237,-5.585 l 0,-39.77625 c 0,-3.45625 3.0312,-5.10625 5.9025,-5.10625 2.7125,0 4.6825,1.01125 6.0112,3.19125 l 13.0288,21.21875 13.0275,-21.21875 c 1.33,-2.18 3.1912,-3.19125 5.9037,-3.19125 2.87,0 5.9,1.65 5.9,5.10625 l 0,39.77625 z m 256.1725,33.29 c 14.8888,0 21.2713,-6.38375 21.2713,-21.27125 l 0,-61.20875 c 0,-14.89 -6.3825,-21.27 -21.2713,-21.27 l -105.6187,0 -45.68,54.985 -1.7038,-0.8 4.2538,-18.8225 c -0.6875,-0.16125 -1.3813,-0.2125 -2.1275,-0.2125 -8.825,0 -14.9388,6.965 -14.9388,15.475 l 0,0.15875 c 0,8.5075 6.275,15.57875 15.0463,15.57875 8.8275,0 14.8925,-6.91375 14.8925,-15.42 l 0,-0.15875 c 0,-1.595 -0.2125,-3.1375 -0.6425,-4.5175 l 9.3075,-7.34 c 1.755,3.5075 2.77,7.4975 2.77,11.69875 l 0,0.15875 c 0,14.09375 -11.1175,25.685 -26.435,25.685 -15.3675,0 -26.32,-11.43375 -26.32,-25.52625 l 0,-0.15875 c 0,-14.14375 11.11,-25.685 26.4275,-25.685 1.4887,0 2.9287,0.1075 4.3062,0.26625 l 5.8525,-25.365 -316.8462,0 c -14.89,0 -21.2725,6.38 -21.2725,21.27 l 0,61.20875 c 0,14.8875 6.3825,21.27125 21.2725,21.27125 l 457.4562,0 z m -336.4725,-39.30125 -21.855,0 -3.4562,8.1925 c -0.9063,2.18 -2.6075,3.40375 -4.84,3.40375 -2.8725,0 -5.265,-2.12625 -5.265,-4.99875 0,-0.79625 0.265,-1.705 0.6362,-2.5 l 17.3375,-39.0875 c 1.2225,-2.71125 3.35,-4.30875 6.6463,-4.30875 3.2987,0 5.48,1.5975 6.7025,4.30875 l 17.2825,39.0875 c 0.3725,0.795 0.6375,1.70375 0.6375,2.5 0,2.8725 -2.4438,4.99875 -5.3688,4.99875 -2.2887,0 -4.0412,-1.22375 -4.9475,-3.40375 l -3.51,-8.1925 z m -17.8137,-9.62375 13.7725,0 -6.9138,-16.43125 -6.8587,16.43125 z m 148,-14.03875 c 0,-3.5075 -2.5,-5.265 -7.1263,-5.265 l -10.7962,0 0,10.4775 10.1025,0 c 4.8412,0 7.82,-1.5425 7.82,-5.2125 m -200.0125,-4.9975 -10.9,0 0,14.2525 11.115,0 c 5.3187,0 8.3487,-2.82 8.3487,-7.02125 l 0,-0.16 c 0,-4.6775 -3.2437,-7.07125 -8.5637,-7.07125 m 194.6925,19.3025 -12.6025,0 0,10.90375 12.975,0 c 4.8425,0 7.765,-1.70375 7.765,-5.37125 0,-3.51125 -2.5,-5.5325 -8.1375,-5.5325"
       style="fill:#009de0;fill-opacity:1;fill-rule:nonzero;stroke:none"
       id="path22" />
  </g>
</svg>
