<?xml version="1.0" encoding="UTF-8"?>
<svg id="Layer_1" data-name="Layer 1" xmlns="http://www.w3.org/2000/svg" width="600" height="500" viewBox="0 0 600 500">
  <defs>
    <style>
      .cls-1 {
        fill: #d27657;
      }

      .cls-2 {
        fill: #f0e3bb;
      }

      .cls-3 {
        fill: #e2e2e2;
      }

      .cls-4 {
        fill: #adcdc7;
      }

      .cls-5 {
        fill: #e1c676;
      }

      .cls-6 {
        fill: #333;
      }

      .cls-7 {
        fill: #324651;
      }

      .cls-8 {
        stroke-dasharray: 0 0 5.38 8.97;
      }

      .cls-8, .cls-9, .cls-10, .cls-11, .cls-12, .cls-13, .cls-14 {
        fill: none;
      }

      .cls-8, .cls-9, .cls-10, .cls-11, .cls-13 {
        stroke: #333;
        stroke-width: 2px;
      }

      .cls-8, .cls-9, .cls-11, .cls-13, .cls-15, .cls-14 {
        stroke-linecap: round;
        stroke-linejoin: round;
      }

      .cls-16 {
        fill: #f7f7f6;
      }

      .cls-9 {
        stroke-dasharray: 0 0 5.98 9.96;
      }

      .cls-17 {
        fill: #5a9a8f;
      }

      .cls-10, .cls-12 {
        stroke-miterlimit: 10;
      }

      .cls-18 {
        fill: #e9d498;
      }

      .cls-11 {
        stroke-dasharray: 0 0 5 10;
      }

      .cls-19 {
        fill: #c7bfcb;
      }

      .cls-20 {
        fill: #8f7e96;
      }

      .cls-12 {
        stroke: #f7f7f6;
        stroke-width: 2.13px;
      }

      .cls-21 {
        fill: #e9bbab;
      }

      .cls-15 {
        stroke-width: 3px;
      }

      .cls-15, .cls-14 {
        stroke: #324651;
      }

      .cls-15, .cls-22 {
        fill: #99a3a8;
      }

      .cls-14 {
        stroke-width: 1.5px;
      }
    </style>
  </defs>
  <line class="cls-10" x1="238.15" y1="337.47" x2="282.32" y2="337.47"/>
  <line class="cls-10" x1="104.3" y1="337.47" x2="148.47" y2="337.47"/>
  <line class="cls-10" x1="104.3" y1="259.53" x2="148.47" y2="259.53"/>
  <line class="cls-10" x1="104.3" y1="109.21" x2="148.47" y2="109.21"/>
  <line class="cls-10" x1="483.45" y1="259.09" x2="527.62" y2="259.09"/>
  <line class="cls-10" x1="104.3" y1="417.55" x2="148.47" y2="417.55"/>
  <path class="cls-11" d="m376.27,187.57c27,0,7.98,72,34.98,72"/>
  <path class="cls-10" d="m372.25,337.57c27,0,12-78,39-78"/>
  <polygon class="cls-7" points="86.25 102.57 86.25 126.57 14.25 126.57 14.25 90.57 86.25 90.57 86.25 102.57"/>
  <g>
    <g>
      <path class="cls-22" d="m103.13,108.57c0,4.01-1.3,7.7-3.52,10.69-.75-4.84-3.86-8.9-8.12-10.94.9-1.27,1.43-2.82,1.43-4.5,0-4.31-3.49-7.8-7.79-7.8s-7.8,3.49-7.8,7.8c0,1.68.53,3.23,1.43,4.5-4.26,2.05-7.37,6.1-8.12,10.94-2.21-2.99-3.51-6.68-3.51-10.69,0-9.94,8.06-18,18-18s18,8.06,18,18Z"/>
      <path class="cls-7" d="m99.61,119.26h-28.97c.75-4.84,3.86-8.9,8.12-10.94,1.42,1.99,3.74,3.29,6.37,3.29s4.94-1.3,6.36-3.29c4.26,2.05,7.37,6.1,8.12,10.94Z"/>
      <path class="cls-7" d="m70.64,119.26h28.97c-3.27,4.43-8.54,7.31-14.48,7.31s-11.22-2.88-14.49-7.31Z"/>
      <path class="cls-7" d="m92.92,103.81c0,1.68-.53,3.23-1.43,4.5-1.92-.94-4.08-1.46-6.36-1.46s-4.44.52-6.37,1.46c-.9-1.27-1.43-2.82-1.43-4.5,0-4.31,3.49-7.8,7.8-7.8s7.79,3.49,7.79,7.8Z"/>
      <path class="cls-7" d="m91.49,108.32c-1.42,1.99-3.74,3.29-6.36,3.29s-4.95-1.3-6.37-3.29c1.93-.94,4.09-1.46,6.37-1.46s4.44.52,6.36,1.46Z"/>
    </g>
    <g>
      <path class="cls-12" d="m70.64,119.26c-2.21-2.99-3.51-6.68-3.51-10.69,0-9.94,8.06-18,18-18s18,8.06,18,18c0,4.01-1.3,7.7-3.52,10.69-3.27,4.43-8.54,7.31-14.48,7.31s-11.22-2.88-14.49-7.31Z"/>
      <path class="cls-12" d="m91.49,108.32c4.26,2.05,7.37,6.1,8.12,10.94"/>
      <path class="cls-12" d="m70.64,119.26c.75-4.84,3.86-8.9,8.12-10.94"/>
      <path class="cls-12" d="m91.49,108.32c.9-1.27,1.43-2.82,1.43-4.5,0-4.31-3.49-7.8-7.79-7.8s-7.8,3.49-7.8,7.8c0,1.68.53,3.23,1.43,4.5,1.42,1.99,3.74,3.29,6.37,3.29s4.94-1.3,6.36-3.29Z"/>
    </g>
  </g>
  <rect class="cls-16" x="23.25" y="99.57" width="27" height="6.75"/>
  <rect class="cls-16" x="23.25" y="110.82" width="36" height="6.75"/>
  <polygon class="cls-7" points="220.25 102.57 220.25 126.57 148.25 126.57 148.25 90.57 220.25 90.57 220.25 102.57"/>
  <g>
    <g>
      <path class="cls-22" d="m237.13,108.57c0,4.01-1.3,7.7-3.52,10.69-.75-4.84-3.86-8.9-8.12-10.94.9-1.27,1.43-2.82,1.43-4.5,0-4.31-3.49-7.8-7.79-7.8s-7.8,3.49-7.8,7.8c0,1.68.53,3.23,1.43,4.5-4.26,2.05-7.37,6.1-8.12,10.94-2.21-2.99-3.51-6.68-3.51-10.69,0-9.94,8.06-18,18-18s18,8.06,18,18Z"/>
      <path class="cls-7" d="m233.61,119.26h-28.97c.75-4.84,3.86-8.9,8.12-10.94,1.42,1.99,3.74,3.29,6.37,3.29s4.94-1.3,6.36-3.29c4.26,2.05,7.37,6.1,8.12,10.94Z"/>
      <path class="cls-7" d="m204.64,119.26h28.97c-3.27,4.43-8.54,7.31-14.48,7.31s-11.22-2.88-14.49-7.31Z"/>
      <path class="cls-7" d="m226.92,103.81c0,1.68-.53,3.23-1.43,4.5-1.92-.94-4.08-1.46-6.36-1.46s-4.44.52-6.37,1.46c-.9-1.27-1.43-2.82-1.43-4.5,0-4.31,3.49-7.8,7.8-7.8s7.79,3.49,7.79,7.8Z"/>
      <path class="cls-7" d="m225.49,108.32c-1.42,1.99-3.74,3.29-6.36,3.29s-4.95-1.3-6.37-3.29c1.93-.94,4.09-1.46,6.37-1.46s4.44.52,6.36,1.46Z"/>
    </g>
    <g>
      <path class="cls-12" d="m204.64,119.26c-2.21-2.99-3.51-6.68-3.51-10.69,0-9.94,8.06-18,18-18s18,8.06,18,18c0,4.01-1.3,7.7-3.52,10.69-3.27,4.43-8.54,7.31-14.48,7.31s-11.22-2.88-14.49-7.31Z"/>
      <path class="cls-12" d="m225.49,108.32c4.26,2.05,7.37,6.1,8.12,10.94"/>
      <path class="cls-12" d="m204.64,119.26c.75-4.84,3.86-8.9,8.12-10.94"/>
      <path class="cls-12" d="m225.49,108.32c.9-1.27,1.43-2.82,1.43-4.5,0-4.31-3.49-7.8-7.79-7.8s-7.8,3.49-7.8,7.8c0,1.68.53,3.23,1.43,4.5,1.42,1.99,3.74,3.29,6.37,3.29s4.94-1.3,6.36-3.29Z"/>
    </g>
  </g>
  <rect class="cls-16" x="157.25" y="99.57" width="27" height="6.75"/>
  <rect class="cls-16" x="157.25" y="110.82" width="36" height="6.75"/>
  <polygon class="cls-7" points="354.25 181.57 354.25 205.57 282.25 205.57 282.25 169.57 354.25 169.57 354.25 181.57"/>
  <g>
    <g>
      <path class="cls-22" d="m371.13,187.57c0,4.01-1.3,7.7-3.52,10.69-.75-4.84-3.86-8.9-8.12-10.94.9-1.27,1.43-2.82,1.43-4.5,0-4.31-3.49-7.8-7.79-7.8s-7.8,3.49-7.8,7.8c0,1.68.53,3.23,1.43,4.5-4.26,2.05-7.37,6.1-8.12,10.94-2.21-2.99-3.51-6.68-3.51-10.69,0-9.94,8.06-18,18-18s18,8.06,18,18Z"/>
      <path class="cls-7" d="m367.61,198.26h-28.97c.75-4.84,3.86-8.9,8.12-10.94,1.42,1.99,3.74,3.29,6.37,3.29s4.94-1.3,6.36-3.29c4.26,2.05,7.37,6.1,8.12,10.94Z"/>
      <path class="cls-7" d="m338.64,198.26h28.97c-3.27,4.43-8.54,7.31-14.48,7.31s-11.22-2.88-14.49-7.31Z"/>
      <path class="cls-7" d="m360.92,182.81c0,1.68-.53,3.23-1.43,4.5-1.92-.94-4.08-1.46-6.36-1.46s-4.44.52-6.37,1.46c-.9-1.27-1.43-2.82-1.43-4.5,0-4.31,3.49-7.8,7.8-7.8s7.79,3.49,7.79,7.8Z"/>
      <path class="cls-7" d="m359.49,187.32c-1.42,1.99-3.74,3.29-6.36,3.29s-4.95-1.3-6.37-3.29c1.93-.94,4.09-1.46,6.37-1.46s4.44.52,6.36,1.46Z"/>
    </g>
    <g>
      <path class="cls-12" d="m338.64,198.26c-2.21-2.99-3.51-6.68-3.51-10.69,0-9.94,8.06-18,18-18s18,8.06,18,18c0,4.01-1.3,7.7-3.52,10.69-3.27,4.43-8.54,7.31-14.48,7.31s-11.22-2.88-14.49-7.31Z"/>
      <path class="cls-12" d="m359.49,187.32c4.26,2.05,7.37,6.1,8.12,10.94"/>
      <path class="cls-12" d="m338.64,198.26c.75-4.84,3.86-8.9,8.12-10.94"/>
      <path class="cls-12" d="m359.49,187.32c.9-1.27,1.43-2.82,1.43-4.5,0-4.31-3.49-7.8-7.79-7.8s-7.8,3.49-7.8,7.8c0,1.68.53,3.23,1.43,4.5,1.42,1.99,3.74,3.29,6.37,3.29s4.94-1.3,6.36-3.29Z"/>
    </g>
  </g>
  <g>
    <polyline class="cls-13" points="280.52 209.4 277.52 209.4 277.52 206.4"/>
    <line class="cls-8" x1="277.52" y1="197.44" x2="277.52" y2="173.23"/>
    <polyline class="cls-13" points="277.52 168.74 277.52 165.74 280.52 165.74"/>
    <path class="cls-9" d="m290.49,165.74h65.78l1.24.05c10.45.7,18.75,10.19,18.75,21.78,0,4.85-1.46,9.34-3.91,12.95-3.41,5.04-8.75,8.43-14.84,8.84l-1.24.04h-70.77"/>
  </g>
  <rect class="cls-16" x="291.25" y="178.57" width="27" height="6.75"/>
  <rect class="cls-16" x="291.25" y="189.82" width="36" height="6.75"/>
  <polygon class="cls-7" points="483.25 253.57 483.25 277.57 411.25 277.57 411.25 241.57 483.25 241.57 483.25 253.57"/>
  <rect class="cls-16" x="420.25" y="250.57" width="27" height="6.75"/>
  <rect class="cls-16" x="420.25" y="261.82" width="36" height="6.75"/>
  <polygon class="cls-17" points="86.25 174.57 86.25 198.57 14.25 198.57 14.25 162.57 86.25 162.57 86.25 174.57"/>
  <g>
    <g>
      <path class="cls-4" d="m103.13,180.57c0,4.01-1.3,7.7-3.52,10.69-.75-4.84-3.86-8.9-8.12-10.94.9-1.27,1.43-2.82,1.43-4.5,0-4.31-3.49-7.8-7.79-7.8s-7.8,3.49-7.8,7.8c0,1.68.53,3.23,1.43,4.5-4.26,2.05-7.37,6.1-8.12,10.94-2.21-2.99-3.51-6.68-3.51-10.69,0-9.94,8.06-18,18-18s18,8.06,18,18Z"/>
      <path class="cls-17" d="m99.61,191.26h-28.97c.75-4.84,3.86-8.9,8.12-10.94,1.42,1.99,3.74,3.29,6.37,3.29s4.94-1.3,6.36-3.29c4.26,2.05,7.37,6.1,8.12,10.94Z"/>
      <path class="cls-17" d="m70.64,191.26h28.97c-3.27,4.43-8.54,7.31-14.48,7.31s-11.22-2.88-14.49-7.31Z"/>
      <path class="cls-17" d="m92.92,175.81c0,1.68-.53,3.23-1.43,4.5-1.92-.94-4.08-1.46-6.36-1.46s-4.44.52-6.37,1.46c-.9-1.27-1.43-2.82-1.43-4.5,0-4.31,3.49-7.8,7.8-7.8s7.79,3.49,7.79,7.8Z"/>
      <path class="cls-17" d="m91.49,180.32c-1.42,1.99-3.74,3.29-6.36,3.29s-4.95-1.3-6.37-3.29c1.93-.94,4.09-1.46,6.37-1.46s4.44.52,6.36,1.46Z"/>
    </g>
    <g>
      <path class="cls-12" d="m70.64,191.26c-2.21-2.99-3.51-6.68-3.51-10.69,0-9.94,8.06-18,18-18s18,8.06,18,18c0,4.01-1.3,7.7-3.52,10.69-3.27,4.43-8.54,7.31-14.48,7.31s-11.22-2.88-14.49-7.31Z"/>
      <path class="cls-12" d="m91.49,180.32c4.26,2.05,7.37,6.1,8.12,10.94"/>
      <path class="cls-12" d="m70.64,191.26c.75-4.84,3.86-8.9,8.12-10.94"/>
      <path class="cls-12" d="m91.49,180.32c.9-1.27,1.43-2.82,1.43-4.5,0-4.31-3.49-7.8-7.79-7.8s-7.8,3.49-7.8,7.8c0,1.68.53,3.23,1.43,4.5,1.42,1.99,3.74,3.29,6.37,3.29s4.94-1.3,6.36-3.29Z"/>
    </g>
  </g>
  <rect class="cls-16" x="23.25" y="171.57" width="27" height="6.75"/>
  <rect class="cls-16" x="23.25" y="182.82" width="36" height="6.75"/>
  <polygon class="cls-18" points="86.25 253.57 86.25 277.57 14.25 277.57 14.25 241.57 86.25 241.57 86.25 253.57"/>
  <g>
    <g>
      <path class="cls-2" d="m103.13,259.57c0,4.01-1.3,7.7-3.52,10.69-.75-4.84-3.86-8.9-8.12-10.94.9-1.27,1.43-2.82,1.43-4.5,0-4.31-3.49-7.8-7.79-7.8s-7.8,3.49-7.8,7.8c0,1.68.53,3.23,1.43,4.5-4.26,2.05-7.37,6.1-8.12,10.94-2.21-2.99-3.51-6.68-3.51-10.69,0-9.94,8.06-18,18-18s18,8.06,18,18Z"/>
      <path class="cls-5" d="m99.61,270.26h-28.97c.75-4.84,3.86-8.9,8.12-10.94,1.42,1.99,3.74,3.29,6.37,3.29s4.94-1.3,6.36-3.29c4.26,2.05,7.37,6.1,8.12,10.94Z"/>
      <path class="cls-5" d="m70.64,270.26h28.97c-3.27,4.43-8.54,7.31-14.48,7.31s-11.22-2.88-14.49-7.31Z"/>
      <path class="cls-5" d="m92.92,254.81c0,1.68-.53,3.23-1.43,4.5-1.92-.94-4.08-1.46-6.36-1.46s-4.44.52-6.37,1.46c-.9-1.27-1.43-2.82-1.43-4.5,0-4.31,3.49-7.8,7.8-7.8s7.79,3.49,7.79,7.8Z"/>
      <path class="cls-5" d="m91.49,259.32c-1.42,1.99-3.74,3.29-6.36,3.29s-4.95-1.3-6.37-3.29c1.93-.94,4.09-1.46,6.37-1.46s4.44.52,6.36,1.46Z"/>
    </g>
    <g>
      <path class="cls-12" d="m70.64,270.26c-2.21-2.99-3.51-6.68-3.51-10.69,0-9.94,8.06-18,18-18s18,8.06,18,18c0,4.01-1.3,7.7-3.52,10.69-3.27,4.43-8.54,7.31-14.48,7.31s-11.22-2.88-14.49-7.31Z"/>
      <path class="cls-12" d="m91.49,259.32c4.26,2.05,7.37,6.1,8.12,10.94"/>
      <path class="cls-12" d="m70.64,270.26c.75-4.84,3.86-8.9,8.12-10.94"/>
      <path class="cls-12" d="m91.49,259.32c.9-1.27,1.43-2.82,1.43-4.5,0-4.31-3.49-7.8-7.79-7.8s-7.8,3.49-7.8,7.8c0,1.68.53,3.23,1.43,4.5,1.42,1.99,3.74,3.29,6.37,3.29s4.94-1.3,6.36-3.29Z"/>
    </g>
  </g>
  <rect class="cls-16" x="23.25" y="250.57" width="27" height="6.75"/>
  <rect class="cls-16" x="23.25" y="261.82" width="36" height="6.75"/>
  <polygon class="cls-17" points="220.25 253.57 220.25 277.57 148.25 277.57 148.25 241.57 220.25 241.57 220.25 253.57"/>
  <g>
    <g>
      <path class="cls-4" d="m237.13,259.57c0,4.01-1.3,7.7-3.52,10.69-.75-4.84-3.86-8.9-8.12-10.94.9-1.27,1.43-2.82,1.43-4.5,0-4.31-3.49-7.8-7.79-7.8s-7.8,3.49-7.8,7.8c0,1.68.53,3.23,1.43,4.5-4.26,2.05-7.37,6.1-8.12,10.94-2.21-2.99-3.51-6.68-3.51-10.69,0-9.94,8.06-18,18-18s18,8.06,18,18Z"/>
      <path class="cls-17" d="m233.61,270.26h-28.97c.75-4.84,3.86-8.9,8.12-10.94,1.42,1.99,3.74,3.29,6.37,3.29s4.94-1.3,6.36-3.29c4.26,2.05,7.37,6.1,8.12,10.94Z"/>
      <path class="cls-17" d="m204.64,270.26h28.97c-3.27,4.43-8.54,7.31-14.48,7.31s-11.22-2.88-14.49-7.31Z"/>
      <path class="cls-17" d="m226.92,254.81c0,1.68-.53,3.23-1.43,4.5-1.92-.94-4.08-1.46-6.36-1.46s-4.44.52-6.37,1.46c-.9-1.27-1.43-2.82-1.43-4.5,0-4.31,3.49-7.8,7.8-7.8s7.79,3.49,7.79,7.8Z"/>
      <path class="cls-17" d="m225.49,259.32c-1.42,1.99-3.74,3.29-6.36,3.29s-4.95-1.3-6.37-3.29c1.93-.94,4.09-1.46,6.37-1.46s4.44.52,6.36,1.46Z"/>
    </g>
    <g>
      <path class="cls-12" d="m204.64,270.26c-2.21-2.99-3.51-6.68-3.51-10.69,0-9.94,8.06-18,18-18s18,8.06,18,18c0,4.01-1.3,7.7-3.52,10.69-3.27,4.43-8.54,7.31-14.48,7.31s-11.22-2.88-14.49-7.31Z"/>
      <path class="cls-12" d="m225.49,259.32c4.26,2.05,7.37,6.1,8.12,10.94"/>
      <path class="cls-12" d="m204.64,270.26c.75-4.84,3.86-8.9,8.12-10.94"/>
      <path class="cls-12" d="m225.49,259.32c.9-1.27,1.43-2.82,1.43-4.5,0-4.31-3.49-7.8-7.79-7.8s-7.8,3.49-7.8,7.8c0,1.68.53,3.23,1.43,4.5,1.42,1.99,3.74,3.29,6.37,3.29s4.94-1.3,6.36-3.29Z"/>
    </g>
  </g>
  <rect class="cls-16" x="157.25" y="250.57" width="27" height="6.75"/>
  <rect class="cls-16" x="157.25" y="261.82" width="36" height="6.75"/>
  <polygon class="cls-1" points="220.25 331.57 220.25 355.57 148.25 355.57 148.25 319.57 220.25 319.57 220.25 331.57"/>
  <g>
    <g>
      <path class="cls-21" d="m237.13,337.57c0,4.01-1.3,7.7-3.52,10.69-.75-4.84-3.86-8.9-8.12-10.94.9-1.27,1.43-2.82,1.43-4.5,0-4.31-3.49-7.8-7.79-7.8s-7.8,3.49-7.8,7.8c0,1.68.53,3.23,1.43,4.5-4.26,2.05-7.37,6.1-8.12,10.94-2.21-2.99-3.51-6.68-3.51-10.69,0-9.94,8.06-18,18-18s18,8.06,18,18Z"/>
      <path class="cls-1" d="m233.61,348.26h-28.97c.75-4.84,3.86-8.9,8.12-10.94,1.42,1.99,3.74,3.29,6.37,3.29s4.94-1.3,6.36-3.29c4.26,2.05,7.37,6.1,8.12,10.94Z"/>
      <path class="cls-1" d="m204.64,348.26h28.97c-3.27,4.43-8.54,7.31-14.48,7.31s-11.22-2.88-14.49-7.31Z"/>
      <path class="cls-1" d="m226.92,332.81c0,1.68-.53,3.23-1.43,4.5-1.92-.94-4.08-1.46-6.36-1.46s-4.44.52-6.37,1.46c-.9-1.27-1.43-2.82-1.43-4.5,0-4.31,3.49-7.8,7.8-7.8s7.79,3.49,7.79,7.8Z"/>
      <path class="cls-1" d="m225.49,337.32c-1.42,1.99-3.74,3.29-6.36,3.29s-4.95-1.3-6.37-3.29c1.93-.94,4.09-1.46,6.37-1.46s4.44.52,6.36,1.46Z"/>
    </g>
    <g>
      <path class="cls-12" d="m204.64,348.26c-2.21-2.99-3.51-6.68-3.51-10.69,0-9.94,8.06-18,18-18s18,8.06,18,18c0,4.01-1.3,7.7-3.52,10.69-3.27,4.43-8.54,7.31-14.48,7.31s-11.22-2.88-14.49-7.31Z"/>
      <path class="cls-12" d="m225.49,337.32c4.26,2.05,7.37,6.1,8.12,10.94"/>
      <path class="cls-12" d="m204.64,348.26c.75-4.84,3.86-8.9,8.12-10.94"/>
      <path class="cls-12" d="m225.49,337.32c.9-1.27,1.43-2.82,1.43-4.5,0-4.31-3.49-7.8-7.79-7.8s-7.8,3.49-7.8,7.8c0,1.68.53,3.23,1.43,4.5,1.42,1.99,3.74,3.29,6.37,3.29s4.94-1.3,6.36-3.29Z"/>
    </g>
  </g>
  <rect class="cls-16" x="157.25" y="328.57" width="27" height="6.75"/>
  <rect class="cls-16" x="157.25" y="339.82" width="36" height="6.75"/>
  <polygon class="cls-1" points="354.25 331.57 354.25 355.57 282.25 355.57 282.25 319.57 354.25 319.57 354.25 331.57"/>
  <g>
    <g>
      <path class="cls-21" d="m371.13,337.57c0,4.01-1.3,7.7-3.52,10.69-.75-4.84-3.86-8.9-8.12-10.94.9-1.27,1.43-2.82,1.43-4.5,0-4.31-3.49-7.8-7.79-7.8s-7.8,3.49-7.8,7.8c0,1.68.53,3.23,1.43,4.5-4.26,2.05-7.37,6.1-8.12,10.94-2.21-2.99-3.51-6.68-3.51-10.69,0-9.94,8.06-18,18-18s18,8.06,18,18Z"/>
      <path class="cls-1" d="m367.61,348.26h-28.97c.75-4.84,3.86-8.9,8.12-10.94,1.42,1.99,3.74,3.29,6.37,3.29s4.94-1.3,6.36-3.29c4.26,2.05,7.37,6.1,8.12,10.94Z"/>
      <path class="cls-1" d="m338.64,348.26h28.97c-3.27,4.43-8.54,7.31-14.48,7.31s-11.22-2.88-14.49-7.31Z"/>
      <path class="cls-1" d="m360.92,332.81c0,1.68-.53,3.23-1.43,4.5-1.92-.94-4.08-1.46-6.36-1.46s-4.44.52-6.37,1.46c-.9-1.27-1.43-2.82-1.43-4.5,0-4.31,3.49-7.8,7.8-7.8s7.79,3.49,7.79,7.8Z"/>
      <path class="cls-1" d="m359.49,337.32c-1.42,1.99-3.74,3.29-6.36,3.29s-4.95-1.3-6.37-3.29c1.93-.94,4.09-1.46,6.37-1.46s4.44.52,6.36,1.46Z"/>
    </g>
    <g>
      <path class="cls-12" d="m338.64,348.26c-2.21-2.99-3.51-6.68-3.51-10.69,0-9.94,8.06-18,18-18s18,8.06,18,18c0,4.01-1.3,7.7-3.52,10.69-3.27,4.43-8.54,7.31-14.48,7.31s-11.22-2.88-14.49-7.31Z"/>
      <path class="cls-12" d="m359.49,337.32c4.26,2.05,7.37,6.1,8.12,10.94"/>
      <path class="cls-12" d="m338.64,348.26c.75-4.84,3.86-8.9,8.12-10.94"/>
      <path class="cls-12" d="m359.49,337.32c.9-1.27,1.43-2.82,1.43-4.5,0-4.31-3.49-7.8-7.79-7.8s-7.8,3.49-7.8,7.8c0,1.68.53,3.23,1.43,4.5,1.42,1.99,3.74,3.29,6.37,3.29s4.94-1.3,6.36-3.29Z"/>
    </g>
  </g>
  <rect class="cls-16" x="291.25" y="328.57" width="27" height="6.75"/>
  <rect class="cls-16" x="291.25" y="339.82" width="36" height="6.75"/>
  <polygon class="cls-20" points="220.25 410.57 220.25 434.57 148.25 434.57 148.25 398.57 220.25 398.57 220.25 410.57"/>
  <g>
    <g>
      <path class="cls-19" d="m237.13,416.57c0,4.01-1.3,7.7-3.52,10.69-.75-4.84-3.86-8.9-8.12-10.94.9-1.27,1.43-2.82,1.43-4.5,0-4.31-3.49-7.8-7.79-7.8s-7.8,3.49-7.8,7.8c0,1.68.53,3.23,1.43,4.5-4.26,2.05-7.37,6.1-8.12,10.94-2.21-2.99-3.51-6.68-3.51-10.69,0-9.94,8.06-18,18-18s18,8.06,18,18Z"/>
      <path class="cls-20" d="m233.61,427.26h-28.97c.75-4.84,3.86-8.9,8.12-10.94,1.42,1.99,3.74,3.29,6.37,3.29s4.94-1.3,6.36-3.29c4.26,2.05,7.37,6.1,8.12,10.94Z"/>
      <path class="cls-20" d="m204.64,427.26h28.97c-3.27,4.43-8.54,7.31-14.48,7.31s-11.22-2.88-14.49-7.31Z"/>
      <path class="cls-20" d="m226.92,411.81c0,1.68-.53,3.23-1.43,4.5-1.92-.94-4.08-1.46-6.36-1.46s-4.44.52-6.37,1.46c-.9-1.27-1.43-2.82-1.43-4.5,0-4.31,3.49-7.8,7.8-7.8s7.79,3.49,7.79,7.8Z"/>
      <path class="cls-20" d="m225.49,416.32c-1.42,1.99-3.74,3.29-6.36,3.29s-4.95-1.3-6.37-3.29c1.93-.94,4.09-1.46,6.37-1.46s4.44.52,6.36,1.46Z"/>
    </g>
    <g>
      <path class="cls-12" d="m204.64,427.26c-2.21-2.99-3.51-6.68-3.51-10.69,0-9.94,8.06-18,18-18s18,8.06,18,18c0,4.01-1.3,7.7-3.52,10.69-3.27,4.43-8.54,7.31-14.48,7.31s-11.22-2.88-14.49-7.31Z"/>
      <path class="cls-12" d="m225.49,416.32c4.26,2.05,7.37,6.1,8.12,10.94"/>
      <path class="cls-12" d="m204.64,427.26c.75-4.84,3.86-8.9,8.12-10.94"/>
      <path class="cls-12" d="m225.49,416.32c.9-1.27,1.43-2.82,1.43-4.5,0-4.31-3.49-7.8-7.79-7.8s-7.8,3.49-7.8,7.8c0,1.68.53,3.23,1.43,4.5,1.42,1.99,3.74,3.29,6.37,3.29s4.94-1.3,6.36-3.29Z"/>
    </g>
  </g>
  <rect class="cls-16" x="157.25" y="407.57" width="27" height="6.75"/>
  <rect class="cls-16" x="157.25" y="418.82" width="36" height="6.75"/>
  <polygon class="cls-1" points="86.25 331.57 86.25 355.57 14.25 355.57 14.25 319.57 86.25 319.57 86.25 331.57"/>
  <g>
    <g>
      <path class="cls-21" d="m103.13,337.57c0,4.01-1.3,7.7-3.52,10.69-.75-4.84-3.86-8.9-8.12-10.94.9-1.27,1.43-2.82,1.43-4.5,0-4.31-3.49-7.8-7.79-7.8s-7.8,3.49-7.8,7.8c0,1.68.53,3.23,1.43,4.5-4.26,2.05-7.37,6.1-8.12,10.94-2.21-2.99-3.51-6.68-3.51-10.69,0-9.94,8.06-18,18-18s18,8.06,18,18Z"/>
      <path class="cls-1" d="m99.61,348.26h-28.97c.75-4.84,3.86-8.9,8.12-10.94,1.42,1.99,3.74,3.29,6.37,3.29s4.94-1.3,6.36-3.29c4.26,2.05,7.37,6.1,8.12,10.94Z"/>
      <path class="cls-1" d="m70.64,348.26h28.97c-3.27,4.43-8.54,7.31-14.48,7.31s-11.22-2.88-14.49-7.31Z"/>
      <path class="cls-1" d="m92.92,332.81c0,1.68-.53,3.23-1.43,4.5-1.92-.94-4.08-1.46-6.36-1.46s-4.44.52-6.37,1.46c-.9-1.27-1.43-2.82-1.43-4.5,0-4.31,3.49-7.8,7.8-7.8s7.79,3.49,7.79,7.8Z"/>
      <path class="cls-1" d="m91.49,337.32c-1.42,1.99-3.74,3.29-6.36,3.29s-4.95-1.3-6.37-3.29c1.93-.94,4.09-1.46,6.37-1.46s4.44.52,6.36,1.46Z"/>
    </g>
    <g>
      <path class="cls-12" d="m70.64,348.26c-2.21-2.99-3.51-6.68-3.51-10.69,0-9.94,8.06-18,18-18s18,8.06,18,18c0,4.01-1.3,7.7-3.52,10.69-3.27,4.43-8.54,7.31-14.48,7.31s-11.22-2.88-14.49-7.31Z"/>
      <path class="cls-12" d="m91.49,337.32c4.26,2.05,7.37,6.1,8.12,10.94"/>
      <path class="cls-12" d="m70.64,348.26c.75-4.84,3.86-8.9,8.12-10.94"/>
      <path class="cls-12" d="m91.49,337.32c.9-1.27,1.43-2.82,1.43-4.5,0-4.31-3.49-7.8-7.79-7.8s-7.8,3.49-7.8,7.8c0,1.68.53,3.23,1.43,4.5,1.42,1.99,3.74,3.29,6.37,3.29s4.94-1.3,6.36-3.29Z"/>
    </g>
  </g>
  <rect class="cls-16" x="23.25" y="328.57" width="27" height="6.75"/>
  <rect class="cls-16" x="23.25" y="339.82" width="36" height="6.75"/>
  <polygon class="cls-20" points="86.25 410.57 86.25 434.57 14.25 434.57 14.25 398.57 86.25 398.57 86.25 410.57"/>
  <g>
    <g>
      <path class="cls-19" d="m103.13,416.57c0,4.01-1.3,7.7-3.52,10.69-.75-4.84-3.86-8.9-8.12-10.94.9-1.27,1.43-2.82,1.43-4.5,0-4.31-3.49-7.8-7.79-7.8s-7.8,3.49-7.8,7.8c0,1.68.53,3.23,1.43,4.5-4.26,2.05-7.37,6.1-8.12,10.94-2.21-2.99-3.51-6.68-3.51-10.69,0-9.94,8.06-18,18-18s18,8.06,18,18Z"/>
      <path class="cls-20" d="m99.61,427.26h-28.97c.75-4.84,3.86-8.9,8.12-10.94,1.42,1.99,3.74,3.29,6.37,3.29s4.94-1.3,6.36-3.29c4.26,2.05,7.37,6.1,8.12,10.94Z"/>
      <path class="cls-20" d="m70.64,427.26h28.97c-3.27,4.43-8.54,7.31-14.48,7.31s-11.22-2.88-14.49-7.31Z"/>
      <path class="cls-20" d="m92.92,411.81c0,1.68-.53,3.23-1.43,4.5-1.92-.94-4.08-1.46-6.36-1.46s-4.44.52-6.37,1.46c-.9-1.27-1.43-2.82-1.43-4.5,0-4.31,3.49-7.8,7.8-7.8s7.79,3.49,7.79,7.8Z"/>
      <path class="cls-20" d="m91.49,416.32c-1.42,1.99-3.74,3.29-6.36,3.29s-4.95-1.3-6.37-3.29c1.93-.94,4.09-1.46,6.37-1.46s4.44.52,6.36,1.46Z"/>
    </g>
    <g>
      <path class="cls-12" d="m70.64,427.26c-2.21-2.99-3.51-6.68-3.51-10.69,0-9.94,8.06-18,18-18s18,8.06,18,18c0,4.01-1.3,7.7-3.52,10.69-3.27,4.43-8.54,7.31-14.48,7.31s-11.22-2.88-14.49-7.31Z"/>
      <path class="cls-12" d="m91.49,416.32c4.26,2.05,7.37,6.1,8.12,10.94"/>
      <path class="cls-12" d="m70.64,427.26c.75-4.84,3.86-8.9,8.12-10.94"/>
      <path class="cls-12" d="m91.49,416.32c.9-1.27,1.43-2.82,1.43-4.5,0-4.31-3.49-7.8-7.79-7.8s-7.8,3.49-7.8,7.8c0,1.68.53,3.23,1.43,4.5,1.42,1.99,3.74,3.29,6.37,3.29s4.94-1.3,6.36-3.29Z"/>
    </g>
  </g>
  <rect class="cls-16" x="23.25" y="407.57" width="27" height="6.75"/>
  <rect class="cls-16" x="23.25" y="418.82" width="36" height="6.75"/>
  <path class="cls-10" d="m238.25,108.57c27,0,12.28,79,39.28,79"/>
  <path class="cls-10" d="m104.25,180.57c27,0,17,79,44,79"/>
  <path class="cls-10" d="m238.25,259.57c27,0,12.28-72,39.28-72"/>
  <path class="cls-10" d="m238.25,416.57c27,0,17-79,44-79"/>
  <rect class="cls-3" x="389.25" y="88.57" width="144" height="45"/>
  <polyline class="cls-3" points="398.25 133.57 372.25 169.57 407.25 133.57"/>
  <circle class="cls-15" cx="553.25" cy="259.57" r="36"/>
  <g>
    <g>
      <polygon class="cls-22" points="586.16 262.11 586.16 275.46 566.57 286.77 566.57 273.43 586.16 262.11"/>
      <polygon class="cls-16" points="586.16 262.11 566.57 273.43 559.73 269.48 574.54 260.92 574.54 255.4 586.16 262.11"/>
      <polygon class="cls-22" points="574.54 255.4 574.54 260.92 559.73 269.48 559.73 277.3 554.94 280.06 545.38 285.58 545.38 257.74 574.54 240.91 574.54 255.4"/>
      <polygon class="cls-16" points="574.54 240.91 545.38 257.74 539.46 254.33 568.63 237.5 574.54 240.91"/>
      <polygon class="cls-22" points="568.63 231.21 568.63 237.5 539.46 254.33 539.46 248.04 568.63 231.21"/>
      <polygon class="cls-16" points="568.63 231.21 539.46 248.04 526.25 240.41 555.41 223.57 568.63 231.21"/>
      <polygon class="cls-16" points="566.57 273.43 566.57 286.77 554.94 280.06 559.73 277.3 559.73 269.48 566.57 273.43"/>
      <polygon class="cls-16" points="545.38 257.74 545.38 285.58 543.78 284.67 539 281.9 539 287.43 526.25 280.06 526.25 240.41 539.46 248.04 539.46 254.33 545.38 257.74"/>
      <polygon class="cls-22" points="539 281.9 543.78 284.67 539 287.43 539 281.9"/>
    </g>
    <g>
      <line class="cls-14" x1="539" y1="287.43" x2="526.25" y2="280.06"/>
      <line class="cls-14" x1="539" y1="287.43" x2="543.78" y2="284.67"/>
      <line class="cls-14" x1="539" y1="287.43" x2="539" y2="281.9"/>
      <line class="cls-14" x1="566.57" y1="286.77" x2="586.16" y2="275.46"/>
      <line class="cls-14" x1="566.57" y1="286.77" x2="566.57" y2="273.43"/>
      <line class="cls-14" x1="574.54" y1="240.91" x2="568.63" y2="237.5"/>
      <line class="cls-14" x1="568.63" y1="237.5" x2="568.63" y2="231.21"/>
      <line class="cls-14" x1="568.63" y1="231.21" x2="555.41" y2="223.57"/>
      <line class="cls-14" x1="555.41" y1="223.57" x2="526.25" y2="240.41"/>
      <line class="cls-14" x1="526.25" y1="240.41" x2="539.46" y2="248.04"/>
      <line class="cls-14" x1="539.46" y1="254.33" x2="545.38" y2="257.74"/>
      <line class="cls-14" x1="586.16" y1="262.11" x2="574.54" y2="255.4"/>
      <line class="cls-14" x1="554.94" y1="280.06" x2="566.57" y2="286.77"/>
      <line class="cls-14" x1="568.63" y1="231.21" x2="539.46" y2="248.04"/>
      <line class="cls-14" x1="545.38" y1="285.58" x2="545.38" y2="257.74"/>
      <line class="cls-14" x1="529.83" y1="250.37" x2="529.83" y2="246.71"/>
      <line class="cls-14" x1="534.85" y1="252.75" x2="534.85" y2="249.09"/>
      <line class="cls-14" x1="529.88" y1="257.99" x2="529.88" y2="254.33"/>
      <line class="cls-14" x1="534.68" y1="260.52" x2="534.68" y2="256.86"/>
      <line class="cls-14" x1="539.99" y1="263.37" x2="539.99" y2="259.71"/>
      <line class="cls-14" x1="548.47" y1="263.12" x2="548.47" y2="259.46"/>
      <line class="cls-14" x1="554.05" y1="259.76" x2="554.05" y2="256.1"/>
      <line class="cls-14" x1="559.73" y1="256.68" x2="559.73" y2="253.02"/>
      <line class="cls-14" x1="565.13" y1="253.55" x2="565.13" y2="249.89"/>
      <line class="cls-14" x1="570.45" y1="250.42" x2="570.45" y2="246.76"/>
      <line class="cls-14" x1="571.05" y1="278.68" x2="571.05" y2="275.03"/>
      <line class="cls-14" x1="576.46" y1="275.56" x2="576.46" y2="271.9"/>
      <line class="cls-14" x1="581.77" y1="272.43" x2="581.77" y2="268.77"/>
      <line class="cls-14" x1="548.74" y1="271.55" x2="548.74" y2="267.89"/>
      <line class="cls-14" x1="554.31" y1="268.19" x2="554.31" y2="264.53"/>
      <line class="cls-14" x1="548.74" y1="279.57" x2="548.74" y2="275.91"/>
      <line class="cls-14" x1="554.31" y1="276.21" x2="554.31" y2="272.55"/>
      <line class="cls-14" x1="559.99" y1="265.1" x2="559.99" y2="261.45"/>
      <line class="cls-14" x1="565.4" y1="261.98" x2="565.4" y2="258.32"/>
      <line class="cls-14" x1="570.71" y1="258.85" x2="570.71" y2="255.19"/>
      <line class="cls-14" x1="529.62" y1="265.81" x2="529.62" y2="262.15"/>
      <line class="cls-14" x1="534.42" y1="268.34" x2="534.42" y2="264.68"/>
      <line class="cls-14" x1="539.73" y1="271.19" x2="539.73" y2="267.53"/>
      <line class="cls-14" x1="562.88" y1="278.04" x2="562.88" y2="274.38"/>
      <line class="cls-14" x1="529.41" y1="273.79" x2="529.41" y2="270.13"/>
      <line class="cls-14" x1="534.21" y1="276.32" x2="534.21" y2="272.66"/>
      <line class="cls-14" x1="539.52" y1="279.17" x2="539.52" y2="275.51"/>
      <line class="cls-14" x1="559.73" y1="269.48" x2="559.73" y2="277.3"/>
      <line class="cls-14" x1="559.73" y1="269.48" x2="566.57" y2="273.43"/>
      <line class="cls-14" x1="526.25" y1="280.06" x2="526.25" y2="240.41"/>
      <line class="cls-14" x1="586.16" y1="275.46" x2="586.16" y2="262.11"/>
      <polyline class="cls-14" points="574.54 240.91 574.54 255.4 574.54 260.92"/>
      <line class="cls-14" x1="574.54" y1="240.91" x2="545.38" y2="257.74"/>
      <line class="cls-14" x1="574.54" y1="260.92" x2="559.73" y2="269.48"/>
      <line class="cls-14" x1="568.63" y1="237.5" x2="539.46" y2="254.33"/>
      <line class="cls-14" x1="539.46" y1="254.33" x2="539.46" y2="248.04"/>
      <polyline class="cls-14" points="539 281.9 543.78 284.67 545.38 285.58"/>
      <polyline class="cls-14" points="545.38 285.58 554.94 280.06 559.73 277.3"/>
      <line class="cls-14" x1="586.16" y1="262.11" x2="566.57" y2="273.43"/>
    </g>
  </g>
  <g>
    <path class="cls-6" d="m400.08,101.11c-.06.51-.25.9-.56,1.17s-.73.41-1.26.41c-.57,0-1.02-.2-1.36-.61s-.51-.95-.51-1.63v-.46c0-.45.08-.84.24-1.18.16-.34.38-.6.68-.78.29-.18.63-.27,1.02-.27.51,0,.92.14,1.23.43.31.28.49.68.54,1.18h-.64c-.05-.38-.17-.66-.36-.83s-.44-.26-.77-.26c-.4,0-.72.15-.95.45-.23.3-.34.72-.34,1.28v.46c0,.52.11.94.33,1.24.22.31.52.46.91.46.35,0,.62-.08.81-.24s.31-.44.37-.83h.64Z"/>
    <path class="cls-6" d="m400.69,100.82c0-.35.07-.66.21-.94s.33-.49.57-.65c.24-.15.52-.23.84-.23.49,0,.88.17,1.18.5.3.34.45.78.45,1.34v.04c0,.35-.07.66-.2.93-.13.28-.32.49-.57.64-.25.15-.53.23-.85.23-.48,0-.88-.17-1.17-.5-.3-.34-.45-.78-.45-1.33v-.04Zm.61.07c0,.4.09.71.27.95.18.24.43.36.74.36s.56-.12.74-.36c.18-.24.27-.58.27-1.02,0-.39-.09-.71-.28-.95-.19-.24-.43-.36-.74-.36s-.54.12-.73.36c-.18.24-.28.58-.28,1.03Z"/>
    <path class="cls-6" d="m405.28,99.07l.02.45c.27-.34.63-.51,1.07-.51.75,0,1.13.42,1.14,1.28v2.36h-.61v-2.36c0-.26-.06-.45-.18-.57-.12-.12-.29-.18-.54-.18-.2,0-.37.05-.52.16s-.27.24-.35.42v2.54h-.61v-3.57h.58Z"/>
    <path class="cls-6" d="m410.5,101.69c0-.16-.06-.29-.19-.38-.12-.09-.34-.17-.65-.24-.31-.07-.55-.15-.73-.24-.18-.09-.32-.2-.4-.33-.09-.13-.13-.28-.13-.45,0-.29.12-.54.37-.74.25-.2.56-.3.95-.3.4,0,.73.1.98.31.25.21.38.48.38.8h-.61c0-.17-.07-.31-.21-.43-.14-.12-.32-.18-.54-.18s-.4.05-.52.14c-.12.1-.19.22-.19.38s.06.26.17.33c.12.08.33.15.63.21.3.07.55.15.74.24.19.09.33.21.42.34s.14.29.14.49c0,.32-.13.57-.38.77s-.59.29-.99.29c-.29,0-.54-.05-.76-.15-.22-.1-.39-.24-.52-.42-.12-.18-.19-.38-.19-.59h.61c.01.2.09.37.25.49s.35.18.6.18c.23,0,.42-.05.56-.14.14-.09.21-.22.21-.37Z"/>
    <path class="cls-6" d="m412.73,98.21v.86h.67v.47h-.67v2.21c0,.14.03.25.09.32.06.07.16.11.3.11.07,0,.17-.01.29-.04v.49c-.16.04-.32.07-.47.07-.27,0-.48-.08-.62-.25-.14-.16-.21-.4-.21-.7v-2.21h-.65v-.47h.65v-.86h.61Z"/>
    <path class="cls-6" d="m415.84,99.62c-.09-.01-.19-.02-.3-.02-.4,0-.67.17-.81.51v2.53h-.61v-3.57h.59v.41c.21-.32.49-.48.86-.48.12,0,.21.02.27.05v.57Z"/>
    <path class="cls-6" d="m418.6,102.28c-.24.28-.59.42-1.04.42-.38,0-.67-.11-.87-.33-.2-.22-.3-.55-.3-.98v-2.32h.61v2.3c0,.54.22.81.66.81.47,0,.78-.17.93-.52v-2.59h.61v3.57h-.58v-.35Z"/>
    <path class="cls-6" d="m421.55,102.2c.22,0,.41-.07.57-.2s.25-.3.27-.49h.58c-.01.2-.08.4-.21.58-.13.19-.3.33-.52.44-.22.11-.45.17-.69.17-.49,0-.87-.16-1.16-.49s-.43-.77-.43-1.33v-.1c0-.35.06-.66.19-.93s.31-.48.55-.63c.24-.15.52-.22.85-.22.4,0,.73.12,1,.36.26.24.41.55.42.93h-.58c-.02-.23-.1-.42-.26-.57-.16-.15-.35-.22-.58-.22-.31,0-.55.11-.72.33-.17.22-.26.55-.26.97v.12c0,.41.08.73.25.95.17.22.41.33.72.33Z"/>
    <path class="cls-6" d="m424.48,98.21v.86h.67v.47h-.67v2.21c0,.14.03.25.09.32.06.07.16.11.3.11.07,0,.17-.01.29-.04v.49c-.16.04-.32.07-.47.07-.27,0-.48-.08-.62-.25-.14-.16-.21-.4-.21-.7v-2.21h-.65v-.47h.65v-.86h.61Z"/>
    <path class="cls-6" d="m425.86,98.12c0-.1.03-.18.09-.25.06-.07.15-.1.27-.1s.21.03.27.1.09.15.09.25-.03.18-.09.25c-.06.07-.15.1-.27.1s-.21-.03-.27-.1c-.06-.07-.09-.15-.09-.25Zm.66,4.51h-.61v-3.57h.61v3.57Z"/>
    <path class="cls-6" d="m427.33,100.82c0-.35.07-.66.21-.94s.33-.49.57-.65c.24-.15.52-.23.84-.23.49,0,.88.17,1.18.5.3.34.45.78.45,1.34v.04c0,.35-.07.66-.2.93-.13.28-.32.49-.57.64-.25.15-.53.23-.85.23-.48,0-.88-.17-1.17-.5-.3-.34-.45-.78-.45-1.33v-.04Zm.61.07c0,.4.09.71.27.95.18.24.43.36.74.36s.56-.12.74-.36c.18-.24.27-.58.27-1.02,0-.39-.09-.71-.28-.95-.19-.24-.43-.36-.74-.36s-.54.12-.73.36c-.18.24-.28.58-.28,1.03Z"/>
    <path class="cls-6" d="m431.92,99.07l.02.45c.27-.34.63-.51,1.07-.51.75,0,1.13.42,1.14,1.28v2.36h-.61v-2.36c0-.26-.06-.45-.18-.57-.12-.12-.29-.18-.54-.18-.2,0-.37.05-.52.16s-.27.24-.35.42v2.54h-.61v-3.57h.58Z"/>
    <path class="cls-6" d="m438.94,102.28c-.24.28-.59.42-1.04.42-.38,0-.67-.11-.87-.33-.2-.22-.3-.55-.3-.98v-2.32h.61v2.3c0,.54.22.81.66.81.47,0,.78-.17.93-.52v-2.59h.61v3.57h-.58v-.35Z"/>
    <path class="cls-6" d="m443.47,100.89c0,.54-.12.98-.37,1.31s-.58.5-1.01.5-.77-.14-1.02-.41v1.72h-.61v-4.94h.56l.03.4c.25-.31.59-.46,1.04-.46s.77.16,1.02.48c.25.32.37.77.37,1.35v.06Zm-.61-.07c0-.4-.09-.72-.26-.95-.17-.23-.41-.35-.71-.35-.37,0-.65.16-.83.49v1.7c.18.33.46.49.84.49.29,0,.52-.12.7-.35.17-.23.26-.58.26-1.03Z"/>
    <path class="cls-6" d="m444.1,100.82c0-.55.13-.99.39-1.32.26-.33.6-.5,1.02-.5s.75.14.99.43v-1.86h.61v5.06h-.56l-.03-.38c-.24.3-.58.45-1.02.45s-.75-.17-1.01-.51c-.26-.34-.39-.78-.39-1.33v-.05Zm.61.07c0,.4.08.72.25.95.17.23.4.34.69.34.39,0,.67-.17.85-.52v-1.64c-.18-.34-.46-.5-.84-.5-.3,0-.53.12-.7.35-.17.23-.25.57-.25,1.03Z"/>
    <path class="cls-6" d="m450.26,102.64c-.04-.07-.06-.2-.09-.38-.28.29-.62.44-1.01.44-.35,0-.64-.1-.87-.3-.23-.2-.34-.45-.34-.76,0-.37.14-.66.42-.87.28-.21.68-.31,1.19-.31h.59v-.28c0-.21-.06-.38-.19-.51-.13-.13-.32-.19-.56-.19-.22,0-.4.05-.55.16-.15.11-.22.24-.22.4h-.61c0-.18.06-.35.19-.52.13-.17.3-.3.51-.39.22-.1.45-.14.71-.14.41,0,.73.1.97.31.23.21.35.49.36.85v1.64c0,.33.04.59.12.78v.05h-.64Zm-1.01-.46c.19,0,.37-.05.54-.15.17-.1.29-.23.37-.39v-.73h-.48c-.75,0-1.12.22-1.12.66,0,.19.06.34.19.45.13.11.29.16.49.16Z"/>
    <path class="cls-6" d="m452.55,98.21v.86h.67v.47h-.67v2.21c0,.14.03.25.09.32s.16.11.3.11c.07,0,.17-.01.29-.04v.49c-.16.04-.32.07-.47.07-.27,0-.48-.08-.62-.25-.14-.16-.21-.4-.21-.7v-2.21h-.65v-.47h.65v-.86h.61Z"/>
    <path class="cls-6" d="m455.41,102.7c-.48,0-.88-.16-1.18-.48-.3-.32-.46-.74-.46-1.27v-.11c0-.35.07-.67.2-.95.14-.28.32-.5.57-.65s.51-.24.79-.24c.46,0,.82.15,1.08.46s.39.74.39,1.31v.25h-2.42c0,.35.11.64.31.85.2.22.45.33.75.33.21,0,.4-.04.55-.13s.28-.2.39-.35l.37.29c-.3.46-.75.69-1.34.69Zm-.08-3.2c-.25,0-.45.09-.62.27-.17.18-.27.43-.31.75h1.79v-.05c-.02-.31-.1-.55-.25-.72-.15-.17-.35-.25-.61-.25Z"/>
    <path class="cls-6" d="m457.52,102.32c0-.11.03-.19.09-.26s.16-.11.28-.11.22.04.29.11c.06.07.1.16.1.26s-.03.19-.1.25c-.07.07-.16.1-.29.1s-.22-.03-.28-.1c-.06-.07-.09-.15-.09-.25Z"/>
    <path class="cls-6" d="m398.99,109.5c0-.21-.07-.37-.22-.49s-.42-.23-.8-.35c-.39-.12-.69-.25-.92-.39-.44-.27-.66-.63-.66-1.07,0-.39.16-.71.47-.96.32-.25.72-.38,1.23-.38.33,0,.63.06.89.19.26.12.47.3.62.53s.22.48.22.76h-.83c0-.25-.08-.45-.24-.59s-.38-.21-.67-.21c-.27,0-.48.06-.63.17-.15.12-.23.28-.23.49,0,.18.08.32.24.44.16.12.43.23.8.34.37.11.67.24.9.38.23.14.39.3.5.49s.16.4.16.64c0,.4-.15.72-.46.95s-.72.35-1.25.35c-.35,0-.67-.06-.96-.19s-.52-.31-.68-.53c-.16-.23-.24-.49-.24-.79h.83c0,.27.09.48.27.63s.44.22.77.22c.29,0,.51-.06.65-.18s.22-.27.22-.47Z"/>
    <path class="cls-6" d="m402.61,110.74c-.04-.07-.07-.18-.09-.33-.25.27-.57.4-.94.4s-.65-.1-.88-.31c-.23-.21-.34-.46-.34-.76,0-.38.14-.67.42-.88s.69-.3,1.21-.3h.49v-.23c0-.19-.05-.33-.15-.44-.1-.11-.26-.17-.47-.17-.18,0-.33.05-.45.14-.12.09-.17.21-.17.35h-.8c0-.2.06-.38.19-.55.13-.17.31-.3.53-.4.22-.1.47-.14.75-.14.42,0,.75.1,1,.31.25.21.38.5.38.88v1.61c0,.32.04.58.13.77v.06h-.82Zm-.88-.58c.16,0,.31-.04.45-.12.14-.08.24-.18.31-.31v-.67h-.43c-.3,0-.52.05-.67.15s-.22.25-.22.44c0,.15.05.28.15.37.1.09.24.14.41.14Z"/>
    <path class="cls-6" d="m406,107.9c-.11-.02-.21-.03-.33-.03-.37,0-.61.14-.74.42v2.44h-.8v-3.57h.76l.02.4c.19-.31.46-.46.8-.46.11,0,.21.02.28.05v.75Z"/>
    <path class="cls-6" d="m408.54,110.74c-.04-.07-.07-.18-.09-.33-.25.27-.57.4-.94.4s-.65-.1-.88-.31c-.23-.21-.34-.46-.34-.76,0-.38.14-.67.42-.88s.69-.3,1.21-.3h.49v-.23c0-.19-.05-.33-.15-.44-.1-.11-.26-.17-.47-.17-.18,0-.33.05-.45.14-.12.09-.17.21-.17.35h-.8c0-.2.06-.38.19-.55.13-.17.31-.3.53-.4.22-.1.47-.14.75-.14.42,0,.75.1,1,.31.25.21.38.5.38.88v1.61c0,.32.04.58.13.77v.06h-.82Zm-.88-.58c.16,0,.31-.04.45-.12.14-.08.24-.18.31-.31v-.67h-.43c-.3,0-.52.05-.67.15s-.22.25-.22.44c0,.15.05.28.15.37.1.09.24.14.41.14Z"/>
    <path class="cls-6" d="m413.21,110.3c.22,0,.41-.07.57-.2s.25-.3.27-.49h.58c-.01.2-.08.4-.21.58-.13.19-.3.33-.52.44-.22.11-.45.17-.69.17-.49,0-.87-.16-1.16-.49s-.43-.77-.43-1.33v-.1c0-.35.06-.66.19-.93s.31-.48.55-.63c.24-.15.52-.22.85-.22.4,0,.73.12,1,.36.26.24.41.55.42.93h-.58c-.02-.23-.1-.42-.26-.57-.16-.15-.35-.22-.58-.22-.31,0-.55.11-.72.33-.17.22-.26.55-.26.97v.12c0,.41.08.73.25.95.17.22.41.33.72.33Z"/>
    <path class="cls-6" d="m415.15,108.92c0-.35.07-.66.21-.94s.33-.49.57-.65c.24-.15.52-.23.84-.23.49,0,.88.17,1.18.5.3.34.45.78.45,1.34v.04c0,.35-.07.66-.2.93-.13.28-.32.49-.57.64-.25.15-.53.23-.85.23-.48,0-.88-.17-1.17-.5-.3-.34-.45-.78-.45-1.33v-.04Zm.61.07c0,.4.09.71.27.95.18.24.43.36.74.36s.56-.12.74-.36c.18-.24.27-.58.27-1.02,0-.39-.09-.71-.28-.95-.19-.24-.43-.36-.74-.36s-.54.12-.73.36c-.18.24-.28.58-.28,1.03Z"/>
    <path class="cls-6" d="m419.74,107.17l.02.45c.27-.34.63-.51,1.07-.51.75,0,1.13.42,1.14,1.28v2.36h-.61v-2.36c0-.26-.06-.45-.18-.57-.12-.12-.29-.18-.54-.18-.2,0-.37.05-.52.16s-.27.24-.35.42v2.54h-.61v-3.57h.58Z"/>
    <path class="cls-6" d="m423.72,106.31v.86h.67v.47h-.67v2.21c0,.14.03.25.09.32.06.07.16.11.3.11.07,0,.17-.01.29-.04v.49c-.16.04-.32.07-.47.07-.27,0-.48-.08-.62-.25-.14-.16-.21-.4-.21-.7v-2.21h-.65v-.47h.65v-.86h.61Z"/>
    <path class="cls-6" d="m426.82,107.72c-.09-.01-.19-.02-.3-.02-.4,0-.67.17-.81.51v2.53h-.61v-3.57h.59v.41c.21-.32.49-.48.86-.48.12,0,.21.02.27.05v.57Z"/>
    <path class="cls-6" d="m427.38,106.22c0-.1.03-.18.09-.25.06-.07.15-.1.27-.1s.21.03.27.1.09.15.09.25-.03.18-.09.25c-.06.07-.15.1-.27.1s-.21-.03-.27-.1c-.06-.07-.09-.15-.09-.25Zm.66,4.51h-.61v-3.57h.61v3.57Z"/>
    <path class="cls-6" d="m432.04,108.99c0,.54-.12.98-.38,1.31-.25.33-.59.5-1.01.5-.45,0-.8-.16-1.04-.48l-.03.41h-.56v-5.06h.61v1.89c.25-.31.59-.46,1.02-.46s.77.16,1.02.49c.25.33.37.78.37,1.34v.05Zm-.61-.07c0-.42-.08-.74-.24-.96-.16-.23-.39-.34-.69-.34-.4,0-.69.19-.87.56v1.54c.19.37.48.56.87.56.29,0,.52-.11.68-.34s.24-.57.24-1.02Z"/>
    <path class="cls-6" d="m435,110.38c-.24.28-.59.42-1.04.42-.38,0-.67-.11-.87-.33-.2-.22-.3-.55-.3-.98v-2.32h.61v2.3c0,.54.22.81.66.81.47,0,.78-.17.93-.52v-2.59h.61v3.57h-.58v-.35Z"/>
    <path class="cls-6" d="m437.35,106.31v.86h.67v.47h-.67v2.21c0,.14.03.25.09.32.06.07.16.11.3.11.07,0,.17-.01.29-.04v.49c-.16.04-.32.07-.47.07-.27,0-.48-.08-.62-.25-.14-.16-.21-.4-.21-.7v-2.21h-.65v-.47h.65v-.86h.61Z"/>
    <path class="cls-6" d="m440.21,110.8c-.48,0-.88-.16-1.18-.48s-.45-.74-.45-1.27v-.11c0-.35.07-.67.2-.95.14-.28.32-.5.57-.65s.51-.24.79-.24c.46,0,.82.15,1.08.46s.39.74.39,1.31v.25h-2.42c0,.35.11.64.31.85.2.22.45.33.75.33.22,0,.4-.04.55-.13s.28-.2.39-.35l.37.29c-.3.46-.75.69-1.34.69Zm-.08-3.2c-.25,0-.45.09-.62.27-.17.18-.27.43-.31.75h1.79v-.05c-.02-.31-.1-.55-.25-.72-.15-.17-.35-.25-.61-.25Z"/>
    <path class="cls-6" d="m442.16,108.92c0-.55.13-.99.39-1.32.26-.33.6-.5,1.02-.5s.75.14.99.43v-1.86h.61v5.06h-.56l-.03-.38c-.24.3-.58.45-1.02.45s-.75-.17-1.01-.51c-.26-.34-.39-.78-.39-1.33v-.05Zm.61.07c0,.4.08.72.25.95.17.23.4.34.69.34.39,0,.67-.17.85-.52v-1.64c-.18-.34-.46-.5-.84-.5-.3,0-.53.12-.7.35-.17.23-.25.57-.25,1.03Z"/>
    <path class="cls-6" d="m447.62,108.92c0-.35.07-.66.21-.94s.33-.49.57-.65c.25-.15.52-.23.84-.23.49,0,.88.17,1.18.5s.45.78.45,1.34v.04c0,.35-.07.66-.2.93-.13.28-.32.49-.57.64-.25.15-.53.23-.85.23-.48,0-.88-.17-1.17-.5s-.45-.78-.45-1.33v-.04Zm.61.07c0,.4.09.71.28.95s.43.36.74.36.56-.12.74-.36.27-.58.27-1.02c0-.39-.09-.71-.28-.95-.19-.24-.43-.36-.74-.36s-.54.12-.73.36c-.18.24-.28.58-.28,1.03Z"/>
    <path class="cls-6" d="m452.21,107.17l.02.45c.27-.34.63-.51,1.07-.51.75,0,1.13.42,1.14,1.28v2.36h-.61v-2.36c0-.26-.06-.45-.18-.57s-.29-.18-.54-.18c-.2,0-.37.05-.52.16s-.27.24-.35.42v2.54h-.61v-3.57h.58Z"/>
    <path class="cls-6" d="m397.59,117.32l.09.63.14-.57.95-3.35h.53l.93,3.35.13.58.1-.65.74-3.28h.64l-1.16,4.8h-.58l-.99-3.5-.08-.37-.08.37-1.02,3.5h-.58l-1.16-4.8h.63l.76,3.29Z"/>
    <path class="cls-6" d="m403.83,118.9c-.48,0-.88-.16-1.18-.48s-.45-.74-.45-1.27v-.11c0-.35.07-.67.2-.95.14-.28.32-.5.57-.65s.51-.24.79-.24c.46,0,.82.15,1.08.46.26.31.39.74.39,1.31v.25h-2.42c0,.35.11.64.31.85.2.22.45.33.75.33.22,0,.4-.04.55-.13s.28-.2.39-.35l.37.29c-.3.46-.75.69-1.34.69Zm-.08-3.2c-.25,0-.45.09-.62.27-.17.18-.27.43-.31.75h1.79v-.05c-.02-.31-.1-.55-.25-.72-.15-.17-.35-.25-.61-.25Z"/>
    <path class="cls-6" d="m405.77,117.02c0-.55.13-.99.39-1.32s.6-.5,1.02-.5.75.14.99.43v-1.86h.61v5.06h-.56l-.03-.38c-.24.3-.58.45-1.02.45s-.75-.17-1.01-.51c-.26-.34-.39-.78-.39-1.33v-.05Zm.61.07c0,.4.08.72.25.95s.4.34.69.34c.39,0,.67-.17.85-.52v-1.64c-.18-.34-.46-.5-.84-.5-.3,0-.53.12-.7.35s-.25.57-.25,1.03Z"/>
    <path class="cls-6" d="m410.31,115.27l.02.45c.27-.34.63-.51,1.07-.51.75,0,1.13.42,1.14,1.28v2.36h-.61v-2.36c0-.26-.06-.45-.18-.57-.12-.12-.29-.18-.54-.18-.2,0-.37.05-.52.16s-.27.24-.35.42v2.54h-.61v-3.57h.58Z"/>
    <path class="cls-6" d="m414.93,118.9c-.48,0-.88-.16-1.18-.48s-.45-.74-.45-1.27v-.11c0-.35.07-.67.2-.95.14-.28.32-.5.57-.65s.51-.24.79-.24c.46,0,.82.15,1.08.46.26.31.39.74.39,1.31v.25h-2.42c0,.35.11.64.31.85.2.22.45.33.75.33.22,0,.4-.04.55-.13s.28-.2.39-.35l.37.29c-.3.46-.75.69-1.34.69Zm-.08-3.2c-.25,0-.45.09-.62.27-.17.18-.27.43-.31.75h1.79v-.05c-.02-.31-.1-.55-.25-.72-.15-.17-.35-.25-.61-.25Z"/>
    <path class="cls-6" d="m419.11,117.89c0-.16-.06-.29-.19-.38-.12-.09-.34-.17-.65-.24-.31-.07-.55-.15-.73-.24-.18-.09-.32-.2-.4-.33-.09-.13-.13-.28-.13-.45,0-.29.12-.54.37-.74.25-.2.56-.3.95-.3.4,0,.73.1.98.31.25.21.38.48.38.8h-.61c0-.17-.07-.31-.21-.43-.14-.12-.32-.18-.54-.18s-.4.05-.52.14c-.12.1-.19.22-.19.38s.06.26.17.33c.12.08.33.15.63.21.3.07.55.15.74.24.19.09.33.21.42.34s.14.29.14.49c0,.32-.13.57-.38.77s-.59.29-.99.29c-.29,0-.54-.05-.76-.15-.22-.1-.39-.24-.52-.42-.12-.18-.19-.38-.19-.59h.61c.01.2.09.37.25.49s.35.18.6.18c.23,0,.42-.05.56-.14.14-.09.21-.22.21-.37Z"/>
    <path class="cls-6" d="m420.36,117.02c0-.55.13-.99.39-1.32s.6-.5,1.02-.5.75.14.99.43v-1.86h.61v5.06h-.56l-.03-.38c-.24.3-.58.45-1.02.45s-.75-.17-1.01-.51c-.26-.34-.39-.78-.39-1.33v-.05Zm.61.07c0,.4.08.72.25.95s.4.34.69.34c.39,0,.67-.17.85-.52v-1.64c-.18-.34-.46-.5-.84-.5-.3,0-.53.12-.7.35s-.25.57-.25,1.03Z"/>
    <path class="cls-6" d="m426.52,118.84c-.04-.07-.06-.2-.09-.38-.28.29-.62.44-1.01.44-.35,0-.64-.1-.87-.3-.23-.2-.34-.45-.34-.76,0-.37.14-.66.42-.87.28-.21.68-.31,1.19-.31h.59v-.28c0-.21-.06-.38-.19-.51-.13-.13-.32-.19-.56-.19-.22,0-.4.05-.55.16-.15.11-.22.24-.22.4h-.61c0-.18.06-.35.19-.52.13-.17.3-.3.51-.39.22-.1.45-.14.71-.14.41,0,.73.1.97.31.23.21.35.49.36.85v1.64c0,.33.04.59.13.78v.05h-.64Zm-1.01-.46c.19,0,.37-.05.54-.15.17-.1.3-.23.37-.39v-.73h-.48c-.75,0-1.12.22-1.12.66,0,.19.06.34.19.45s.29.16.49.16Z"/>
    <path class="cls-6" d="m429.1,117.94l.83-2.67h.65l-1.43,4.12c-.22.59-.57.89-1.06.89h-.12s-.23-.05-.23-.05v-.49h.16c.21.01.37-.03.48-.11.12-.08.21-.24.29-.46l.14-.36-1.27-3.53h.67l.89,2.67Z"/>
    <path class="cls-6" d="m434.74,118.84h-.61v-4.06l-1.23.45v-.55l1.75-.66h.1v4.82Z"/>
    <path class="cls-6" d="m439.54,116.79c0,.71-.12,1.25-.37,1.59-.24.35-.62.52-1.14.52s-.89-.17-1.14-.51-.37-.85-.38-1.52v-.81c0-.71.12-1.23.37-1.57.24-.34.63-.51,1.15-.51s.9.17,1.14.5c.24.33.37.84.38,1.53v.79Zm-.61-.83c0-.52-.07-.89-.22-1.13s-.37-.35-.69-.35-.54.12-.68.35c-.14.23-.22.6-.22,1.08v.98c0,.52.08.9.23,1.15.15.25.38.37.68.37s.52-.12.67-.35c.15-.23.22-.6.23-1.1v-1Z"/>
    <path class="cls-6" d="m440.4,118.52c0-.11.03-.19.09-.26.06-.07.16-.11.28-.11s.22.04.29.11c.06.07.1.16.1.26s-.03.19-.1.25c-.07.07-.16.1-.29.1s-.22-.03-.28-.1c-.06-.07-.09-.15-.09-.25Z"/>
    <path class="cls-6" d="m444.1,118.84h-.61v-4.06l-1.23.45v-.55l1.75-.66h.1v4.82Z"/>
    <path class="cls-6" d="m447.89,118.84h-.61v-4.06l-1.23.45v-.55l1.75-.66h.1v4.82Z"/>
    <path class="cls-6" d="m449.75,118.52c0-.11.03-.19.09-.26s.16-.11.28-.11.22.04.29.11c.06.07.1.16.1.26s-.03.19-.1.25c-.07.07-.16.1-.29.1s-.22-.03-.28-.1c-.06-.07-.09-.15-.09-.25Z"/>
    <path class="cls-6" d="m454.6,118.84h-3.14v-.44l1.66-1.85c.25-.28.42-.51.51-.68.09-.17.14-.36.14-.54,0-.25-.08-.46-.23-.62-.15-.16-.35-.24-.61-.24-.3,0-.54.09-.71.26-.17.17-.25.41-.25.72h-.61c0-.44.14-.8.43-1.07s.67-.41,1.14-.41c.45,0,.8.12,1.06.35.26.23.39.54.39.93,0,.47-.3,1.03-.9,1.69l-1.29,1.39h2.41v.5Z"/>
    <path class="cls-6" d="m458.25,116.79c0,.71-.12,1.25-.37,1.59-.24.35-.62.52-1.14.52s-.89-.17-1.14-.51-.37-.85-.38-1.52v-.81c0-.71.12-1.23.37-1.57.24-.34.63-.51,1.15-.51s.9.17,1.14.5c.24.33.37.84.38,1.53v.79Zm-.61-.83c0-.52-.07-.89-.22-1.13-.15-.24-.38-.35-.69-.35s-.54.12-.68.35c-.14.23-.22.6-.22,1.08v.98c0,.52.08.9.23,1.15s.38.37.68.37.52-.12.67-.35c.15-.23.22-.6.23-1.1v-1Z"/>
    <path class="cls-6" d="m462.18,118.84h-3.14v-.44l1.66-1.85c.25-.28.42-.51.51-.68.09-.17.14-.36.14-.54,0-.25-.08-.46-.23-.62-.15-.16-.35-.24-.61-.24-.3,0-.54.09-.71.26-.17.17-.25.41-.25.72h-.61c0-.44.14-.8.43-1.07s.67-.41,1.14-.41c.45,0,.8.12,1.06.35.26.23.39.54.39.93,0,.47-.3,1.03-.9,1.69l-1.29,1.39h2.41v.5Z"/>
    <path class="cls-6" d="m463.71,116.14h.46c.29,0,.51-.08.68-.23.16-.15.25-.35.25-.6,0-.56-.28-.84-.84-.84-.26,0-.47.08-.63.23s-.24.35-.24.6h-.61c0-.38.14-.7.42-.95s.63-.38,1.06-.38c.45,0,.81.12,1.06.36.26.24.39.57.39,1,0,.21-.07.41-.2.61-.14.2-.32.34-.55.44.26.08.47.22.61.42.14.19.22.43.22.71,0,.43-.14.77-.42,1.02-.28.25-.65.38-1.1.38s-.82-.12-1.1-.37-.42-.57-.42-.97h.61c0,.25.08.46.25.61s.39.23.66.23c.29,0,.52-.08.68-.23.16-.15.23-.38.23-.66s-.09-.49-.26-.64c-.17-.15-.42-.23-.74-.23h-.46v-.5Z"/>
  </g>
  <g>
    <path class="cls-6" d="m491.24,128.4c0-.21-.07-.37-.22-.49s-.42-.23-.8-.35c-.39-.12-.69-.25-.92-.39-.44-.27-.66-.63-.66-1.07,0-.39.16-.71.47-.96.32-.25.72-.38,1.23-.38.33,0,.63.06.89.19s.47.3.62.53.22.48.22.76h-.83c0-.25-.08-.45-.24-.59s-.38-.21-.67-.21c-.27,0-.48.06-.63.17s-.23.28-.23.49c0,.18.08.32.24.44.16.12.43.23.8.34.37.11.67.24.9.38.23.14.39.3.5.49s.16.4.16.64c0,.4-.15.72-.46.95s-.72.35-1.25.35c-.35,0-.67-.06-.96-.19s-.52-.31-.68-.53-.24-.49-.24-.79h.83c0,.27.09.48.27.63.18.15.44.22.77.22.29,0,.51-.06.65-.18.15-.12.22-.27.22-.47Z"/>
    <path class="cls-6" d="m494.3,129.7c-.51,0-.92-.16-1.23-.48-.32-.32-.47-.75-.47-1.28v-.1c0-.36.07-.67.21-.95.14-.28.33-.5.58-.65.25-.16.53-.23.83-.23.49,0,.86.15,1.12.46.26.31.4.75.4,1.31v.32h-2.33c.02.29.12.53.29.7.17.17.39.26.65.26.37,0,.67-.15.9-.45l.43.41c-.14.21-.33.38-.57.5s-.51.18-.8.18Zm-.1-3.06c-.22,0-.4.08-.53.23-.13.15-.22.37-.26.64h1.53v-.06c-.02-.27-.09-.47-.21-.61-.13-.14-.3-.21-.52-.21Z"/>
    <path class="cls-6" d="m497.92,129.7c-.51,0-.92-.16-1.23-.48-.32-.32-.47-.75-.47-1.28v-.1c0-.36.07-.67.21-.95.14-.28.33-.5.58-.65.25-.16.53-.23.83-.23.49,0,.86.15,1.12.46.26.31.4.75.4,1.31v.32h-2.33c.02.29.12.53.29.7.17.17.39.26.65.26.37,0,.67-.15.9-.45l.43.41c-.14.21-.33.38-.57.5s-.51.18-.8.18Zm-.1-3.06c-.22,0-.4.08-.53.23-.13.15-.22.37-.26.64h1.53v-.06c-.02-.27-.09-.47-.21-.61-.13-.14-.3-.21-.52-.21Z"/>
    <path class="cls-6" d="m501.51,127.83c0-.55.13-.99.38-1.32s.6-.5,1.03-.5c.38,0,.68.13.92.4v-1.83h.8v5.06h-.72l-.04-.37c-.24.29-.56.44-.96.44s-.75-.17-1.01-.5c-.26-.34-.39-.79-.39-1.37Zm.8.07c0,.36.07.65.21.85s.34.3.59.3c.33,0,.57-.15.72-.44v-1.52c-.15-.29-.38-.43-.71-.43-.26,0-.46.1-.6.31s-.21.51-.21.93Z"/>
    <path class="cls-6" d="m507.04,129.7c-.51,0-.92-.16-1.23-.48-.32-.32-.47-.75-.47-1.28v-.1c0-.36.07-.67.21-.95.14-.28.33-.5.58-.65.25-.16.53-.23.83-.23.49,0,.86.15,1.12.46.26.31.4.75.4,1.31v.32h-2.33c.02.29.12.53.29.7.17.17.39.26.65.26.37,0,.67-.15.9-.45l.43.41c-.14.21-.33.38-.57.5s-.51.18-.8.18Zm-.1-3.06c-.22,0-.4.08-.53.23-.13.15-.22.37-.26.64h1.53v-.06c-.02-.27-.09-.47-.21-.61-.13-.14-.3-.21-.52-.21Z"/>
    <path class="cls-6" d="m510.09,125.2v.87h.63v.59h-.63v1.99c0,.14.03.23.08.29s.15.09.29.09c.09,0,.19-.01.28-.03v.62c-.18.05-.36.08-.53.08-.62,0-.92-.34-.92-1.02v-2.02h-.59v-.59h.59v-.87h.8Z"/>
    <path class="cls-6" d="m513.46,129.64c-.04-.07-.07-.18-.09-.33-.25.27-.57.4-.94.4s-.65-.1-.88-.31c-.23-.21-.34-.46-.34-.76,0-.38.14-.67.42-.88s.69-.3,1.21-.3h.49v-.23c0-.19-.05-.33-.16-.44-.1-.11-.26-.17-.47-.17-.18,0-.33.05-.45.14-.12.09-.17.21-.17.35h-.8c0-.2.06-.38.19-.55.13-.17.31-.3.53-.4.22-.1.47-.14.75-.14.42,0,.75.1,1,.31.25.21.38.5.38.88v1.61c0,.32.04.58.13.77v.06h-.82Zm-.88-.58c.16,0,.31-.04.45-.12.14-.08.24-.18.31-.31v-.67h-.43c-.3,0-.52.05-.67.15s-.22.25-.22.44c0,.15.05.28.15.37.1.09.24.14.41.14Z"/>
    <path class="cls-6" d="m514.99,125.14c0-.12.04-.23.12-.31.08-.08.19-.12.33-.12s.26.04.34.12.12.18.12.31-.04.22-.12.3-.19.12-.34.12-.26-.04-.33-.12c-.08-.08-.12-.18-.12-.3Zm.85,4.49h-.8v-3.57h.8v3.57Z"/>
    <path class="cls-6" d="m517.56,129.64h-.8v-5.06h.8v5.06Z"/>
    <path class="cls-6" d="m520.43,128.67c0-.14-.06-.25-.18-.33-.12-.08-.31-.14-.58-.2-.27-.06-.5-.13-.68-.22-.4-.19-.6-.47-.6-.84,0-.31.13-.56.39-.77.26-.21.59-.31.99-.31.43,0,.77.11,1.03.32s.39.48.39.82h-.8c0-.15-.06-.28-.17-.38s-.27-.15-.46-.15c-.18,0-.32.04-.43.12-.11.08-.17.19-.17.33,0,.12.05.22.16.29.1.07.31.14.63.21.31.07.56.15.74.25.18.1.31.21.4.34.09.13.13.3.13.49,0,.32-.13.58-.4.78s-.61.3-1.04.3c-.29,0-.55-.05-.78-.16s-.41-.25-.53-.44c-.13-.18-.19-.38-.19-.6h.78c.01.19.08.33.21.44.13.1.31.15.52.15s.37-.04.48-.12c.11-.08.17-.18.17-.31Z"/>
  </g>
</svg>