<?xml version="1.0" encoding="utf-8"?>
<!-- Generator: Adobe Illustrator 27.0.1, SVG Export Plug-In . SVG Version: 6.00 Build 0)  -->
<svg version="1.1" id="Layer_1" xmlns="http://www.w3.org/2000/svg" xmlns:xlink="http://www.w3.org/1999/xlink" x="0px" y="0px"
	 viewBox="0 0 472.6 48.9" style="enable-background:new 0 0 472.6 48.9;" xml:space="preserve">
<style type="text/css">
	.st0{fill:#333333;}
	.st1{fill:#F04F24;}
</style>
<g>
	<path class="st0" d="M103.9,10.7c2.6,0,4.6-2,4.6-4.5c0-2.6-2-4.5-4.6-4.5c-2.6,0-4.5,2-4.5,4.5S101.3,10.7,103.9,10.7 M89.9,48.4
		h8.5L84,28.8l13.4-12.8h-9L75,28.3V3h-7v45.4h7V37.3l4-3.8L89.9,48.4L89.9,48.4z M34.2,48.4h7.8L24.4,3.5h-7L0,48.4h7.8l4-10.6
		h18.5C30.2,37.8,34.2,48.4,34.2,48.4z M132.3,41.9c-1.2,0.6-2.7,0.8-3.9,0.8c-2.6,0-4.4-1.7-4.4-4.9V22.1h8.3v-6H124V6.5h-7v9.6
		h-5.6v6h5.6v16.1c0,7.4,4.5,10.7,10.6,10.7c1.8,0,3.6-0.3,5.1-0.8L132.3,41.9L132.3,41.9z M14.2,31.4l6.8-17.9l6.8,17.9L14.2,31.4
		L14.2,31.4z M65.1,16.2c-1-0.4-2.4-0.6-3.6-0.6c-3.9,0-8.1,2.8-9.9,6.7v-6.1h-7v32.3h7v-12c0-10,4.2-14.2,8.9-14.2
		c1.5,0,3,0.3,4.2,0.8C64.7,22.9,65.1,16.2,65.1,16.2z M165.9,31c0-7.9-5.5-15.4-15.9-15.4s-15.8,7.9-15.8,16.7s5.8,16.7,16.1,16.7
		c7.6,0,13.1-3.6,14.8-9.8l-6.6-1.7c-0.8,3.5-3.8,5.5-8.1,5.5c-5.1,0-8.7-3.5-9.4-9h24.7C165.9,33.3,165.9,32,165.9,31 M170.7,48.4
		h7V32.1c0-6.1,2.8-10.4,7.6-10.4c4.1,0,6.3,2.7,6.3,6.7v20.1h6.9V32.1c0-6.2,2.8-10.4,7.6-10.4c4.1,0,6.4,2.7,6.4,6.7v20.1h7V26.6
		c0-6.5-4.5-11-11.4-11c-5.1,0-8.9,2.9-10.6,6.4c-1.3-4.2-5.1-6.4-10.3-6.4c-4.7,0-7.8,2.4-9.5,6v-5.4h-7L170.7,48.4L170.7,48.4z
		 M238,15.6c-6.9,0-12.4,4.2-13.4,10.5l6.3,1.1c0.5-3.8,3.2-6.1,7.1-6.1c4.2,0,7,2.4,7,6.4V28l-6.1,0.6c-9.9,1-14.9,4.4-14.9,10.8
		c0,5.5,4.4,9.5,10.8,9.5c4.3,0,8.3-2.2,10.1-5.4v4.9h6.9V28.3C251.9,20.2,246.2,15.6,238,15.6 M100.4,48.4h7V16.1h-7V48.4z
		 M141.4,28.6c1-4.8,4.2-7.5,8.6-7.5c5.1,0,8,3.1,8.5,7.5H141.4z M271.3,37.4c3,0,5.3-2.2,5.3-5.1c0-2.8-2.2-5.1-5.3-5.1
		s-5.1,2.2-5.1,5.1S268.3,37.4,271.3,37.4 M236.3,43.5c-3.3,0-5.4-1.8-5.4-4.4c0-2.9,2.7-4.7,7.9-5.3l6.1-0.7v1.3
		C245,39.7,241.7,43.5,236.3,43.5"/>
	<path class="st1" d="M289.8,37.4c2.9,0,5.2-2.2,5.2-5.1c0-2.8-2.2-5.1-5.2-5.1s-5.1,2.2-5.1,5.1S286.9,37.4,289.8,37.4"/>
	<path class="st1" d="M401.1,6.3c-0.4-1.4,0.3-2.2,1.7-2.2h3.5V1.7h-22.7v2.4l5.2,0c1.4,0,2.6,0.8,3,2.2l13.7,42.1h5.2l9.3-29.2
		l9,29.2h5.9l12.6-41.1c0.6-2.1,2-3.2,4.1-3.2c1.4,0,2.1,1,2.1,2.4v36.9c0,1.4-0.7,2.4-2.1,2.4h-7.6v2.4h28.7v-2.4h-7.6
		c-1.4,0-2.1-1.1-2.1-2.4V6.6c0-1.4,0.8-2.5,2.1-2.5h7.6V1.7h-36.6v2.4l4.2,0c3.1,0,4.2,1.6,3.3,4.7l-8.7,28.4l-9.6-30.9
		c-0.4-1.4,0.3-2.2,1.7-2.2h5.5V1.7h-22.7v2.4l3.2,0c1.4,0,2.6,0.8,3,2.2l2.3,7.4L411,36.6L401.1,6.3L401.1,6.3z M357.1,25
		c0,12.2,4.5,21.3,12.2,21.3c7.8,0,12.2-9.1,12.2-21.3s-4.5-21.3-12.2-21.3C361.6,3.7,357.1,12.8,357.1,25 M330.1,1.1
		c3.5,0,5.7,1,7.8,2.2c3,1.8,4.9,1.1,4.9-1.7V0h2.5v20.2h-2.2c-1.2-10.7-5.6-16.5-13-16.5c-8.6,0-12.2,9.1-12.2,21.3
		s3.7,21.2,12.2,21.2c10.6,0,15.7-7.7,17.5-21.2l0.7-4.8c1.6-11.2,9.1-19.1,21-19.1C382.8,1.1,391,11.4,391,25s-8.2,23.8-21.7,23.8
		c-10.6,0-17.7-6.2-20.3-15.5l-0.1-0.4l-0.1,0.7c-2.6,8-7.2,15.2-18.7,15.2c-13.5,0-21.4-10.2-21.4-23.8S316,1.1,330.1,1.1"/>
</g>
</svg>
