<?xml version="1.0" encoding="utf-8"?>
<!-- Generator: Adobe Illustrator 27.0.1, SVG Export Plug-In . SVG Version: 6.00 Build 0)  -->
<svg version="1.1" id="Layer_1" xmlns="http://www.w3.org/2000/svg" xmlns:xlink="http://www.w3.org/1999/xlink" x="0px" y="0px"
	 viewBox="0 0 543.4 202.7" style="enable-background:new 0 0 543.4 202.7;" xml:space="preserve">
<style type="text/css">
	.st0{fill:#231F20;}
</style>
<path class="st0" d="M101.1,0.4C45.3,0.4,0,45.7,0,101.6c0,23.7,8.1,45.5,21.8,62.7L2.3,183.7L20.6,202l19.6-19.6l-0.6-0.6
	c17,13.1,38.4,20.9,61.6,20.9c55.9,0,101.1-45.3,101.1-101.1V0.4H101.1L101.1,0.4z M146.2,156.2H127v-25.5h-23.3v25.5H61.4
	l-0.2-90.5l42.6-31.9l42.4,31.9L146.2,156.2L146.2,156.2z"/>
<path class="st0" d="M269,35.2c-9.1,0-18.6-6.1-18.6-17.6S260.3,0,268.7,0c4.7,0,8.4,1.1,10.9,2.7l-1,4.5c-2.5-1.6-5.8-2.7-9.4-2.7
	c-6.6,0-13.6,4.3-13.6,13.2s6.8,13.1,13.7,13.1c3.1,0,5.6-0.6,7.2-1.7v-7.1h-7.8v-4.1h12.7v13.7C278.1,34.1,274.1,35.2,269,35.2"/>
<path class="st0" d="M313,34.5l-10.7-14.9h-4.8v14.9h-5.1V0.7h10.7c4.8,0,10.2,3.1,10.2,9.5c0,4.5-2.7,7.4-5.9,8.7L319,34.6
	L313,34.5L313,34.5z M302.2,5h-4.7v10.3h4.7c3,0,5.8-1.6,5.8-5.1S305.3,5,302.2,5"/>
<polygon class="st0" points="326.4,34.5 326.4,0.7 344.6,0.7 344.6,5.1 331.5,5.1 331.5,15.3 342.5,15.3 342.5,19.7 331.5,19.7 
	331.5,30.1 346.5,30.1 346.5,34.5 "/>
<polygon class="st0" points="355.6,34.5 355.6,0.7 373.8,0.7 373.8,5.1 360.7,5.1 360.7,15.3 371.7,15.3 371.7,19.7 360.7,19.7 
	360.7,30.1 375.7,30.1 375.7,34.5 "/>
<path class="st0" d="M413.6,35.3l-15.9-17.3c-2.5-2.8-5.5-6.2-7.8-8.9l-0.1,0.1c0.1,3.1,0.1,5.9,0.1,8.5v17h-5.1V0.7h3.6l14.5,15.9
	c2,2.2,5,5.6,7.1,8.1l0.1-0.1c-0.1-2.6-0.1-5.5-0.1-8v-16h5.1v34.6L413.6,35.3L413.6,35.3z"/>
<path class="st0" d="M262.8,88.8h-11V55h9.4c4.5,0,9.5,2.9,9.5,8.9c0,2.5-1.2,5.1-3.1,5.9c3.1,0.9,6.3,4.4,6.3,8.8
	C273.8,85.5,268,88.8,262.8,88.8 M260.4,59.3h-3.5v8.9h3.5c2.8,0,5.1-1.3,5.1-4.4C265.5,60.7,263.1,59.3,260.4,59.3 M261.7,72.6
	h-4.8v11.9h4.8c3.6,0,6.9-1.8,6.9-5.9S265.3,72.6,261.7,72.6"/>
<path class="st0" d="M297.7,89.5c-7.9,0-13.8-4.7-13.8-12.6V55h5.1v21.4c0,5,2.8,8.5,8.7,8.5c5.9,0,8.8-3.5,8.8-8.5V55h5v21.9
	C311.5,84.8,305.6,89.5,297.7,89.5"/>
<rect x="323.7" y="55" class="st0" width="5.1" height="33.9"/>
<polygon class="st0" points="341.1,88.8 341.1,55 346.2,55 346.2,84.4 361.2,84.4 361.2,88.8 "/>
<path class="st0" d="M379.8,88.8h-10.4V55h10.4c9.4,0,18.3,6,18.3,16.9C398.1,82.8,389.2,88.8,379.8,88.8 M378.9,59.3h-4.4v25.1h4.4
	c7.6,0,14-4,14-12.6S386.5,59.3,378.9,59.3"/>
<rect x="409" y="55" class="st0" width="5.1" height="33.9"/>
<path class="st0" d="M455.1,89.6l-15.9-17.3c-2.5-2.8-5.5-6.2-7.8-8.9l-0.1,0.1c0.1,3.1,0.1,5.9,0.1,8.5v17h-5.1V55h3.6l14.5,15.9
	c2,2.2,5,5.6,7.1,8.1l0.1,0c-0.1-2.6-0.1-5.5-0.1-8V55h5.1v34.6L455.1,89.6L455.1,89.6z"/>
<path class="st0" d="M485.3,89.5c-9.1,0-18.6-6.1-18.6-17.6s9.8-17.6,18.3-17.6c4.7,0,8.4,1.1,10.9,2.7l-1,4.5
	c-2.5-1.6-5.8-2.7-9.4-2.7C479,58.7,472,63.1,472,72c0,8.9,6.8,13.1,13.7,13.1c3.1,0,5.6-0.6,7.2-1.7v-7.1H485v-4.1h12.7v13.7
	C494.5,88.4,490.4,89.5,485.3,89.5"/>
<path class="st0" d="M277.8,115.3c-1.6-1.1-5-2.2-8.5-2.2c-6.6,0-13.6,4.3-13.6,13.2s6.8,13.1,13.6,13.1c4,0,7.2-0.8,9.3-2.1
	l-1.1,4.9c-2.1,1.1-4.5,1.6-8.9,1.6c-8.5,0-18.3-6-18.3-17.6s9.8-17.6,18.3-17.6c4.7,0,7.9,1.1,10,2.2L277.8,115.3L277.8,115.3z"/>
<path class="st0" d="M303.9,143.8c-9,0-17.9-6.6-17.9-17.6s8.9-17.6,17.9-17.6s17.9,6.7,17.9,17.6S313,143.8,303.9,143.8 M303.9,113
	c-6.3,0-12.7,4.7-12.7,13.1s6.5,13.2,12.7,13.2s12.7-4.8,12.7-13.2S310.1,113,303.9,113"/>
<path class="st0" d="M345.8,143.8c-7.9,0-13.8-4.7-13.8-12.6v-21.9h5.1v21.4c0,5,2.8,8.5,8.7,8.5c5.9,0,8.8-3.5,8.8-8.5v-21.4h5
	v21.9C359.6,139.1,353.7,143.8,345.8,143.8"/>
<path class="st0" d="M399.8,143.9l-15.9-17.3c-2.5-2.8-5.5-6.2-7.8-8.9l-0.1,0c0.1,3.1,0.1,5.9,0.1,8.5v17H371v-33.9h3.6l14.5,15.9
	c2,2.2,5,5.6,7.1,8.1l0.1,0c-0.1-2.6-0.1-5.5-0.1-8v-16h5.1v34.6L399.8,143.9L399.8,143.9z"/>
<path class="st0" d="M438.8,115.3c-1.7-1.1-5-2.2-8.5-2.2c-6.6,0-13.6,4.3-13.6,13.2s6.8,13.1,13.6,13.1c4,0,7.2-0.8,9.3-2.1
	l-1.1,4.9c-2.1,1.1-4.5,1.6-8.9,1.6c-8.5,0-18.3-6-18.3-17.6s9.8-17.6,18.3-17.6c4.7,0,7.9,1.1,10,2.2L438.8,115.3L438.8,115.3z"/>
<rect x="449.9" y="109.3" class="st0" width="5.1" height="33.9"/>
<polygon class="st0" points="467.3,143.1 467.3,109.3 472.4,109.3 472.4,138.7 487.3,138.7 487.3,143.1 "/>
<path class="st0" d="M262.2,197.4h-10.4v-33.9h10.4c9.4,0,18.3,6,18.3,16.9C280.5,191.4,271.6,197.4,262.2,197.4 M261.3,167.9h-4.4
	v25.2h4.4c7.6,0,14-4,14-12.6C275.2,171.9,268.9,167.9,261.3,167.9"/>
<polygon class="st0" points="290.6,197.4 290.6,163.6 308.8,163.6 308.8,168 295.7,168 295.7,178.2 306.7,178.2 306.7,182.6 
	295.7,182.6 295.7,193 310.7,193 310.7,197.4 "/>
<path class="st0" d="M348.6,198.2l-15.9-17.4c-2.5-2.8-5.5-6.2-7.8-8.9l-0.1,0c0.1,3.1,0.1,5.9,0.1,8.5v17h-5.1v-33.9h3.6l14.5,15.9
	c2,2.2,5,5.6,7.1,8.1l0.1,0c-0.1-2.6-0.1-5.5-0.1-8v-16h5.1v34.6L348.6,198.2L348.6,198.2z"/>
<path class="st0" d="M394.9,197.4l-1.4-15.3c-0.2-2.3-0.4-5.2-0.5-7.7h-0.1c-1.1,2.4-2.7,5.7-3.8,7.8l-7.8,15.4h-1.9l-8-15.4
	c-1.2-2.2-2.6-5.2-3.8-7.7h-0.1c-0.1,2.6-0.4,5.6-0.5,7.6l-1.3,15.3H361l2.9-33.9h3.2l9,17.4c1.4,2.6,3.1,6.1,4.2,8.7h0.1
	c1.1-2.6,2.7-5.9,4.1-8.7l8.9-17.4h3.2l3,33.9L394.9,197.4L394.9,197.4z"/>
<path class="st0" d="M433.2,197.4l-3.7-8.8h-13.2l-3.7,8.8h-5l14.4-34.3h1.9l14.4,34.3H433.2L433.2,197.4z M424.5,176.3
	c-0.5-1.1-1-2.7-1.4-4.1h-0.1c-0.4,1.4-1,3-1.4,4.1l-3.3,8.3h9.7L424.5,176.3L424.5,176.3z"/>
<path class="st0" d="M468,197.4l-10.7-14.9h-4.8v14.9h-5.1v-33.9h10.7c4.8,0,10.2,3.1,10.2,9.5c0,4.5-2.6,7.4-5.9,8.7l11.6,15.7
	L468,197.4L468,197.4z M457.3,167.9h-4.7v10.3h4.7c3,0,5.8-1.6,5.8-5.1S460.3,167.9,457.3,167.9"/>
<polygon class="st0" points="499.9,197.4 486.6,181.6 486.6,197.4 481.4,197.4 481.4,163.6 486.6,163.6 486.6,179.6 499.9,163.6 
	505.9,163.6 491.8,180.3 506.2,197.4 "/>
<path class="st0" d="M518.4,165.3h-4.5v-1.8H525v1.8h-4.5V178h-2.1L518.4,165.3L518.4,165.3z"/>
<path class="st0" d="M541.3,177.9l-0.6-6.5c-0.1-1-0.2-2.2-0.2-3.3h0c-0.5,1-1.2,2.4-1.6,3.4l-3.4,6.6h-0.8l-3.4-6.6
	c-0.5-0.9-1.1-2.2-1.6-3.3h0c0,1.1-0.2,2.4-0.2,3.2l-0.6,6.5h-2l1.2-14.5h1.4l3.9,7.4c0.6,1.1,1.3,2.6,1.8,3.7h0
	c0.5-1.1,1.2-2.5,1.8-3.7l3.8-7.4h1.4l1.3,14.5L541.3,177.9L541.3,177.9z"/>
</svg>
