<svg width="334.69333" height="89.533333" xmlns="http://www.w3.org/2000/svg">
 <metadata id="metadata8">image/svg+xml</metadata>

 <g>
  <title>background</title>
  <rect fill="none" id="canvas_background" height="402" width="582" y="-1" x="-1"/>
 </g>
 <g>
  <title>Layer 1</title>
  <g id="g10" transform="matrix(1.3333333,0,0,-1.3333333,0,89.533333) ">
   <g id="g12" transform="scale(0.10000000149011612) ">
    <path fill="#ffffff" fill-rule="nonzero" d="m0,0l380.398,671.449l86.2,-146.136l-295.575,-525.17628l-171.023,-0.13672" id="path14"/>
    <path fill="#ffffff" fill-rule="nonzero" d="m520.98,431.996l-242.25,-431.29287l173.786,0.15625l157.523,278.21062l-89.059,152.926" id="path16"/>
    <path fill="#ffffff" fill-rule="nonzero" d="m659.32,194.559l-111.66,-193.60197l224.278,0.19531l-112.618,193.40666" id="path18"/>
    <path fill="#ffffff" fill-rule="nonzero" d="m886.965,423.484l0,130l64.457,0l0,-14.402l-47.899,0l0,-41.773l45.379,0l0,-14.403l-45.379,0l0,-59.422l-16.558,0" id="path20"/>
    <path fill="#ffffff" fill-rule="nonzero" d="m1017.66,473.902c0,24.848 -7.75,30.246 -19.09,30.246c-11.343,0 -19.09,-5.398 -19.09,-30.246c0,-29.527 3.782,-40.152 19.09,-40.152c15.3,0 19.09,10.625 19.09,40.152zm-53.66,-6.304c0,26.648 3.063,48.617 34.57,48.617c31.51,0 34.57,-21.969 34.57,-48.617c0,-40.153 -15.31,-45.914 -34.57,-45.914c-19.269,0 -34.57,5.761 -34.57,45.914" id="path22"/>
    <path fill="#ffffff" fill-rule="nonzero" d="m1071.82,500.727l0.36,0c6.13,13.867 13.69,15.488 28.09,15.488l0,-15.309c-2.7,0.364 -5.22,0.907 -7.92,0.907c-16.38,0 -20.53,-12.426 -20.53,-24.668l0,-53.661l-14.76,0l0,90.93l14.76,0l0,-13.687" id="path24"/>
    <path fill="#ffffff" fill-rule="nonzero" d="m1166.33,475.344c0,26.469 -7.38,29.707 -18.19,29.707c-9.36,0 -17.1,-4.504 -17.28,-29.707l35.47,0zm-35.47,-11.164c0,-25.391 6.84,-30.43 18.36,-30.43c10.09,0 15.31,8.102 15.85,17.285l16.2,0c-0.18,-20.168 -12.6,-29.351 -31.69,-29.351c-19.26,0 -34.57,5.761 -34.57,45.914c0,26.648 3.07,48.617 34.57,48.617c25.93,0 32.41,-14.223 32.41,-44.297l0,-7.738l-51.13,0" id="path26"/>
    <path fill="#ffffff" fill-rule="nonzero" d="m1255.79,423.484l0,63.02c0,9.726 -3.42,17.644 -16.02,17.644c-16.21,0 -18.55,-14.402 -18.55,-26.824l0,-53.84l-14.76,0l0,72.024c0,6.305 -0.37,12.601 -0.9,18.906l15.66,0l0,-11.703l0.72,0c5.76,10.262 12.6,13.504 24.31,13.504c19.44,0 24.31,-11.703 24.31,-29.711l0,-63.02l-14.77,0" id="path28"/>
    <path fill="#ffffff" fill-rule="nonzero" d="m1310.86,423.484l-14.77,0l0,90.93l14.77,0l0,-90.93zm-15.66,130l16.56,0l0,-15.843l-16.56,0l0,15.843" id="path30"/>
    <path fill="#ffffff" fill-rule="nonzero" d="m1385.74,423.484l0,63.02c0,9.726 -3.42,17.644 -16.02,17.644c-16.21,0 -18.55,-14.402 -18.55,-26.824l0,-53.84l-14.75,0l0,72.024c0,6.305 -0.37,12.601 -0.92,18.906l15.67,0l0,-11.703l0.72,0c5.76,10.262 12.62,13.504 24.32,13.504c19.43,0 24.29,-11.703 24.29,-29.711l0,-63.02l-14.76,0" id="path32"/>
    <path fill="#ffffff" fill-rule="nonzero" d="m1457.2,503.969c-16.74,0 -17.28,-20.164 -17.28,-32.231c0,-29.164 6.66,-36.008 17.63,-36.008c17.84,0 17.29,21.067 17.29,33.668c0,13.508 0.9,34.571 -17.64,34.571zm17.29,10.445l14.76,0l0,-100.113c0,-20.348 -13.51,-25.203 -33.49,-25.203c-15.12,0 -28.81,7.562 -27.54,24.304l16.56,0c0.18,-8.461 5.76,-13.144 13.87,-13.144c10.25,0 15.84,6.305 15.84,15.664l0,18.906l-0.55,0c-3.77,-7.199 -12.05,-11.344 -19.98,-11.344c-24.67,0 -29.53,21.246 -29.53,48.254c0,41.778 21.07,44.477 28.46,44.477c9.53,0 17.09,-4.145 21.23,-12.961l0.37,0l0,11.16" id="path34"/>
    <path fill="#ffffff" fill-rule="nonzero" d="m1566.28,475.344c0,26.469 -7.38,29.707 -18.18,29.707c-9.35,0 -17.11,-4.504 -17.28,-29.707l35.46,0zm-35.46,-11.164c0,-25.391 6.83,-30.43 18.35,-30.43c10.1,0 15.32,8.102 15.86,17.285l16.2,0c-0.18,-20.168 -12.6,-29.351 -31.68,-29.351c-19.28,0 -34.57,5.761 -34.57,45.914c0,26.648 3.04,48.617 34.57,48.617c25.91,0 32.4,-14.223 32.4,-44.297l0,-7.738l-51.13,0" id="path36"/>
    <path fill="#ffffff" fill-rule="nonzero" d="m1655.74,423.484l0,63.02c0,9.726 -3.42,17.644 -16.02,17.644c-16.21,0 -18.55,-14.402 -18.55,-26.824l0,-53.84l-14.75,0l0,72.024c0,6.305 -0.37,12.601 -0.92,18.906l15.67,0l0,-11.703l0.72,0c5.76,10.262 12.62,13.504 24.32,13.504c19.43,0 24.29,-11.703 24.29,-29.711l0,-63.02l-14.76,0" id="path38"/>
    <path fill="#ffffff" fill-rule="nonzero" d="m1749.88,450.492c0,-8.82 4.31,-16.742 14.22,-16.742c9,0 20.17,5.582 18.73,34.93c-14.05,-0.18 -32.95,1.082 -32.95,-18.188zm33.3,-13.859l-0.35,0c-4.51,-10.445 -11.53,-14.949 -22.87,-14.949c-19.26,0 -24.85,12.425 -24.85,29.886c0,27.551 27.01,28.813 47.72,28.274c0.35,12.058 0.54,25.207 -15.32,25.207c-9.9,0 -15.11,-6.664 -14.21,-16.203l-16.02,0c0.7,20.34 11.52,27.367 30.78,27.367c23.4,0 29.53,-12.067 29.53,-27.367l0,-43.754c0,-7.203 0.73,-14.586 1.8,-21.61l-16.21,0l0,13.149" id="path40"/>
    <path fill="#ffffff" fill-rule="nonzero" d="m1829.08,514.414l0,17.645c0,18.367 12.97,21.964 26.11,21.964c3.05,0 4.84,-0.175 7.01,-0.539l0,-10.625c-15.66,1.082 -18.36,-5.578 -18.36,-12.961l0,-15.484l18.36,0l0,-11.16l-18.36,0l0,-79.77l-14.76,0l0,79.77l-14.05,0l0,11.16l14.05,0" id="path42"/>
    <path fill="#ffffff" fill-rule="nonzero" d="m904.43,287.664l24.843,0c11.883,0 17.645,10.266 17.645,21.613c0,9.36 -4.684,19.805 -17.465,19.805l-25.023,0l0,-41.418zm0,-14.402l0,-59.778l-16.571,0l0,130l44.836,0c23.047,0 31.149,-16.203 31.149,-32.41c0,-15.304 -8.461,-27.011 -23.766,-29.707l0,-0.359c14.942,-2.348 20.348,-7.387 21.246,-33.488c0.18,-5.586 1.981,-25.926 4.5,-34.036l-17.285,0c-4.684,9.004 -3.598,25.93 -5.043,43.215c-1.262,15.84 -14.043,16.563 -19.625,16.563l-19.441,0" id="path44"/>
    <path fill="#ffffff" fill-rule="nonzero" d="m1018.73,345.105c-5.94,0 -10.81,-4.863 -10.81,-10.804c0,-5.762 4.87,-10.801 10.81,-10.801c5.76,0 10.8,5.039 10.8,10.801c0,5.941 -5.04,10.804 -10.8,10.804zm-18.19,-10.804c0,10.086 8.11,18.187 18.19,18.187c10.26,0 18.18,-8.285 18.18,-18.187c0,-10.082 -8.1,-18.184 -18.18,-18.184c-9.9,0 -18.19,7.922 -18.19,18.184zm-0.35,-93.805c0,-8.824 4.32,-16.746 14.22,-16.746c9,0 20.17,5.586 18.72,34.93c-14.04,-0.184 -32.94,1.078 -32.94,-18.184zm33.31,-13.863l-0.37,0c-4.5,-10.442 -11.52,-14.945 -22.86,-14.945c-19.27,0 -24.848,12.421 -24.848,29.882c0,27.551 27.008,28.813 47.708,28.274c0.37,12.058 0.54,25.207 -15.3,25.207c-9.91,0 -15.12,-6.664 -14.23,-16.203l-16.022,0c0.723,20.34 11.524,27.363 30.792,27.363c23.41,0 29.53,-12.063 29.53,-27.363l0,-43.75c0,-7.207 0.72,-14.59 1.8,-21.614l-16.2,0l0,13.149" id="path46"/>
    <path fill="#ffffff" fill-rule="nonzero" d="m1107.65,294.148c-15.84,0 -18.01,-12.605 -18.01,-36.914c0,-13.679 0,-33.484 18.55,-33.484c16.57,0 16.57,20.527 16.57,38.887c0,12.07 -0.73,31.511 -17.11,31.511zm17.11,49.336l14.76,0l0,-130l-14.76,0l0,10.801l-0.37,0c-5.04,-8.457 -11.34,-12.597 -20.88,-12.597c-14.58,0 -29.35,5.761 -29.35,45.734c0,22.683 0.72,48.789 30.07,48.789c8.64,0 14.94,-3.781 19.98,-10.977l0.55,0l0,48.25" id="path48"/>
    <path fill="#ffffff" fill-rule="nonzero" d="m1197.47,293.973c-16.75,0 -17.28,-20.164 -17.28,-32.235c0,-29.172 6.66,-36.008 17.64,-36.008c17.82,0 17.28,21.067 17.28,33.672c0,13.496 0.91,34.571 -17.64,34.571zm17.29,10.441l14.76,0l0,-100.109c0,-20.352 -13.5,-25.211 -33.49,-25.211c-15.13,0 -28.81,7.566 -27.55,24.304l16.56,0c0.18,-8.457 5.77,-13.136 13.87,-13.136c10.26,0 15.85,6.301 15.85,15.668l0,18.906l-0.55,0c-3.78,-7.207 -12.06,-11.352 -19.98,-11.352c-24.67,0 -29.53,21.25 -29.53,48.254c0,41.778 21.07,44.473 28.45,44.473c9.54,0 17.1,-4.141 21.24,-12.957l0.37,0l0,11.16" id="path50"/>
    <path fill="#ffffff" fill-rule="nonzero" d="m1271.08,213.484l-14.76,0l0,90.93l14.76,0l0,-90.93zm-15.66,130l16.56,0l0,-15.843l-16.56,0l0,15.843" id="path52"/>
    <path fill="#ffffff" fill-rule="nonzero" d="m1286.19,304.414l16.57,0l20.34,-77.062l0.37,0l21.95,77.062l15.49,0l-28.43,-90.93l-19.28,0l-27.01,90.93" id="path54"/>
    <path fill="#ffffff" fill-rule="nonzero" d="m1426.44,265.344c0,26.461 -7.38,29.707 -18.18,29.707c-9.38,0 -17.11,-4.504 -17.29,-29.707l35.47,0zm-35.47,-11.164c0,-25.391 6.84,-30.43 18.36,-30.43c10.08,0 15.29,8.105 15.84,17.285l16.21,0c-0.17,-20.168 -12.62,-29.347 -31.7,-29.347c-19.26,0 -34.57,5.761 -34.57,45.91c0,26.648 3.07,48.613 34.57,48.613c25.94,0 32.42,-14.219 32.42,-44.285l0,-7.746l-51.13,0" id="path56"/>
    <path fill="#ffffff" fill-rule="nonzero" d="m1515.89,213.484l0,63.02c0,9.726 -3.41,17.644 -16.03,17.644c-16.19,0 -18.54,-14.402 -18.54,-26.824l0,-53.84l-14.76,0l0,72.024c0,6.297 -0.35,12.605 -0.9,18.906l15.66,0l0,-11.699l0.73,0c5.76,10.254 12.59,13.496 24.29,13.496c19.46,0 24.32,-11.699 24.32,-29.707l0,-63.02l-14.77,0" id="path58"/>
    <path fill="#ffffff" fill-rule="nonzero" d="m1587.53,294.148c-15.86,0 -18,-12.605 -18,-36.914c0,-13.679 0,-33.484 18.53,-33.484c16.56,0 16.56,20.527 16.56,38.887c0,12.07 -0.7,31.511 -17.09,31.511zm17.09,49.336l14.77,0l0,-130l-14.77,0l0,10.801l-0.35,0c-5.04,-8.457 -11.35,-12.597 -20.88,-12.597c-14.59,0 -29.35,5.761 -29.35,45.734c0,22.683 0.72,48.789 30.06,48.789c8.65,0 14.96,-3.781 20,-10.977l0.52,0l0,48.25" id="path60"/>
    <path fill="#ffffff" fill-rule="nonzero" d="m1696.44,265.344c0,26.461 -7.38,29.707 -18.18,29.707c-9.38,0 -17.11,-4.504 -17.29,-29.707l35.47,0zm-35.47,-11.164c0,-25.391 6.84,-30.43 18.36,-30.43c10.08,0 15.29,8.105 15.84,17.285l16.21,0c-0.17,-20.168 -12.62,-29.347 -31.7,-29.347c-19.26,0 -34.57,5.761 -34.57,45.91c0,26.648 3.07,48.613 34.57,48.613c25.94,0 32.42,-14.219 32.42,-44.285l0,-7.746l-51.13,0" id="path62"/>
    <path fill="#ffffff" fill-rule="nonzero" d="m1796.87,213.484l-16.56,0l0,130l16.56,0l0,-130" id="path64"/>
    <path fill="#ffffff" fill-rule="nonzero" d="m1875.89,213.484l0,63.02c0,9.726 -3.41,17.644 -16.03,17.644c-16.19,0 -18.54,-14.402 -18.54,-26.824l0,-53.84l-14.76,0l0,72.024c0,6.297 -0.35,12.605 -0.9,18.906l15.66,0l0,-11.699l0.73,0c5.76,10.254 12.59,13.496 24.29,13.496c19.46,0 24.32,-11.699 24.32,-29.707l0,-63.02l-14.77,0" id="path66"/>
    <path fill="#ffffff" fill-rule="nonzero" d="m1947.34,293.973c-16.74,0 -17.29,-20.164 -17.29,-32.235c0,-29.172 6.68,-36.008 17.66,-36.008c17.83,0 17.29,21.067 17.29,33.672c0,13.496 0.89,34.571 -17.66,34.571zm17.28,10.441l14.77,0l0,-100.109c0,-20.352 -13.5,-25.211 -33.48,-25.211c-15.13,0 -28.81,7.566 -27.56,24.304l16.57,0c0.19,-8.457 5.76,-13.136 13.86,-13.136c10.28,0 15.84,6.301 15.84,15.668l0,18.906l-0.52,0c-3.79,-7.207 -12.07,-11.352 -20,-11.352c-24.65,0 -29.52,21.25 -29.52,48.254c0,41.778 21.06,44.473 28.44,44.473c9.55,0 17.11,-4.141 21.25,-12.957l0.35,0l0,11.16" id="path68"/>
    <path fill="#ffffff" fill-rule="nonzero" d="m2056.44,265.344c0,26.461 -7.38,29.707 -18.18,29.707c-9.38,0 -17.11,-4.504 -17.29,-29.707l35.47,0zm-35.47,-11.164c0,-25.391 6.84,-30.43 18.36,-30.43c10.08,0 15.29,8.105 15.84,17.285l16.21,0c-0.17,-20.168 -12.62,-29.347 -31.7,-29.347c-19.26,0 -34.57,5.761 -34.57,45.91c0,26.648 3.07,48.613 34.57,48.613c25.94,0 32.42,-14.219 32.42,-44.285l0,-7.746l-51.13,0" id="path70"/>
    <path fill="#ffffff" fill-rule="nonzero" d="m2145.89,213.484l0,63.02c0,9.726 -3.41,17.644 -16.03,17.644c-16.19,0 -18.54,-14.402 -18.54,-26.824l0,-53.84l-14.76,0l0,72.024c0,6.297 -0.35,12.605 -0.9,18.906l15.66,0l0,-11.699l0.73,0c5.76,10.254 12.59,13.496 24.29,13.496c19.46,0 24.32,-11.699 24.32,-29.707l0,-63.02l-14.77,0" id="path72"/>
    <path fill="#ffffff" fill-rule="nonzero" d="m2200.97,213.484l-14.76,0l0,90.93l14.76,0l0,-90.93zm-15.68,130l16.58,0l0,-15.843l-16.58,0l0,15.843" id="path74"/>
    <path fill="#ffffff" fill-rule="nonzero" d="m2243.63,232.207c2.87,-5.937 7.56,-8.457 14.94,-8.457c15.31,0 19.08,10.625 19.08,40.156c0,5.938 -0.35,10.614 -1.25,14.219l-32.77,-45.918zm30.06,53.84c-3.25,6.121 -8.64,8.101 -15.12,8.101c-11.35,0 -19.08,-5.398 -19.08,-30.242c0,-9.914 0.52,-17.832 1.62,-23.41l32.58,45.551zm17.65,24.488l5.76,-3.601l-10.07,-14.043c5.21,-8.828 6.11,-21.426 6.11,-35.293c0,-40.149 -15.31,-45.91 -34.57,-45.91c-9.55,0 -18.18,1.437 -24.32,7.738l-8.63,-12.238l-5.59,3.953l10.08,14.043c-3.94,7.207 -6.11,17.472 -6.11,32.414c0,26.648 3.07,48.613 34.57,48.613c11.35,0 18.91,-2.883 24.12,-7.734l8.65,12.058" id="path76"/>
    <path fill="#ffffff" fill-rule="nonzero" d="m2331.83,290.73l0.35,0c6.12,13.86 13.69,15.481 28.09,15.481l0,-15.305c-2.7,0.364 -5.22,0.899 -7.91,0.899c-16.39,0 -20.53,-12.418 -20.53,-24.668l0,-53.653l-14.76,0l0,90.93l14.76,0l0,-13.684" id="path78"/>
    <path fill="#ffffff" fill-rule="nonzero" d="m2426.34,265.344c0,26.461 -7.38,29.707 -18.18,29.707c-9.38,0 -17.11,-4.504 -17.29,-29.707l35.47,0zm-35.47,-11.164c0,-25.391 6.84,-30.43 18.36,-30.43c10.08,0 15.3,8.105 15.84,17.285l16.21,0c-0.17,-20.168 -12.61,-29.347 -31.7,-29.347c-19.25,0 -34.57,5.761 -34.57,45.91c0,26.648 3.07,48.613 34.57,48.613c25.94,0 32.43,-14.219 32.43,-44.285l0,-7.746l-51.14,0" id="path80"/>
    <path fill="#ffffff" fill-rule="nonzero" d="m2481.77,290.73l0.35,0c6.12,13.86 13.7,15.481 28.09,15.481l0,-15.305c-2.7,0.364 -5.21,0.899 -7.91,0.899c-16.39,0 -20.53,-12.418 -20.53,-24.668l0,-53.653l-14.76,0l0,90.93l14.76,0l0,-13.684" id="path82"/>
    <path fill="#ffffff" fill-rule="nonzero" d="m886.965,3.48438l0,129.99962l64.457,0l0,-14.402l-47.899,0l0,-41.7773l45.379,0l0,-14.4063l-45.379,0l0,-59.41402l-16.558,0" id="path84"/>
    <path fill="#ffffff" fill-rule="nonzero" d="m984.348,77.6641l24.842,0c11.88,0 17.65,10.2656 17.65,21.6132c0,9.3557 -4.69,19.8047 -17.47,19.8047l-25.022,0l0,-41.4179zm0,-14.4024l0,-59.77732l-16.571,0l0,129.99962l44.833,0c23.05,0 31.15,-16.199 31.15,-32.41c0,-15.3045 -8.46,-27.0115 -23.76,-29.7068l0,-0.3594c14.94,-2.3476 20.34,-7.3867 21.24,-33.4883c0.18,-5.5859 1.98,-25.9257 4.5,-34.03512l-17.28,0c-4.69,9.00392 -3.61,25.92972 -5.04,43.21482c-1.27,15.8399 -14.05,16.5625 -19.63,16.5625l-19.442,0" id="path86"/>
    <path fill="#ffffff" fill-rule="nonzero" d="m1086.94,3.48438l-16.56,0l0,129.99962l16.56,0l0,-129.99962" id="path88"/>
   </g>
  </g>
 </g>
</svg>