<?xml version="1.0" encoding="utf-8"?>
<!-- Generator: Adobe Illustrator 20.0.0, SVG Export Plug-In . SVG Version: 6.00 Build 0)  -->
<svg version="1.1" xmlns="http://www.w3.org/2000/svg" xmlns:xlink="http://www.w3.org/1999/xlink" x="0px" y="0px"
	 viewBox="0 0 95.9 47.1" style="enable-background:new 0 0 95.9 47.1;" xml:space="preserve">
<style type="text/css">
	.st0{fill:#FE3D12;}
</style>
<g id="Layer_1">
</g>
<g id="Layer_2">
	<g>
		<g>
			<g>
				<path d="M49.7,23.3v3.1c0,1-0.4,1.8-1.6,1.8h-1.7v-6.7h1.7C49.3,21.5,49.7,22.2,49.7,23.3z M47.9,27.3c0.5,0,0.6-0.3,0.6-0.7
					v-3.5c0-0.4-0.2-0.7-0.6-0.7h-0.5v4.9H47.9z"/>
				<path d="M56.2,23.2v4.9h-0.9v-6.7h1.1l1.2,4.5v-4.5h0.9v6.7h-1L56.2,23.2z"/>
				<path d="M59.6,26.7v-0.9h1v0.9c0,0.4,0.2,0.6,0.6,0.6c0.4,0,0.5-0.2,0.5-0.6v-0.3c0-0.4-0.2-0.6-0.5-0.9l-0.7-0.7
					c-0.6-0.6-0.9-1-0.9-1.8v-0.2c0-0.8,0.5-1.5,1.6-1.5c1.1,0,1.6,0.6,1.6,1.5v0.5h-1v-0.6c0-0.4-0.2-0.6-0.5-0.6
					c-0.3,0-0.5,0.2-0.5,0.6V23c0,0.4,0.2,0.6,0.5,0.9l0.7,0.7c0.6,0.6,0.9,1,0.9,1.7v0.3c0,0.9-0.5,1.6-1.6,1.6
					S59.6,27.6,59.6,26.7z"/>
				<path d="M65,24.9v3.3h-1.1v-6.7H65v2.9l1.2-2.9h1.1l-1.3,3l1.3,3.7h-1.2L65,24.9z"/>
				<path d="M68.3,21.5H71v0.9h-1.6v1.9h1.1v0.9h-1.1v2H71v0.9h-2.7V21.5z"/>
				<g>
					<path d="M52.1,33.5v3.1H51v-6.7h1.6c1.1,0,1.6,0.6,1.6,1.5v0.9c0,0.7-0.3,1.1-0.9,1.3l1.1,3h-1.2L52.1,33.5z M52,30.6v2.3h0.4
						c0.4,0,0.6-0.2,0.6-0.6v-1.1c0-0.4-0.2-0.6-0.6-0.6H52z"/>
				</g>
				<path d="M56.5,33.3v3.3h-1.1v-6.7h1.1v2.9l1.2-2.9h1.1l-1.3,3l1.3,3.7h-1.2L56.5,33.3z"/>
				<path d="M59.8,29.8h1.1v6.7h-1.1V29.8z"/>
				<path d="M62,29.8h3v0.9H64v5.8h-1.1v-5.8H62V29.8z"/>
				<path d="M66,29.8h2.7v0.9h-1.6v1.9h1.1v0.9h-1.1v2h1.6v0.9H66V29.8z"/>
				<path d="M70.9,33.3v3.3h-1.1v-6.7h1.1v2.9l1.2-2.9h1.1l-1.3,3l1.3,3.7h-1.2L70.9,33.3z"/>
				<path d="M74.2,29.8h3v0.9h-0.9v5.8h-1.1v-5.8h-0.9V29.8z"/>
				<path d="M50.1,38.2l-1.3,6.7h-1.2l-1.3-6.7h1.1l0.8,4.7h0l0.8-4.7H50.1z"/>
				<path d="M50.9,38.2H52v6.7h-1.1V38.2z"/>
				<path d="M58.7,41.6v3.3h-1.1v-6.7h1.1v2.9l1.2-2.9H61l-1.3,3l1.3,3.7h-1.2L58.7,41.6z"/>
				<path d="M61.8,43.4v-0.9h1v0.9c0,0.4,0.2,0.6,0.6,0.6c0.4,0,0.5-0.2,0.5-0.6v-0.3c0-0.4-0.2-0.6-0.5-0.9l-0.7-0.7
					c-0.6-0.6-0.9-1-0.9-1.8v-0.2c0-0.8,0.5-1.5,1.6-1.5c1.1,0,1.6,0.6,1.6,1.5v0.5h-1v-0.6c0-0.4-0.2-0.6-0.5-0.6
					c-0.3,0-0.5,0.2-0.5,0.6v0.1c0,0.4,0.2,0.6,0.5,0.9l0.7,0.7c0.6,0.6,0.9,1,0.9,1.7v0.3c0,0.9-0.5,1.6-1.6,1.6
					C62.3,45,61.8,44.3,61.8,43.4z"/>
				<path d="M66.2,43.1v-3.2c0-1,0.5-1.8,1.7-1.8c1.2,0,1.7,0.8,1.7,1.8v3.2c0,1-0.5,1.8-1.7,1.8C66.7,45,66.2,44.2,66.2,43.1z
					 M68.4,43.3v-3.6c0-0.4-0.2-0.7-0.6-0.7c-0.4,0-0.6,0.3-0.6,0.7v3.6c0,0.4,0.2,0.7,0.6,0.7C68.3,44,68.4,43.7,68.4,43.3z"/>
				<path d="M73.8,39.8h-0.1l-0.8,5.1h-0.3l-0.9-5.1h-0.1v5.1h-0.9v-6.7H72l0.7,3.8h0l0.7-3.8h1.4v6.7h-1V39.8z"/>
				<path d="M78.2,41.9h-1.1v3H76v-6.7h1.1V41h1.1v-2.8h1.1v6.7h-1.1V41.9z"/>
				<path d="M80.5,38.2h2.7v0.9h-1.6V41h1.1v0.9h-1.1v2h1.6v0.9h-2.7V38.2z"/>
				<path d="M87.6,40v3.1c0,1-0.4,1.8-1.6,1.8h-1.7v-6.7H86C87.2,38.2,87.6,38.9,87.6,40z M85.8,44c0.5,0,0.6-0.3,0.6-0.7v-3.5
					c0-0.4-0.2-0.7-0.6-0.7h-0.5V44H85.8z"/>
				<path d="M88.7,38.2h2.7v0.9h-1.6V41H91v0.9h-1.1v2h1.6v0.9h-2.7V38.2z"/>
			</g>
			<g>
				<path d="M50.4,28.2l1.3-6.7h1.3l1.3,6.7h-1.2l-0.2-1.2h-1.2l-0.2,1.2H50.4z M51.7,26h1.2l-0.6-3.5h0L51.7,26z"/>
			</g>
			<g>
				<path d="M54.3,41.8v3.1h-1.1v-6.7h1.6c1.1,0,1.6,0.6,1.6,1.5v0.9c0,0.7-0.3,1.1-0.9,1.3l1.1,3h-1.2L54.3,41.8z M54.3,39v2.3h0.4
					c0.4,0,0.6-0.2,0.6-0.6v-1.1c0-0.4-0.2-0.6-0.6-0.6H54.3z"/>
			</g>
			<g>
				<path d="M93.6,41.8v3.1h-1.1v-6.7h1.6c1.1,0,1.6,0.6,1.6,1.5v0.9c0,0.7-0.3,1.1-0.9,1.3l1.1,3h-1.2L93.6,41.8z M93.6,39v2.3H94
					c0.4,0,0.6-0.2,0.6-0.6v-1.1c0-0.4-0.2-0.6-0.6-0.6H93.6z"/>
			</g>
			<g>
				<path d="M46.3,36.5l1.3-6.7h1.3l1.3,6.7H49l-0.2-1.2h-1.2l-0.2,1.2H46.3z M47.6,34.4h1.2l-0.6-3.5h0L47.6,34.4z"/>
			</g>
		</g>
		<path class="st0" d="M24.6,0L0,8.9l16.3,16.3v21.8l6.2-2.2l0-18.8L35,21.5l0,18.8l5.7-2.1V16.1L24.6,0z M10.5,11l12.7-4.6l9.5,9.5
			L20,20.6L10.5,11z"/>
	</g>
</g>
</svg>
