<svg id="Layer_1" data-name="Layer 1" xmlns="http://www.w3.org/2000/svg" viewBox="0 0 633.22 208.21"><defs><style>.cls-1{fill:#1a1a18;}</style></defs><polygon class="cls-1" points="335.75 2.27 335.75 137.82 419.07 137.82 419.07 107.43 368.61 107.43 368.61 2.27 335.75 2.27"/><path class="cls-1" d="M243.46,0a68.36,68.36,0,0,0-49.67,20.44C180.2,33.88,173.31,50.54,173.31,70s6.83,36.2,20.31,49.7,30.24,20.25,49.5,20.25,36-6.87,49.32-20.42C306,105.87,312.93,89,312.93,69.43c0-19.42-6.84-36-20.31-49.34S262.6,0,243.46,0Zm25.47,97.14h0c-7.13,7.77-15.56,11.51-25.81,11.51s-18.72-3.76-25.81-11.49a39.91,39.91,0,0,1-10.45-27.38,39,39,0,0,1,10.45-27.19c7.09-7.74,15.53-11.5,25.81-11.5s18.71,3.76,25.81,11.5a39,39,0,0,1,10.44,27.19A39.81,39.81,0,0,1,268.93,97.14Z"/><rect class="cls-1" x="437.93" y="2.27" width="33.04" height="135.55"/><path class="cls-1" d="M612.91,20.09C599.44,6.76,582.9,0,563.76,0a68.36,68.36,0,0,0-49.67,20.44C500.5,33.88,493.6,50.54,493.6,70s6.84,36.19,20.32,49.7,30.24,20.25,49.49,20.25,36-6.87,49.32-20.42c13.6-13.62,20.49-30.46,20.49-50.06C633.22,50,626.39,33.41,612.91,20.09ZM589.23,97.14h0c-7.1,7.74-15.55,11.5-25.82,11.5s-18.71-3.76-25.8-11.49a39.86,39.86,0,0,1-10.45-27.38A39,39,0,0,1,537.6,42.59c7.1-7.74,15.54-11.5,25.81-11.5s18.72,3.76,25.81,11.5a39,39,0,0,1,10.45,27.19A39.81,39.81,0,0,1,589.23,97.14Z"/><rect class="cls-1" y="168.21" width="151.63" height="30.39"/><polygon class="cls-1" points="117.18 2.27 75.81 54.92 34.45 2.27 0 2.27 0 137.82 33.04 137.82 33.04 53.41 75.81 104.89 118.59 53.41 118.59 137.82 151.63 137.82 151.63 2.27 117.18 2.27"/><path class="cls-1" d="M173.31,171.29h4.16l7.8,21.84h1l7.8-21.84h4.15l-9.35,26h-6.24Z"/><path class="cls-1" d="M203.66,161.41h4.42v4.42h-4.42Zm.26,9.88h3.9v26h-3.9Z"/><path class="cls-1" d="M235.3,193.65H235a9.91,9.91,0,0,1-8.32,4.16c-6.81,0-12-5.46-12-13.52s5.15-13.52,12-13.52a9.91,9.91,0,0,1,8.32,4.16h.26v-14h3.9v36.4h-3.38Zm0-9.36c0-6-3.9-9.88-8.32-9.88s-8.32,3.9-8.32,9.88,3.9,9.88,8.32,9.88S235.3,190.27,235.3,184.29Z"/><path class="cls-1" d="M269.79,190a11.19,11.19,0,0,1-11.18,7.8c-7,0-12.48-5.46-12.48-13.52s5.46-13.52,12.48-13.52c6.81,0,12,5.2,12,12.48a17.94,17.94,0,0,1-.16,2.24l-.1.62H250c.57,4.94,4.21,8.06,8.58,8.06a7.52,7.52,0,0,0,7-4.16Zm-3.12-7.54c-.26-4.73-3.64-8.06-8.06-8.06-4.73,0-8,3.33-8.58,8.06Z"/><path class="cls-1" d="M277.25,171.29h3.38l.52,2.86h.25a7.85,7.85,0,0,1,1.93-1.66,10.65,10.65,0,0,1,5.87-1.72c6,0,10.4,4.42,10.4,10.92v15.6h-3.9v-15.6a7.05,7.05,0,0,0-7-7.28,7.49,7.49,0,0,0-7.53,7.28v15.6h-3.9Z"/><path class="cls-1" d="M307.16,192.61h4.68l-2.34,8.84h-3.38Z"/><path class="cls-1" d="M349.23,193.65H349a9.91,9.91,0,0,1-8.32,4.16c-6.81,0-12-5.46-12-13.52s5.15-13.52,12-13.52a9.91,9.91,0,0,1,8.32,4.16h.26v-14h3.9v36.4h-3.38Zm0-9.36c0-6-3.9-9.88-8.32-9.88s-8.32,3.9-8.32,9.88,3.9,9.88,8.32,9.88S349.23,190.27,349.23,184.29Z"/><path class="cls-1" d="M361.62,171.29h3.9v15.6a7.05,7.05,0,0,0,7,7.28,7.5,7.5,0,0,0,7.54-7.28v-15.6H384v26H380.6l-.52-2.86h-.26a8,8,0,0,1-2,1.72,10.47,10.47,0,0,1-5.82,1.66c-6,0-10.4-4.42-10.4-10.92Z"/><path class="cls-1" d="M404.27,160.89h3.9v14h.26a9.91,9.91,0,0,1,8.32-4.16c6.81,0,12,5.46,12,13.52s-5.15,13.52-12,13.52a9.91,9.91,0,0,1-8.32-4.16h-.26l-.52,3.64h-3.38Zm20.54,23.4c0-6-3.9-9.88-8.32-9.88s-8.32,3.9-8.32,9.88,3.9,9.88,8.32,9.88S424.81,190.27,424.81,184.29Z"/><path class="cls-1" d="M434.61,204.05h4.93a2,2,0,0,0,1.82-1.56l1-3.12-10.65-28.08h4.16l8,21.58h1l7.28-21.58h4.16l-11.7,32.76c-.83,2.44-2,3.64-4.94,3.64h-5.19Z"/><path class="cls-1" d="M464.42,199.37c.26,2.65,2.81,5.2,7.8,5.2,4.73,0,7.8-2.86,7.8-7.28v-4.68h-.26a10.81,10.81,0,0,1-8.32,3.64c-6.81,0-12-5.2-12-12.74s5.15-12.74,12-12.74a10.63,10.63,0,0,1,8.32,3.9H480l.52-3.38h3.38v26c0,6.5-4.42,10.92-11.7,10.92s-11.44-4.42-11.7-8.84ZM480,183.51c0-5.46-3.64-9.1-8.32-9.1s-8.32,3.64-8.32,9.1,3.64,9.1,8.32,9.1S480,189,480,183.51Z"/><path class="cls-1" d="M495.53,199.37c.26,2.65,2.81,5.2,7.8,5.2,4.73,0,7.8-2.86,7.8-7.28v-4.68h-.26a10.81,10.81,0,0,1-8.32,3.64c-6.81,0-12-5.2-12-12.74s5.15-12.74,12-12.74a10.63,10.63,0,0,1,8.32,3.9h.26l.52-3.38H515v26c0,6.5-4.42,10.92-11.7,10.92s-11.44-4.42-11.7-8.84Zm15.6-15.86c0-5.46-3.64-9.1-8.32-9.1s-8.32,3.64-8.32,9.1,3.64,9.1,8.32,9.1S511.13,189,511.13,183.51Z"/><path class="cls-1" d="M545.5,190a11.18,11.18,0,0,1-11.17,7.8c-7,0-12.48-5.46-12.48-13.52s5.46-13.52,12.48-13.52c6.81,0,11.95,5.2,11.95,12.48a18.43,18.43,0,0,1-.15,2.24l-.11.62H525.75c.57,4.94,4.21,8.06,8.58,8.06a7.49,7.49,0,0,0,7-4.16Zm-3.12-7.54c-.26-4.73-3.63-8.06-8-8.06-4.73,0-8,3.33-8.58,8.06Z"/><path class="cls-1" d="M553,171.29h3.38l.52,2.6h.26a5.11,5.11,0,0,1,4.94-2.6h4.42v3.64h-3.9c-3.69,0-5.72,2-5.72,5.72v16.64H553Z"/><path class="cls-1" d="M581.83,171.29h3.38l.52,3.64H586a9.91,9.91,0,0,1,8.32-4.16c6.81,0,12,5.46,12,13.52s-5.15,13.52-12,13.52a9.91,9.91,0,0,1-8.32-4.16h-.26v14h-3.9Zm20.54,13c0-6-3.9-9.88-8.32-9.88s-8.32,3.9-8.32,9.88,3.9,9.88,8.32,9.88S602.37,190.27,602.37,184.29Z"/><path class="cls-1" d="M629.32,194.17h-.26a6.92,6.92,0,0,1-1.87,1.82,9.92,9.92,0,0,1-6.19,1.82c-5.46,0-9.09-3.33-9.09-8.06,0-5,3.11-8.32,10.39-8.32h7v-.78c0-4-2.29-6.24-6.24-6.24s-6.24,2.08-6.5,4.42h-3.9c.27-4.16,3.9-8.06,10.4-8.06,6.29,0,10.14,3.59,10.14,9.88v16.64h-3.38Zm0-9.1h-7c-4.73,0-6.49,2.13-6.49,4.68s1.81,4.42,5.19,4.42c5.2,0,8.32-3.07,8.32-8.06Zm-6.24-26.77A4.68,4.68,0,1,1,618.4,163,4.59,4.59,0,0,1,623.08,158.3Zm2.08,4.67a2.08,2.08,0,1,0-2.08,2.08A2.05,2.05,0,0,0,625.16,163Z"/></svg>