<?xml version="1.0" encoding="utf-8"?>
<!-- Generator: Adobe Illustrator 27.1.1, SVG Export Plug-In . SVG Version: 6.00 Build 0)  -->
<svg version="1.1" id="Layer_1" xmlns="http://www.w3.org/2000/svg" xmlns:xlink="http://www.w3.org/1999/xlink" x="0px" y="0px"
	 viewBox="0 0 600 500" style="enable-background:new 0 0 600 500;" xml:space="preserve">
<style type="text/css">
	.st0{fill:none;stroke:#333333;stroke-width:2.38;stroke-linecap:square;stroke-miterlimit:10;}
	.st1{fill:none;stroke:#333333;stroke-width:2.38;stroke-linecap:square;stroke-linejoin:round;}
	.st2{fill:none;stroke:#333333;stroke-width:3.57;stroke-miterlimit:10;}
	.st3{fill:none;stroke:#333333;stroke-width:2.84;stroke-miterlimit:10;}
	.st4{enable-background:new    ;}
	.st5{fill:#333333;}
	.st6{fill:#E9D498;}
	.st7{fill:#5A9A8F;}
	.st8{fill:#83B3AB;}
	.st9{fill:#707070;}
	.st10{fill:#324651;}
	.st11{fill:#8F7E96;}
	.st12{fill:#D27657;}
	.st13{fill:#65747D;}
	.st14{fill:none;stroke:#F7F7F6;stroke-width:1.19;stroke-linecap:round;stroke-linejoin:round;}
	.st15{fill:#AB9EB0;}
	.st16{fill:none;stroke:#FFFFFF;stroke-width:0.6;stroke-linecap:round;stroke-linejoin:round;}
	.st17{fill:#DD9881;}
</style>
<line class="st0" x1="379.4" y1="255.7" x2="476" y2="255.7"/>
<line class="st0" x1="153.6" y1="255.7" x2="240.8" y2="255.7"/>
<polyline class="st1" points="379.4,81.4 411.5,81.4 476.1,180.9 "/>
<line class="st1" x1="154.6" y1="81.4" x2="240.3" y2="81.4"/>
<polyline class="st1" points="379.6,430 411.5,430 476.1,330.4 "/>
<line class="st1" x1="154.6" y1="430" x2="239.9" y2="430"/>
<g>
	<g>
		<circle class="st2" cx="541.1" cy="246.3" r="33.5"/>
		<path class="st3" d="M565.6,255.3c1-2.8,1.6-5.9,1.6-9c0-14.4-11.7-26-26-26s-26,11.7-26,26s11.7,26,26,26c4.5,0,8.6-1.1,12.3-3.1
			l0.3-0.2v-27.4l-11.5-11.4L528.5,242v17.7h16.1v-12.4h-7.7c0,0,0,10.3,0,11.9"/>
	</g>
	<g>
		<g class="st4">
			<path class="st5" d="M541.2,302.2c-0.8,0-1.5-0.1-2.1-0.4c-0.6-0.3-1.2-0.6-1.7-1.1c-0.5-0.5-0.8-1-1.1-1.6
				c-0.3-0.6-0.4-1.3-0.4-2s0.1-1.4,0.4-2c0.3-0.6,0.6-1.2,1.1-1.6c0.5-0.5,1-0.8,1.7-1.1c0.6-0.3,1.3-0.4,2.1-0.4
				c0.8,0,1.5,0.1,2.1,0.4s1.2,0.6,1.7,1.2l-0.9,0.9c-0.4-0.4-0.8-0.7-1.3-0.9s-1-0.3-1.5-0.3c-0.6,0-1.1,0.1-1.6,0.3
				c-0.5,0.2-0.9,0.5-1.2,0.8c-0.4,0.3-0.6,0.7-0.8,1.2c-0.2,0.5-0.3,1-0.3,1.5s0.1,1.1,0.3,1.5c0.2,0.5,0.5,0.9,0.8,1.2
				c0.4,0.3,0.8,0.6,1.2,0.8c0.5,0.2,1,0.3,1.6,0.3c0.5,0,1-0.1,1.5-0.3s0.9-0.5,1.3-0.9l0.9,0.9c-0.5,0.5-1,0.9-1.7,1.2
				S541.9,302.2,541.2,302.2z"/>
		</g>
		<g class="st4">
			<path class="st5" d="M549.7,302.1c-0.8,0-1.4-0.2-2-0.5c-0.6-0.3-1.1-0.8-1.4-1.4c-0.3-0.6-0.5-1.2-0.5-2c0-0.8,0.2-1.4,0.5-2
				c0.3-0.6,0.8-1,1.4-1.4s1.3-0.5,2-0.5c0.8,0,1.4,0.2,2,0.5s1.1,0.8,1.4,1.4c0.3,0.6,0.5,1.2,0.5,2c0,0.7-0.2,1.4-0.5,2
				c-0.3,0.6-0.8,1-1.4,1.4C551.1,302,550.5,302.1,549.7,302.1z M549.7,300.9c0.5,0,0.9-0.1,1.3-0.3c0.4-0.2,0.7-0.5,0.9-0.9
				c0.2-0.4,0.3-0.9,0.3-1.4c0-0.5-0.1-1-0.3-1.4c-0.2-0.4-0.5-0.7-0.9-0.9c-0.4-0.2-0.8-0.3-1.3-0.3c-0.5,0-0.9,0.1-1.3,0.3
				c-0.4,0.2-0.7,0.5-0.9,0.9c-0.2,0.4-0.3,0.9-0.3,1.4c0,0.5,0.1,1,0.3,1.4c0.2,0.4,0.5,0.7,0.9,0.9
				C548.8,300.8,549.2,300.9,549.7,300.9z"/>
			<path class="st5" d="M555.5,302v-10.6h1.4V302H555.5z"/>
			<path class="st5" d="M559.5,302v-10.6h1.4V302H559.5z"/>
			<path class="st5" d="M566.8,302.1c-0.8,0-1.5-0.2-2.1-0.5c-0.6-0.3-1.1-0.8-1.4-1.4c-0.3-0.6-0.5-1.2-0.5-2c0-0.8,0.2-1.4,0.5-2
				c0.3-0.6,0.8-1,1.4-1.4c0.6-0.3,1.2-0.5,1.9-0.5c0.7,0,1.4,0.2,1.9,0.5c0.6,0.3,1,0.8,1.3,1.4c0.3,0.6,0.5,1.3,0.5,2
				c0,0.1,0,0.1,0,0.2c0,0.1,0,0.1,0,0.2h-6.4v-1h5.7l-0.6,0.3c0-0.5-0.1-0.9-0.3-1.3c-0.2-0.4-0.5-0.7-0.9-0.9
				c-0.4-0.2-0.8-0.3-1.3-0.3c-0.5,0-0.9,0.1-1.3,0.3c-0.4,0.2-0.7,0.5-0.9,0.9c-0.2,0.4-0.3,0.8-0.3,1.3v0.2c0,0.5,0.1,1,0.3,1.3
				c0.2,0.4,0.6,0.7,1,0.9c0.4,0.2,0.9,0.3,1.4,0.3c0.4,0,0.9-0.1,1.2-0.2c0.4-0.2,0.7-0.4,1-0.7l0.8,0.9c-0.3,0.4-0.8,0.7-1.3,0.9
				S567.4,302.1,566.8,302.1z"/>
		</g>
		<g class="st4">
			<path class="st5" d="M575.5,302.1c-0.8,0-1.5-0.2-2.1-0.5c-0.6-0.3-1.1-0.8-1.4-1.4c-0.3-0.6-0.5-1.2-0.5-2c0-0.8,0.2-1.4,0.5-2
				c0.3-0.6,0.8-1,1.4-1.4c0.6-0.3,1.3-0.5,2.1-0.5c0.7,0,1.3,0.1,1.8,0.4c0.5,0.3,1,0.7,1.2,1.2l-1,0.7c-0.2-0.4-0.5-0.6-0.9-0.8
				c-0.4-0.2-0.7-0.3-1.1-0.3c-0.5,0-0.9,0.1-1.3,0.3c-0.4,0.2-0.7,0.5-0.9,0.9c-0.2,0.4-0.3,0.9-0.3,1.4c0,0.5,0.1,1,0.3,1.4
				c0.2,0.4,0.5,0.7,0.9,0.9c0.4,0.2,0.8,0.3,1.3,0.3c0.4,0,0.8-0.1,1.1-0.3c0.4-0.2,0.7-0.4,0.9-0.8l1,0.7
				c-0.3,0.5-0.7,0.9-1.2,1.2C576.8,302,576.1,302.1,575.5,302.1z"/>
		</g>
		<g class="st4">
			<path class="st5" d="M579.3,295.6v-1.1h4.8v1.1H579.3z M583,302.1c-0.8,0-1.3-0.2-1.8-0.6c-0.4-0.4-0.6-1-0.6-1.8v-6.9h1.4v6.9
				c0,0.4,0.1,0.7,0.3,0.9c0.2,0.2,0.5,0.3,0.9,0.3c0.4,0,0.8-0.1,1.1-0.4l0.4,1c-0.2,0.2-0.5,0.3-0.7,0.4
				C583.6,302.1,583.3,302.1,583,302.1z"/>
		</g>
		<g class="st4">
			<path class="st5" d="M499.3,302v-12h2.8v9.7h6v2.3H499.3z"/>
		</g>
		<g class="st4">
			<path class="st5" d="M515.2,302.3c-0.9,0-1.8-0.2-2.6-0.5c-0.8-0.3-1.5-0.7-2.1-1.3c-0.6-0.6-1-1.2-1.4-2
				c-0.3-0.8-0.5-1.6-0.5-2.5s0.2-1.7,0.5-2.5c0.3-0.8,0.8-1.4,1.4-2c0.6-0.6,1.3-1,2.1-1.3c0.8-0.3,1.6-0.5,2.6-0.5
				c1,0,2,0.2,2.8,0.5s1.5,0.9,2.1,1.6l-1.8,1.6c-0.4-0.5-0.9-0.8-1.4-1.1s-1-0.3-1.6-0.3c-0.6,0-1.1,0.1-1.5,0.3
				c-0.5,0.2-0.9,0.4-1.2,0.8s-0.6,0.7-0.8,1.2c-0.2,0.5-0.3,1-0.3,1.6s0.1,1.1,0.3,1.6c0.2,0.5,0.5,0.9,0.8,1.2s0.7,0.6,1.2,0.8
				c0.5,0.2,1,0.3,1.5,0.3c0.6,0,1.1-0.1,1.6-0.3s1-0.6,1.4-1.1l1.8,1.6c-0.6,0.7-1.3,1.2-2.1,1.6S516.2,302.3,515.2,302.3z"/>
		</g>
		<g class="st4">
			<path class="st5" d="M520.2,302l5.3-12h2.7l5.3,12h-2.9l-4.4-10.6h1.1L523,302H520.2z M522.8,299.5l0.7-2.1h6.1l0.8,2.1H522.8z"
				/>
		</g>
	</g>
</g>
<g>
	<g>
		<path class="st6" d="M309.7,143.9c-0.5,0-0.9,0-1.4,0l0.6-25.1l0,0c0.3,0,0.5,0,0.8,0c1,0,1.9,0,2.9-0.1c1-0.1,2-0.2,2.9-0.4
			c1-0.2,2-0.4,3-0.7c1-0.3,2-0.6,3-1c2-0.8,3.9-1.8,5.7-2.9c1.6-1.1,3.1-2.2,4.5-3.6l17.3,18.2c-2.5,2.4-5.2,4.5-8,6.4
			c-1.6,1.1-3.3,2-5,2.9c-1.7,0.9-3.4,1.7-5.2,2.4c-1.7,0.7-3.5,1.3-5.3,1.8c-1.8,0.5-3.5,0.9-5.3,1.2c-1.7,0.3-3.5,0.6-5.2,0.7
			C313.1,143.9,311.4,143.9,309.7,143.9L309.7,143.9z"/>
		<path class="st7" d="M308.9,118.9l-0.6,25.1c-1.2,0-2.5-0.1-3.7-0.2c-1.8-0.2-3.5-0.4-5.2-0.7c-1.8-0.3-3.6-0.8-5.3-1.2
			c-1.8-0.5-3.6-1.1-5.3-1.8c-1.8-0.7-3.5-1.5-5.2-2.4c-1.7-0.9-3.4-1.9-5-2.9c-3.3-2.1-6.3-4.6-9.1-7.4s-5.2-5.8-7.4-9.1
			c-1.1-1.6-2-3.3-2.9-5c-0.9-1.7-1.7-3.4-2.4-5.2c-0.7-1.7-1.3-3.5-1.8-5.3c-0.4-1.5-0.8-3-1.1-4.5l24.6-4.9
			c0.2,0.8,0.4,1.7,0.6,2.5c0.3,1,0.6,2,1,3c0.8,2,1.8,3.9,3,5.7c1.2,1.8,2.6,3.5,4.1,5.1s3.2,2.9,5.1,4.1c1.8,1.2,3.7,2.2,5.7,2.9
			c1,0.4,2,0.7,3,1c1,0.3,2,0.5,3,0.7c1,0.2,2,0.3,2.9,0.4C307.5,118.8,308.2,118.8,308.9,118.9L308.9,118.9L308.9,118.9z"/>
		<path class="st8" d="M348.9,128.3l-17.3-18.2c0.2-0.2,0.4-0.4,0.6-0.6c1.5-1.6,2.9-3.2,4.1-5.1c1.2-1.8,2.2-3.7,3-5.7
			c0.4-1,0.7-2,1-3c0.3-1,0.5-2,0.7-3c0.2-1,0.3-1.9,0.4-2.9c0.1-0.9,0.1-1.9,0.1-2.9h25.1c0,1.7-0.1,3.4-0.2,5.1
			c-0.2,1.8-0.4,3.5-0.7,5.2c-0.3,1.8-0.8,3.6-1.2,5.3c-0.5,1.8-1.1,3.6-1.8,5.3c-0.7,1.8-1.5,3.5-2.4,5.2c-0.9,1.7-1.9,3.4-2.9,5
			c-2.1,3.3-4.6,6.3-7.4,9.1C349.6,127.6,349.2,128,348.9,128.3z"/>
		<path class="st9" d="M278.5,93.3l-24.6,4.9c-0.1-0.3-0.1-0.6-0.2-0.8c-0.3-1.7-0.6-3.5-0.7-5.2c-0.1-1.7-0.2-3.4-0.2-5.1
			c0-1.2,0-2.4,0.1-3.7l25,1.6c0,0.7-0.1,1.4-0.1,2.1c0,0.9,0,1.9,0.1,2.9c0.1,1,0.2,2,0.4,2.9C278.4,93,278.5,93.2,278.5,93.3
			L278.5,93.3z"/>
		<path class="st10" d="M366.6,87h-25.1c0-0.9,0-1.9-0.1-2.9c-0.1-1-0.2-2-0.4-2.9c-0.2-1-0.4-2-0.7-3c-0.3-1-0.6-2-1-3
			c-0.7-1.7-1.5-3.4-2.5-5l21.4-13.1c0.7,1.2,1.4,2.4,2.1,3.7c0.9,1.7,1.7,3.4,2.4,5.2c0.7,1.7,1.3,3.5,1.8,5.3
			c0.5,1.8,0.9,3.5,1.2,5.3c0.3,1.7,0.6,3.5,0.7,5.2C366.5,83.6,366.6,85.3,366.6,87L366.6,87z"/>
		<path class="st11" d="M278,85l-25-1.6c0-0.5,0.1-1,0.1-1.4c0.2-1.8,0.4-3.5,0.7-5.2c0.3-1.8,0.8-3.6,1.2-5.3
			c0.5-1.8,1.1-3.6,1.8-5.3c0.7-1.8,1.5-3.5,2.4-5.2c0.9-1.7,1.9-3.4,2.9-5c0.3-0.5,0.7-1,1-1.5l0,0l20.5,14.4l0,0
			c-0.2,0.3-0.4,0.6-0.6,0.9c-1.2,1.8-2.2,3.7-3,5.7c-0.4,1-0.7,1.9-1,3c-0.3,1-0.5,2-0.7,3c-0.2,1-0.3,1.9-0.4,2.9
			C278,84.5,277.9,84.7,278,85L278,85z"/>
		<path class="st12" d="M358.2,57.2l-21.4,13.1c-0.1-0.2-0.3-0.5-0.5-0.7c-1.2-1.8-2.6-3.5-4.1-5.1c-1.5-1.5-3.2-2.9-5.1-4.1
			c-1.8-1.2-3.7-2.2-5.7-3c-1-0.4-2-0.7-3-1c-0.5-0.1-1-0.3-1.4-0.4l5.8-24.4c0.9,0.2,1.7,0.4,2.6,0.7c1.8,0.5,3.6,1.1,5.3,1.8
			c1.8,0.7,3.5,1.5,5.2,2.4c1.7,0.9,3.4,1.9,5,2.9c3.3,2.1,6.3,4.6,9.1,7.4c2.8,2.8,5.2,5.8,7.4,9.1
			C357.6,56.3,357.9,56.8,358.2,57.2L358.2,57.2z"/>
		<path class="st13" d="M283.7,68.8L283.7,68.8l-20.5-14.4c1.9-2.7,4-5.2,6.3-7.5c2.8-2.8,5.8-5.2,9.1-7.4c1.6-1.1,3.3-2,5-2.9
			c1.7-0.9,3.4-1.7,5.2-2.4c1.7-0.7,3.5-1.3,5.3-1.8c1.8-0.5,3.5-0.9,5.3-1.2c1.7-0.3,3.5-0.6,5.2-0.7c1.7-0.1,3.4-0.2,5.1-0.2
			s3.4,0.1,5.1,0.2c1.8,0.2,3.5,0.4,5.2,0.7c0.9,0.2,1.8,0.4,2.7,0.6L317,56.1c-0.5-0.1-1-0.2-1.5-0.3c-1-0.2-2-0.3-2.9-0.4
			c-1-0.1-1.9-0.1-2.9-0.1s-1.9,0-2.9,0.1c-1,0.1-2,0.2-2.9,0.4c-1,0.2-2,0.4-3,0.7c-1,0.3-2,0.6-3,1c-2,0.8-3.9,1.8-5.7,3
			c-1.8,1.2-3.5,2.6-5.1,4.1C285.9,65.8,284.7,67.3,283.7,68.8z"/>
	</g>
	<g>
		<path class="st14" d="M263.1,54.3c-0.4,0.5-0.7,1-1,1.5c-1.1,1.6-2,3.3-2.9,5c-0.9,1.7-1.7,3.4-2.4,5.2c-0.7,1.7-1.3,3.5-1.8,5.3
			c-0.5,1.8-0.9,3.5-1.2,5.3c-0.3,1.7-0.6,3.5-0.7,5.2c0,0.5-0.1,1-0.1,1.4c-0.1,1.2-0.1,2.4-0.1,3.7c0,1.7,0.1,3.4,0.2,5.1
			c0.2,1.8,0.4,3.5,0.7,5.2c0.1,0.3,0.1,0.6,0.2,0.8c0.3,1.5,0.7,3,1.1,4.5c0.5,1.8,1.1,3.6,1.8,5.3c0.7,1.8,1.5,3.5,2.4,5.2
			c0.9,1.7,1.9,3.4,2.9,5c2.1,3.3,4.6,6.3,7.4,9.1s5.8,5.3,9.1,7.4c1.6,1.1,3.3,2,5,2.9c1.7,0.9,3.4,1.7,5.2,2.4
			c1.7,0.7,3.5,1.3,5.3,1.8c1.8,0.5,3.5,0.9,5.3,1.2c1.7,0.3,3.5,0.6,5.2,0.7c1.2,0.1,2.5,0.2,3.7,0.2c0.5,0,0.9,0,1.4,0
			c1.7,0,3.4-0.1,5.1-0.2c1.8-0.2,3.5-0.4,5.2-0.7c1.8-0.3,3.6-0.8,5.3-1.2c1.8-0.5,3.6-1.1,5.3-1.8c1.8-0.7,3.5-1.5,5.2-2.4
			c1.7-0.9,3.4-1.9,5-2.9c2.9-1.9,5.5-4,8-6.4c0.4-0.3,0.7-0.7,1.1-1c2.8-2.8,5.2-5.8,7.4-9.1c1.1-1.6,2-3.3,2.9-5
			c0.9-1.7,1.7-3.4,2.4-5.2c0.7-1.7,1.3-3.5,1.8-5.3c0.5-1.8,0.9-3.5,1.2-5.3c0.3-1.7,0.6-3.5,0.7-5.2c0.1-1.7,0.2-3.4,0.2-5.1
			s-0.1-3.4-0.2-5.1c-0.2-1.8-0.4-3.5-0.7-5.2c-0.3-1.8-0.8-3.6-1.2-5.3c-0.5-1.8-1.1-3.6-1.8-5.3c-0.7-1.8-1.5-3.5-2.4-5.2
			c-0.6-1.2-1.3-2.5-2.1-3.7c-0.3-0.4-0.5-0.9-0.8-1.3c-2.1-3.3-4.6-6.3-7.4-9.1c-2.8-2.8-5.8-5.2-9.1-7.4c-1.6-1.1-3.3-2-5-2.9
			c-1.7-0.9-3.4-1.7-5.2-2.4c-1.7-0.7-3.5-1.3-5.3-1.8c-0.9-0.2-1.7-0.5-2.6-0.7c-0.9-0.2-1.8-0.4-2.7-0.6c-1.7-0.3-3.5-0.6-5.2-0.7
			c-1.7-0.1-3.4-0.2-5.1-0.2s-3.4,0.1-5.1,0.2c-1.8,0.2-3.5,0.4-5.2,0.7c-1.8,0.3-3.6,0.8-5.3,1.2c-1.8,0.5-3.6,1.1-5.3,1.8
			c-1.8,0.7-3.5,1.5-5.2,2.4c-1.7,0.9-3.4,1.9-5,2.9c-3.3,2.2-6.3,4.6-9.1,7.4C267.2,49.1,265,51.6,263.1,54.3"/>
		<path class="st14" d="M308.9,118.9c0.3,0,0.5,0,0.8,0c1,0,1.9,0,2.9-0.1c1-0.1,2-0.2,2.9-0.4c1-0.2,2-0.4,3-0.7c1-0.3,2-0.6,3-1
			c2-0.8,3.9-1.8,5.7-2.9c1.6-1.1,3.1-2.2,4.5-3.6c0.2-0.2,0.4-0.4,0.6-0.6c1.5-1.6,2.9-3.2,4.1-5.1c1.2-1.8,2.2-3.7,3-5.7
			c0.4-1,0.7-2,1-3c0.3-1,0.5-2,0.7-3c0.2-1,0.3-1.9,0.4-2.9c0.1-0.9,0.1-1.9,0.1-2.9s0-1.9-0.1-2.9c-0.1-1-0.2-2-0.4-2.9
			c-0.2-1-0.4-2-0.7-3c-0.3-1-0.6-2-1-3c-0.7-1.7-1.5-3.4-2.5-5c-0.1-0.2-0.3-0.5-0.5-0.7c-1.2-1.8-2.6-3.5-4.1-5.1
			c-1.5-1.5-3.2-2.9-5.1-4.1c-1.8-1.2-3.7-2.2-5.7-3c-1-0.4-2-0.7-3-1c-0.5-0.1-1-0.3-1.4-0.4c-0.5-0.1-1-0.2-1.5-0.3
			c-1-0.2-2-0.3-2.9-0.4c-1-0.1-1.9-0.1-2.9-0.1s-1.9,0-2.9,0.1c-1,0.1-2,0.2-2.9,0.4c-1,0.2-2,0.4-3,0.7c-1,0.3-2,0.6-3,1
			c-2,0.8-3.9,1.8-5.7,3c-1.8,1.2-3.5,2.6-5.1,4.1c-1.3,1.3-2.5,2.7-3.5,4.2c-0.2,0.3-0.4,0.6-0.6,0.9c-1.2,1.8-2.2,3.7-3,5.7
			c-0.4,1-0.7,1.9-1,3c-0.3,1-0.5,2-0.7,3c-0.2,1-0.3,1.9-0.4,2.9c0,0.3,0,0.5-0.1,0.8c0,0.7-0.1,1.4-0.1,2.1c0,0.9,0,1.9,0.1,2.9
			c0.1,1,0.2,2,0.4,2.9c0,0.2,0.1,0.3,0.1,0.5c0.2,0.8,0.4,1.7,0.6,2.5c0.3,1,0.6,2,1,3c0.8,2,1.8,3.9,3,5.7
			c1.2,1.8,2.6,3.5,4.1,5.1s3.2,2.9,5.1,4.1c1.8,1.2,3.7,2.2,5.7,2.9c1,0.4,2,0.7,3,1c1,0.3,2,0.5,3,0.7c1,0.2,2,0.3,2.9,0.4
			C307.5,118.8,308.2,118.9,308.9,118.9L308.9,118.9z"/>
		<line class="st14" x1="341.5" y1="87" x2="366.6" y2="87"/>
		<line class="st14" x1="336.8" y1="70.4" x2="358.2" y2="57.2"/>
		<line class="st14" x1="317" y1="56.1" x2="322.8" y2="31.6"/>
		<polyline class="st14" points="283.6,68.8 263.1,54.3 263.1,54.3 		"/>
		<line class="st14" x1="278" y1="85" x2="252.9" y2="83.4"/>
		<polyline class="st14" points="278.5,93.3 253.9,98.2 253.9,98.2 		"/>
		<polyline class="st14" points="308.9,118.9 308.3,143.9 308.3,143.9 		"/>
		<line class="st14" x1="331.6" y1="110.1" x2="348.9" y2="128.3"/>
	</g>
</g>
<g>
	<g>
		<path class="st6" d="M366.6,258c0,0.5,0,0.9,0,1.4l-25.1-0.6c0-0.3,0-0.5,0-0.8c0-1,0-1.9-0.1-2.9c-0.1-1-0.2-2-0.4-2.9
			c-0.2-1-0.4-2-0.7-3c-0.3-1-0.6-2-1-3c-0.8-2-1.8-3.9-3-5.7c-1-1.6-2.2-3.1-3.5-4.5l18.2-17.3c2.4,2.5,4.5,5.2,6.4,8
			c1.1,1.6,2,3.3,2.9,5c0.9,1.7,1.7,3.4,2.4,5.2c0.7,1.7,1.3,3.5,1.8,5.3c0.5,1.8,0.9,3.5,1.2,5.3c0.3,1.7,0.6,3.5,0.7,5.2
			C366.5,254.6,366.6,256.3,366.6,258L366.6,258z"/>
		<path class="st7" d="M341.5,258.8l25.1,0.6c0,1.2-0.1,2.5-0.2,3.7c-0.2,1.8-0.4,3.5-0.7,5.2c-0.3,1.8-0.8,3.6-1.2,5.3
			c-0.5,1.8-1.1,3.6-1.8,5.3c-0.7,1.8-1.5,3.5-2.4,5.2c-0.9,1.7-1.9,3.4-2.9,5c-2.1,3.3-4.6,6.3-7.4,9.1c-2.8,2.8-5.8,5.2-9.1,7.4
			c-1.6,1.1-3.3,2-5,2.9c-1.7,0.9-3.4,1.7-5.2,2.4c-1.7,0.7-3.5,1.3-5.3,1.8c-1.5,0.4-3,0.8-4.5,1.1l-4.9-24.6l0,0
			c0.8-0.2,1.7-0.4,2.5-0.6c1-0.3,2-0.6,3-1c2-0.8,3.9-1.8,5.7-3c1.8-1.2,3.5-2.6,5.1-4.1c1.5-1.5,2.9-3.2,4.1-5.1
			c1.2-1.8,2.2-3.7,3-5.7c0.4-1,0.7-2,1-3c0.3-1,0.5-2,0.7-3c0.2-1,0.3-2,0.4-2.9C341.5,260.2,341.5,259.5,341.5,258.8L341.5,258.8z
			"/>
		<path class="st8" d="M351,218.8l-18.2,17.3c-0.2-0.2-0.4-0.4-0.6-0.6c-1.5-1.6-3.2-2.9-5.1-4.1c-1.8-1.2-3.7-2.2-5.7-2.9
			c-1-0.4-2-0.7-3-1c-1-0.3-2-0.5-3-0.7c-1-0.2-2-0.3-2.9-0.4c-1-0.1-1.9-0.1-2.9-0.1v-25.1c1.7,0,3.4,0.1,5.1,0.2
			c1.8,0.2,3.5,0.4,5.2,0.7c1.8,0.3,3.6,0.8,5.3,1.2c1.8,0.5,3.6,1.1,5.3,1.8c1.8,0.7,3.5,1.5,5.2,2.4c1.7,0.9,3.4,1.9,5,2.9
			c3.3,2.1,6.3,4.6,9.1,7.4C350.3,218.1,350.6,218.5,351,218.8L351,218.8z"/>
		<path class="st9" d="M316,289.2l4.9,24.6c-0.3,0-0.5,0.1-0.8,0.2c-1.7,0.3-3.5,0.6-5.2,0.7c-1.7,0.1-3.4,0.2-5.1,0.2
			c-1.2,0-2.4,0-3.7-0.1l1.6-25c0.7,0,1.4,0.1,2,0.1c1,0,1.9,0,2.9-0.1c1-0.1,2-0.2,2.9-0.4C315.6,289.3,315.8,289.3,316,289.2
			L316,289.2L316,289.2z"/>
		<path class="st10" d="M309.7,201.1v25.1c-1,0-1.9,0-2.9,0.1c-1,0.1-2,0.2-2.9,0.4c-1,0.2-2,0.4-3,0.7c-1,0.3-2,0.6-3,1l-0.3,0.1
			l-9.5-23.2c0.2-0.1,0.4-0.1,0.6-0.2c1.7-0.7,3.5-1.3,5.3-1.8c1.8-0.5,3.5-0.9,5.3-1.2c1.7-0.3,3.5-0.6,5.2-0.7
			C306.3,201.2,308,201.1,309.7,201.1L309.7,201.1z"/>
		<path class="st11" d="M307.7,289.8l-1.6,25c-0.5,0-1-0.1-1.5-0.1c-1.8-0.2-3.5-0.4-5.2-0.7c-1.8-0.3-3.6-0.8-5.3-1.2
			c-1.8-0.5-3.6-1.1-5.3-1.8c-1.8-0.7-3.5-1.5-5.2-2.4c-1.7-0.9-3.4-1.9-5-2.9c-0.5-0.3-1-0.7-1.5-1l14.4-20.5
			c0.3,0.2,0.6,0.4,0.9,0.6c1.8,1.2,3.7,2.2,5.7,3c1,0.4,2,0.7,3,1c1,0.3,2,0.5,3,0.7c1,0.2,2,0.3,2.9,0.4
			C307.1,289.7,307.4,289.8,307.7,289.8L307.7,289.8z"/>
		<path class="st15" d="M288.2,205.3l9.5,23.2c-1.6,0.7-3.2,1.4-4.6,2.4l0,0l-13.1-21.4c1.2-0.7,2.4-1.4,3.7-2.1
			C285.1,206.7,286.6,206,288.2,205.3z"/>
		<path class="st13" d="M293,230.9L293,230.9c-0.2,0.1-0.5,0.3-0.7,0.5c-1.8,1.2-3.5,2.6-5.1,4.1s-2.9,3.2-4.1,5.1
			c-1.2,1.8-2.2,3.7-3,5.7c-0.4,1-0.7,2-1,3c-0.3,1-0.5,2-0.7,3c-0.2,1-0.3,1.9-0.4,2.9c-0.1,1-0.1,1.9-0.1,2.9s0,1.9,0.1,2.9
			c0.1,1,0.2,2,0.4,2.9c0.2,1,0.4,2,0.7,3c0.3,1,0.6,2,1,3c0.8,2,1.8,3.9,3,5.7c1.2,1.8,2.6,3.5,4.1,5.1c1.3,1.3,2.7,2.5,4.2,3.5
			L277,304.6c-2.7-1.9-5.2-4-7.5-6.3c-2.8-2.8-5.2-5.8-7.4-9.1c-1.1-1.6-2-3.3-2.9-5c-0.9-1.7-1.7-3.4-2.4-5.2
			c-0.7-1.7-1.3-3.5-1.8-5.3c-0.5-1.8-0.9-3.5-1.2-5.3c-0.3-1.7-0.6-3.5-0.7-5.2c-0.1-1.7-0.2-3.4-0.2-5.1s0.1-3.4,0.2-5.1
			c0.2-1.8,0.4-3.5,0.7-5.2c0.3-1.8,0.8-3.6,1.2-5.3c0.5-1.8,1.1-3.6,1.8-5.3c0.7-1.8,1.5-3.5,2.4-5.2c0.9-1.7,1.9-3.4,2.9-5
			c2.1-3.3,4.6-6.3,7.4-9.1c2.8-2.8,5.8-5.2,9.1-7.4c0.4-0.3,0.9-0.6,1.3-0.8L293,230.9L293,230.9z"/>
	</g>
	<g>
		<path class="st14" d="M366.6,259.4c0-0.5,0-0.9,0-1.4c0-1.7-0.1-3.4-0.2-5.1c-0.2-1.8-0.4-3.5-0.7-5.2c-0.3-1.8-0.8-3.6-1.2-5.3
			c-0.5-1.8-1.1-3.6-1.8-5.3c-0.7-1.8-1.5-3.5-2.4-5.2c-0.9-1.7-1.9-3.4-2.9-5c-1.9-2.9-4-5.6-6.4-8c-0.3-0.4-0.7-0.7-1-1.1
			c-2.8-2.8-5.8-5.2-9.1-7.4c-1.6-1.1-3.3-2-5-2.9c-1.7-0.9-3.4-1.7-5.2-2.4c-1.7-0.7-3.5-1.3-5.3-1.8c-1.8-0.5-3.5-0.9-5.3-1.2
			c-1.7-0.3-3.5-0.6-5.2-0.7c-1.7-0.1-3.4-0.2-5.1-0.2s-3.4,0.1-5.1,0.2c-1.8,0.2-3.5,0.4-5.2,0.7c-1.8,0.3-3.5,0.8-5.3,1.2
			c-1.8,0.5-3.5,1.1-5.3,1.8c-0.2,0.1-0.4,0.1-0.6,0.2c-1.6,0.6-3.1,1.4-4.6,2.1c-1.2,0.6-2.5,1.4-3.7,2.1c-0.4,0.3-0.9,0.6-1.3,0.8
			c-3.3,2.1-6.3,4.6-9.1,7.4c-2.8,2.8-5.2,5.8-7.4,9.1c-1.1,1.6-2,3.3-2.9,5c-0.9,1.7-1.7,3.4-2.4,5.2c-0.7,1.7-1.3,3.5-1.8,5.3
			c-0.5,1.8-0.9,3.5-1.2,5.3c-0.3,1.7-0.6,3.5-0.7,5.2c-0.1,1.7-0.2,3.4-0.2,5.1s0.1,3.4,0.2,5.1c0.2,1.8,0.4,3.5,0.7,5.2
			c0.3,1.8,0.8,3.5,1.2,5.3c0.5,1.8,1.1,3.5,1.8,5.3c0.7,1.8,1.5,3.5,2.4,5.2c0.9,1.7,1.9,3.4,2.9,5c2.1,3.3,4.6,6.3,7.4,9.1
			c2.3,2.3,4.9,4.5,7.5,6.3c0.5,0.4,1,0.7,1.5,1c1.6,1.1,3.3,2,5,2.9c1.7,0.9,3.4,1.7,5.2,2.4c1.7,0.7,3.5,1.3,5.3,1.8
			c1.8,0.5,3.5,0.9,5.3,1.2c1.7,0.3,3.5,0.6,5.2,0.7c0.5,0,1,0.1,1.5,0.1c1.2,0.1,2.4,0.1,3.7,0.1c1.7,0,3.4-0.1,5.1-0.2
			c1.8-0.2,3.5-0.4,5.2-0.7c0.3,0,0.5-0.1,0.8-0.2c1.5-0.3,3-0.7,4.5-1.1c1.8-0.5,3.6-1.1,5.3-1.8c1.8-0.7,3.5-1.5,5.2-2.4
			c1.7-0.9,3.4-1.9,5-2.9c3.3-2.1,6.3-4.6,9.1-7.4c2.8-2.8,5.2-5.8,7.4-9.1c1.1-1.6,2-3.3,2.9-5c0.9-1.7,1.7-3.4,2.4-5.2
			c0.7-1.7,1.3-3.5,1.8-5.3c0.5-1.8,0.9-3.5,1.2-5.3c0.3-1.7,0.6-3.5,0.7-5.2C366.5,261.9,366.6,260.6,366.6,259.4L366.6,259.4z"/>
		<path class="st14" d="M341.5,258.8c0-0.3,0-0.5,0-0.8c0-1,0-1.9-0.1-2.9c-0.1-1-0.2-2-0.4-2.9c-0.2-1-0.4-2-0.7-3
			c-0.3-1-0.6-2-1-3c-0.8-2-1.8-3.9-3-5.7c-1-1.6-2.2-3.1-3.5-4.5c-0.2-0.2-0.4-0.4-0.6-0.6c-1.5-1.6-3.2-2.9-5.1-4.1
			c-1.8-1.2-3.7-2.2-5.7-2.9c-1-0.4-2-0.7-3-1c-1-0.3-2-0.5-3-0.7c-1-0.2-2-0.3-2.9-0.4c-1-0.1-1.9-0.1-2.9-0.1s-1.9,0-2.9,0.1
			c-1,0.1-2,0.2-2.9,0.4c-1,0.2-2,0.4-3,0.7c-1,0.3-2,0.6-3,1l-0.3,0.1c-1.6,0.7-3.2,1.4-4.6,2.4c-0.2,0.1-0.5,0.3-0.7,0.5
			c-1.8,1.2-3.5,2.6-5.1,4.1s-2.9,3.2-4.1,5.1c-1.2,1.8-2.2,3.7-3,5.7c-0.4,1-0.7,2-1,3c-0.3,1-0.5,2-0.7,3c-0.2,1-0.3,1.9-0.4,2.9
			c-0.1,1-0.1,1.9-0.1,2.9s0,1.9,0.1,2.9c0.1,1,0.2,2,0.4,2.9c0.2,1,0.4,2,0.7,3c0.3,1,0.6,2,1,3c0.8,2,1.8,3.9,3,5.7
			c1.2,1.8,2.6,3.5,4.1,5.1c1.3,1.3,2.7,2.5,4.2,3.5c0.3,0.2,0.6,0.4,0.9,0.6c1.8,1.2,3.7,2.2,5.7,3c1,0.4,2,0.7,3,1
			c1,0.3,2,0.5,3,0.7c1,0.2,2,0.3,2.9,0.4c0.3,0,0.5,0,0.8,0.1c0.7,0,1.4,0.1,2,0.1c1,0,1.9,0,2.9-0.1c1-0.1,2-0.2,2.9-0.4
			c0.1,0,0.3-0.1,0.5-0.1c0.8-0.2,1.7-0.4,2.5-0.6c1-0.3,2-0.6,3-1c2-0.8,3.9-1.8,5.7-3c1.8-1.2,3.5-2.6,5.1-4.1
			c1.5-1.5,2.9-3.2,4.1-5.1c1.2-1.8,2.2-3.7,3-5.7c0.4-1,0.7-2,1-3c0.3-1,0.5-2,0.7-3c0.2-1,0.3-2,0.4-2.9
			C341.5,260.2,341.5,259.5,341.5,258.8L341.5,258.8z"/>
		<line class="st14" x1="309.7" y1="226.2" x2="309.7" y2="201.1"/>
		<line class="st14" x1="297.7" y1="228.5" x2="288.2" y2="205.3"/>
		<polyline class="st14" points="293,230.9 279.9,209.6 279.9,209.5 		"/>
		<polyline class="st14" points="291.4,284.1 277,304.6 277,304.6 		"/>
		<polyline class="st14" points="307.7,289.8 306,314.8 306,314.8 		"/>
		<line class="st14" x1="316" y1="289.2" x2="320.9" y2="313.8"/>
		<line class="st14" x1="341.5" y1="258.8" x2="366.6" y2="259.4"/>
		<line class="st14" x1="332.8" y1="236.1" x2="351" y2="218.8"/>
	</g>
</g>
<g>
	<g>
		<path class="st6" d="M269.5,469.2c-0.3-0.3-0.6-0.7-1-1l18.2-17.3l0,0c0.2,0.2,0.4,0.4,0.5,0.5c0.7,0.7,1.4,1.3,2.1,1.9
			c0.8,0.6,1.5,1.2,2.4,1.8c0.8,0.6,1.7,1.1,2.6,1.6c0.9,0.5,1.9,1,2.8,1.4c2,0.9,4,1.5,6.1,1.9c1.9,0.4,3.8,0.6,5.7,0.7l-0.7,25.1
			c-3.4-0.1-6.8-0.5-10.2-1.2c-1.9-0.4-3.8-0.9-5.6-1.5c-1.8-0.6-3.6-1.2-5.3-2c-1.7-0.7-3.4-1.6-5-2.5c-1.6-0.9-3.1-1.8-4.6-2.9
			c-1.5-1-2.9-2.1-4.2-3.2C271.9,471.6,270.7,470.4,269.5,469.2L269.5,469.2z"/>
		<path class="st7" d="M286.7,450.9l-18.2,17.3c-0.9-0.9-1.7-1.8-2.5-2.8c-1.1-1.4-2.2-2.8-3.2-4.2c-1-1.5-2-3-2.9-4.6
			c-0.9-1.6-1.7-3.3-2.5-5c-0.8-1.8-1.4-3.5-2-5.3c-0.6-1.8-1.1-3.7-1.5-5.6c-0.8-3.8-1.2-7.7-1.2-11.7s0.4-7.8,1.2-11.7
			c0.4-1.9,0.9-3.8,1.5-5.6c0.6-1.8,1.2-3.6,2-5.3c0.7-1.7,1.6-3.4,2.5-5c0.7-1.3,1.5-2.6,2.4-3.9l20.9,13.9
			c-0.5,0.7-0.9,1.5-1.3,2.2c-0.5,0.9-1,1.9-1.4,2.8c-0.9,2-1.5,4-1.9,6.1c-0.5,2.1-0.7,4.3-0.7,6.5s0.2,4.4,0.7,6.5
			c0.4,2.1,1.1,4.1,1.9,6.1c0.4,1,0.9,1.9,1.4,2.8c0.5,0.9,1,1.8,1.6,2.6c0.6,0.8,1.2,1.6,1.8,2.4
			C285.7,449.9,286.2,450.4,286.7,450.9L286.7,450.9L286.7,450.9z"/>
		<path class="st8" d="M308.2,485.9l0.7-25.1c0.3,0,0.6,0,0.8,0c2.2,0,4.4-0.2,6.5-0.7c2.1-0.4,4.1-1.1,6.1-1.9
			c1-0.4,1.9-0.9,2.8-1.4c0.9-0.5,1.8-1,2.6-1.6c0.8-0.6,1.6-1.2,2.4-1.8c0.7-0.6,1.4-1.2,2.1-1.9l17.7,17.7
			c-1.2,1.2-2.5,2.4-3.8,3.5c-1.4,1.1-2.8,2.2-4.2,3.2c-1.5,1-3,2-4.6,2.9c-1.6,0.9-3.3,1.7-5,2.5c-1.8,0.8-3.5,1.4-5.3,2
			c-1.8,0.6-3.7,1.1-5.6,1.5c-3.8,0.8-7.7,1.2-11.7,1.2C309.2,485.9,308.7,485.9,308.2,485.9L308.2,485.9z"/>
		<path class="st9" d="M283.2,411.3l-20.9-13.9c0.2-0.2,0.3-0.5,0.5-0.7c1-1.5,2.1-2.9,3.2-4.2c1.1-1.3,2.2-2.6,3.5-3.8
			c0.9-0.9,1.8-1.7,2.7-2.5l16.6,18.8c-0.5,0.5-1,0.9-1.5,1.4c-0.7,0.7-1.3,1.4-1.9,2.1c-0.6,0.8-1.2,1.5-1.8,2.4
			C283.4,411.1,283.3,411.2,283.2,411.3L283.2,411.3z"/>
		<path class="st10" d="M350,469.2l-17.7-17.7c0.7-0.7,1.3-1.4,1.9-2.1c0.6-0.8,1.2-1.5,1.8-2.4c0.6-0.8,1.1-1.7,1.6-2.6
			c0.5-0.9,1-1.9,1.4-2.8c0-0.1,0.1-0.2,0.1-0.3l0,0l23.1,9.7c-0.1,0.2-0.2,0.4-0.2,0.6c-0.7,1.7-1.6,3.4-2.5,5
			c-0.9,1.6-1.8,3.1-2.9,4.6c-1,1.5-2.1,2.9-3.2,4.2C352.3,466.8,351.1,468,350,469.2L350,469.2z"/>
		<path class="st12" d="M288.7,405.1l-16.6-18.8c0.4-0.3,0.7-0.6,1.1-1c1.4-1.1,2.8-2.2,4.2-3.2c1.5-1,3-2,4.6-2.9
			c1.6-0.9,3.3-1.7,5-2.5c1.8-0.8,3.5-1.4,5.3-2c1.8-0.6,3.7-1.1,5.6-1.5c3.8-0.8,7.7-1.2,11.7-1.2s7.8,0.4,11.7,1.2
			c1.9,0.4,3.8,0.9,5.6,1.5c1.8,0.6,3.6,1.2,5.3,2c1.7,0.7,3.4,1.6,5,2.5c1.6,0.9,3.1,1.8,4.6,2.9c1.5,1,2.9,2.1,4.2,3.2
			c1.3,1.1,2.6,2.2,3.8,3.5s2.4,2.5,3.5,3.8c1.1,1.4,2.2,2.8,3.2,4.2c1,1.5,2,3,2.9,4.6c0.9,1.6,1.7,3.3,2.5,5
			c0.8,1.8,1.4,3.5,2,5.3c0.6,1.8,1.1,3.7,1.5,5.6c0.8,3.8,1.2,7.7,1.2,11.7s-0.4,7.8-1.2,11.7c-0.1,0.5-0.2,1-0.3,1.5l-24.4-5.8
			c0.1-0.3,0.1-0.6,0.2-0.9c0.5-2.1,0.7-4.3,0.7-6.5s-0.2-4.4-0.7-6.5c-0.4-2.1-1.1-4.1-1.9-6.1c-0.4-1-0.9-1.9-1.4-2.8
			c-0.5-0.9-1-1.8-1.6-2.6c-0.6-0.8-1.2-1.6-1.8-2.4c-0.6-0.7-1.3-1.4-1.9-2.1s-1.4-1.3-2.1-1.9c-0.8-0.6-1.5-1.2-2.4-1.8
			c-0.8-0.6-1.7-1.1-2.6-1.6c-0.9-0.5-1.9-1-2.8-1.4c-2-0.9-4-1.5-6.1-2c-2.1-0.5-4.3-0.7-6.5-0.7s-4.4,0.2-6.5,0.7
			c-2.1,0.4-4.1,1.1-6.1,2c-1,0.4-1.9,0.9-2.8,1.4c-0.9,0.5-1.8,1-2.6,1.6c-0.8,0.6-1.6,1.2-2.4,1.8
			C289.1,404.7,288.9,404.9,288.7,405.1L288.7,405.1z"/>
		<path class="st15" d="M339,441.3L339,441.3c0.7-1.6,1.2-3.3,1.6-5l24.4,5.8c-0.3,1.4-0.7,2.7-1.1,4.1c-0.5,1.6-1.1,3.2-1.8,4.8
			L339,441.3L339,441.3z"/>
	</g>
	<g>
		<path class="st14" d="M268.5,468.2c0.3,0.3,0.6,0.7,1,1c1.2,1.2,2.5,2.4,3.8,3.5c1.4,1.1,2.8,2.2,4.2,3.2c1.5,1,3,2,4.6,2.9
			c1.6,0.9,3.3,1.7,5,2.5c1.8,0.8,3.5,1.4,5.3,2c1.8,0.6,3.7,1.1,5.6,1.5c3.4,0.7,6.8,1.1,10.2,1.2c0.5,0,1,0,1.5,0
			c3.9,0,7.8-0.4,11.7-1.2c1.9-0.4,3.8-0.9,5.6-1.5c1.8-0.6,3.6-1.2,5.3-2c1.7-0.7,3.4-1.6,5-2.5c1.6-0.9,3.1-1.8,4.6-2.9
			c1.5-1,2.9-2.1,4.2-3.2c1.3-1.1,2.6-2.2,3.8-3.5s2.4-2.5,3.5-3.8c1.1-1.4,2.2-2.8,3.2-4.2c1-1.5,2-3,2.9-4.6
			c0.9-1.6,1.7-3.3,2.5-5c0.1-0.2,0.2-0.4,0.2-0.6c0.7-1.6,1.2-3.2,1.8-4.8c0.4-1.4,0.8-2.7,1.1-4.1c0.1-0.5,0.2-1,0.3-1.5
			c0.8-3.8,1.2-7.7,1.2-11.7s-0.4-7.8-1.2-11.7c-0.4-1.9-0.9-3.8-1.5-5.6c-0.6-1.8-1.2-3.6-2-5.3c-0.7-1.7-1.6-3.4-2.5-5
			c-0.9-1.6-1.8-3.1-2.9-4.6c-1-1.5-2.1-2.9-3.2-4.2c-1.1-1.3-2.2-2.6-3.5-3.8s-2.5-2.4-3.8-3.5c-1.4-1.1-2.8-2.2-4.2-3.2
			c-1.5-1-3-2-4.6-2.9c-1.6-0.9-3.3-1.7-5-2.5c-1.8-0.8-3.5-1.4-5.3-2c-1.8-0.6-3.7-1.1-5.6-1.5c-3.8-0.8-7.7-1.2-11.7-1.2
			s-7.8,0.4-11.7,1.2c-1.9,0.4-3.8,0.9-5.6,1.5c-1.8,0.6-3.6,1.2-5.3,2c-1.7,0.7-3.4,1.6-5,2.5c-1.6,0.9-3.1,1.8-4.6,2.9
			c-1.5,1-2.9,2.1-4.2,3.2c-0.4,0.3-0.7,0.6-1.1,1c-0.9,0.8-1.8,1.6-2.7,2.5c-1.2,1.2-2.4,2.5-3.5,3.8c-1.1,1.4-2.2,2.8-3.2,4.2
			c-0.2,0.2-0.3,0.5-0.5,0.7c-0.9,1.3-1.6,2.6-2.4,3.9c-0.9,1.6-1.7,3.3-2.5,5c-0.8,1.8-1.4,3.5-2,5.3c-0.6,1.8-1.1,3.7-1.5,5.6
			c-0.8,3.8-1.2,7.7-1.2,11.7s0.4,7.8,1.2,11.7c0.4,1.9,0.9,3.8,1.5,5.6c0.6,1.8,1.2,3.6,2,5.3c0.7,1.7,1.6,3.4,2.5,5
			c0.9,1.6,1.8,3.1,2.9,4.6c1,1.5,2.1,2.9,3.2,4.2C266.8,466.4,267.7,467.3,268.5,468.2L268.5,468.2z"/>
		<path class="st14" d="M286.7,450.9c0.2,0.2,0.4,0.4,0.5,0.6c0.7,0.7,1.4,1.3,2.1,1.9c0.8,0.6,1.5,1.2,2.4,1.8
			c0.8,0.6,1.7,1.1,2.6,1.6c0.9,0.5,1.9,1,2.8,1.4c2,0.9,4,1.5,6.1,1.9c1.9,0.4,3.8,0.6,5.7,0.7c0.3,0,0.6,0,0.8,0
			c2.2,0,4.4-0.2,6.5-0.7c2.1-0.4,4.1-1.1,6.1-1.9c1-0.4,1.9-0.9,2.8-1.4c0.9-0.5,1.8-1,2.6-1.6c0.8-0.6,1.6-1.2,2.4-1.8
			c0.7-0.6,1.4-1.2,2.1-1.9s1.3-1.4,1.9-2.1c0.6-0.8,1.2-1.5,1.8-2.4c0.6-0.8,1.1-1.7,1.6-2.6c0.5-0.9,1-1.9,1.4-2.8
			c0-0.1,0.1-0.2,0.1-0.3c0.7-1.6,1.2-3.3,1.6-5c0.1-0.3,0.1-0.6,0.2-0.9c0.5-2.1,0.7-4.3,0.7-6.5s-0.2-4.4-0.7-6.5
			c-0.4-2.1-1.1-4.1-1.9-6.1c-0.4-1-0.9-1.9-1.4-2.8c-0.5-0.9-1-1.8-1.6-2.6c-0.6-0.8-1.2-1.6-1.8-2.4c-0.6-0.7-1.3-1.4-1.9-2.1
			s-1.4-1.3-2.1-1.9c-0.8-0.6-1.5-1.2-2.4-1.8c-0.8-0.6-1.7-1.1-2.6-1.6c-0.9-0.5-1.9-1-2.8-1.4c-2-0.9-4-1.5-6.1-2
			c-2.1-0.5-4.3-0.7-6.5-0.7s-4.4,0.2-6.5,0.7c-2.1,0.4-4.1,1.1-6.1,2c-1,0.4-1.9,0.9-2.8,1.4c-0.9,0.5-1.8,1-2.6,1.6
			c-0.8,0.6-1.6,1.2-2.4,1.8c-0.2,0.2-0.4,0.4-0.6,0.5c-0.5,0.5-1,0.9-1.5,1.4c-0.7,0.7-1.3,1.4-1.9,2.1c-0.6,0.8-1.2,1.5-1.8,2.4
			c-0.1,0.1-0.2,0.3-0.3,0.4c-0.5,0.7-0.9,1.5-1.3,2.2c-0.5,0.9-1,1.9-1.4,2.8c-0.9,2-1.5,4-1.9,6.1c-0.5,2.1-0.7,4.3-0.7,6.5
			s0.2,4.4,0.7,6.5c0.4,2.1,1.1,4.1,1.9,6.1c0.4,1,0.9,1.9,1.4,2.8c0.5,0.9,1,1.8,1.6,2.6c0.6,0.8,1.2,1.6,1.8,2.4
			C285.7,449.9,286.2,450.5,286.7,450.9L286.7,450.9z"/>
		<line class="st14" x1="332.2" y1="451.5" x2="350" y2="469.2"/>
		<line class="st14" x1="339" y1="441.3" x2="362.2" y2="451"/>
		<line class="st14" x1="340.7" y1="436.4" x2="365.1" y2="442.2"/>
		<line class="st14" x1="288.7" y1="405.1" x2="272.1" y2="386.2"/>
		<polyline class="st14" points="283.2,411.3 262.3,397.4 262.3,397.4 		"/>
		<polyline class="st14" points="286.7,450.9 268.5,468.2 268.5,468.2 		"/>
		<line class="st14" x1="308.9" y1="460.8" x2="308.2" y2="485.9"/>
	</g>
</g>
<g>
	<g>
		<polygon class="st10" points="153.6,102.6 153.6,121.9 135,132.7 135,113.3 		"/>
		<polygon class="st10" points="153.6,102.6 135,113.3 110,98.9 117.7,94.4 128.6,88.2 		"/>
		<polygon class="st13" points="135,113.3 135,132.7 110,118.2 110,98.9 		"/>
		<polygon class="st10" points="103.2,122.2 96.7,125.9 96.7,80.9 117.7,68.7 117.7,94.4 110,98.9 110,118.2 		"/>
		<polygon class="st10" points="117.7,68.7 96.7,80.9 62.3,61 63.9,60.1 63.9,60.1 83.3,48.9 		"/>
		<polygon class="st13" points="78,115.2 71.9,111.7 65.9,108.2 62.3,106.1 62.3,72.7 62.3,61 96.7,80.9 96.7,125.9 90.2,122.2 
			84.1,118.7 		"/>
		<polygon class="st10" points="44.9,49.1 63.9,60.1 62.3,61 62.3,72.7 50.6,79.4 21.6,62.6 		"/>
		<polygon class="st10" points="62.3,72.7 62.3,106.1 50.6,112.8 50.6,79.4 		"/>
		<polygon class="st13" points="50.6,79.4 50.6,112.8 21.6,96.1 21.6,62.6 		"/>
	</g>
	<g>
		<line class="st16" x1="140.6" y1="126.7" x2="140.6" y2="121.7"/>
		<line class="st16" x1="140.6" y1="119.1" x2="140.6" y2="114.1"/>
		<line class="st16" x1="148.2" y1="114.7" x2="148.2" y2="109.7"/>
		<line class="st16" x1="114.1" y1="117.9" x2="114.1" y2="112.8"/>
		<line class="st16" x1="121.8" y1="122.3" x2="121.8" y2="117.3"/>
		<line class="st16" x1="129.4" y1="126.7" x2="129.4" y2="121.7"/>
		<line class="st16" x1="129.4" y1="119.1" x2="129.4" y2="114.1"/>
		<line class="st16" x1="121.8" y1="114.7" x2="121.8" y2="109.7"/>
		<line class="st16" x1="114.1" y1="110.3" x2="114.1" y2="105.3"/>
		<line class="st16" x1="113.1" y1="94" x2="113.1" y2="89"/>
		<line class="st16" x1="108.1" y1="96.9" x2="108.1" y2="91.9"/>
		<line class="st16" x1="113.1" y1="78.9" x2="113.1" y2="73.9"/>
		<line class="st16" x1="113.1" y1="86.5" x2="113.1" y2="81.5"/>
		<line class="st16" x1="108.1" y1="81.8" x2="108.1" y2="76.8"/>
		<line class="st16" x1="108.1" y1="89.4" x2="108.1" y2="84.4"/>
		<line class="st16" x1="103.2" y1="122.2" x2="103.2" y2="117.6"/>
		<line class="st16" x1="103.2" y1="114.9" x2="103.2" y2="109.9"/>
		<line class="st16" x1="103.2" y1="107.4" x2="103.2" y2="102.4"/>
		<line class="st16" x1="103.2" y1="99.8" x2="103.2" y2="94.8"/>
		<line class="st16" x1="103.2" y1="84.7" x2="103.2" y2="79.7"/>
		<line class="st16" x1="103.2" y1="92.2" x2="103.2" y2="87.2"/>
		<line class="st16" x1="90.2" y1="122.2" x2="90.2" y2="117.6"/>
		<line class="st16" x1="90.2" y1="114.9" x2="90.2" y2="109.9"/>
		<line class="st16" x1="90.2" y1="107.4" x2="90.2" y2="102.4"/>
		<line class="st16" x1="90.2" y1="99.8" x2="90.2" y2="94.8"/>
		<line class="st16" x1="90.2" y1="84.7" x2="90.2" y2="79.7"/>
		<line class="st16" x1="90.2" y1="92.2" x2="90.2" y2="87.2"/>
		<line class="st16" x1="84.1" y1="118.7" x2="84.1" y2="114.1"/>
		<line class="st16" x1="84.1" y1="111.4" x2="84.1" y2="106.4"/>
		<line class="st16" x1="84.1" y1="103.9" x2="84.1" y2="98.9"/>
		<line class="st16" x1="84.1" y1="96.3" x2="84.1" y2="91.3"/>
		<line class="st16" x1="84.1" y1="81.2" x2="84.1" y2="76.2"/>
		<line class="st16" x1="84.1" y1="88.7" x2="84.1" y2="83.7"/>
		<line class="st16" x1="78" y1="115.2" x2="78" y2="110.6"/>
		<line class="st16" x1="78" y1="107.9" x2="78" y2="102.9"/>
		<line class="st16" x1="78" y1="100.4" x2="78" y2="95.4"/>
		<line class="st16" x1="78" y1="92.8" x2="78" y2="87.8"/>
		<line class="st16" x1="78" y1="77.7" x2="78" y2="72.7"/>
		<line class="st16" x1="78" y1="85.2" x2="78" y2="80.2"/>
		<line class="st16" x1="71.9" y1="111.7" x2="71.9" y2="107.1"/>
		<line class="st16" x1="71.9" y1="104.4" x2="71.9" y2="99.4"/>
		<line class="st16" x1="71.9" y1="96.9" x2="71.9" y2="91.9"/>
		<line class="st16" x1="71.9" y1="89.2" x2="71.9" y2="84.2"/>
		<line class="st16" x1="71.9" y1="74.2" x2="71.9" y2="69.2"/>
		<line class="st16" x1="71.9" y1="81.7" x2="71.9" y2="76.7"/>
		<line class="st16" x1="65.9" y1="108.2" x2="65.9" y2="103.5"/>
		<line class="st16" x1="65.9" y1="100.9" x2="65.9" y2="95.9"/>
		<line class="st16" x1="65.9" y1="93.4" x2="65.9" y2="88.4"/>
		<line class="st16" x1="65.9" y1="85.7" x2="65.9" y2="80.7"/>
		<line class="st16" x1="65.9" y1="70.6" x2="65.9" y2="65.6"/>
		<line class="st16" x1="65.9" y1="78.2" x2="65.9" y2="73.2"/>
		<line class="st16" x1="59.2" y1="104.9" x2="59.2" y2="99.9"/>
		<line class="st16" x1="59.2" y1="97.3" x2="59.2" y2="92.3"/>
		<line class="st16" x1="59.2" y1="82.2" x2="59.2" y2="77.2"/>
		<line class="st16" x1="59.2" y1="89.8" x2="59.2" y2="84.8"/>
		<line class="st16" x1="54.4" y1="107.7" x2="54.4" y2="102.7"/>
		<line class="st16" x1="54.4" y1="100.1" x2="54.4" y2="95"/>
		<line class="st16" x1="54.4" y1="85" x2="54.4" y2="79.9"/>
		<line class="st16" x1="54.4" y1="92.5" x2="54.4" y2="87.5"/>
		<line class="st16" x1="46.8" y1="107.7" x2="46.8" y2="102.7"/>
		<line class="st16" x1="39.2" y1="103.3" x2="39.2" y2="98.3"/>
		<line class="st16" x1="31.6" y1="99" x2="31.6" y2="94"/>
		<line class="st16" x1="23.9" y1="94.6" x2="23.9" y2="89.6"/>
		<line class="st16" x1="46.8" y1="100.1" x2="46.8" y2="95"/>
		<line class="st16" x1="46.8" y1="85" x2="46.8" y2="79.9"/>
		<line class="st16" x1="46.8" y1="92.5" x2="46.8" y2="87.5"/>
		<line class="st16" x1="39.2" y1="95.7" x2="39.2" y2="90.6"/>
		<line class="st16" x1="31.6" y1="91.3" x2="31.6" y2="86.3"/>
		<line class="st16" x1="23.9" y1="86.9" x2="23.9" y2="81.9"/>
		<line class="st16" x1="23.9" y1="71.8" x2="23.9" y2="66.8"/>
		<line class="st16" x1="31.6" y1="76.2" x2="31.6" y2="71.2"/>
		<line class="st16" x1="39.2" y1="80.6" x2="39.2" y2="75.6"/>
		<line class="st16" x1="39.2" y1="88.1" x2="39.2" y2="83.1"/>
		<line class="st16" x1="31.6" y1="83.7" x2="31.6" y2="78.7"/>
		<line class="st16" x1="23.9" y1="79.3" x2="23.9" y2="74.3"/>
		<line class="st16" x1="148.2" y1="122.3" x2="148.2" y2="117.3"/>
		<line class="st16" x1="135" y1="132.7" x2="153.6" y2="121.9"/>
		<line class="st16" x1="153.6" y1="121.9" x2="153.6" y2="102.6"/>
		<line class="st16" x1="135" y1="132.7" x2="135" y2="113.3"/>
		<line class="st16" x1="153.6" y1="102.6" x2="128.6" y2="88.2"/>
		<line class="st16" x1="110" y1="118.2" x2="110" y2="98.9"/>
		<line class="st16" x1="110" y1="118.2" x2="135" y2="132.7"/>
		<line class="st16" x1="135" y1="113.3" x2="153.6" y2="102.6"/>
		<polyline class="st16" points="96.7,125.9 103.2,122.2 110,118.2 		"/>
		<line class="st16" x1="96.7" y1="80.9" x2="117.7" y2="68.7"/>
		<line class="st16" x1="117.7" y1="68.7" x2="83.3" y2="48.9"/>
		<polyline class="st16" points="62.3,106.1 65.9,108.2 71.9,111.7 78,115.2 84.1,118.7 90.2,122.2 96.7,125.9 		"/>
		<line class="st16" x1="96.7" y1="125.9" x2="96.7" y2="80.9"/>
		<line class="st16" x1="50.6" y1="112.8" x2="62.3" y2="106.1"/>
		<line class="st16" x1="21.6" y1="96.1" x2="21.6" y2="62.6"/>
		<line class="st16" x1="44.9" y1="49.1" x2="21.6" y2="62.6"/>
		<line class="st16" x1="21.6" y1="96.1" x2="50.6" y2="112.8"/>
		<line class="st16" x1="50.6" y1="112.8" x2="50.6" y2="79.4"/>
		<line class="st16" x1="21.6" y1="62.6" x2="50.6" y2="79.4"/>
		<line class="st16" x1="63.9" y1="60.1" x2="44.9" y2="49.1"/>
		<line class="st16" x1="62.3" y1="61" x2="96.7" y2="80.9"/>
		<line class="st16" x1="117.7" y1="94.4" x2="117.7" y2="68.7"/>
		<line class="st16" x1="110" y1="98.9" x2="135" y2="113.3"/>
		<line class="st16" x1="50.6" y1="79.4" x2="62.3" y2="72.7"/>
		<polyline class="st16" points="128.6,88.2 117.7,94.4 110,98.9 		"/>
		<polyline class="st16" points="62.3,106.1 62.3,72.7 62.3,61 		"/>
		<polyline class="st16" points="83.3,48.9 63.9,60.1 63.9,60.1 62.3,61 		"/>
	</g>
</g>
<g>
	<g>
		<polygon class="st12" points="142.7,433.2 142.7,440 140.3,441.5 139.8,440.6 139.8,436.5 139.1,435.3 		"/>
		<polygon class="st12" points="142.7,433.2 139.1,435.3 133.3,438.6 127.4,442 121.6,445.4 115.8,448.7 110,452.1 104.2,455.5 
			98.3,458.8 96.6,459.8 93.3,457.9 87,454.3 83.7,452.3 90.4,448.5 90.4,439.5 83.6,435.6 115.2,417.3 		"/>
		<polygon class="st12" points="139.8,440.6 140.3,441.5 134.4,444.8 134,444 134,439.9 133.3,438.6 139.1,435.3 139.8,436.5 		"/>
		<polygon class="st12" points="134,444 134.4,444.8 128.6,448.2 128.2,447.4 128.2,443.2 127.4,442 133.3,438.6 134,439.9 		"/>
		<polygon class="st12" points="128.2,447.4 128.6,448.2 122.8,451.5 122.3,450.7 122.3,446.6 121.6,445.4 127.4,442 128.2,443.2 		
			"/>
		<polygon class="st12" points="122.3,450.7 122.8,451.5 117,454.9 116.5,454.1 116.5,450 115.8,448.7 121.6,445.4 122.3,446.6 		
			"/>
		<polygon class="st12" points="116.5,454.1 117,454.9 111.2,458.2 110.7,457.4 110.7,453.3 110,452.1 115.8,448.7 116.5,450 		"/>
		<polygon class="st12" points="115.2,395.5 115.2,417.3 83.6,435.6 75.8,431.1 59.7,440.4 59.7,427.6 		"/>
		<polygon class="st12" points="115.2,395.5 59.7,427.6 32.4,411.9 88,379.8 		"/>
		<polygon class="st12" points="110.7,457.4 111.2,458.2 105.3,461.6 104.9,460.8 104.9,456.7 104.2,455.5 110,452.1 110.7,453.3 		
			"/>
		<polygon class="st12" points="104.9,460.8 105.3,461.6 99.5,465 99.1,464.2 99.1,460.1 98.3,458.8 104.2,455.5 104.9,456.7 		"/>
		<polygon class="st12" points="99.1,464.2 99.5,465 96.6,466.6 96.6,459.8 98.3,458.8 99.1,460.1 		"/>
		<polygon class="st17" points="96.6,459.8 96.6,466.6 92.1,464.1 92.6,463.2 92.6,459.1 93.3,457.9 		"/>
		<polygon class="st17" points="93.3,457.9 92.6,459.1 92.6,463.2 92.1,464.1 85.8,460.4 86.3,459.6 86.3,455.5 87,454.3 		"/>
		<polygon class="st12" points="90.4,439.5 90.4,448.5 83.7,452.3 83.7,459.2 67.2,468.7 67.2,452.9 		"/>
		<polygon class="st12" points="90.4,439.5 67.2,452.9 38.7,436.4 45.7,432.4 59.7,440.4 75.8,431.1 83.6,435.6 		"/>
		<polygon class="st17" points="83.7,452.3 87,454.3 86.3,455.5 86.3,459.6 85.8,460.4 83.7,459.2 		"/>
		<polygon class="st17" points="67.2,452.9 67.2,468.7 38.7,452.2 38.7,444.1 38.7,436.4 		"/>
		<polygon class="st17" points="59.7,427.6 59.7,440.4 45.7,432.4 38.7,436.4 38.7,444.1 32.4,440.5 32.4,411.9 		"/>
	</g>
	<g>
		<line class="st16" x1="92.6" y1="463.2" x2="92.6" y2="459.1"/>
		<line class="st16" x1="86.3" y1="459.6" x2="86.3" y2="455.5"/>
		<line class="st16" x1="139.8" y1="440.6" x2="139.8" y2="436.5"/>
		<line class="st16" x1="134" y1="444" x2="134" y2="439.9"/>
		<line class="st16" x1="128.2" y1="447.4" x2="128.2" y2="443.2"/>
		<line class="st16" x1="122.3" y1="450.7" x2="122.3" y2="446.6"/>
		<line class="st16" x1="116.5" y1="454.1" x2="116.5" y2="450"/>
		<line class="st16" x1="110.7" y1="457.4" x2="110.7" y2="453.3"/>
		<line class="st16" x1="104.9" y1="460.8" x2="104.9" y2="456.7"/>
		<line class="st16" x1="99.1" y1="464.2" x2="99.1" y2="460.1"/>
		<line class="st16" x1="40.7" y1="452.7" x2="40.7" y2="447.7"/>
		<line class="st16" x1="45.9" y1="455.7" x2="45.9" y2="450.7"/>
		<line class="st16" x1="51.1" y1="458.8" x2="51.1" y2="453.7"/>
		<line class="st16" x1="56.3" y1="461.8" x2="56.3" y2="456.8"/>
		<line class="st16" x1="61.6" y1="464.8" x2="61.6" y2="459.8"/>
		<line class="st16" x1="72.8" y1="464.8" x2="72.8" y2="459.8"/>
		<line class="st16" x1="79.5" y1="460.9" x2="79.5" y2="455.9"/>
		<line class="st16" x1="86.3" y1="449.6" x2="86.3" y2="444.6"/>
		<line class="st16" x1="79.5" y1="453.5" x2="79.5" y2="448.5"/>
		<line class="st16" x1="72.8" y1="457.5" x2="72.8" y2="452.5"/>
		<line class="st16" x1="61.6" y1="457.5" x2="61.6" y2="452.5"/>
		<line class="st16" x1="56.3" y1="454.5" x2="56.3" y2="449.4"/>
		<line class="st16" x1="51.1" y1="451.4" x2="51.1" y2="446.4"/>
		<line class="st16" x1="45.9" y1="448.4" x2="45.9" y2="443.4"/>
		<line class="st16" x1="40.7" y1="445.4" x2="40.7" y2="440.4"/>
		<line class="st16" x1="97.4" y1="422.7" x2="97.4" y2="417.7"/>
		<line class="st16" x1="84" y1="430.5" x2="84" y2="425.5"/>
		<line class="st16" x1="90.7" y1="426.6" x2="90.7" y2="421.6"/>
		<line class="st16" x1="104.2" y1="418.8" x2="104.2" y2="413.8"/>
		<line class="st16" x1="110.9" y1="414.9" x2="110.9" y2="409.9"/>
		<line class="st16" x1="110.9" y1="406.4" x2="110.9" y2="401.4"/>
		<line class="st16" x1="104.2" y1="410.3" x2="104.2" y2="405.3"/>
		<line class="st16" x1="97.4" y1="414.2" x2="97.4" y2="409.2"/>
		<line class="st16" x1="90.7" y1="418" x2="90.7" y2="413"/>
		<line class="st16" x1="84" y1="421.9" x2="84" y2="416.9"/>
		<line class="st16" x1="77.3" y1="425.8" x2="77.3" y2="420.8"/>
		<line class="st16" x1="70.5" y1="429.7" x2="70.5" y2="424.7"/>
		<line class="st16" x1="63.8" y1="433.6" x2="63.8" y2="428.6"/>
		<line class="st16" x1="34.7" y1="437.2" x2="34.7" y2="432.2"/>
		<line class="st16" x1="34.7" y1="428.7" x2="34.7" y2="423.7"/>
		<line class="st16" x1="39.9" y1="431.7" x2="39.9" y2="426.7"/>
		<line class="st16" x1="55.5" y1="433.6" x2="55.5" y2="428.6"/>
		<line class="st16" x1="50.3" y1="430.6" x2="50.3" y2="425.6"/>
		<line class="st16" x1="45.1" y1="427.6" x2="45.1" y2="422.6"/>
		<line class="st16" x1="39.9" y1="424.6" x2="39.9" y2="419.6"/>
		<line class="st16" x1="34.7" y1="421.6" x2="34.7" y2="416.6"/>
		<line class="st16" x1="38.7" y1="436.4" x2="67.2" y2="452.9"/>
		<polyline class="st16" points="38.7,452.2 38.7,444.1 38.7,436.4 		"/>
		<polyline class="st16" points="90.4,439.5 83.6,435.6 75.8,431.1 		"/>
		<line class="st16" x1="59.7" y1="440.4" x2="59.7" y2="427.6"/>
		<line class="st16" x1="115.2" y1="417.3" x2="115.2" y2="395.5"/>
		<line class="st16" x1="32.4" y1="411.9" x2="59.7" y2="427.6"/>
		<line class="st16" x1="59.7" y1="427.6" x2="115.2" y2="395.5"/>
		<line class="st16" x1="32.4" y1="440.5" x2="38.7" y2="444.1"/>
		<line class="st16" x1="88" y1="379.8" x2="32.4" y2="411.9"/>
		<line class="st16" x1="32.4" y1="440.5" x2="32.4" y2="411.9"/>
		<line class="st16" x1="115.2" y1="395.5" x2="88" y2="379.8"/>
		<line class="st16" x1="67.2" y1="452.9" x2="90.4" y2="439.5"/>
		<polyline class="st16" points="83.7,452.3 87,454.3 93.3,457.9 96.6,459.8 		"/>
		<polyline class="st16" points="83.7,459.2 85.8,460.4 92.1,464.1 96.6,466.6 		"/>
		<polyline class="st16" points="96.6,459.8 98.3,458.8 104.2,455.5 110,452.1 115.8,448.7 121.6,445.4 127.4,442 133.3,438.6 
			139.1,435.3 142.7,433.2 		"/>
		<line class="st16" x1="115.2" y1="417.3" x2="83.6" y2="435.6"/>
		<line class="st16" x1="142.7" y1="433.2" x2="115.2" y2="417.3"/>
		<line class="st16" x1="96.6" y1="466.6" x2="96.6" y2="459.8"/>
		<line class="st16" x1="142.7" y1="440" x2="142.7" y2="433.2"/>
		<polyline class="st16" points="96.6,466.6 99.5,465 105.3,461.6 111.2,458.2 117,454.9 122.8,451.5 128.6,448.2 134.4,444.8 
			140.3,441.5 142.7,440 		"/>
		<line class="st16" x1="45.7" y1="432.4" x2="38.7" y2="436.4"/>
		<line class="st16" x1="90.4" y1="448.5" x2="90.4" y2="439.5"/>
		<line class="st16" x1="59.7" y1="440.4" x2="45.7" y2="432.4"/>
		<line class="st16" x1="75.8" y1="431.1" x2="59.7" y2="440.4"/>
		<line class="st16" x1="83.7" y1="452.3" x2="90.4" y2="448.5"/>
		<line class="st16" x1="83.7" y1="459.2" x2="83.7" y2="452.3"/>
		<line class="st16" x1="38.7" y1="452.2" x2="67.2" y2="468.7"/>
		<line class="st16" x1="67.2" y1="468.7" x2="67.2" y2="452.9"/>
		<line class="st16" x1="67.2" y1="468.7" x2="83.7" y2="459.2"/>
	</g>
</g>
<g>
	<g>
		<polygon class="st7" points="142.8,249.4 142.8,275 126.9,284.2 107.3,295.4 91.4,304.7 91.4,279.1 107.3,269.8 126.9,258.5 		"/>
		<path class="st7" d="M94.7,262.1l7.6-4.4l11.6-6.7l-30.8-17.8l-19.5,11.3l19.5,11.3l0,0l4,2.3l7.3,4.2
			C94.4,262.3,94.7,262.1,94.7,262.1z M142.8,249.4l-15.9,9.2l-19.5,11.3l-16,9.2l-59-34.1l16-9.2l19.5-11.3l15.9-9.2L142.8,249.4z"
			/>
		<polygon class="st8" points="87.1,258.1 83.1,255.8 83.1,255.8 83.1,233.2 113.9,251.1 102.3,257.8 94.7,262.1 94.4,262.3 		"/>
		<polygon class="st8" points="91.4,279.1 91.4,304.7 32.3,270.6 32.3,245 		"/>
		<polygon class="st7" points="83.1,233.2 83.1,255.8 63.5,244.5 		"/>
	</g>
	<g>
		<line class="st16" x1="139.6" y1="274.2" x2="139.6" y2="269.2"/>
		<line class="st16" x1="139.6" y1="259" x2="139.6" y2="254"/>
		<line class="st16" x1="139.6" y1="266.5" x2="139.6" y2="261.5"/>
		<line class="st16" x1="132.1" y1="278.5" x2="132.1" y2="273.5"/>
		<line class="st16" x1="132.1" y1="263.3" x2="132.1" y2="258.3"/>
		<line class="st16" x1="132.1" y1="270.9" x2="132.1" y2="265.9"/>
		<line class="st16" x1="124.6" y1="282.8" x2="124.6" y2="277.8"/>
		<line class="st16" x1="124.6" y1="267.6" x2="124.6" y2="262.6"/>
		<line class="st16" x1="124.6" y1="275.2" x2="124.6" y2="270.2"/>
		<line class="st16" x1="117.1" y1="287.1" x2="117.1" y2="282.1"/>
		<line class="st16" x1="117.1" y1="272" x2="117.1" y2="267"/>
		<line class="st16" x1="117.1" y1="279.5" x2="117.1" y2="274.5"/>
		<line class="st16" x1="109.6" y1="291.5" x2="109.6" y2="286.5"/>
		<line class="st16" x1="109.6" y1="276.3" x2="109.6" y2="271.3"/>
		<line class="st16" x1="79.6" y1="244.3" x2="79.6" y2="239.3"/>
		<line class="st16" x1="79.6" y1="251.9" x2="79.6" y2="246.9"/>
		<line class="st16" x1="72.1" y1="248.6" x2="72.1" y2="243.6"/>
		<line class="st16" x1="109.6" y1="283.8" x2="109.6" y2="278.8"/>
		<line class="st16" x1="102.2" y1="295.8" x2="102.2" y2="290.8"/>
		<line class="st16" x1="102.2" y1="280.6" x2="102.2" y2="275.6"/>
		<line class="st16" x1="102.2" y1="288.1" x2="102.2" y2="283.1"/>
		<line class="st16" x1="94.7" y1="300.1" x2="94.7" y2="295.1"/>
		<line class="st16" x1="94.7" y1="284.9" x2="94.7" y2="279.9"/>
		<line class="st16" x1="94.7" y1="292.5" x2="94.7" y2="287.5"/>
		<line class="st16" x1="88" y1="300.1" x2="88" y2="295.1"/>
		<line class="st16" x1="80.4" y1="295.7" x2="80.4" y2="290.7"/>
		<line class="st16" x1="72.8" y1="291.3" x2="72.8" y2="286.3"/>
		<line class="st16" x1="65.2" y1="286.9" x2="65.2" y2="281.9"/>
		<line class="st16" x1="57.6" y1="282.5" x2="57.6" y2="277.5"/>
		<line class="st16" x1="49.9" y1="278.1" x2="49.9" y2="273.1"/>
		<line class="st16" x1="42.3" y1="273.7" x2="42.3" y2="268.7"/>
		<line class="st16" x1="34.7" y1="269.3" x2="34.7" y2="264.3"/>
		<line class="st16" x1="34.7" y1="254.1" x2="34.7" y2="249.1"/>
		<line class="st16" x1="42.3" y1="258.5" x2="42.3" y2="253.5"/>
		<line class="st16" x1="49.9" y1="262.9" x2="49.9" y2="257.9"/>
		<line class="st16" x1="57.6" y1="267.3" x2="57.6" y2="262.3"/>
		<line class="st16" x1="65.2" y1="271.7" x2="65.2" y2="266.7"/>
		<line class="st16" x1="72.8" y1="276.1" x2="72.8" y2="271.1"/>
		<line class="st16" x1="80.4" y1="280.5" x2="80.4" y2="275.5"/>
		<line class="st16" x1="88" y1="284.9" x2="88" y2="279.9"/>
		<line class="st16" x1="88" y1="292.5" x2="88" y2="287.5"/>
		<line class="st16" x1="80.4" y1="288" x2="80.4" y2="283"/>
		<line class="st16" x1="72.8" y1="283.6" x2="72.8" y2="278.6"/>
		<line class="st16" x1="65.2" y1="279.2" x2="65.2" y2="274.2"/>
		<line class="st16" x1="87.1" y1="243.7" x2="87.1" y2="238.7"/>
		<line class="st16" x1="94.7" y1="248.1" x2="94.7" y2="243.1"/>
		<line class="st16" x1="102.3" y1="252.5" x2="102.3" y2="247.5"/>
		<line class="st16" x1="102.3" y1="257.8" x2="102.3" y2="255"/>
		<line class="st16" x1="94.7" y1="255.6" x2="94.7" y2="250.6"/>
		<line class="st16" x1="87.1" y1="251.2" x2="87.1" y2="246.2"/>
		<polyline class="st16" points="87.1,258.1 87.1,258.1 87.1,253.1 		"/>
		<polyline class="st16" points="94.7,262.3 94.7,262.1 94.7,257.3 		"/>
		<line class="st16" x1="57.6" y1="274.9" x2="57.6" y2="269.9"/>
		<line class="st16" x1="49.9" y1="270.5" x2="49.9" y2="265.5"/>
		<line class="st16" x1="42.3" y1="266" x2="42.3" y2="261"/>
		<line class="st16" x1="34.7" y1="261.6" x2="34.7" y2="256.6"/>
		<line class="st16" x1="91.4" y1="304.7" x2="107.3" y2="295.4"/>
		<line class="st16" x1="48.3" y1="235.7" x2="32.3" y2="245"/>
		<line class="st16" x1="32.3" y1="270.6" x2="91.4" y2="304.7"/>
		<line class="st16" x1="91.4" y1="304.7" x2="91.4" y2="279.1"/>
		<polyline class="st16" points="94.4,262.3 94.7,262.1 102.3,257.8 113.9,251.1 		"/>
		<line class="st16" x1="126.9" y1="284.2" x2="107.3" y2="295.4"/>
		<line class="st16" x1="126.9" y1="258.5" x2="107.3" y2="269.8"/>
		<line class="st16" x1="67.8" y1="224.5" x2="83.8" y2="215.3"/>
		<line class="st16" x1="83.8" y1="215.3" x2="142.8" y2="249.4"/>
		<line class="st16" x1="142.8" y1="249.4" x2="142.8" y2="275"/>
		<line class="st16" x1="142.8" y1="249.4" x2="126.9" y2="258.5"/>
		<line class="st16" x1="142.8" y1="275" x2="126.9" y2="284.2"/>
		<line class="st16" x1="48.3" y1="235.7" x2="67.8" y2="224.5"/>
		<line class="st16" x1="83.1" y1="233.2" x2="83.1" y2="255.8"/>
		<line class="st16" x1="83.1" y1="233.2" x2="63.5" y2="244.5"/>
		<line class="st16" x1="113.9" y1="251.1" x2="83.1" y2="233.2"/>
		<line class="st16" x1="91.4" y1="279.1" x2="107.3" y2="269.8"/>
		<line class="st16" x1="32.3" y1="245" x2="91.4" y2="279.1"/>
		<polyline class="st16" points="94.4,262.3 87.1,258.1 83.1,255.8 83.1,255.8 63.5,244.5 		"/>
		<line class="st16" x1="32.3" y1="245" x2="32.3" y2="270.6"/>
	</g>
</g>
</svg>
