<?xml version="1.0" encoding="UTF-8"?>
<svg id="Layer_1" data-name="Layer 1" xmlns="http://www.w3.org/2000/svg" width="600" height="500" viewBox="0 0 600 500">
  <defs>
    <style>
      .cls-1 {
        fill: #83b3ab;
      }

      .cls-2 {
        fill: #ab9eb0;
      }

      .cls-3 {
        fill: #d27657;
      }

      .cls-4 {
        fill: #f0e3bb;
      }

      .cls-5 {
        fill: #adcdc7;
      }

      .cls-6 {
        fill: none;
        stroke: #f7f7f6;
        stroke-miterlimit: 10;
        stroke-width: 2.74px;
      }

      .cls-7 {
        fill: #e1c676;
      }

      .cls-8 {
        fill: #333;
      }

      .cls-9 {
        fill: #324651;
      }

      .cls-10 {
        fill: #f7f7f6;
      }

      .cls-11 {
        fill: #5a9a8f;
      }

      .cls-12 {
        fill: #e9d498;
      }

      .cls-13 {
        fill: #c7bfcb;
      }

      .cls-14 {
        fill: #8f7e96;
      }

      .cls-15 {
        fill: #65747d;
      }

      .cls-16 {
        fill: #e9bbab;
      }

      .cls-17 {
        fill: #dd9881;
      }

      .cls-18 {
        fill: #ececec;
      }

      .cls-19 {
        fill: #99a3a8;
      }
    </style>
  </defs>
  <rect class="cls-18" x="140.43" y="69.15" width="314.35" height="357.5"/>
  <polygon class="cls-15" points="445.54 263.3 223.64 263.3 223.64 235.57 445.54 235.57 445.54 244.81 445.54 263.3"/>
  <polygon class="cls-2" points="445.54 392.74 223.64 392.74 223.64 365 445.54 365 445.54 374.25 445.54 392.74"/>
  <polygon class="cls-12" points="445.54 133.86 223.64 133.86 223.64 106.13 445.54 106.13 445.54 115.37 445.54 133.86"/>
  <polygon class="cls-17" points="371.57 198.58 149.68 198.58 149.68 170.85 371.57 170.85 371.57 180.09 371.57 198.58"/>
  <polygon class="cls-1" points="371.57 328.02 149.68 328.02 149.68 300.29 371.57 300.29 371.57 309.53 371.57 328.02"/>
  <g>
    <g>
      <path class="cls-19" d="m510.25,249.43c0,5.15-1.67,9.88-4.51,13.72-.97-6.22-4.96-11.42-10.44-14.06,1.17-1.63,1.85-3.63,1.85-5.78,0-5.53-4.49-10.01-10.02-10.01s-10.01,4.48-10.01,10.01c0,2.16.68,4.16,1.84,5.79-5.47,2.63-9.46,7.84-10.43,14.05-2.85-3.84-4.52-8.58-4.52-13.72,0-12.76,10.36-23.11,23.11-23.11s23.11,10.36,23.11,23.11Z"/>
      <path class="cls-9" d="m505.74,263.16h-37.2c.97-6.22,4.96-11.42,10.43-14.05,1.82,2.56,4.8,4.22,8.17,4.22s6.36-1.67,8.17-4.23c5.48,2.64,9.47,7.85,10.44,14.06Z"/>
      <path class="cls-9" d="m468.54,263.16h37.2c-4.2,5.69-10.97,9.39-18.6,9.39s-14.39-3.7-18.59-9.39Z"/>
      <path class="cls-9" d="m497.15,243.31c0,2.16-.68,4.15-1.85,5.78-2.48-1.19-5.24-1.86-8.17-1.86s-5.69.67-8.17,1.87c-1.16-1.63-1.84-3.64-1.84-5.79,0-5.53,4.48-10.01,10.01-10.01s10.02,4.48,10.02,10.01Z"/>
      <path class="cls-9" d="m495.3,249.09c-1.81,2.56-4.8,4.23-8.17,4.23s-6.35-1.66-8.17-4.22c2.48-1.2,5.25-1.87,8.17-1.87s5.69.67,8.17,1.86Z"/>
    </g>
    <g>
      <path class="cls-6" d="m468.54,263.16c-2.85-3.84-4.52-8.58-4.52-13.72,0-12.76,10.36-23.11,23.11-23.11s23.11,10.36,23.11,23.11c0,5.15-1.67,9.88-4.51,13.72-4.2,5.69-10.97,9.39-18.6,9.39s-14.39-3.7-18.59-9.39Z"/>
      <path class="cls-6" d="m495.3,249.09c5.48,2.64,9.47,7.85,10.44,14.06"/>
      <path class="cls-6" d="m468.54,263.16c.97-6.22,4.96-11.42,10.43-14.05"/>
      <path class="cls-6" d="m495.3,249.09c1.17-1.63,1.85-3.63,1.85-5.78,0-5.53-4.49-10.01-10.02-10.01s-10.01,4.48-10.01,10.01c0,2.16.68,4.16,1.84,5.79,1.82,2.56,4.8,4.22,8.17,4.22s6.36-1.67,8.17-4.23Z"/>
    </g>
  </g>
  <g>
    <g>
      <path class="cls-13" d="m510.25,378.87c0,5.15-1.67,9.88-4.51,13.72-.97-6.22-4.96-11.42-10.44-14.06,1.17-1.63,1.85-3.63,1.85-5.78,0-5.53-4.49-10.01-10.02-10.01s-10.01,4.48-10.01,10.01c0,2.16.68,4.16,1.84,5.79-5.47,2.63-9.46,7.84-10.43,14.05-2.85-3.84-4.52-8.58-4.52-13.72,0-12.76,10.36-23.11,23.11-23.11s23.11,10.36,23.11,23.11Z"/>
      <path class="cls-14" d="m505.74,392.6h-37.2c.97-6.22,4.96-11.42,10.43-14.05,1.82,2.56,4.8,4.22,8.17,4.22s6.36-1.67,8.17-4.23c5.48,2.64,9.47,7.85,10.44,14.06Z"/>
      <path class="cls-14" d="m468.54,392.6h37.2c-4.2,5.69-10.97,9.39-18.6,9.39s-14.39-3.7-18.59-9.39Z"/>
      <path class="cls-14" d="m497.15,372.75c0,2.16-.68,4.15-1.85,5.78-2.48-1.19-5.24-1.86-8.17-1.86s-5.69.67-8.17,1.87c-1.16-1.63-1.84-3.64-1.84-5.79,0-5.53,4.48-10.01,10.01-10.01s10.02,4.48,10.02,10.01Z"/>
      <path class="cls-14" d="m495.3,378.53c-1.81,2.56-4.8,4.23-8.17,4.23s-6.35-1.66-8.17-4.22c2.48-1.2,5.25-1.87,8.17-1.87s5.69.67,8.17,1.86Z"/>
    </g>
    <g>
      <path class="cls-6" d="m468.54,392.6c-2.85-3.84-4.52-8.58-4.52-13.72,0-12.76,10.36-23.11,23.11-23.11s23.11,10.36,23.11,23.11c0,5.15-1.67,9.88-4.51,13.72-4.2,5.69-10.97,9.39-18.6,9.39s-14.39-3.7-18.59-9.39Z"/>
      <path class="cls-6" d="m495.3,378.53c5.48,2.64,9.47,7.85,10.44,14.06"/>
      <path class="cls-6" d="m468.54,392.6c.97-6.22,4.96-11.42,10.43-14.05"/>
      <path class="cls-6" d="m495.3,378.53c1.17-1.63,1.85-3.63,1.85-5.78,0-5.53-4.49-10.01-10.02-10.01s-10.01,4.48-10.01,10.01c0,2.16.68,4.16,1.84,5.79,1.82,2.56,4.8,4.22,8.17,4.22s6.36-1.67,8.17-4.23Z"/>
    </g>
  </g>
  <g>
    <g>
      <path class="cls-4" d="m510.25,120c0,5.15-1.67,9.88-4.51,13.72-.97-6.22-4.96-11.42-10.44-14.06,1.17-1.63,1.85-3.63,1.85-5.78,0-5.53-4.49-10.01-10.02-10.01s-10.01,4.48-10.01,10.01c0,2.16.68,4.16,1.84,5.79-5.47,2.63-9.46,7.84-10.43,14.05-2.85-3.84-4.52-8.58-4.52-13.72,0-12.76,10.36-23.11,23.11-23.11s23.11,10.36,23.11,23.11Z"/>
      <path class="cls-7" d="m505.74,133.72h-37.2c.97-6.22,4.96-11.42,10.43-14.05,1.82,2.56,4.8,4.22,8.17,4.22s6.36-1.67,8.17-4.23c5.48,2.64,9.47,7.85,10.44,14.06Z"/>
      <path class="cls-7" d="m468.54,133.72h37.2c-4.2,5.69-10.97,9.39-18.6,9.39s-14.39-3.7-18.59-9.39Z"/>
      <path class="cls-7" d="m497.15,113.87c0,2.16-.68,4.15-1.85,5.78-2.48-1.19-5.24-1.86-8.17-1.86s-5.69.67-8.17,1.87c-1.16-1.63-1.84-3.64-1.84-5.79,0-5.53,4.48-10.01,10.01-10.01s10.02,4.48,10.02,10.01Z"/>
      <path class="cls-7" d="m495.3,119.66c-1.81,2.56-4.8,4.23-8.17,4.23s-6.35-1.66-8.17-4.22c2.48-1.2,5.25-1.87,8.17-1.87s5.69.67,8.17,1.86Z"/>
    </g>
    <g>
      <path class="cls-6" d="m468.54,133.72c-2.85-3.84-4.52-8.58-4.52-13.72,0-12.76,10.36-23.11,23.11-23.11s23.11,10.36,23.11,23.11c0,5.15-1.67,9.88-4.51,13.72-4.2,5.69-10.97,9.39-18.6,9.39s-14.39-3.7-18.59-9.39Z"/>
      <path class="cls-6" d="m495.3,119.66c5.48,2.64,9.47,7.85,10.44,14.06"/>
      <path class="cls-6" d="m468.54,133.72c.97-6.22,4.96-11.42,10.43-14.05"/>
      <path class="cls-6" d="m495.3,119.66c1.17-1.63,1.85-3.63,1.85-5.78,0-5.53-4.49-10.01-10.02-10.01s-10.01,4.48-10.01,10.01c0,2.16.68,4.16,1.84,5.79,1.82,2.56,4.8,4.22,8.17,4.22s6.36-1.67,8.17-4.23Z"/>
    </g>
  </g>
  <g>
    <g>
      <path class="cls-5" d="m131.18,314.15c0,5.15-1.67,9.88-4.51,13.72-.97-6.22-4.96-11.42-10.44-14.06,1.17-1.63,1.85-3.63,1.85-5.78,0-5.53-4.49-10.01-10.02-10.01s-10.01,4.48-10.01,10.01c0,2.16.68,4.16,1.84,5.79-5.47,2.63-9.46,7.84-10.43,14.05-2.85-3.84-4.52-8.58-4.52-13.72,0-12.76,10.36-23.11,23.11-23.11s23.11,10.36,23.11,23.11Z"/>
      <path class="cls-11" d="m126.67,327.88h-37.2c.97-6.22,4.96-11.42,10.43-14.05,1.82,2.56,4.8,4.22,8.17,4.22s6.36-1.67,8.17-4.23c5.48,2.64,9.47,7.85,10.44,14.06Z"/>
      <path class="cls-11" d="m89.47,327.88h37.2c-4.2,5.69-10.97,9.39-18.6,9.39s-14.39-3.7-18.59-9.39Z"/>
      <path class="cls-11" d="m118.08,308.03c0,2.16-.68,4.15-1.85,5.78-2.48-1.19-5.24-1.86-8.17-1.86s-5.69.67-8.17,1.87c-1.16-1.63-1.84-3.64-1.84-5.79,0-5.53,4.48-10.01,10.01-10.01s10.02,4.48,10.02,10.01Z"/>
      <path class="cls-11" d="m116.23,313.81c-1.81,2.56-4.8,4.23-8.17,4.23s-6.35-1.66-8.17-4.22c2.48-1.2,5.25-1.87,8.17-1.87s5.69.67,8.17,1.86Z"/>
    </g>
    <g>
      <path class="cls-6" d="m89.47,327.88c-2.85-3.84-4.52-8.58-4.52-13.72,0-12.76,10.36-23.11,23.11-23.11s23.11,10.36,23.11,23.11c0,5.15-1.67,9.88-4.51,13.72-4.2,5.69-10.97,9.39-18.6,9.39s-14.39-3.7-18.59-9.39Z"/>
      <path class="cls-6" d="m116.23,313.81c5.48,2.64,9.47,7.85,10.44,14.06"/>
      <path class="cls-6" d="m89.47,327.88c.97-6.22,4.96-11.42,10.43-14.05"/>
      <path class="cls-6" d="m116.23,313.81c1.17-1.63,1.85-3.63,1.85-5.78,0-5.53-4.49-10.01-10.02-10.01s-10.01,4.48-10.01,10.01c0,2.16.68,4.16,1.84,5.79,1.82,2.56,4.8,4.22,8.17,4.22s6.36-1.67,8.17-4.23Z"/>
    </g>
  </g>
  <g>
    <g>
      <path class="cls-16" d="m131.18,184.71c0,5.15-1.67,9.88-4.51,13.72-.97-6.22-4.96-11.42-10.44-14.06,1.17-1.63,1.85-3.63,1.85-5.78,0-5.53-4.49-10.01-10.02-10.01s-10.01,4.48-10.01,10.01c0,2.16.68,4.16,1.84,5.79-5.47,2.63-9.46,7.84-10.43,14.05-2.85-3.84-4.52-8.58-4.52-13.72,0-12.76,10.36-23.11,23.11-23.11s23.11,10.36,23.11,23.11Z"/>
      <path class="cls-3" d="m126.67,198.44h-37.2c.97-6.22,4.96-11.42,10.43-14.05,1.82,2.56,4.8,4.22,8.17,4.22s6.36-1.67,8.17-4.23c5.48,2.64,9.47,7.85,10.44,14.06Z"/>
      <path class="cls-3" d="m89.47,198.44h37.2c-4.2,5.69-10.97,9.39-18.6,9.39s-14.39-3.7-18.59-9.39Z"/>
      <path class="cls-3" d="m118.08,178.59c0,2.16-.68,4.15-1.85,5.78-2.48-1.19-5.24-1.86-8.17-1.86s-5.69.67-8.17,1.87c-1.16-1.63-1.84-3.64-1.84-5.79,0-5.53,4.48-10.01,10.01-10.01s10.02,4.48,10.02,10.01Z"/>
      <path class="cls-3" d="m116.23,184.38c-1.81,2.56-4.8,4.23-8.17,4.23s-6.35-1.66-8.17-4.22c2.48-1.2,5.25-1.87,8.17-1.87s5.69.67,8.17,1.86Z"/>
    </g>
    <g>
      <path class="cls-6" d="m89.47,198.44c-2.85-3.84-4.52-8.58-4.52-13.72,0-12.76,10.36-23.11,23.11-23.11s23.11,10.36,23.11,23.11c0,5.15-1.67,9.88-4.51,13.72-4.2,5.69-10.97,9.39-18.6,9.39s-14.39-3.7-18.59-9.39Z"/>
      <path class="cls-6" d="m116.23,184.38c5.48,2.64,9.47,7.85,10.44,14.06"/>
      <path class="cls-6" d="m89.47,198.44c.97-6.22,4.96-11.42,10.43-14.05"/>
      <path class="cls-6" d="m116.23,184.38c1.17-1.63,1.85-3.63,1.85-5.78,0-5.53-4.49-10.01-10.02-10.01s-10.01,4.48-10.01,10.01c0,2.16.68,4.16,1.84,5.79,1.82,2.56,4.8,4.22,8.17,4.22s6.36-1.67,8.17-4.23Z"/>
    </g>
  </g>
  <circle class="cls-3" cx="445.54" cy="365" r="9.25"/>
  <circle class="cls-3" cx="371.57" cy="300.29" r="9.25"/>
  <rect class="cls-10" x="232.89" y="115.37" width="129.44" height="9.25"/>
  <rect class="cls-10" x="158.92" y="309.53" width="129.44" height="9.25"/>
  <rect class="cls-10" x="158.92" y="180.09" width="36.98" height="9.25"/>
  <rect class="cls-10" x="334.59" y="244.81" width="46.23" height="9.25"/>
  <rect class="cls-10" x="232.89" y="244.81" width="92.46" height="9.25"/>
  <rect class="cls-10" x="205.15" y="180.09" width="92.46" height="9.25"/>
  <rect class="cls-10" x="232.89" y="374.25" width="36.98" height="9.25"/>
  <rect class="cls-10" x="306.85" y="374.25" width="83.21" height="9.25"/>
  <rect class="cls-10" x="279.12" y="374.25" width="18.49" height="9.25"/>
  <g>
    <path class="cls-8" d="m225.79,92.62l1.9,5.04,1.89-5.04h1.48v6.57h-1.14v-2.17l.11-2.9-1.94,5.07h-.82l-1.94-5.06.11,2.89v2.17h-1.14v-6.57h1.48Z"/>
    <path class="cls-8" d="m232.09,96.71c0-.48.1-.91.28-1.29s.46-.68.8-.88c.34-.21.74-.31,1.18-.31.66,0,1.19.21,1.6.64.41.42.63.99.67,1.69v.26c0,.48-.09.91-.27,1.29s-.45.67-.79.88c-.34.21-.74.31-1.19.31-.69,0-1.24-.23-1.65-.69-.41-.46-.62-1.07-.62-1.83v-.05Zm1.1.09c0,.5.1.9.31,1.18s.5.43.87.43.66-.14.86-.43c.21-.29.31-.71.31-1.27,0-.49-.11-.88-.32-1.17-.21-.29-.5-.43-.86-.43s-.64.14-.85.43c-.21.28-.32.71-.32,1.28Z"/>
    <path class="cls-8" d="m238.58,94.31l.03.56c.36-.44.83-.65,1.42-.65,1.02,0,1.54.58,1.55,1.75v3.23h-1.1v-3.17c0-.31-.07-.54-.2-.69-.13-.15-.35-.22-.66-.22-.44,0-.77.2-.99.6v3.48h-1.1v-4.88h1.03Z"/>
    <path class="cls-8" d="m247.91,99.19h-1.09v-5.28l-1.61.55v-.92l2.56-.94h.14v6.6Z"/>
    <path class="cls-8" d="m251.46,95.41h.67c.34,0,.6-.09.8-.26.2-.17.3-.42.3-.74s-.08-.56-.25-.73-.41-.26-.75-.26c-.3,0-.54.08-.73.25-.19.17-.28.39-.28.67h-1.1c0-.34.09-.64.27-.92.18-.28.43-.49.75-.65.32-.16.68-.23,1.08-.23.66,0,1.17.16,1.55.49.38.33.56.79.56,1.38,0,.29-.09.57-.28.83-.19.26-.43.46-.73.59.36.12.64.32.82.58s.28.58.28.95c0,.59-.2,1.06-.61,1.41-.4.35-.94.52-1.6.52s-1.15-.17-1.55-.5-.6-.79-.6-1.35h1.1c0,.29.1.52.29.7.19.18.46.27.78.27s.61-.09.8-.27c.2-.18.29-.44.29-.79s-.1-.61-.31-.8c-.21-.19-.51-.28-.91-.28h-.65v-.87Z"/>
    <path class="cls-8" d="m256.2,98.04c.2,0,.36.06.47.17.11.12.17.26.17.44s-.06.31-.17.43c-.11.11-.27.17-.47.17s-.35-.06-.47-.17c-.11-.11-.17-.25-.17-.43s.06-.32.17-.44c.11-.12.27-.17.47-.17Z"/>
    <path class="cls-8" d="m261,99.19h-1.09v-5.28l-1.61.55v-.92l2.56-.94h.14v6.6Z"/>
    <path class="cls-8" d="m267.57,96.43c0,.95-.18,1.66-.53,2.14-.35.48-.89.72-1.61.72s-1.25-.23-1.6-.7c-.36-.47-.54-1.16-.55-2.08v-1.14c0-.95.18-1.65.53-2.13.35-.47.89-.71,1.62-.71s1.26.23,1.61.69c.35.46.53,1.15.54,2.07v1.14Zm-1.1-1.23c0-.62-.08-1.07-.25-1.36-.17-.29-.44-.43-.8-.43s-.62.14-.79.41c-.17.27-.26.7-.27,1.27v1.49c0,.61.09,1.07.26,1.37.17.3.44.45.81.45s.61-.14.78-.42c.17-.28.26-.71.27-1.31v-1.49Z"/>
  </g>
  <g>
    <path class="cls-8" d="m151.83,158.19l1.9,5.04,1.89-5.04h1.48v6.57h-1.14v-2.17l.11-2.9-1.94,5.07h-.82l-1.94-5.06.11,2.89v2.17h-1.14v-6.57h1.48Z"/>
    <path class="cls-8" d="m158.13,162.27c0-.48.1-.91.28-1.29s.46-.68.8-.88c.34-.21.74-.31,1.18-.31.66,0,1.19.21,1.6.64.41.42.63.99.67,1.69v.26c0,.48-.09.91-.27,1.29s-.45.67-.79.88c-.34.21-.74.31-1.19.31-.69,0-1.24-.23-1.65-.69-.41-.46-.62-1.07-.62-1.83v-.05Zm1.1.09c0,.5.1.9.31,1.18s.5.43.87.43.66-.14.86-.43c.21-.29.31-.71.31-1.27,0-.49-.11-.88-.32-1.17-.21-.29-.5-.43-.86-.43s-.64.14-.85.43c-.21.28-.32.71-.32,1.28Z"/>
    <path class="cls-8" d="m164.61,159.88l.03.56c.36-.44.83-.65,1.42-.65,1.02,0,1.54.58,1.55,1.75v3.23h-1.1v-3.17c0-.31-.07-.54-.2-.69-.13-.15-.35-.22-.66-.22-.44,0-.77.2-.99.6v3.48h-1.1v-4.88h1.03Z"/>
    <path class="cls-8" d="m173.94,164.76h-1.09v-5.28l-1.61.55v-.92l2.56-.94h.14v6.6Z"/>
    <path class="cls-8" d="m177.49,160.97h.67c.34,0,.6-.09.8-.26.2-.17.3-.42.3-.74s-.08-.56-.25-.73-.41-.26-.75-.26c-.3,0-.54.08-.73.25-.19.17-.28.39-.28.67h-1.1c0-.34.09-.64.27-.92.18-.28.43-.49.75-.65.32-.16.68-.23,1.08-.23.66,0,1.17.16,1.55.49.38.33.56.79.56,1.38,0,.29-.09.57-.28.83-.19.26-.43.46-.73.59.36.12.64.32.82.58s.28.58.28.95c0,.59-.2,1.06-.61,1.41-.4.35-.94.52-1.6.52s-1.15-.17-1.55-.5-.6-.79-.6-1.35h1.1c0,.29.1.52.29.7.19.18.46.27.78.27s.61-.09.8-.27c.2-.18.29-.44.29-.79s-.1-.61-.31-.8c-.21-.19-.51-.28-.91-.28h-.65v-.87Z"/>
    <path class="cls-8" d="m182.23,163.61c.2,0,.36.06.47.17.11.12.17.26.17.44s-.06.31-.17.43c-.11.11-.27.17-.47.17s-.35-.06-.47-.17c-.11-.11-.17-.25-.17-.43s.06-.32.17-.44c.11-.12.27-.17.47-.17Z"/>
    <path class="cls-8" d="m187.03,164.76h-1.09v-5.28l-1.61.55v-.92l2.56-.94h.14v6.6Z"/>
    <path class="cls-8" d="m193.69,158.8l-2.63,5.96h-1.15l2.62-5.69h-3.4v-.88h4.56v.61Z"/>
  </g>
  <g>
    <path class="cls-8" d="m225.79,223.76l1.9,5.04,1.89-5.04h1.48v6.57h-1.14v-2.17l.11-2.9-1.94,5.07h-.82l-1.94-5.06.11,2.89v2.17h-1.14v-6.57h1.48Z"/>
    <path class="cls-8" d="m232.09,227.84c0-.48.1-.91.28-1.29s.46-.68.8-.88c.34-.21.74-.31,1.18-.31.66,0,1.19.21,1.6.64.41.42.63.99.67,1.69v.26c0,.48-.09.91-.27,1.29s-.45.67-.79.88c-.34.21-.74.31-1.19.31-.69,0-1.24-.23-1.65-.69-.41-.46-.62-1.07-.62-1.83v-.05Zm1.1.09c0,.5.1.9.31,1.18s.5.43.87.43.66-.14.86-.43c.21-.29.31-.71.31-1.27,0-.49-.11-.88-.32-1.17-.21-.29-.5-.43-.86-.43s-.64.14-.85.43c-.21.28-.32.71-.32,1.28Z"/>
    <path class="cls-8" d="m238.58,225.44l.03.56c.36-.44.83-.65,1.42-.65,1.02,0,1.54.58,1.55,1.75v3.23h-1.1v-3.17c0-.31-.07-.54-.2-.69-.13-.15-.35-.22-.66-.22-.44,0-.77.2-.99.6v3.48h-1.1v-4.88h1.03Z"/>
    <path class="cls-8" d="m247.91,230.33h-1.09v-5.28l-1.61.55v-.92l2.56-.94h.14v6.6Z"/>
    <path class="cls-8" d="m251.46,226.54h.67c.34,0,.6-.09.8-.26.2-.17.3-.42.3-.74s-.08-.56-.25-.73-.41-.26-.75-.26c-.3,0-.54.08-.73.25-.19.17-.28.39-.28.67h-1.1c0-.34.09-.64.27-.92.18-.28.43-.49.75-.65.32-.16.68-.23,1.08-.23.66,0,1.17.16,1.55.49.38.33.56.79.56,1.38,0,.29-.09.57-.28.83-.19.26-.43.46-.73.59.36.12.64.32.82.58s.28.58.28.95c0,.59-.2,1.06-.61,1.41-.4.35-.94.52-1.6.52s-1.15-.17-1.55-.5-.6-.79-.6-1.35h1.1c0,.29.1.52.29.7.19.18.46.27.78.27s.61-.09.8-.27c.2-.18.29-.44.29-.79s-.1-.61-.31-.8c-.21-.19-.51-.28-.91-.28h-.65v-.87Z"/>
    <path class="cls-8" d="m256.2,229.17c.2,0,.36.06.47.17.11.12.17.26.17.44s-.06.31-.17.43c-.11.11-.27.17-.47.17s-.35-.06-.47-.17c-.11-.11-.17-.25-.17-.43s.06-.32.17-.44c.11-.12.27-.17.47-.17Z"/>
    <path class="cls-8" d="m262.45,230.33h-4.42v-.75l2.19-2.39c.32-.35.54-.65.67-.88s.2-.47.2-.71c0-.31-.09-.57-.26-.76-.18-.19-.41-.29-.71-.29-.35,0-.63.11-.83.33-.2.22-.29.51-.29.89h-1.1c0-.4.09-.76.27-1.08.18-.32.44-.57.78-.75.34-.18.73-.27,1.17-.27.64,0,1.14.16,1.51.48s.55.76.55,1.33c0,.33-.09.67-.28,1.03s-.49.77-.91,1.23l-1.61,1.72h3.05v.88Z"/>
    <path class="cls-8" d="m267.7,230.33h-4.42v-.75l2.19-2.39c.32-.35.54-.65.67-.88s.2-.47.2-.71c0-.31-.09-.57-.26-.76-.18-.19-.41-.29-.71-.29-.35,0-.63.11-.83.33-.2.22-.29.51-.29.89h-1.1c0-.4.09-.76.27-1.08.18-.32.44-.57.78-.75.34-.18.73-.27,1.17-.27.64,0,1.14.16,1.51.48s.55.76.55,1.33c0,.33-.09.67-.28,1.03s-.49.77-.91,1.23l-1.61,1.72h3.05v.88Z"/>
  </g>
  <g>
    <path class="cls-8" d="m155.09,288.55h-2.05v5.65h-1.13v-5.65h-2.03v-.92h5.21v.92Z"/>
    <path class="cls-8" d="m158.52,293.72c-.32.38-.78.57-1.37.57-.53,0-.93-.15-1.2-.46-.27-.31-.41-.76-.41-1.34v-3.17h1.1v3.15c0,.62.26.93.77.93s.89-.19,1.08-.57v-3.51h1.1v4.88h-1.03l-.03-.48Z"/>
    <path class="cls-8" d="m162.85,294.29c-.7,0-1.26-.22-1.69-.66-.43-.44-.65-1.02-.65-1.75v-.14c0-.49.09-.92.28-1.31.19-.38.45-.68.79-.9.34-.21.72-.32,1.14-.32.67,0,1.18.21,1.54.64.36.42.54,1.03.54,1.8v.44h-3.19c.03.4.17.72.4.96s.53.35.89.35c.5,0,.91-.2,1.23-.61l.59.56c-.2.29-.46.52-.78.68s-.69.24-1.1.24Zm-.13-4.18c-.3,0-.54.11-.73.32-.19.21-.3.5-.35.88h2.09v-.08c-.02-.37-.12-.64-.29-.83-.17-.19-.41-.28-.71-.28Z"/>
    <path class="cls-8" d="m172.17,291.43c0,.95-.18,1.66-.53,2.14-.35.48-.89.72-1.61.72s-1.25-.23-1.6-.7c-.36-.47-.54-1.16-.55-2.08v-1.14c0-.95.18-1.65.53-2.13.35-.47.89-.71,1.62-.71s1.26.23,1.61.69c.35.46.53,1.15.54,2.07v1.14Zm-1.1-1.23c0-.62-.08-1.07-.25-1.36-.17-.29-.44-.43-.8-.43s-.62.14-.79.41c-.17.27-.26.7-.27,1.27v1.49c0,.61.09,1.07.26,1.37.17.3.44.45.81.45s.61-.14.78-.42c.17-.28.26-.71.27-1.31v-1.49Z"/>
    <path class="cls-8" d="m176.25,291.45c-.37.39-.8.58-1.29.58-.58,0-1.04-.2-1.38-.61-.34-.4-.51-.94-.51-1.6,0-.43.09-.83.26-1.18.17-.35.42-.63.75-.82.32-.2.69-.29,1.12-.29.66,0,1.19.25,1.58.74.39.49.58,1.15.58,1.98v.31c0,1.19-.27,2.09-.8,2.71s-1.33.94-2.4.95h-.13v-.91h.16c.65,0,1.14-.17,1.49-.47s.54-.77.58-1.4Zm-1.06-.28c.22,0,.43-.06.62-.19.19-.13.34-.3.45-.52v-.43c0-.48-.1-.87-.3-1.17s-.46-.44-.77-.44-.57.13-.76.39c-.19.26-.28.59-.28.99s.09.75.28,1c.19.25.44.38.76.38Z"/>
    <path class="cls-8" d="m179.15,293.04c.2,0,.36.06.47.17.11.12.17.26.17.44s-.06.31-.17.43c-.11.11-.27.17-.47.17s-.35-.06-.47-.17c-.11-.11-.17-.25-.17-.43s.06-.32.17-.44c.11-.12.27-.17.47-.17Z"/>
    <path class="cls-8" d="m185.26,291.43c0,.95-.18,1.66-.53,2.14-.35.48-.89.72-1.61.72s-1.25-.23-1.6-.7c-.36-.47-.54-1.16-.55-2.08v-1.14c0-.95.18-1.65.53-2.13.35-.47.89-.71,1.62-.71s1.26.23,1.61.69c.35.46.53,1.15.54,2.07v1.14Zm-1.1-1.23c0-.62-.08-1.07-.25-1.36-.17-.29-.44-.43-.8-.43s-.62.14-.79.41c-.17.27-.26.7-.27,1.27v1.49c0,.61.09,1.07.26,1.37.17.3.44.45.81.45s.61-.14.78-.42c.17-.28.26-.71.27-1.31v-1.49Z"/>
    <path class="cls-8" d="m190.37,289.36c0,.32-.08.61-.25.86s-.39.45-.68.59c.34.16.61.38.79.65.19.28.28.59.28.94,0,.58-.2,1.04-.59,1.37-.39.34-.91.51-1.56.51s-1.18-.17-1.57-.51-.59-.8-.59-1.37c0-.35.09-.67.28-.95s.45-.5.79-.65c-.28-.14-.51-.34-.67-.59-.16-.25-.25-.54-.25-.86,0-.56.18-1,.54-1.33s.85-.49,1.46-.49,1.11.16,1.47.49c.36.33.54.77.54,1.33Zm-.95,2.99c0-.33-.1-.59-.29-.79-.19-.2-.45-.3-.77-.3s-.57.1-.77.3c-.19.2-.29.46-.29.79s.09.58.28.77.45.29.78.29.59-.09.77-.28c.19-.19.28-.45.28-.78Zm-.14-2.95c0-.29-.08-.52-.25-.71-.17-.18-.39-.28-.67-.28s-.5.09-.66.26c-.16.18-.24.42-.24.72s.08.54.25.72.39.27.67.27.5-.09.67-.27.25-.42.25-.72Z"/>
  </g>
  <g>
    <path class="cls-8" d="m229.06,353.27h-2.05v5.65h-1.13v-5.65h-2.03v-.92h5.21v.92Z"/>
    <path class="cls-8" d="m232.48,358.44c-.32.38-.78.57-1.37.57-.53,0-.93-.15-1.2-.46-.27-.31-.41-.76-.41-1.34v-3.17h1.1v3.15c0,.62.26.93.77.93s.89-.19,1.08-.57v-3.51h1.1v4.88h-1.03l-.03-.48Z"/>
    <path class="cls-8" d="m236.81,359.01c-.7,0-1.26-.22-1.69-.66-.43-.44-.65-1.02-.65-1.75v-.14c0-.49.09-.92.28-1.31.19-.38.45-.68.79-.9.34-.21.72-.32,1.14-.32.67,0,1.18.21,1.54.64.36.42.54,1.03.54,1.8v.44h-3.19c.03.4.17.72.4.96s.53.35.89.35c.5,0,.91-.2,1.23-.61l.59.56c-.2.29-.46.52-.78.68s-.69.24-1.1.24Zm-.13-4.18c-.3,0-.54.11-.73.32-.19.21-.3.5-.35.88h2.09v-.08c-.02-.37-.12-.64-.29-.83-.17-.19-.41-.28-.71-.28Z"/>
    <path class="cls-8" d="m246.14,356.15c0,.95-.18,1.66-.53,2.14-.35.48-.89.72-1.61.72s-1.25-.23-1.6-.7c-.36-.47-.54-1.16-.55-2.08v-1.14c0-.95.18-1.65.53-2.13.35-.47.89-.71,1.62-.71s1.26.23,1.61.69c.35.46.53,1.15.54,2.07v1.14Zm-1.1-1.23c0-.62-.08-1.07-.25-1.36-.17-.29-.44-.43-.8-.43s-.62.14-.79.41c-.17.27-.26.7-.27,1.27v1.49c0,.61.09,1.07.26,1.37.17.3.44.45.81.45s.61-.14.78-.42c.17-.28.26-.71.27-1.31v-1.49Z"/>
    <path class="cls-8" d="m250.22,356.17c-.37.39-.8.58-1.29.58-.58,0-1.04-.2-1.38-.61-.34-.4-.51-.94-.51-1.6,0-.43.09-.83.26-1.18.17-.35.42-.63.75-.82.32-.2.69-.29,1.12-.29.66,0,1.19.25,1.58.74.39.49.58,1.15.58,1.98v.31c0,1.19-.27,2.09-.8,2.71s-1.33.94-2.4.95h-.13v-.91h.16c.65,0,1.14-.17,1.49-.47s.54-.77.58-1.4Zm-1.06-.28c.22,0,.43-.06.62-.19.19-.13.34-.3.45-.52v-.43c0-.48-.1-.87-.3-1.17s-.46-.44-.77-.44-.57.13-.76.39c-.19.26-.28.59-.28.99s.09.75.28,1c.19.25.44.38.76.38Z"/>
    <path class="cls-8" d="m253.12,357.76c.2,0,.36.06.47.17.11.12.17.26.17.44s-.06.31-.17.43c-.11.11-.27.17-.47.17s-.35-.06-.47-.17c-.11-.11-.17-.25-.17-.43s.06-.32.17-.44c.11-.12.27-.17.47-.17Z"/>
    <path class="cls-8" d="m256.21,355.13h.67c.34,0,.6-.09.8-.26.2-.17.3-.42.3-.74s-.08-.56-.25-.73-.41-.26-.75-.26c-.3,0-.54.08-.73.25-.19.17-.28.39-.28.67h-1.1c0-.34.09-.64.27-.92.18-.28.43-.49.75-.65.32-.16.68-.23,1.08-.23.66,0,1.17.16,1.55.49.38.33.56.79.56,1.38,0,.29-.09.57-.28.83-.19.26-.43.46-.73.59.36.12.64.32.82.58s.28.58.28.95c0,.59-.2,1.06-.61,1.41-.4.35-.94.52-1.6.52s-1.15-.17-1.55-.5-.6-.79-.6-1.35h1.1c0,.29.1.52.29.7.19.18.46.27.78.27s.61-.09.8-.27c.2-.18.29-.44.29-.79s-.1-.61-.31-.8c-.21-.19-.51-.28-.91-.28h-.65v-.87Z"/>
    <path class="cls-8" d="m260.49,355.66l.36-3.31h3.53v.95h-2.62l-.18,1.57c.3-.17.65-.26,1.03-.26.63,0,1.11.2,1.46.6.35.4.52.94.52,1.62s-.19,1.2-.58,1.6c-.39.4-.91.59-1.58.59-.6,0-1.1-.17-1.5-.51-.4-.34-.61-.79-.64-1.35h1.06c.04.32.16.56.34.73.19.17.43.26.73.26.34,0,.6-.12.79-.36.19-.24.28-.57.28-.98s-.1-.72-.31-.95-.49-.35-.86-.35c-.2,0-.37.03-.51.08-.14.05-.29.16-.45.31l-.88-.22Z"/>
  </g>
</svg>