<?xml version="1.0" encoding="utf-8"?>
<!-- Generator: Adobe Illustrator 27.1.1, SVG Export Plug-In . SVG Version: 6.00 Build 0)  -->
<svg version="1.1" id="Layer_1" xmlns="http://www.w3.org/2000/svg" xmlns:xlink="http://www.w3.org/1999/xlink" x="0px" y="0px"
	 viewBox="0 0 600 500" style="enable-background:new 0 0 600 500;" xml:space="preserve">
<style type="text/css">
	.st0{fill:#324651;}
	.st1{fill:none;stroke:#F7F7F6;stroke-width:1.8;stroke-miterlimit:10;}
	.st2{fill:none;stroke:#F7F7F6;stroke-width:1.43;stroke-miterlimit:10;}
	.st3{fill:#F7F7F6;}
	.st4{fill:#8F7E96;stroke:#8F7E96;stroke-width:2.09;stroke-miterlimit:10;}
	.st5{fill:none;stroke:#8F7E96;stroke-width:1.05;stroke-linecap:round;stroke-miterlimit:10;}
	.st6{fill:none;stroke:#8F7E96;stroke-width:1.05;stroke-linecap:round;stroke-linejoin:round;}
	.st7{fill:#F7F7F6;stroke:#8F7E96;stroke-width:2.09;stroke-miterlimit:10;}
	.st8{fill:#C7BFCB;}
	.st9{fill:#8F7E96;}
	.st10{fill:#D27657;stroke:#D27657;stroke-width:2.09;stroke-miterlimit:10;}
	.st11{fill:none;stroke:#D27657;stroke-width:1.05;stroke-linecap:round;stroke-miterlimit:10;}
	.st12{fill:none;stroke:#D27657;stroke-width:1.05;stroke-linecap:round;stroke-linejoin:round;}
	.st13{fill:#F7F7F6;stroke:#D27657;stroke-width:2.09;stroke-miterlimit:10;}
	.st14{fill:#5A9A8F;stroke:#5A9A8F;stroke-width:2.09;stroke-miterlimit:10;}
	.st15{fill:none;stroke:#5A9A8F;stroke-width:1.05;stroke-linecap:round;stroke-miterlimit:10;}
	.st16{fill:none;stroke:#5A9A8F;stroke-width:1.05;stroke-linecap:round;stroke-linejoin:round;}
	.st17{fill:#F7F7F6;stroke:#5A9A8F;stroke-width:2.09;stroke-miterlimit:10;}
	.st18{fill:none;stroke:#333333;stroke-width:2.09;}
	.st19{fill:#333333;}
	.st20{fill:#333333;stroke:#333333;stroke-width:2.09;stroke-linecap:round;stroke-linejoin:round;}
	.st21{fill:none;stroke:#333333;stroke-width:2.09;stroke-linecap:round;}
	.st22{fill:#5A9A8F;}
	.st23{fill:#D27657;stroke:#F7F7F6;stroke-width:2.09;stroke-miterlimit:10;}
	.st24{fill:none;stroke:#5A9A8F;stroke-width:1.05;stroke-miterlimit:10;}
	.st25{fill:#E9BBAB;stroke:#D27657;stroke-width:1.05;stroke-linecap:round;stroke-linejoin:round;}
	.st26{enable-background:new    ;}
</style>
<path class="st0" d="M365,87.1c1-3.4,1.5-7,1.5-10.7c0-21-17-38-38-38c-17.2,0-31.7,11.4-36.4,27.1c-5.1-5-12.1-8.1-19.9-8.1
	c-15.8,0-28.5,12.8-28.5,28.5c0,1.7,0.1,3.4,0.4,5c-4.2-2.4-9-3.8-14.2-3.8c-15.7,0-28.5,12.8-28.5,28.5s12.8,28.5,28.5,28.5h133.1
	c15.7,0,28.5-12.8,28.5-28.5S379.8,88.1,365,87.1L365,87.1z"/>
<g>
	<circle class="st1" cx="296.5" cy="104.7" r="16.9"/>
	<path class="st2" d="M308.8,109.2c0.5-1.4,0.8-2.9,0.8-4.6c0-7.3-5.9-13.2-13.1-13.2s-13.1,5.9-13.1,13.2s5.9,13.2,13.1,13.2
		c2.2,0,4.4-0.6,6.2-1.6l0.2-0.1v-13.8l-5.8-5.8l-6.9,5.9v9h8.1v-6.3h-3.9c0,0,0,5.2,0,6"/>
</g>
<path class="st3" d="M323.2,100l-4.5-10.9l-5.7,2.3c-1-1.2-2.1-2.4-3.3-3.3l2.4-5.7L301.2,78l-2.4,5.7c-1.5-0.2-3.1-0.2-4.7,0
	l-2.4-5.7l-10.9,4.5l2.4,5.7c-1.2,1-2.3,2.1-3.3,3.3l-5.7-2.3l-4.5,10.9l5.7,2.3c-0.2,1.6-0.2,3.1,0,4.7l-5.7,2.3l4.5,10.9l5.7-2.3
	c1,1.2,2.1,2.3,3.3,3.3l-2.4,5.7l10.9,4.5l2.4-5.7c1.5,0.2,3.1,0.2,4.7,0l2.4,5.7l10.9-4.5l-2.4-5.7c1.2-1,2.4-2.1,3.3-3.3l5.7,2.3
	l4.5-10.9l-5.7-2.3c0.2-1.6,0.2-3.1,0-4.7L323.2,100L323.2,100z M303.1,120.6c-8.8,3.6-18.8-0.5-22.4-9.3
	c-3.6-8.8,0.5-18.8,9.3-22.4c8.8-3.6,18.8,0.5,22.4,9.3C316,106.9,311.8,116.9,303.1,120.6z"/>
<g>
	<g>
		<rect x="439.5" y="311.1" class="st4" width="141.3" height="18.8"/>
		<circle class="st3" cx="538.5" cy="320.5" r="4.7"/>
		<line class="st5" x1="536.1" y1="320.5" x2="540.8" y2="320.5"/>
		<circle class="st3" cx="566.7" cy="320.5" r="4.7"/>
		<g>
			<line class="st5" x1="565" y1="322.2" x2="568.4" y2="318.9"/>
			<line class="st5" x1="568.4" y1="322.2" x2="565" y2="318.9"/>
		</g>
		<circle class="st3" cx="552.6" cy="320.5" r="4.7"/>
		<rect x="550.2" y="318.2" class="st6" width="4.7" height="4.7"/>
	</g>
	<rect x="439.5" y="329.9" class="st7" width="141.3" height="84.8"/>
	<rect x="445.6" y="318.2" class="st3" width="65.2" height="4.7"/>
	<g>
		<g>
			<polygon class="st8" points="554.7,377.7 554.7,387 541.1,394.9 541.1,385.6 			"/>
			<polygon class="st3" points="554.7,377.7 541.1,385.6 536.3,382.8 546.6,376.9 546.6,373 			"/>
			<polygon class="st8" points="546.6,373 546.6,376.9 536.3,382.8 536.3,388.3 533,390.2 526.3,394.1 526.3,374.6 546.6,362.9 			
				"/>
			<polygon class="st3" points="546.6,362.9 526.3,374.6 522.2,372.2 542.5,360.5 			"/>
			<polygon class="st8" points="542.5,356.1 542.5,360.5 522.2,372.2 522.2,367.9 			"/>
			<polygon class="st3" points="542.5,356.1 522.2,367.9 512.9,362.5 533.3,350.8 			"/>
			<polygon class="st3" points="541.1,385.6 541.1,394.9 533,390.2 536.3,388.3 536.3,382.8 			"/>
			<polygon class="st3" points="526.3,374.6 526.3,394.1 525.2,393.4 521.8,391.5 521.8,395.4 512.9,390.2 512.9,362.5 522.2,367.9 
				522.2,372.2 			"/>
			<polygon class="st8" points="521.8,391.5 525.2,393.4 521.8,395.4 			"/>
		</g>
		<g>
			<line class="st6" x1="521.8" y1="395.4" x2="512.9" y2="390.2"/>
			<line class="st6" x1="521.8" y1="395.4" x2="525.2" y2="393.4"/>
			<line class="st6" x1="521.8" y1="395.4" x2="521.8" y2="391.5"/>
			<line class="st6" x1="541.1" y1="394.9" x2="554.7" y2="387"/>
			<line class="st6" x1="541.1" y1="394.9" x2="541.1" y2="385.6"/>
			<line class="st6" x1="546.6" y1="362.9" x2="542.5" y2="360.5"/>
			<line class="st6" x1="542.5" y1="360.5" x2="542.5" y2="356.1"/>
			<line class="st6" x1="542.5" y1="356.1" x2="533.3" y2="350.8"/>
			<line class="st6" x1="533.3" y1="350.8" x2="512.9" y2="362.5"/>
			<line class="st6" x1="512.9" y1="362.5" x2="522.2" y2="367.9"/>
			<line class="st6" x1="522.2" y1="372.2" x2="526.3" y2="374.6"/>
			<line class="st6" x1="554.7" y1="377.7" x2="546.6" y2="373"/>
			<line class="st6" x1="533" y1="390.2" x2="541.1" y2="394.9"/>
			<line class="st6" x1="542.5" y1="356.1" x2="522.2" y2="367.9"/>
			<line class="st6" x1="526.3" y1="394.1" x2="526.3" y2="374.6"/>
			<line class="st6" x1="515.4" y1="369.5" x2="515.4" y2="366.9"/>
			<line class="st6" x1="518.9" y1="371.1" x2="518.9" y2="368.6"/>
			<line class="st6" x1="515.5" y1="374.8" x2="515.5" y2="372.2"/>
			<line class="st6" x1="518.8" y1="376.6" x2="518.8" y2="374"/>
			<line class="st6" x1="522.5" y1="378.6" x2="522.5" y2="376"/>
			<line class="st6" x1="528.4" y1="378.4" x2="528.4" y2="375.8"/>
			<line class="st6" x1="532.3" y1="376" x2="532.3" y2="373.5"/>
			<line class="st6" x1="536.3" y1="373.9" x2="536.3" y2="371.3"/>
			<line class="st6" x1="540.1" y1="371.7" x2="540.1" y2="369.2"/>
			<line class="st6" x1="543.8" y1="369.5" x2="543.8" y2="367"/>
			<line class="st6" x1="544.2" y1="389.2" x2="544.2" y2="386.7"/>
			<line class="st6" x1="548" y1="387.1" x2="548" y2="384.5"/>
			<line class="st6" x1="551.7" y1="384.9" x2="551.7" y2="382.3"/>
			<line class="st6" x1="528.6" y1="384.3" x2="528.6" y2="381.7"/>
			<line class="st6" x1="532.5" y1="381.9" x2="532.5" y2="379.4"/>
			<line class="st6" x1="528.6" y1="389.9" x2="528.6" y2="387.3"/>
			<line class="st6" x1="532.5" y1="387.5" x2="532.5" y2="385"/>
			<line class="st6" x1="536.5" y1="379.8" x2="536.5" y2="377.2"/>
			<line class="st6" x1="540.2" y1="377.6" x2="540.2" y2="375"/>
			<line class="st6" x1="544" y1="375.4" x2="544" y2="372.9"/>
			<line class="st6" x1="515.3" y1="380.3" x2="515.3" y2="377.7"/>
			<line class="st6" x1="518.6" y1="382" x2="518.6" y2="379.5"/>
			<line class="st6" x1="522.3" y1="384" x2="522.3" y2="381.5"/>
			<line class="st6" x1="538.5" y1="388.8" x2="538.5" y2="386.2"/>
			<line class="st6" x1="515.1" y1="385.8" x2="515.1" y2="383.3"/>
			<line class="st6" x1="518.5" y1="387.6" x2="518.5" y2="385"/>
			<line class="st6" x1="522.2" y1="389.6" x2="522.2" y2="387"/>
			<line class="st6" x1="536.3" y1="382.8" x2="536.3" y2="388.3"/>
			<line class="st6" x1="536.3" y1="382.8" x2="541.1" y2="385.6"/>
			<line class="st6" x1="512.9" y1="390.2" x2="512.9" y2="362.5"/>
			<line class="st6" x1="554.7" y1="387" x2="554.7" y2="377.7"/>
			<polyline class="st6" points="546.6,362.9 546.6,373 546.6,376.9 			"/>
			<line class="st6" x1="546.6" y1="362.9" x2="526.3" y2="374.6"/>
			<line class="st6" x1="546.6" y1="376.9" x2="536.3" y2="382.8"/>
			<line class="st6" x1="542.5" y1="360.5" x2="522.2" y2="372.2"/>
			<line class="st6" x1="522.2" y1="372.2" x2="522.2" y2="367.9"/>
			<polyline class="st6" points="521.8,391.5 525.2,393.4 526.3,394.1 			"/>
			<polyline class="st6" points="526.3,394.1 533,390.2 536.3,388.3 			"/>
			<line class="st6" x1="554.7" y1="377.7" x2="541.1" y2="385.6"/>
		</g>
	</g>
	<rect x="439.5" y="329.9" class="st7" width="46.3" height="84.8"/>
	<rect x="439.5" y="329.9" class="st7" width="46.3" height="24.4"/>
	<rect x="444.1" y="335.8" class="st9" width="27.4" height="4.7"/>
	<rect x="444.1" y="344.5" class="st9" width="34" height="4.7"/>
	<rect x="444.1" y="359.6" class="st9" width="27.4" height="4.7"/>
	<rect x="444.1" y="368.4" class="st9" width="18.5" height="4.7"/>
	<rect x="444.1" y="390.2" class="st9" width="32.2" height="4.7"/>
	<rect x="444.1" y="398.1" class="st9" width="28.7" height="4.7"/>
</g>
<g>
	<g>
		<rect x="18.9" y="311.1" class="st10" width="141.3" height="18.8"/>
		<circle class="st3" cx="117.8" cy="320.5" r="4.7"/>
		<line class="st11" x1="115.4" y1="320.5" x2="120.1" y2="320.5"/>
		<circle class="st3" cx="146" cy="320.5" r="4.7"/>
		<g>
			<line class="st11" x1="144.4" y1="322.2" x2="147.7" y2="318.9"/>
			<line class="st11" x1="147.7" y1="322.2" x2="144.4" y2="318.9"/>
		</g>
		
			<ellipse transform="matrix(7.088893e-02 -0.9975 0.9975 7.088893e-02 -197.1446 429.3676)" class="st3" cx="131.9" cy="320.5" rx="4.7" ry="4.7"/>
		<rect x="129.6" y="318.2" class="st12" width="4.7" height="4.7"/>
	</g>
	<rect x="18.9" y="329.9" class="st13" width="141.3" height="84.8"/>
	<rect x="24.9" y="318.2" class="st3" width="65.2" height="4.7"/>
</g>
<g>
	<g>
		<rect x="229.2" y="311.1" class="st14" width="141.3" height="18.8"/>
		<circle class="st3" cx="328.1" cy="320.5" r="4.7"/>
		<line class="st15" x1="325.8" y1="320.5" x2="330.5" y2="320.5"/>
		<circle class="st3" cx="356.4" cy="320.5" r="4.7"/>
		<g>
			<line class="st15" x1="354.7" y1="322.2" x2="358" y2="318.9"/>
			<line class="st15" x1="358" y1="322.2" x2="354.7" y2="318.9"/>
		</g>
		<circle class="st3" cx="342.2" cy="320.5" r="4.7"/>
		<rect x="339.9" y="318.2" class="st16" width="4.7" height="4.7"/>
	</g>
	<rect x="229.2" y="329.9" class="st17" width="141.3" height="84.8"/>
	<rect x="234.7" y="317.9" class="st3" width="65.2" height="4.7"/>
</g>
<g>
	<line class="st18" x1="493.7" y1="280.5" x2="408.5" y2="185.1"/>
	<polygon class="st19" points="413.4,182.7 403.5,179.5 405.6,189.7 	"/>
</g>
<g>
	<line class="st18" x1="300.2" y1="280.4" x2="300.2" y2="187"/>
	<polygon class="st19" points="305.5,188.5 300.2,179.5 295,188.5 	"/>
</g>
<g>
	<line class="st18" x1="106.8" y1="280.5" x2="192" y2="185.1"/>
	<polygon class="st19" points="194.9,189.7 197,179.5 187.1,182.7 	"/>
</g>
<g>
	<rect x="295.5" y="280.4" class="st20" width="9.4" height="9.4"/>
	<g>
		<line class="st21" x1="302.6" y1="290.1" x2="302.6" y2="294.8"/>
		<line class="st21" x1="297.9" y1="290.1" x2="297.9" y2="294.8"/>
	</g>
</g>
<g>
	
		<rect x="492.3" y="279.1" transform="matrix(0.7071 -0.7071 0.7071 0.7071 -55.1144 434.6034)" class="st20" width="9.4" height="9.4"/>
	<g>
		<line class="st21" x1="502.2" y1="285.7" x2="505.6" y2="289"/>
		<line class="st21" x1="498.9" y1="289" x2="502.2" y2="292.3"/>
	</g>
</g>
<g>
	
		<rect x="98.8" y="279.1" transform="matrix(0.7071 -0.7071 0.7071 0.7071 -170.3504 156.286)" class="st20" width="9.4" height="9.4"/>
	<g>
		<line class="st21" x1="101.6" y1="289" x2="98.3" y2="292.3"/>
		<line class="st21" x1="98.3" y1="285.6" x2="95" y2="289"/>
	</g>
</g>
<rect x="243.3" y="348.8" class="st22" width="28.3" height="9.4"/>
<rect x="337.5" y="367.6" class="st22" width="18.8" height="9.4"/>
<rect x="337.5" y="386.5" class="st22" width="18.8" height="9.4"/>
<rect x="290.4" y="358.2" class="st22" width="28.3" height="18.8"/>
<rect x="28.3" y="339.4" class="st23" width="28.3" height="9.4"/>
<rect x="28.3" y="348.8" class="st23" width="28.3" height="18.8"/>
<rect x="28.3" y="367.6" class="st23" width="28.3" height="9.4"/>
<rect x="28.3" y="377" class="st23" width="28.3" height="28.3"/>
<rect x="243.3" y="386.5" class="st22" width="28.3" height="9.4"/>
<path class="st24" d="M271.6,353.5c9.4,0,9.4,9.4,18.8,9.4"/>
<path class="st24" d="M318.7,362.9c9.4,0,9.4,9.4,18.8,9.4"/>
<path class="st24" d="M318.7,367.6c9.4,0,9.4,23.5,18.8,23.5"/>
<rect x="243.3" y="367.6" class="st22" width="28.3" height="9.4"/>
<path class="st24" d="M271.6,372.3c9.4,0,9.4-4.7,18.8-4.7"/>
<path class="st24" d="M271.6,391.2c9.4,0,9.4-18.8,18.8-18.8"/>
<g>
	<polygon class="st25" points="84.4,391.8 71.3,383.9 91.3,371.7 104.5,380.1 	"/>
	<polygon class="st25" points="85.2,387 72,379.1 92.1,366.9 105.2,375.3 	"/>
	<polygon class="st25" points="85.2,382.2 72,374.3 92.1,362.1 105.2,370.5 	"/>
	<polygon class="st25" points="85.2,377.4 72,369.5 92.1,357.3 105.2,365.7 	"/>
	<polygon class="st25" points="84.4,372.6 71.3,364.7 91.3,352.5 104.5,360.9 	"/>
</g>
<g>
	<line class="st12" x1="80.2" y1="393.3" x2="71.3" y2="388.2"/>
	<line class="st12" x1="80.2" y1="393.3" x2="90.3" y2="387.5"/>
	<line class="st12" x1="80.2" y1="393.3" x2="80.2" y2="389.5"/>
	<line class="st12" x1="99.4" y1="392.9" x2="113.1" y2="385"/>
	<line class="st12" x1="99.4" y1="392.9" x2="99.4" y2="383.6"/>
	<line class="st12" x1="105" y1="360.9" x2="100.8" y2="358.5"/>
	<line class="st12" x1="100.8" y1="358.5" x2="100.8" y2="354.1"/>
	<line class="st12" x1="100.8" y1="354.1" x2="91.6" y2="348.8"/>
	<line class="st12" x1="105" y1="384.6" x2="91.6" y2="376.9"/>
	<line class="st12" x1="91.6" y1="348.8" x2="71.3" y2="360.5"/>
	<line class="st12" x1="91.6" y1="376.5" x2="71.3" y2="388.2"/>
	<line class="st12" x1="71.3" y1="360.5" x2="80.5" y2="365.9"/>
	<line class="st12" x1="80.5" y1="370.2" x2="84.6" y2="372.6"/>
	<line class="st12" x1="113.1" y1="375.7" x2="105" y2="371"/>
	<line class="st12" x1="112.8" y1="384.7" x2="108.7" y2="382.3"/>
	<line class="st12" x1="90.3" y1="387.6" x2="99.4" y2="392.9"/>
	<line class="st12" x1="100.8" y1="354.1" x2="80.5" y2="365.9"/>
	<line class="st12" x1="84.6" y1="392" x2="84.6" y2="372.6"/>
	<line class="st12" x1="94.6" y1="380.8" x2="94.6" y2="386.3"/>
	<line class="st12" x1="94.6" y1="380.8" x2="99.4" y2="383.6"/>
	<line class="st12" x1="71.3" y1="388.2" x2="71.3" y2="360.5"/>
	<line class="st12" x1="91.6" y1="376.9" x2="91.6" y2="349.4"/>
	<line class="st12" x1="113.1" y1="385" x2="113.1" y2="375.7"/>
	<line class="st12" x1="108.7" y1="382.6" x2="108.7" y2="373.3"/>
	<polyline class="st12" points="105,360.9 105,378.1 105,384.6 	"/>
	<line class="st12" x1="105" y1="360.9" x2="84.6" y2="372.6"/>
	<line class="st12" x1="108.2" y1="373" x2="94.6" y2="380.8"/>
	<line class="st12" x1="100.8" y1="358.5" x2="80.5" y2="370.2"/>
	<line class="st12" x1="80.5" y1="370.2" x2="80.5" y2="365.9"/>
	<polyline class="st12" points="80.2,389.5 83.5,391.4 84.6,392 	"/>
	<polyline class="st12" points="84.6,392 91.3,388.2 94.6,386.3 	"/>
	<line class="st12" x1="113.1" y1="375.7" x2="99.4" y2="383.6"/>
	<line class="st12" x1="108.4" y1="382.5" x2="95" y2="390.2"/>
</g>
<g class="st26">
	<path class="st19" d="M290.1,162.9h-5.2l-1.1,3.1h-2.4l5.1-13.4h2.1l5.1,13.4h-2.4L290.1,162.9z M285.6,161h3.9l-1.9-5.6L285.6,161
		z"/>
	<path class="st19" d="M297.5,161v5h-2.3v-13.4h5.1c1.5,0,2.7,0.4,3.6,1.2c0.9,0.8,1.3,1.8,1.3,3.1c0,1.3-0.4,2.3-1.3,3.1
		c-0.9,0.7-2.1,1.1-3.6,1.1H297.5z M297.5,159.1h2.8c0.8,0,1.5-0.2,1.9-0.6c0.4-0.4,0.7-1,0.7-1.7c0-0.7-0.2-1.3-0.7-1.7
		c-0.4-0.4-1-0.7-1.8-0.7h-2.9V159.1z"/>
	<path class="st19" d="M309.6,166h-2.3v-13.4h2.3V166z"/>
</g>
<g>
	<path class="st19" d="M51.9,431.5c-0.1,1-0.4,1.7-1.1,2.2c-0.6,0.5-1.4,0.8-2.5,0.8c-0.7,0-1.3-0.2-1.9-0.5s-1-0.8-1.2-1.4
		s-0.5-1.3-0.5-2.2v-0.8c0-0.8,0.2-1.6,0.5-2.2s0.7-1.1,1.3-1.5s1.2-0.5,1.9-0.5c1,0,1.8,0.3,2.4,0.8c0.6,0.5,1,1.3,1,2.3h-1.5
		c-0.1-0.6-0.3-1.1-0.6-1.4c-0.3-0.3-0.7-0.4-1.3-0.4c-0.7,0-1.2,0.2-1.5,0.7s-0.5,1.2-0.5,2.2v0.8c0,1,0.2,1.7,0.5,2.2
		s0.8,0.8,1.5,0.8c0.6,0,1.1-0.1,1.4-0.4c0.3-0.3,0.5-0.7,0.6-1.4L51.9,431.5L51.9,431.5z"/>
	<path class="st19" d="M52.9,431c0-0.6,0.1-1.2,0.4-1.8c0.3-0.5,0.6-0.9,1.1-1.2s1-0.4,1.6-0.4c0.9,0,1.6,0.3,2.2,0.9
		s0.9,1.3,0.9,2.3v0.4c0,0.6-0.1,1.2-0.4,1.8s-0.6,0.9-1.1,1.2s-1,0.4-1.6,0.4c-0.9,0-1.7-0.3-2.2-0.9C53.2,433,52.9,432.1,52.9,431
		L52.9,431L52.9,431z M54.4,431.2c0,0.7,0.1,1.2,0.4,1.6c0.3,0.4,0.7,0.6,1.2,0.6s0.9-0.2,1.2-0.6c0.3-0.4,0.4-1,0.4-1.7
		c0-0.7-0.1-1.2-0.4-1.6s-0.7-0.6-1.2-0.6s-0.9,0.2-1.2,0.6C54.5,429.8,54.4,430.4,54.4,431.2z"/>
	<path class="st19" d="M61.7,427.8l0,0.8c0.5-0.6,1.1-0.9,1.9-0.9c1.4,0,2.1,0.8,2.1,2.4v4.4h-1.5v-4.3c0-0.4-0.1-0.7-0.3-0.9
		c-0.2-0.2-0.5-0.3-0.9-0.3c-0.6,0-1,0.3-1.3,0.8v4.7h-1.5v-6.6C60.3,427.8,61.7,427.8,61.7,427.8z"/>
	<path class="st19" d="M71,432.6c0-0.3-0.1-0.5-0.3-0.6s-0.6-0.3-1.1-0.4c-0.5-0.1-0.9-0.2-1.3-0.4c-0.7-0.4-1.1-0.9-1.1-1.6
		c0-0.6,0.2-1,0.7-1.4c0.5-0.4,1.1-0.6,1.8-0.6c0.8,0,1.4,0.2,1.9,0.6c0.5,0.4,0.7,0.9,0.7,1.5h-1.5c0-0.3-0.1-0.5-0.3-0.7
		s-0.5-0.3-0.8-0.3c-0.3,0-0.6,0.1-0.8,0.2c-0.2,0.1-0.3,0.4-0.3,0.6c0,0.2,0.1,0.4,0.3,0.5c0.2,0.1,0.6,0.2,1.2,0.4
		c0.6,0.1,1,0.3,1.4,0.5c0.3,0.2,0.6,0.4,0.7,0.6c0.2,0.2,0.2,0.5,0.2,0.9c0,0.6-0.2,1.1-0.7,1.5s-1.1,0.6-1.9,0.6
		c-0.5,0-1-0.1-1.4-0.3s-0.8-0.5-1-0.8c-0.2-0.3-0.4-0.7-0.4-1.1h1.4c0,0.4,0.2,0.6,0.4,0.8s0.6,0.3,1,0.3s0.7-0.1,0.9-0.2
		C70.9,433.1,71,432.9,71,432.6L71,432.6z"/>
	<path class="st19" d="M75.6,426.2v1.6h1.2v1.1h-1.2v3.7c0,0.2,0.1,0.4,0.2,0.5s0.3,0.2,0.5,0.2c0.2,0,0.3,0,0.5-0.1v1.1
		c-0.3,0.1-0.7,0.1-1,0.1c-1.1,0-1.7-0.6-1.7-1.9v-3.8H73v-1.1h1.1v-1.6L75.6,426.2L75.6,426.2z"/>
	<path class="st19" d="M81.4,429.1c-0.2,0-0.4,0-0.6,0c-0.7,0-1.1,0.3-1.4,0.8v4.5h-1.5v-6.6h1.4l0,0.7c0.4-0.6,0.9-0.9,1.5-0.9
		c0.2,0,0.4,0,0.5,0.1L81.4,429.1L81.4,429.1z"/>
	<path class="st19" d="M86.4,433.8c-0.4,0.5-1.1,0.8-1.9,0.8c-0.7,0-1.3-0.2-1.6-0.6c-0.4-0.4-0.6-1-0.6-1.8v-4.3h1.5v4.3
		c0,0.8,0.3,1.3,1.1,1.3s1.2-0.3,1.5-0.8v-4.8h1.5v6.6h-1.4L86.4,433.8L86.4,433.8z"/>
	<path class="st19" d="M92.1,433.4c0.4,0,0.7-0.1,0.9-0.3s0.4-0.5,0.4-0.8h1.4c0,0.4-0.2,0.8-0.4,1.2c-0.2,0.4-0.6,0.6-1,0.9
		s-0.9,0.3-1.3,0.3c-0.9,0-1.7-0.3-2.2-0.9c-0.5-0.6-0.8-1.4-0.8-2.5V431c0-1,0.3-1.8,0.8-2.4s1.3-0.9,2.2-0.9
		c0.8,0,1.4,0.2,1.9,0.7s0.8,1.1,0.8,1.8h-1.4c0-0.4-0.2-0.7-0.4-0.9s-0.6-0.4-0.9-0.4c-0.5,0-0.8,0.2-1.1,0.5s-0.4,0.9-0.4,1.6v0.2
		c0,0.7,0.1,1.3,0.4,1.6S91.5,433.3,92.1,433.4L92.1,433.4z"/>
	<path class="st19" d="M97.8,426.2v1.6h1.2v1.1h-1.2v3.7c0,0.2,0.1,0.4,0.2,0.5s0.3,0.2,0.5,0.2c0.2,0,0.3,0,0.5-0.1v1.1
		c-0.3,0.1-0.7,0.1-1,0.1c-1.1,0-1.7-0.6-1.7-1.9v-3.8h-1.1v-1.1h1.1v-1.6L97.8,426.2L97.8,426.2z"/>
	<path class="st19" d="M100.1,426.1c0-0.2,0.1-0.4,0.2-0.6s0.3-0.2,0.6-0.2s0.5,0.1,0.6,0.2c0.2,0.1,0.2,0.3,0.2,0.6
		s-0.1,0.4-0.2,0.6s-0.4,0.2-0.6,0.2s-0.5-0.1-0.6-0.2C100.2,426.5,100.1,426.3,100.1,426.1z M101.7,434.4h-1.5v-6.6h1.5V434.4z"/>
	<path class="st19" d="M103,431c0-0.6,0.1-1.2,0.4-1.8c0.3-0.5,0.6-0.9,1.1-1.2c0.5-0.3,1-0.4,1.6-0.4c0.9,0,1.6,0.3,2.2,0.9
		s0.9,1.3,0.9,2.3v0.4c0,0.6-0.1,1.2-0.4,1.8s-0.6,0.9-1.1,1.2s-1,0.4-1.6,0.4c-0.9,0-1.7-0.3-2.2-0.9C103.3,433,103,432.1,103,431
		L103,431L103,431z M104.5,431.2c0,0.7,0.1,1.2,0.4,1.6c0.3,0.4,0.7,0.6,1.2,0.6s0.9-0.2,1.2-0.6c0.3-0.4,0.4-1,0.4-1.7
		c0-0.7-0.1-1.2-0.4-1.6s-0.7-0.6-1.2-0.6s-0.9,0.2-1.2,0.6C104.6,429.8,104.5,430.4,104.5,431.2z"/>
	<path class="st19" d="M111.8,427.8l0,0.8c0.5-0.6,1.1-0.9,1.9-0.9c1.4,0,2.1,0.8,2.1,2.4v4.4h-1.5v-4.3c0-0.4-0.1-0.7-0.3-0.9
		c-0.2-0.2-0.5-0.3-0.9-0.3c-0.6,0-1.1,0.3-1.3,0.8v4.7h-1.5v-6.6H111.8L111.8,427.8z"/>
	<path class="st19" d="M46.3,442.9l0,0.7c0.5-0.5,1.1-0.8,1.9-0.8c0.9,0,1.5,0.3,1.8,1c0.5-0.7,1.2-1,2-1c0.7,0,1.3,0.2,1.6,0.6
		c0.4,0.4,0.5,1,0.5,1.8v4.4h-1.5v-4.3c0-0.4-0.1-0.7-0.3-0.9c-0.2-0.2-0.5-0.3-0.9-0.3c-0.3,0-0.6,0.1-0.8,0.3
		c-0.2,0.2-0.4,0.4-0.5,0.7v4.5h-1.5v-4.4c0-0.8-0.4-1.2-1.2-1.2c-0.6,0-1,0.2-1.3,0.7v4.8h-1.5v-6.6L46.3,442.9L46.3,442.9z"/>
	<path class="st19" d="M59.8,449.5c-0.1-0.1-0.1-0.3-0.2-0.6c-0.5,0.5-1.1,0.7-1.7,0.7s-1.2-0.2-1.6-0.6c-0.4-0.4-0.6-0.9-0.6-1.4
		c0-0.7,0.3-1.2,0.8-1.6c0.5-0.4,1.3-0.6,2.2-0.6h0.9V445c0-0.3-0.1-0.6-0.3-0.8c-0.2-0.2-0.5-0.3-0.9-0.3c-0.3,0-0.6,0.1-0.8,0.2
		c-0.2,0.2-0.3,0.4-0.3,0.6h-1.5c0-0.4,0.1-0.7,0.4-1c0.2-0.3,0.6-0.6,1-0.8c0.4-0.2,0.9-0.3,1.4-0.3c0.8,0,1.4,0.2,1.9,0.6
		s0.7,0.9,0.7,1.6v3c0,0.6,0.1,1.1,0.2,1.4v0.1L59.8,449.5L59.8,449.5z M58.2,448.4c0.3,0,0.6-0.1,0.8-0.2c0.3-0.1,0.5-0.3,0.6-0.6
		v-1.2h-0.8c-0.5,0-1,0.1-1.2,0.3s-0.4,0.5-0.4,0.8c0,0.3,0.1,0.5,0.3,0.7C57.6,448.3,57.9,448.4,58.2,448.4L58.2,448.4z"/>
	<path class="st19" d="M64.1,442.9l0,0.8c0.5-0.6,1.1-0.9,1.9-0.9c1.4,0,2.1,0.8,2.1,2.4v4.4h-1.5v-4.3c0-0.4-0.1-0.7-0.3-0.9
		c-0.2-0.2-0.5-0.3-0.9-0.3c-0.6,0-1.1,0.3-1.3,0.8v4.7h-1.5v-6.6C62.7,442.9,64.1,442.9,64.1,442.9z"/>
	<path class="st19" d="M73.6,449.5c-0.1-0.1-0.1-0.3-0.2-0.6c-0.5,0.5-1.1,0.7-1.7,0.7s-1.2-0.2-1.6-0.6s-0.6-0.9-0.6-1.4
		c0-0.7,0.3-1.2,0.8-1.6c0.5-0.4,1.3-0.6,2.2-0.6h0.9V445c0-0.3-0.1-0.6-0.3-0.8s-0.5-0.3-0.9-0.3c-0.3,0-0.6,0.1-0.8,0.2
		c-0.2,0.2-0.3,0.4-0.3,0.6h-1.5c0-0.4,0.1-0.7,0.4-1c0.2-0.3,0.6-0.6,1-0.8c0.4-0.2,0.9-0.3,1.4-0.3c0.8,0,1.4,0.2,1.9,0.6
		s0.7,0.9,0.7,1.6v3c0,0.6,0.1,1.1,0.2,1.4v0.1L73.6,449.5L73.6,449.5z M72,448.4c0.3,0,0.6-0.1,0.8-0.2c0.3-0.1,0.4-0.3,0.6-0.6
		v-1.2h-0.8c-0.6,0-1,0.1-1.2,0.3s-0.4,0.5-0.4,0.8c0,0.3,0.1,0.5,0.3,0.7C71.4,448.3,71.7,448.4,72,448.4L72,448.4z"/>
	<path class="st19" d="M76.2,446.1c0-1,0.2-1.9,0.7-2.5c0.5-0.6,1.1-0.9,1.9-0.9c0.8,0,1.3,0.3,1.8,0.8l0.1-0.7H82v6.4
		c0,0.9-0.3,1.6-0.8,2.1s-1.3,0.8-2.2,0.8c-0.5,0-1-0.1-1.4-0.3c-0.5-0.2-0.8-0.5-1.1-0.8l0.7-0.9c0.5,0.5,1,0.8,1.7,0.8
		c0.5,0,0.9-0.1,1.2-0.4s0.4-0.7,0.4-1.2v-0.5c-0.4,0.5-1,0.7-1.7,0.7c-0.8,0-1.4-0.3-1.9-0.9S76.2,447.2,76.2,446.1z M77.7,446.3
		c0,0.7,0.1,1.2,0.4,1.6c0.3,0.4,0.7,0.6,1.1,0.6c0.6,0,1.1-0.3,1.3-0.8v-2.9c-0.3-0.5-0.7-0.8-1.3-0.8c-0.5,0-0.9,0.2-1.1,0.6
		C77.8,444.9,77.7,445.5,77.7,446.3L77.7,446.3z"/>
	<path class="st19" d="M86.5,449.6c-0.9,0-1.7-0.3-2.3-0.9s-0.9-1.4-0.9-2.4v-0.2c0-0.7,0.1-1.2,0.4-1.8c0.3-0.5,0.6-0.9,1.1-1.2
		s1-0.4,1.6-0.4c0.9,0,1.6,0.3,2.1,0.9s0.7,1.4,0.7,2.5v0.6h-4.3c0,0.5,0.2,1,0.6,1.3c0.3,0.3,0.7,0.5,1.2,0.5
		c0.7,0,1.2-0.3,1.7-0.8l0.8,0.8c-0.3,0.4-0.6,0.7-1.1,0.9C87.5,449.5,87,449.6,86.5,449.6z M86.3,443.9c-0.4,0-0.7,0.1-1,0.4
		s-0.4,0.7-0.5,1.2h2.8v-0.1c0-0.5-0.2-0.9-0.4-1.1S86.7,443.9,86.3,443.9L86.3,443.9z"/>
	<path class="st19" d="M91.7,442.9l0,0.7c0.5-0.5,1.1-0.8,1.9-0.8c0.9,0,1.5,0.3,1.8,1c0.5-0.7,1.2-1,2-1c0.7,0,1.3,0.2,1.6,0.6
		c0.4,0.4,0.5,1,0.6,1.8v4.4h-1.5v-4.3c0-0.4-0.1-0.7-0.3-0.9c-0.2-0.2-0.5-0.3-0.9-0.3c-0.3,0-0.6,0.1-0.8,0.3s-0.4,0.4-0.4,0.7
		v4.5h-1.5v-4.4c0-0.8-0.4-1.2-1.2-1.2c-0.6,0-1,0.2-1.3,0.7v4.8h-1.5v-6.6L91.7,442.9L91.7,442.9z"/>
	<path class="st19" d="M104.2,449.6c-0.9,0-1.7-0.3-2.3-0.9s-0.9-1.4-0.9-2.4v-0.2c0-0.7,0.1-1.2,0.4-1.8c0.3-0.5,0.6-0.9,1.1-1.2
		s1-0.4,1.6-0.4c0.9,0,1.6,0.3,2.1,0.9s0.7,1.4,0.7,2.5v0.6h-4.3c0,0.5,0.2,1,0.6,1.3c0.3,0.3,0.7,0.5,1.2,0.5
		c0.7,0,1.2-0.3,1.7-0.8l0.8,0.8c-0.3,0.4-0.6,0.7-1.1,0.9C105.2,449.5,104.7,449.6,104.2,449.6z M104,443.9c-0.4,0-0.7,0.1-1,0.4
		s-0.4,0.7-0.5,1.2h2.8v-0.1c0-0.5-0.2-0.9-0.4-1.1S104.4,443.9,104,443.9L104,443.9z"/>
	<path class="st19" d="M109.4,442.9l0,0.8c0.5-0.6,1.1-0.9,1.9-0.9c1.4,0,2.1,0.8,2.1,2.4v4.4H112v-4.3c0-0.4-0.1-0.7-0.3-0.9
		c-0.2-0.2-0.5-0.3-0.9-0.3c-0.6,0-1.1,0.3-1.3,0.8v4.7H108v-6.6H109.4L109.4,442.9z"/>
	<path class="st19" d="M116.8,441.2v1.6h1.2v1.1h-1.2v3.7c0,0.2,0.1,0.4,0.2,0.5s0.3,0.2,0.5,0.2c0.2,0,0.3,0,0.5-0.1v1.1
		c-0.3,0.1-0.7,0.1-1,0.1c-1.1,0-1.7-0.6-1.7-1.9v-3.8h-1.1v-1.1h1.1v-1.6L116.8,441.2L116.8,441.2z"/>
	<path class="st19" d="M48.7,462.8c0-0.3-0.1-0.5-0.3-0.6s-0.6-0.3-1.1-0.4s-0.9-0.2-1.3-0.4c-0.7-0.4-1.1-0.9-1.1-1.6
		c0-0.6,0.2-1,0.7-1.4c0.5-0.4,1.1-0.6,1.8-0.6c0.8,0,1.4,0.2,1.9,0.6c0.5,0.4,0.7,0.9,0.7,1.5h-1.5c0-0.3-0.1-0.5-0.3-0.7
		s-0.5-0.3-0.8-0.3c-0.3,0-0.6,0.1-0.8,0.2c-0.2,0.1-0.3,0.4-0.3,0.6c0,0.2,0.1,0.4,0.3,0.5c0.2,0.1,0.6,0.2,1.2,0.4
		c0.6,0.1,1,0.3,1.4,0.5c0.3,0.2,0.6,0.4,0.7,0.6s0.2,0.5,0.2,0.9c0,0.6-0.2,1.1-0.7,1.5s-1.1,0.6-1.9,0.6c-0.5,0-1-0.1-1.5-0.3
		s-0.8-0.5-1-0.8c-0.2-0.3-0.4-0.7-0.4-1.1h1.5c0,0.4,0.2,0.6,0.4,0.8s0.6,0.3,1,0.3s0.7-0.1,0.9-0.2
		C48.6,463.2,48.7,463,48.7,462.8L48.7,462.8z"/>
	<path class="st19" d="M51.2,461.2c0-0.6,0.1-1.2,0.4-1.8c0.3-0.5,0.6-0.9,1.1-1.2s1-0.4,1.6-0.4c0.9,0,1.6,0.3,2.2,0.9
		s0.9,1.3,0.9,2.3v0.4c0,0.6-0.1,1.2-0.4,1.8s-0.6,0.9-1.1,1.2s-1,0.4-1.6,0.4c-0.9,0-1.7-0.3-2.2-0.9
		C51.4,463.1,51.2,462.3,51.2,461.2L51.2,461.2L51.2,461.2z M52.6,461.3c0,0.7,0.1,1.2,0.4,1.6c0.3,0.4,0.7,0.6,1.2,0.6
		s0.9-0.2,1.2-0.6c0.3-0.4,0.4-1,0.4-1.7c0-0.7-0.1-1.2-0.4-1.6s-0.7-0.6-1.2-0.6s-0.9,0.2-1.2,0.6C52.8,460,52.6,460.5,52.6,461.3z
		"/>
	<path class="st19" d="M59.1,464.6V459h-1v-1.1h1v-0.6c0-0.7,0.2-1.3,0.6-1.7c0.4-0.4,1-0.6,1.7-0.6c0.3,0,0.5,0,0.8,0.1l0,1.2
		c-0.2,0-0.3,0-0.6,0c-0.7,0-1.1,0.4-1.1,1.1v0.6h1.3v1.1h-1.3v5.5L59.1,464.6L59.1,464.6z"/>
	<path class="st19" d="M64.9,456.3v1.6h1.2v1.1h-1.2v3.7c0,0.2,0.1,0.4,0.2,0.5s0.3,0.2,0.5,0.2c0.2,0,0.3,0,0.5-0.1v1.1
		c-0.3,0.1-0.7,0.1-1,0.1c-1.1,0-1.7-0.6-1.7-1.9V459h-1.1v-1.1h1.1v-1.6L64.9,456.3L64.9,456.3z"/>
	<path class="st19" d="M73,462.5l1.1-4.6h1.4l-1.8,6.6h-1.2l-1.4-4.6l-1.4,4.6h-1.2l-1.8-6.6h1.4l1.1,4.5l1.4-4.5h1.1L73,462.5
		L73,462.5z"/>
	<path class="st19" d="M80.5,464.6c-0.1-0.1-0.1-0.3-0.2-0.6c-0.5,0.5-1.1,0.7-1.7,0.7s-1.2-0.2-1.6-0.6s-0.6-0.9-0.6-1.4
		c0-0.7,0.3-1.2,0.8-1.6c0.5-0.4,1.3-0.6,2.2-0.6h0.9v-0.4c0-0.3-0.1-0.6-0.3-0.8s-0.5-0.3-0.9-0.3c-0.3,0-0.6,0.1-0.8,0.2
		c-0.2,0.2-0.3,0.4-0.3,0.6h-1.5c0-0.4,0.1-0.7,0.4-1c0.2-0.3,0.6-0.6,1-0.8c0.4-0.2,0.9-0.3,1.4-0.3c0.8,0,1.4,0.2,1.9,0.6
		s0.7,0.9,0.7,1.6v3c0,0.6,0.1,1.1,0.2,1.4v0.1L80.5,464.6L80.5,464.6z M78.9,463.5c0.3,0,0.6-0.1,0.8-0.2c0.3-0.1,0.4-0.3,0.6-0.6
		v-1.2h-0.8c-0.6,0-1,0.1-1.2,0.3s-0.4,0.5-0.4,0.8c0,0.3,0.1,0.5,0.3,0.7C78.3,463.4,78.6,463.5,78.9,463.5L78.9,463.5z"/>
	<path class="st19" d="M86.8,459.3c-0.2,0-0.4,0-0.6,0c-0.7,0-1.1,0.3-1.4,0.8v4.5h-1.5v-6.6h1.4l0,0.7c0.4-0.6,0.9-0.9,1.5-0.9
		c0.2,0,0.4,0,0.5,0.1L86.8,459.3L86.8,459.3z"/>
	<path class="st19" d="M90.6,464.7c-0.9,0-1.7-0.3-2.3-0.9s-0.9-1.4-0.9-2.4v-0.2c0-0.7,0.1-1.2,0.4-1.8c0.3-0.5,0.6-0.9,1.1-1.2
		s1-0.4,1.6-0.4c0.9,0,1.6,0.3,2.1,0.9s0.7,1.4,0.7,2.5v0.6h-4.3c0,0.5,0.2,1,0.6,1.3c0.3,0.3,0.7,0.5,1.2,0.5
		c0.7,0,1.2-0.3,1.7-0.8l0.8,0.8c-0.3,0.4-0.6,0.7-1.1,0.9C91.6,464.6,91.1,464.7,90.6,464.7z M90.4,459c-0.4,0-0.7,0.1-1,0.4
		s-0.4,0.7-0.5,1.2h2.8v-0.1c0-0.5-0.2-0.9-0.4-1.1S90.8,459,90.4,459L90.4,459z"/>
</g>
<g>
	<path class="st19" d="M503.4,433.6v-8.9h3.1c1,0,1.8,0.2,2.3,0.6c0.5,0.4,0.8,1,0.8,1.8c0,0.4-0.1,0.8-0.3,1.1s-0.5,0.6-1,0.8
		c0.5,0.1,0.9,0.4,1.1,0.7s0.4,0.8,0.4,1.3c0,0.8-0.3,1.5-0.8,1.9c-0.5,0.5-1.3,0.7-2.3,0.7L503.4,433.6L503.4,433.6z M505,428.4
		h1.5c0.5,0,0.9-0.1,1.1-0.3c0.3-0.2,0.4-0.5,0.4-0.9c0-0.4-0.1-0.8-0.4-1c-0.2-0.2-0.6-0.3-1.2-0.3H505L505,428.4L505,428.4z
		 M505,429.5v2.8h1.7c0.5,0,0.9-0.1,1.1-0.4c0.3-0.2,0.4-0.6,0.4-1c0-0.9-0.5-1.4-1.4-1.4H505z"/>
	<path class="st19" d="M513,433.6h-1.5v-8.9h1.5V433.6z"/>
	<path class="st19" d="M516.9,424.6l2.6,6.8l2.6-6.8h2v8.9h-1.5v-2.9l0.2-3.9l-2.6,6.9h-1.1l-2.6-6.9l0.2,3.9v2.9h-1.5v-8.9
		L516.9,424.6L516.9,424.6z"/>
</g>
<g>
	<path class="st19" d="M267.3,432.4c-0.3,0.4-0.8,0.7-1.3,1s-1.2,0.3-2,0.3s-1.4-0.2-2-0.5s-1-0.8-1.3-1.5s-0.5-1.4-0.5-2.2v-0.7
		c0-1.4,0.3-2.4,1-3.2s1.5-1.1,2.7-1.1c1,0,1.8,0.2,2.4,0.7c0.6,0.5,0.9,1.2,1,2.1h-1.5c-0.2-1.1-0.8-1.6-1.9-1.6
		c-0.7,0-1.2,0.2-1.6,0.8s-0.5,1.2-0.6,2.2v0.7c0,1,0.2,1.7,0.6,2.2c0.4,0.5,1,0.8,1.7,0.8c0.8,0,1.4-0.2,1.7-0.5v-1.8h-1.8V429h3.4
		L267.3,432.4L267.3,432.4z"/>
	<path class="st19" d="M272.4,428.3c-0.2,0-0.4,0-0.6,0c-0.7,0-1.1,0.3-1.4,0.8v4.5h-1.5v-6.6h1.4l0,0.7c0.4-0.6,0.9-0.9,1.5-0.9
		c0.2,0,0.4,0,0.5,0.1L272.4,428.3L272.4,428.3z"/>
	<path class="st19" d="M277.1,433.6c-0.1-0.1-0.1-0.3-0.2-0.6c-0.5,0.5-1.1,0.7-1.7,0.7s-1.2-0.2-1.6-0.6s-0.6-0.9-0.6-1.4
		c0-0.7,0.3-1.2,0.8-1.6c0.5-0.4,1.3-0.6,2.2-0.6h0.9v-0.4c0-0.3-0.1-0.6-0.3-0.8s-0.5-0.3-0.9-0.3c-0.3,0-0.6,0.1-0.8,0.2
		c-0.2,0.2-0.3,0.4-0.3,0.6H273c0-0.4,0.1-0.7,0.4-1c0.2-0.3,0.6-0.6,1-0.8c0.4-0.2,0.9-0.3,1.4-0.3c0.8,0,1.4,0.2,1.9,0.6
		s0.7,0.9,0.7,1.6v3c0,0.6,0.1,1.1,0.2,1.4v0.1L277.1,433.6L277.1,433.6z M275.4,432.5c0.3,0,0.6-0.1,0.8-0.2
		c0.3-0.1,0.5-0.3,0.6-0.6v-1.2h-0.8c-0.5,0-1,0.1-1.2,0.3s-0.4,0.5-0.4,0.8c0,0.3,0.1,0.5,0.3,0.7
		C274.9,432.4,275.1,432.5,275.4,432.5L275.4,432.5z"/>
	<path class="st19" d="M283.6,431.8c0-0.3-0.1-0.5-0.3-0.6s-0.6-0.3-1.1-0.4s-0.9-0.2-1.3-0.4c-0.7-0.4-1.1-0.9-1.1-1.6
		c0-0.6,0.2-1,0.7-1.4c0.5-0.4,1.1-0.6,1.8-0.6c0.8,0,1.4,0.2,1.9,0.6c0.5,0.4,0.7,0.9,0.7,1.5h-1.5c0-0.3-0.1-0.5-0.3-0.7
		c-0.2-0.2-0.5-0.3-0.9-0.3c-0.3,0-0.6,0.1-0.8,0.2c-0.2,0.1-0.3,0.4-0.3,0.6c0,0.2,0.1,0.4,0.3,0.5c0.2,0.1,0.6,0.2,1.2,0.4
		c0.6,0.1,1,0.3,1.4,0.5c0.3,0.2,0.6,0.4,0.7,0.6s0.2,0.5,0.2,0.9c0,0.6-0.2,1.1-0.7,1.5s-1.1,0.6-1.9,0.6c-0.5,0-1-0.1-1.5-0.3
		s-0.8-0.5-1-0.8c-0.2-0.3-0.4-0.7-0.4-1.1h1.5c0,0.4,0.1,0.6,0.4,0.8s0.6,0.3,1,0.3s0.7-0.1,0.9-0.2
		C283.5,432.2,283.6,432,283.6,431.8L283.6,431.8z"/>
	<path class="st19" d="M290.1,431.8c0-0.3-0.1-0.5-0.3-0.6s-0.6-0.3-1.1-0.4s-0.9-0.2-1.3-0.4c-0.7-0.4-1.1-0.9-1.1-1.6
		c0-0.6,0.2-1,0.7-1.4c0.5-0.4,1.1-0.6,1.8-0.6c0.8,0,1.4,0.2,1.9,0.6c0.5,0.4,0.7,0.9,0.7,1.5H290c0-0.3-0.1-0.5-0.3-0.7
		c-0.2-0.2-0.5-0.3-0.9-0.3c-0.3,0-0.6,0.1-0.8,0.2c-0.2,0.1-0.3,0.4-0.3,0.6c0,0.2,0.1,0.4,0.3,0.5c0.2,0.1,0.6,0.2,1.2,0.4
		c0.6,0.1,1,0.3,1.4,0.5c0.3,0.2,0.6,0.4,0.7,0.6s0.2,0.5,0.2,0.9c0,0.6-0.2,1.1-0.7,1.5s-1.1,0.6-1.9,0.6c-0.5,0-1-0.1-1.5-0.3
		s-0.8-0.5-1-0.8c-0.2-0.3-0.4-0.7-0.4-1.1h1.5c0,0.4,0.1,0.6,0.4,0.8s0.6,0.3,1,0.3s0.7-0.1,0.9-0.2
		C290,432.2,290.1,432,290.1,431.8L290.1,431.8z"/>
	<path class="st19" d="M294.3,427.6c0.5-0.6,1.1-0.9,1.9-0.9c1.4,0,2.1,0.8,2.1,2.4v4.3h-1.5v-4.3c0-0.5-0.1-0.8-0.3-1
		s-0.5-0.3-0.9-0.3c-0.6,0-1,0.3-1.3,0.8v4.7h-1.5v-9.4h1.5L294.3,427.6L294.3,427.6z"/>
	<path class="st19" d="M299.6,430.2c0-0.6,0.1-1.2,0.4-1.8c0.3-0.5,0.6-0.9,1.1-1.2s1-0.4,1.6-0.4c0.9,0,1.6,0.3,2.2,0.9
		s0.9,1.3,0.9,2.3v0.4c0,0.6-0.1,1.2-0.4,1.8s-0.6,0.9-1.1,1.2s-1,0.4-1.6,0.4c-0.9,0-1.7-0.3-2.2-0.9
		C299.9,432.1,299.6,431.3,299.6,430.2L299.6,430.2L299.6,430.2z M301.1,430.3c0,0.7,0.1,1.2,0.4,1.6c0.3,0.4,0.7,0.6,1.2,0.6
		s0.9-0.2,1.2-0.6c0.3-0.4,0.4-1,0.4-1.7c0-0.7-0.1-1.2-0.4-1.6s-0.7-0.6-1.2-0.6s-0.9,0.2-1.2,0.6
		C301.2,429,301.1,429.5,301.1,430.3L301.1,430.3z"/>
	<path class="st19" d="M312.8,430.3c0,1-0.2,1.9-0.7,2.5s-1.1,0.9-1.9,0.9c-0.7,0-1.3-0.2-1.8-0.7v3.1H307v-9.2h1.4l0.1,0.7
		c0.4-0.5,1-0.8,1.8-0.8c0.8,0,1.4,0.3,1.9,0.9S312.8,429.1,312.8,430.3L312.8,430.3L312.8,430.3z M311.3,430.2
		c0-0.7-0.1-1.2-0.4-1.6c-0.3-0.4-0.6-0.6-1.1-0.6c-0.6,0-1,0.2-1.3,0.8v2.9c0.3,0.5,0.7,0.8,1.3,0.8c0.5,0,0.9-0.2,1.1-0.6
		C311.2,431.5,311.3,431,311.3,430.2L311.3,430.2z"/>
	<path class="st19" d="M319.9,430.3c0,1-0.2,1.9-0.7,2.5s-1.1,0.9-1.9,0.9c-0.7,0-1.3-0.2-1.8-0.7v3.1h-1.5v-9.2h1.4l0.1,0.7
		c0.4-0.5,1-0.8,1.8-0.8c0.8,0,1.4,0.3,1.9,0.9S319.9,429.1,319.9,430.3L319.9,430.3L319.9,430.3z M318.4,430.2
		c0-0.7-0.1-1.2-0.4-1.6c-0.3-0.4-0.6-0.6-1.1-0.6c-0.6,0-1,0.2-1.3,0.8v2.9c0.3,0.5,0.7,0.8,1.3,0.8c0.5,0,0.9-0.2,1.1-0.6
		C318.3,431.5,318.4,431,318.4,430.2L318.4,430.2z"/>
	<path class="st19" d="M324.1,433.7c-0.9,0-1.7-0.3-2.3-0.9s-0.9-1.4-0.9-2.4v-0.2c0-0.7,0.1-1.2,0.4-1.8c0.3-0.5,0.6-0.9,1.1-1.2
		s1-0.4,1.5-0.4c0.9,0,1.6,0.3,2.1,0.9s0.7,1.4,0.7,2.5v0.6h-4.3c0,0.5,0.2,1,0.5,1.3c0.3,0.3,0.7,0.5,1.2,0.5
		c0.7,0,1.2-0.3,1.7-0.8l0.8,0.8c-0.3,0.4-0.6,0.7-1.1,0.9C325.1,433.6,324.6,433.7,324.1,433.7L324.1,433.7z M323.9,428
		c-0.4,0-0.7,0.1-1,0.4s-0.4,0.7-0.5,1.2h2.8v-0.1c0-0.5-0.2-0.9-0.4-1.1C324.6,428.1,324.3,428,323.9,428L323.9,428z"/>
	<path class="st19" d="M331.4,428.3c-0.2,0-0.4,0-0.6,0c-0.7,0-1.1,0.3-1.4,0.8v4.5h-1.5v-6.6h1.4l0,0.7c0.4-0.6,0.9-0.9,1.5-0.9
		c0.2,0,0.4,0,0.5,0.1L331.4,428.3L331.4,428.3z"/>
	<path class="st19" d="M335.8,434.3h-1.2l3.5-9.7h1.2L335.8,434.3z"/>
	<path class="st19" d="M260.5,448.6v-8.9h2.6c0.8,0,1.5,0.2,2.1,0.5s1.1,0.9,1.4,1.5c0.3,0.6,0.5,1.4,0.5,2.2v0.5
		c0,0.9-0.2,1.6-0.5,2.2s-0.8,1.1-1.4,1.5s-1.3,0.5-2.1,0.5L260.5,448.6L260.5,448.6z M262,441v6.4h1c0.8,0,1.4-0.2,1.9-0.8
		c0.4-0.5,0.7-1.2,0.7-2.2v-0.5c0-1-0.2-1.7-0.6-2.2s-1-0.8-1.8-0.8H262L262,441z"/>
	<path class="st19" d="M270.9,446.5l1.4-4.5h1.6l-2.6,7.6c-0.4,1.1-1.1,1.7-2.1,1.7c-0.2,0-0.5,0-0.7-0.1V450l0.3,0
		c0.4,0,0.7-0.1,0.9-0.2s0.3-0.4,0.5-0.7l0.2-0.6l-2.3-6.6h1.6L270.9,446.5L270.9,446.5z"/>
	<path class="st19" d="M276,442l0,0.8c0.5-0.6,1.1-0.9,1.9-0.9c1.4,0,2.1,0.8,2.1,2.4v4.4h-1.5v-4.3c0-0.4-0.1-0.7-0.3-0.9
		c-0.2-0.2-0.5-0.3-0.9-0.3c-0.6,0-1,0.3-1.3,0.8v4.7h-1.5V442H276z"/>
	<path class="st19" d="M285.6,448.6c-0.1-0.1-0.1-0.3-0.2-0.6c-0.5,0.5-1.1,0.7-1.7,0.7s-1.2-0.2-1.6-0.6s-0.6-0.9-0.6-1.4
		c0-0.7,0.3-1.2,0.8-1.6c0.5-0.4,1.3-0.6,2.2-0.6h0.9v-0.4c0-0.3-0.1-0.6-0.3-0.8s-0.5-0.3-0.9-0.3c-0.3,0-0.6,0.1-0.8,0.2
		c-0.2,0.2-0.3,0.4-0.3,0.6h-1.5c0-0.4,0.1-0.7,0.4-1c0.2-0.3,0.6-0.6,1-0.8c0.4-0.2,0.9-0.3,1.4-0.3c0.8,0,1.4,0.2,1.9,0.6
		s0.7,0.9,0.7,1.6v3c0,0.6,0.1,1.1,0.2,1.4v0.1L285.6,448.6L285.6,448.6z M284,447.6c0.3,0,0.6-0.1,0.8-0.2c0.3-0.1,0.5-0.3,0.6-0.6
		v-1.2h-0.8c-0.5,0-1,0.1-1.2,0.3s-0.4,0.5-0.4,0.8c0,0.3,0.1,0.5,0.3,0.7C283.4,447.5,283.6,447.6,284,447.6L284,447.6z"/>
	<path class="st19" d="M289.8,442l0,0.7c0.5-0.5,1.1-0.8,1.9-0.8c0.9,0,1.5,0.3,1.8,1c0.5-0.7,1.2-1,2-1c0.7,0,1.3,0.2,1.6,0.6
		c0.4,0.4,0.5,1,0.5,1.8v4.4h-1.5v-4.3c0-0.4-0.1-0.7-0.3-0.9c-0.2-0.2-0.5-0.3-0.9-0.3c-0.3,0-0.6,0.1-0.8,0.3s-0.4,0.4-0.5,0.7
		v4.5h-1.5v-4.4c0-0.8-0.4-1.2-1.2-1.2c-0.6,0-1,0.2-1.3,0.7v4.8h-1.5V442L289.8,442L289.8,442z"/>
	<path class="st19" d="M299.1,445.2c0-0.6,0.1-1.2,0.4-1.8c0.3-0.5,0.6-0.9,1.1-1.2s1-0.4,1.6-0.4c0.9,0,1.6,0.3,2.2,0.9
		s0.9,1.3,0.9,2.3v0.4c0,0.6-0.1,1.2-0.4,1.8s-0.6,0.9-1.1,1.2s-1,0.4-1.6,0.4c-0.9,0-1.7-0.3-2.2-0.9
		C299.4,447.2,299.1,446.4,299.1,445.2L299.1,445.2L299.1,445.2z M300.6,445.4c0,0.7,0.1,1.2,0.4,1.6c0.3,0.4,0.7,0.6,1.2,0.6
		s0.9-0.2,1.2-0.6c0.3-0.4,0.4-1,0.4-1.7c0-0.7-0.1-1.2-0.4-1.6s-0.7-0.6-1.2-0.6s-0.9,0.2-1.2,0.6
		C300.7,444,300.6,444.6,300.6,445.4L300.6,445.4z"/>
	<path class="st19" d="M310.1,449.4h-1.2l3.5-9.7h1.2L310.1,449.4z"/>
	<path class="st19" d="M324.7,447.5c-0.3,0.4-0.8,0.7-1.3,1s-1.2,0.3-2,0.3s-1.4-0.2-2-0.5s-1-0.8-1.3-1.5s-0.5-1.4-0.5-2.2v-0.7
		c0-1.4,0.3-2.4,1-3.2s1.5-1.1,2.7-1.1c1,0,1.8,0.2,2.4,0.7c0.6,0.5,0.9,1.2,1,2.1h-1.5c-0.2-1.1-0.8-1.6-1.9-1.6
		c-0.7,0-1.2,0.2-1.6,0.8s-0.5,1.2-0.6,2.2v0.7c0,1,0.2,1.7,0.6,2.2c0.4,0.5,1,0.8,1.7,0.8c0.8,0,1.4-0.2,1.7-0.5v-1.8h-1.8V444h3.4
		L324.7,447.5L324.7,447.5z"/>
	<path class="st19" d="M326.4,448.6v-8.9h2.6c0.8,0,1.5,0.2,2.1,0.5s1.1,0.9,1.4,1.5c0.3,0.6,0.5,1.4,0.5,2.2v0.5
		c0,0.9-0.2,1.6-0.5,2.2s-0.8,1.1-1.4,1.5s-1.3,0.5-2.1,0.5L326.4,448.6L326.4,448.6z M328,441v6.4h1c0.8,0,1.4-0.2,1.9-0.8
		c0.4-0.5,0.7-1.2,0.7-2.2v-0.5c0-1-0.2-1.7-0.6-2.2s-1-0.8-1.8-0.8H328L328,441z"/>
	<path class="st19" d="M336.2,447.4h4v1.2h-5.6v-8.9h1.5L336.2,447.4L336.2,447.4z"/>
</g>
</svg>
