<?xml version="1.0" encoding="utf-8"?>
<!-- Generator: Adobe Illustrator 27.1.1, SVG Export Plug-In . SVG Version: 6.00 Build 0)  -->
<svg version="1.1" id="Layer_1" xmlns="http://www.w3.org/2000/svg" xmlns:xlink="http://www.w3.org/1999/xlink" x="0px" y="0px"
	 viewBox="0 0 600 500" style="enable-background:new 0 0 600 500;" xml:space="preserve">
<style type="text/css">
	.st0{fill:none;stroke:#333333;stroke-width:3.55;stroke-miterlimit:10;}
	.st1{fill:none;stroke:#333333;stroke-width:2.82;stroke-miterlimit:10;}
	.st2{enable-background:new    ;}
	.st3{fill:#333333;}
	.st4{opacity:0.5;}
	.st5{fill:#8F7E96;}
	.st6{opacity:0.25;fill:#8F7E96;enable-background:new    ;}
	.st7{fill:none;stroke:#8F7E96;stroke-width:1.18;}
	.st8{fill:none;stroke:#8F7E96;stroke-width:0.35;stroke-linecap:round;stroke-linejoin:round;}
	.st9{fill:#E9BBAB;stroke:#F7F7F6;stroke-width:1.18;stroke-miterlimit:10;}
	.st10{fill:#F7F7F6;}
	.st11{fill:#DD9881;stroke:#F7F7F6;stroke-width:1.18;stroke-miterlimit:10;}
	.st12{fill:#D27657;stroke:#F7F7F6;stroke-width:1.18;stroke-miterlimit:10;}
	.st13{fill:#5A9A8F;stroke:#F7F7F6;stroke-width:1.55;stroke-miterlimit:10;}
	.st14{fill:#324651;}
	.st15{fill:#99A3A8;}
	.st16{fill:none;stroke:#324651;stroke-width:1.18;stroke-linecap:round;stroke-linejoin:round;}
	.st17{fill:none;stroke:#333333;stroke-width:2.36;}
</style>
<g>
	<g>
		<circle class="st0" cx="308.6" cy="226.7" r="33.3"/>
		<path class="st1" d="M332.9,235.7c1-2.8,1.6-5.8,1.6-9c0-14.3-11.6-25.9-25.9-25.9s-25.9,11.6-25.9,25.9s11.6,25.9,25.9,25.9
			c4.4,0,8.6-1.1,12.2-3.1l0.4-0.2v-27.2l-11.5-11.4L296,222.4v17.6h16v-12.4h-7.6c0,0,0,10.2,0,11.8"/>
	</g>
	<g>
		<g class="st2">
			<path class="st3" d="M308.6,282.2c-0.8,0-1.4-0.1-2.1-0.4c-0.6-0.2-1.2-0.6-1.7-1.1c-0.5-0.5-0.8-1-1.1-1.6s-0.4-1.3-0.4-2
				c0-0.7,0.1-1.4,0.4-2s0.6-1.1,1.1-1.6c0.5-0.5,1-0.8,1.7-1.1c0.6-0.2,1.3-0.4,2.1-0.4c0.8,0,1.5,0.1,2.1,0.4
				c0.6,0.3,1.2,0.6,1.6,1.2l-0.9,0.9c-0.4-0.4-0.8-0.7-1.3-0.9c-0.5-0.2-1-0.3-1.5-0.3c-0.6,0-1.1,0.1-1.5,0.3s-0.9,0.5-1.2,0.8
				c-0.3,0.3-0.6,0.7-0.8,1.2c-0.2,0.5-0.3,1-0.3,1.5c0,0.5,0.1,1.1,0.3,1.5c0.2,0.5,0.5,0.9,0.8,1.2c0.3,0.3,0.8,0.6,1.2,0.8
				s1,0.3,1.5,0.3c0.5,0,1-0.1,1.5-0.3c0.5-0.2,0.9-0.5,1.3-0.9l0.9,0.9c-0.5,0.5-1,0.9-1.6,1.2
				C310.1,282.1,309.4,282.2,308.6,282.2z"/>
		</g>
		<g class="st2">
			<path class="st3" d="M317.1,282.2c-0.8,0-1.4-0.2-2-0.5c-0.6-0.3-1-0.8-1.4-1.4s-0.5-1.2-0.5-2c0-0.7,0.2-1.4,0.5-2
				s0.8-1,1.4-1.3s1.3-0.5,2-0.5c0.7,0,1.4,0.2,2,0.5s1,0.8,1.4,1.3c0.3,0.6,0.5,1.2,0.5,2c0,0.7-0.2,1.4-0.5,2
				c-0.3,0.6-0.8,1-1.4,1.4C318.5,282,317.8,282.2,317.1,282.2z M317.1,281c0.5,0,0.9-0.1,1.3-0.3c0.4-0.2,0.7-0.5,0.9-0.9
				s0.3-0.9,0.3-1.4c0-0.5-0.1-1-0.3-1.4c-0.2-0.4-0.5-0.7-0.9-0.9c-0.4-0.2-0.8-0.3-1.3-0.3s-0.9,0.1-1.3,0.3
				c-0.4,0.2-0.7,0.5-0.9,0.9c-0.2,0.4-0.3,0.9-0.3,1.4c0,0.5,0.1,1,0.3,1.4c0.2,0.4,0.5,0.7,0.9,0.9
				C316.2,280.9,316.6,281,317.1,281z"/>
			<path class="st3" d="M322.9,282.1v-10.5h1.4v10.5H322.9z"/>
			<path class="st3" d="M326.8,282.1v-10.5h1.4v10.5H326.8z"/>
			<path class="st3" d="M334.1,282.2c-0.8,0-1.5-0.2-2.1-0.5c-0.6-0.3-1.1-0.8-1.4-1.4c-0.3-0.6-0.5-1.2-0.5-2s0.2-1.4,0.5-2
				c0.3-0.6,0.8-1,1.3-1.3s1.2-0.5,1.9-0.5c0.7,0,1.4,0.2,1.9,0.5s1,0.8,1.3,1.3c0.3,0.6,0.5,1.3,0.5,2c0,0.1,0,0.1,0,0.2
				s0,0.1,0,0.2h-6.4v-1h5.7l-0.6,0.3c0-0.5-0.1-0.9-0.3-1.3c-0.2-0.4-0.5-0.7-0.9-0.9s-0.8-0.3-1.3-0.3c-0.5,0-0.9,0.1-1.3,0.3
				c-0.4,0.2-0.7,0.5-0.9,0.9s-0.3,0.8-0.3,1.3v0.2c0,0.5,0.1,0.9,0.3,1.3c0.2,0.4,0.6,0.7,1,0.9c0.4,0.2,0.9,0.3,1.4,0.3
				c0.4,0,0.8-0.1,1.2-0.2c0.4-0.2,0.7-0.4,1-0.7l0.7,0.9c-0.3,0.4-0.8,0.7-1.3,0.9C335.3,282.1,334.7,282.2,334.1,282.2z"/>
		</g>
		<g class="st2">
			<path class="st3" d="M342.6,282.2c-0.8,0-1.4-0.2-2-0.5c-0.6-0.3-1.1-0.8-1.4-1.4c-0.3-0.6-0.5-1.2-0.5-2s0.2-1.4,0.5-2
				s0.8-1,1.4-1.3c0.6-0.3,1.3-0.5,2-0.5c0.7,0,1.3,0.1,1.8,0.4c0.5,0.3,0.9,0.7,1.2,1.2l-1,0.7c-0.2-0.4-0.5-0.6-0.9-0.8
				c-0.4-0.2-0.7-0.3-1.1-0.3c-0.5,0-0.9,0.1-1.3,0.3c-0.4,0.2-0.7,0.5-0.9,0.9c-0.2,0.4-0.3,0.9-0.3,1.4s0.1,1,0.3,1.4
				c0.2,0.4,0.5,0.7,0.9,0.9c0.4,0.2,0.8,0.3,1.3,0.3c0.4,0,0.8-0.1,1.1-0.3c0.4-0.2,0.7-0.4,0.9-0.8l1,0.6
				c-0.3,0.5-0.7,0.9-1.2,1.2C343.9,282,343.3,282.2,342.6,282.2z"/>
		</g>
		<g class="st2">
			<path class="st3" d="M346.5,275.7v-1.1h4.8v1.1H346.5z M350.1,282.2c-0.8,0-1.3-0.2-1.8-0.6c-0.4-0.4-0.6-1-0.6-1.7v-6.9h1.4v6.8
				c0,0.4,0.1,0.7,0.3,0.9c0.2,0.2,0.5,0.3,0.9,0.3c0.4,0,0.8-0.1,1.1-0.4l0.4,1c-0.2,0.2-0.5,0.3-0.7,0.4
				C350.7,282.1,350.4,282.2,350.1,282.2z"/>
		</g>
		<g class="st2">
			<path class="st3" d="M267.1,282.1v-11.9h2.7v9.6h6v2.2H267.1z"/>
		</g>
		<g class="st2">
			<path class="st3" d="M282.8,282.3c-0.9,0-1.8-0.1-2.6-0.4c-0.8-0.3-1.5-0.7-2-1.3s-1-1.2-1.3-2c-0.3-0.7-0.5-1.6-0.5-2.5
				c0-0.9,0.2-1.7,0.5-2.5c0.3-0.7,0.8-1.4,1.4-2c0.6-0.6,1.3-1,2-1.3c0.8-0.3,1.6-0.4,2.6-0.4c1,0,2,0.2,2.8,0.5
				c0.8,0.4,1.5,0.9,2.1,1.6l-1.8,1.6c-0.4-0.5-0.9-0.8-1.4-1c-0.5-0.2-1-0.3-1.6-0.3c-0.6,0-1.1,0.1-1.5,0.3
				c-0.5,0.2-0.9,0.4-1.2,0.8c-0.3,0.3-0.6,0.7-0.8,1.2c-0.2,0.5-0.3,1-0.3,1.5s0.1,1.1,0.3,1.5s0.4,0.9,0.8,1.2
				c0.3,0.3,0.7,0.6,1.2,0.8c0.5,0.2,1,0.3,1.5,0.3c0.6,0,1.1-0.1,1.6-0.3s0.9-0.6,1.4-1.1l1.8,1.6c-0.6,0.7-1.3,1.2-2.1,1.6
				C284.8,282.1,283.8,282.3,282.8,282.3z"/>
		</g>
		<g class="st2">
			<path class="st3" d="M287.7,282.1l5.3-11.9h2.7l5.3,11.9h-2.9l-4.3-10.5h1.1l-4.4,10.5H287.7z M290.4,279.5l0.7-2.1h6.1l0.7,2.1
				H290.4z"/>
		</g>
	</g>
</g>
<g>
	<g class="st4">
		<g>
			<rect x="524.2" y="79.2" class="st5" width="53.5" height="17.8"/>
			<rect x="544.8" y="60.9" class="st5" width="32.9" height="14.8"/>
			<rect x="544.8" y="26.6" class="st5" width="17.6" height="25.1"/>
			<polygon class="st5" points="562.4,16.1 562.4,26.6 544.8,26.6 526.7,26.6 526.7,16.1 			"/>
			<rect x="516.9" y="60.9" class="st5" width="24" height="14.8"/>
			<rect x="526.7" y="37.1" class="st5" width="14.2" height="14.6"/>
			<rect x="485.2" y="79.2" class="st5" width="39" height="27.8"/>
			<rect x="501.3" y="60.9" class="st5" width="15.7" height="14.8"/>
			<rect x="477.9" y="60.9" class="st5" width="19.5" height="14.8"/>
			<polygon class="st5" points="476.6,30.5 476.6,55.7 461.5,55.7 461.5,47.4 461.5,30.5 			"/>
			<rect x="461" y="73.7" class="st5" width="10.6" height="12.6"/>
			<polygon class="st5" points="461.5,30.5 461.5,47.4 455.2,47.4 435.6,47.4 425.5,47.4 425.5,30.5 			"/>
			<polygon class="st5" points="461,86.3 461,97 444.1,97 444.1,73.7 461,73.7 			"/>
			<rect x="435.6" y="47.4" class="st5" width="19.6" height="14.4"/>
			<rect x="428.3" y="73.7" class="st5" width="15.8" height="23.3"/>
		</g>
	</g>
	<path class="st6" d="M526,15.4h37v44.8h15.3v37.6h-53.5v9.9h-40.4V87.1h-22.8v10.8h-34.1V73.1h7.3V48.2h-10.1V29.9h52.5v30.4H526
		L526,15.4L526,15.4z M435.6,61.9h19.6V47.5h-19.6V61.9z M501.3,75.8h15.7V60.9h-15.7L501.3,75.8L501.3,75.8z M526.7,51.8h14.2V37.2
		h-14.2V51.8z M516.9,75.8h24V60.9h-24V75.8z M544.8,75.8h32.9V60.9h-32.9V75.8z M477.9,75.8h19.5V60.9h-19.5V75.8z M485.2,107h39
		V79.3h-39V107z M524.2,97.1h53.5V79.3h-53.5V97.1z M526.7,26.6h35.6V16.1h-35.6V26.6z M544.8,51.7h17.6V26.6h-17.6V51.7z
		 M461.1,86.3h10.6V73.8h-10.6V86.3z M444.1,97.1h16.9V73.8h-16.9V97.1z M428.3,97.1h15.8V73.8h-15.8V97.1z M461.5,55.7h15.1V30.6
		h-15.1V55.7z M425.6,47.5h36V30.6h-36V47.5z"/>
	<polygon class="st7" points="520,107.6 525,107.6 524.9,97.9 578.3,97.9 578.3,60.3 563,60.3 563,15.5 526,15.5 526,60.3 
		477.3,60.3 477.3,29.9 424.9,29.9 424.9,48.2 434.9,48.2 434.9,73.1 427.6,73.1 427.6,97.9 461.8,97.9 461.8,87.1 484.5,87.1 
		484.5,107.6 489.3,107.6 	"/>
	<polyline class="st8" points="535.9,26.7 562.4,26.7 562.4,16.2 526.7,16.2 526.7,26.7 530.9,26.7 	"/>
	<polyline class="st8" points="535.9,51.8 540.9,51.8 540.9,37.2 535.9,37.2 	"/>
	<polyline class="st8" points="530.9,37.2 526.7,37.2 526.7,51.8 530.9,51.8 	"/>
	<polyline class="st8" points="556.1,75.8 577.7,75.8 577.7,61 556.1,61 	"/>
	<polyline class="st8" points="551,61 544.8,61 544.8,75.8 551,75.8 	"/>
	<polyline class="st8" points="544.8,35.3 544.8,51.8 551,51.8 	"/>
	<polyline class="st8" points="556.1,51.8 562.4,51.8 562.4,26.7 544.8,26.7 544.8,30.3 	"/>
	<line class="st8" x1="551" y1="79.3" x2="535.9" y2="79.3"/>
	<polyline class="st8" points="530.9,61 516.9,61 516.9,75.8 521.7,75.8 	"/>
	<polyline class="st8" points="526.7,75.8 540.9,75.8 540.9,61 535.9,61 	"/>
	<polyline class="st8" points="530.9,79.3 524.2,79.3 524.2,86.3 	"/>
	<polyline class="st8" points="524.2,91.3 524.2,97.2 577.7,97.2 577.7,79.3 556.1,79.3 	"/>
	<polyline class="st8" points="524.2,86.3 524.2,79.3 519.9,79.3 	"/>
	<polyline class="st8" points="489.3,79.3 485.2,79.3 485.2,107.1 489.3,107.1 	"/>
	<polyline class="st8" points="519.9,107.1 524.2,107.1 524.2,91.3 	"/>
	<polyline class="st8" points="494.3,75.8 497.4,75.8 497.4,61 477.9,61 477.9,65.9 	"/>
	<polyline class="st8" points="477.9,70.9 477.9,75.8 489.3,75.8 	"/>
	<polyline class="st8" points="463.8,73.8 461.1,73.8 461.1,86.4 471.6,86.4 471.6,73.8 468.9,73.8 	"/>
	<polyline class="st8" points="436.6,73.8 428.3,73.8 428.3,97.2 444.1,97.2 444.1,73.8 441.6,73.8 	"/>
	<polyline class="st8" points="446.6,73.8 444.1,73.8 444.1,97.2 461.1,97.2 461.1,73.8 451.7,73.8 	"/>
	<polyline class="st8" points="446.6,61.9 455.2,61.9 455.2,61.1 	"/>
	<polyline class="st8" points="455.2,56.1 455.2,47.5 435.6,47.5 435.6,61.9 441.6,61.9 	"/>
	<polyline class="st8" points="468.9,55.8 476.6,55.8 476.6,30.6 461.5,30.6 461.5,55.8 463.8,55.8 	"/>
	<polyline class="st8" points="461,47.5 461.5,47.5 461.5,30.6 425.5,30.6 425.5,47.5 455.9,47.5 	"/>
	<polyline class="st8" points="501.3,70.9 501.3,75.8 506.6,75.8 	"/>
	<polyline class="st8" points="511.6,75.8 516.9,75.8 516.9,61 501.3,61 501.3,65.9 	"/>
</g>
<g>
	<g>
		<rect x="96.3" y="361.5" class="st9" width="59.8" height="86.4"/>
		<rect x="132" y="368.2" class="st10" width="15.9" height="2.4"/>
		<rect x="113.7" y="368.2" class="st10" width="15.9" height="2.4"/>
		<rect x="101.2" y="379.9" class="st10" width="26.5" height="2.4"/>
		<rect x="101.2" y="384.4" class="st10" width="33.2" height="2.4"/>
		<rect x="101.2" y="388.9" class="st10" width="30.2" height="2.4"/>
		<rect x="101.2" y="393.4" class="st10" width="26.5" height="2.4"/>
		<rect x="101.2" y="397.9" class="st10" width="33.2" height="2.4"/>
		<rect x="101.2" y="402.4" class="st10" width="30.2" height="2.4"/>
		<rect x="101.2" y="416.8" class="st10" width="42.4" height="2.4"/>
		<rect x="101.2" y="421.3" class="st10" width="38.6" height="2.4"/>
		<rect x="100.6" y="434.5" class="st10" width="13.2" height="2.4"/>
		<rect x="100.6" y="439" class="st10" width="12" height="2.4"/>
	</g>
	<g>
		<rect x="66.4" y="345.9" class="st11" width="59.8" height="86.4"/>
		<rect x="71.3" y="352.6" class="st10" width="39.4" height="2.4"/>
		<rect x="71.3" y="364.3" class="st10" width="26.5" height="2.4"/>
		<rect x="71.3" y="368.8" class="st10" width="33.2" height="2.4"/>
		<rect x="71.3" y="373.3" class="st10" width="30.2" height="2.4"/>
		<rect x="71.3" y="377.8" class="st10" width="26.5" height="2.4"/>
		<rect x="71.3" y="382.3" class="st10" width="33.2" height="2.4"/>
		<rect x="71.3" y="386.8" class="st10" width="30.2" height="2.4"/>
		<rect x="71.3" y="401.2" class="st10" width="42.4" height="2.4"/>
		<rect x="71.3" y="405.7" class="st10" width="38.6" height="2.4"/>
		<rect x="70.7" y="418.9" class="st10" width="13.2" height="2.4"/>
		<rect x="70.7" y="423.4" class="st10" width="12" height="2.4"/>
	</g>
	<g>
		<rect x="36.5" y="329.3" class="st12" width="59.8" height="86.4"/>
		<rect x="41.4" y="336" class="st10" width="49.9" height="2.4"/>
		<rect x="41.4" y="347.7" class="st10" width="26.5" height="2.4"/>
		<rect x="41.4" y="352.2" class="st10" width="33.2" height="2.4"/>
		<rect x="41.4" y="356.7" class="st10" width="30.2" height="2.4"/>
		<rect x="41.4" y="361.2" class="st10" width="26.5" height="2.4"/>
		<rect x="41.4" y="365.7" class="st10" width="33.2" height="2.4"/>
		<rect x="41.4" y="370.2" class="st10" width="30.2" height="2.4"/>
		<rect x="41.4" y="384.6" class="st10" width="42.4" height="2.4"/>
		<rect x="41.4" y="389.1" class="st10" width="38.5" height="2.4"/>
		<rect x="40.8" y="402.3" class="st10" width="13.2" height="2.4"/>
		<rect x="40.8" y="406.8" class="st10" width="12" height="2.4"/>
	</g>
</g>
<g>
	<rect x="453.1" y="357.9" class="st13" width="99.1" height="89.1"/>
	<rect x="459.7" y="377.6" class="st10" width="85.1" height="2.4"/>
	<rect x="459.7" y="378.1" class="st10" width="2.4" height="61.5"/>
	<rect x="542.4" y="378.1" class="st10" width="2.4" height="61.5"/>
	<rect x="480.4" y="378.2" class="st10" width="2.4" height="61.5"/>
	<rect x="501.1" y="378.1" class="st10" width="2.4" height="61.5"/>
	<rect x="521.8" y="378.2" class="st10" width="2.4" height="61.5"/>
	<rect x="459.7" y="382.6" class="st10" width="85.1" height="2.4"/>
	<rect x="459.7" y="387.6" class="st10" width="85.1" height="2.4"/>
	<rect x="459.7" y="392.6" class="st10" width="85.1" height="2.4"/>
	<rect x="459.7" y="397.7" class="st10" width="85.1" height="2.4"/>
	<rect x="459.7" y="402.7" class="st10" width="85.1" height="2.4"/>
	<rect x="459.7" y="407.7" class="st10" width="85.1" height="2.4"/>
	<rect x="459.7" y="412.8" class="st10" width="85.1" height="2.4"/>
	<rect x="459.7" y="417.8" class="st10" width="85.1" height="2.4"/>
	<rect x="459.7" y="422.8" class="st10" width="85.1" height="2.4"/>
	<rect x="459.7" y="427.8" class="st10" width="85.1" height="2.4"/>
	<rect x="459.7" y="432.9" class="st10" width="85.1" height="2.4"/>
	<rect x="459.7" y="437.9" class="st10" width="85.1" height="2.4"/>
	<rect x="459.7" y="365.2" class="st10" width="26.5" height="2.4"/>
	<rect x="459.7" y="369.6" class="st10" width="16.2" height="2.4"/>
</g>
<g>
	<path class="st14" d="M142,64.9c0.8-2.5,1.2-5.3,1.2-8.1c0-15.8-12.8-28.6-28.6-28.6c-12.9,0-23.9,8.6-27.4,20.4
		c-3.8-3.8-9.1-6.1-15-6.1c-11.9,0-21.5,9.6-21.5,21.5c0,1.3,0.1,2.5,0.3,3.8c-3.2-1.8-6.8-2.9-10.7-2.9c-11.9,0-21.5,9.6-21.5,21.5
		s9.6,21.5,21.5,21.5h100.2c11.9,0,21.4-9.6,21.4-21.5S153.1,65.6,142,64.9L142,64.9z"/>
	<g>
		<g>
			<polygon class="st15" points="119,81.3 119,91.9 103.5,100.8 103.5,90.3 			"/>
			<polygon class="st10" points="119,81.3 103.5,90.3 98.1,87.2 109.8,80.4 109.8,76.1 			"/>
			<polygon class="st15" points="109.8,76.1 109.8,80.4 98.1,87.2 98.1,93.3 94.4,95.5 86.8,99.8 86.8,77.9 109.8,64.6 			"/>
			<polygon class="st10" points="109.8,64.6 86.8,77.9 82.2,75.2 105.2,61.9 			"/>
			<polygon class="st15" points="105.2,57 105.2,61.9 82.2,75.2 82.2,70.2 			"/>
			<polygon class="st10" points="105.2,57 82.2,70.2 71.8,64.2 94.7,51 			"/>
			<polygon class="st10" points="103.5,90.3 103.5,100.8 94.4,95.5 98.1,93.3 98.1,87.2 			"/>
			<polygon class="st10" points="86.8,77.9 86.8,99.8 85.6,99.1 81.8,96.9 81.8,101.3 71.8,95.5 71.8,64.2 82.2,70.2 82.2,75.2 			
				"/>
			<polygon class="st15" points="85.6,99.1 81.8,101.3 81.8,96.9 			"/>
		</g>
		<g>
			<line class="st16" x1="81.8" y1="101.3" x2="71.8" y2="95.5"/>
			<line class="st16" x1="81.8" y1="101.3" x2="85.6" y2="99.1"/>
			<line class="st16" x1="81.8" y1="101.3" x2="81.8" y2="96.9"/>
			<line class="st16" x1="103.5" y1="100.8" x2="119" y2="91.9"/>
			<line class="st16" x1="103.5" y1="100.8" x2="103.5" y2="90.3"/>
			<line class="st16" x1="109.8" y1="64.6" x2="105.2" y2="61.9"/>
			<line class="st16" x1="105.2" y1="61.9" x2="105.2" y2="57"/>
			<line class="st16" x1="105.2" y1="57" x2="94.7" y2="51"/>
			<line class="st16" x1="94.7" y1="51" x2="71.8" y2="64.2"/>
			<line class="st16" x1="71.8" y1="64.2" x2="82.2" y2="70.2"/>
			<line class="st16" x1="82.2" y1="75.2" x2="86.8" y2="77.9"/>
			<line class="st16" x1="119" y1="81.3" x2="109.8" y2="76.1"/>
			<line class="st16" x1="94.4" y1="95.5" x2="103.5" y2="100.8"/>
			<line class="st16" x1="105.2" y1="57" x2="82.2" y2="70.2"/>
			<line class="st16" x1="86.8" y1="99.8" x2="86.8" y2="77.9"/>
			<line class="st16" x1="74.6" y1="72.1" x2="74.6" y2="69.2"/>
			<line class="st16" x1="78.5" y1="74" x2="78.5" y2="71.1"/>
			<line class="st16" x1="74.6" y1="78.1" x2="74.6" y2="75.2"/>
			<line class="st16" x1="78.4" y1="80.1" x2="78.4" y2="77.2"/>
			<line class="st16" x1="82.6" y1="82.3" x2="82.6" y2="79.4"/>
			<line class="st16" x1="89.3" y1="82.1" x2="89.3" y2="79.2"/>
			<line class="st16" x1="93.7" y1="79.5" x2="93.7" y2="76.6"/>
			<line class="st16" x1="98.1" y1="77.1" x2="98.1" y2="74.2"/>
			<line class="st16" x1="102.4" y1="74.6" x2="102.4" y2="71.7"/>
			<line class="st16" x1="106.6" y1="72.1" x2="106.6" y2="69.2"/>
			<line class="st16" x1="107.1" y1="94.4" x2="107.1" y2="91.5"/>
			<line class="st16" x1="111.3" y1="91.9" x2="111.3" y2="89.1"/>
			<line class="st16" x1="115.5" y1="89.5" x2="115.5" y2="86.6"/>
			<line class="st16" x1="89.5" y1="88.8" x2="89.5" y2="85.9"/>
			<line class="st16" x1="93.9" y1="86.1" x2="93.9" y2="83.2"/>
			<line class="st16" x1="89.5" y1="95.1" x2="89.5" y2="92.2"/>
			<line class="st16" x1="93.9" y1="92.4" x2="93.9" y2="89.6"/>
			<line class="st16" x1="98.4" y1="83.7" x2="98.4" y2="80.8"/>
			<line class="st16" x1="102.6" y1="81.2" x2="102.6" y2="78.3"/>
			<line class="st16" x1="106.8" y1="78.8" x2="106.8" y2="75.9"/>
			<line class="st16" x1="74.4" y1="84.3" x2="74.4" y2="81.4"/>
			<line class="st16" x1="78.2" y1="86.2" x2="78.2" y2="83.4"/>
			<line class="st16" x1="82.4" y1="88.5" x2="82.4" y2="85.6"/>
			<line class="st16" x1="100.6" y1="93.9" x2="100.6" y2="91"/>
			<line class="st16" x1="74.2" y1="90.6" x2="74.2" y2="87.7"/>
			<line class="st16" x1="78" y1="92.5" x2="78" y2="89.7"/>
			<line class="st16" x1="82.2" y1="94.8" x2="82.2" y2="91.9"/>
			<line class="st16" x1="98.1" y1="87.2" x2="98.1" y2="93.3"/>
			<line class="st16" x1="98.1" y1="87.2" x2="103.5" y2="90.3"/>
			<line class="st16" x1="71.8" y1="95.5" x2="71.8" y2="64.2"/>
			<line class="st16" x1="119" y1="91.9" x2="119" y2="81.3"/>
			<polyline class="st16" points="109.8,64.6 109.8,76.1 109.8,80.4 			"/>
			<line class="st16" x1="109.8" y1="64.6" x2="86.8" y2="77.9"/>
			<line class="st16" x1="109.8" y1="80.4" x2="98.1" y2="87.2"/>
			<line class="st16" x1="105.2" y1="61.9" x2="82.2" y2="75.2"/>
			<line class="st16" x1="82.2" y1="75.2" x2="82.2" y2="70.2"/>
			<polyline class="st16" points="81.8,96.9 85.6,99.1 86.8,99.8 			"/>
			<polyline class="st16" points="86.8,99.8 94.4,95.5 98.1,93.3 			"/>
			<line class="st16" x1="119" y1="81.3" x2="103.5" y2="90.3"/>
		</g>
	</g>
</g>
<g>
	<line class="st17" x1="420" y1="141.1" x2="372" y2="189.2"/>
	<polygon class="st3" points="369,183.8 366,195.2 377.3,192.2 	"/>
</g>
<g>
	<line class="st17" x1="193" y1="141.1" x2="241.1" y2="189.2"/>
	<polygon class="st3" points="235.7,192.2 247.1,195.2 244,183.8 	"/>
</g>
<g>
	<line class="st17" x1="420" y1="351.7" x2="372" y2="303.6"/>
	<polygon class="st3" points="377.3,300.7 366,297.6 369,309 	"/>
</g>
<g>
	<line class="st17" x1="193" y1="351.7" x2="241.1" y2="303.6"/>
	<polygon class="st3" points="244,309 247.1,297.6 235.7,300.7 	"/>
</g>
<g>
	<path class="st3" d="M456.1,139v3.7h-1.8v-10.1h3.9c1.1,0,2,0.3,2.7,0.9c0.7,0.6,1,1.4,1,2.3s-0.3,1.8-1,2.3s-1.6,0.8-2.7,0.8
		L456.1,139L456.1,139z M456.1,137.6h2.1c0.6,0,1.1-0.1,1.4-0.4c0.3-0.3,0.5-0.7,0.5-1.3s-0.2-1-0.5-1.3s-0.8-0.5-1.4-0.5h-2.1
		L456.1,137.6L456.1,137.6z"/>
	<path class="st3" d="M465,142.7h-1.7v-10.6h1.7V142.7z"/>
	<path class="st3" d="M471.3,142.7c-0.1-0.1-0.1-0.4-0.2-0.7c-0.5,0.6-1.2,0.8-2,0.8s-1.4-0.2-1.8-0.6s-0.7-1-0.7-1.6
		c0-0.8,0.3-1.4,0.9-1.8c0.6-0.4,1.4-0.6,2.5-0.6h1v-0.5c0-0.4-0.1-0.7-0.3-0.9s-0.5-0.4-1-0.4c-0.4,0-0.7,0.1-0.9,0.3
		s-0.4,0.4-0.4,0.7h-1.7c0-0.4,0.1-0.8,0.4-1.1s0.6-0.6,1.1-0.8s1-0.3,1.6-0.3c0.9,0,1.6,0.2,2.1,0.7s0.8,1.1,0.8,1.9v3.4
		c0,0.7,0.1,1.2,0.3,1.6v0.1L471.3,142.7L471.3,142.7z M469.5,141.5c0.3,0,0.6-0.1,0.9-0.2s0.5-0.4,0.7-0.6v-1.4h-0.9
		c-0.6,0-1.1,0.1-1.4,0.3c-0.3,0.2-0.5,0.5-0.5,0.9c0,0.3,0.1,0.6,0.3,0.8C468.8,141.4,469.1,141.5,469.5,141.5L469.5,141.5z"/>
	<path class="st3" d="M476.1,135.2l0,0.9c0.5-0.7,1.3-1,2.2-1c1.6,0,2.4,0.9,2.4,2.7v4.9H479v-4.9c0-0.5-0.1-0.8-0.3-1.1
		s-0.5-0.3-1-0.3c-0.7,0-1.2,0.3-1.5,0.9v5.3h-1.7v-7.5L476.1,135.2L476.1,135.2z"/>
	<path class="st3" d="M485.6,138.9c0-1.1,0.3-2.1,0.8-2.8c0.5-0.7,1.2-1.1,2.1-1.1c0.8,0,1.4,0.3,1.9,0.8v-3.8h1.7v10.6h-1.5
		l-0.1-0.8c-0.5,0.6-1.2,0.9-2,0.9s-1.6-0.4-2.1-1.1C485.9,141.1,485.6,140.1,485.6,138.9L485.6,138.9z M487.3,139.1
		c0,0.8,0.1,1.4,0.4,1.8c0.3,0.4,0.7,0.6,1.2,0.6c0.7,0,1.2-0.3,1.5-0.9v-3.2c-0.3-0.6-0.8-0.9-1.5-0.9c-0.5,0-1,0.2-1.3,0.6
		C487.5,137.6,487.3,138.2,487.3,139.1z"/>
	<path class="st3" d="M497.9,136.8c-0.2,0-0.5-0.1-0.7-0.1c-0.8,0-1.3,0.3-1.6,0.9v5.1H494v-7.5h1.6l0,0.8c0.4-0.6,1-1,1.7-1
		c0.2,0,0.4,0,0.6,0.1L497.9,136.8L497.9,136.8z"/>
	<path class="st3" d="M503.2,142.7c-0.1-0.1-0.1-0.4-0.2-0.7c-0.5,0.6-1.2,0.8-2,0.8s-1.4-0.2-1.8-0.6s-0.7-1-0.7-1.6
		c0-0.8,0.3-1.4,0.9-1.8c0.6-0.4,1.4-0.6,2.5-0.6h1v-0.5c0-0.4-0.1-0.7-0.3-0.9s-0.5-0.4-1-0.4c-0.4,0-0.7,0.1-0.9,0.3
		s-0.4,0.4-0.4,0.7h-1.7c0-0.4,0.1-0.8,0.4-1.1s0.6-0.6,1.1-0.8s1-0.3,1.6-0.3c0.9,0,1.6,0.2,2.1,0.7s0.8,1.1,0.8,1.9v3.4
		c0,0.7,0.1,1.2,0.3,1.6v0.1L503.2,142.7L503.2,142.7z M501.4,141.5c0.3,0,0.6-0.1,0.9-0.2s0.5-0.4,0.7-0.6v-1.4H502
		c-0.6,0-1.1,0.1-1.4,0.3c-0.3,0.2-0.5,0.5-0.5,0.9c0,0.3,0.1,0.6,0.3,0.8C500.7,141.4,501,141.5,501.4,141.5L501.4,141.5z"/>
	<path class="st3" d="M513,140.4l1.2-5.2h1.6l-2,7.5h-1.4l-1.6-5.1l-1.6,5.1h-1.4l-2-7.5h1.6l1.2,5.1l1.5-5.1h1.3L513,140.4
		L513,140.4z"/>
	<path class="st3" d="M517,133.3c0-0.3,0.1-0.5,0.2-0.6c0.2-0.2,0.4-0.3,0.7-0.3s0.5,0.1,0.7,0.3s0.2,0.4,0.2,0.6s-0.1,0.5-0.2,0.6
		c-0.2,0.2-0.4,0.2-0.7,0.2s-0.5-0.1-0.7-0.2C517.1,133.8,517,133.6,517,133.3z M518.8,142.7h-1.7v-7.5h1.7V142.7z"/>
	<path class="st3" d="M522.1,135.2l0,0.9c0.5-0.7,1.3-1,2.2-1c1.6,0,2.4,0.9,2.4,2.7v4.9h-1.7v-4.9c0-0.5-0.1-0.8-0.3-1.1
		s-0.5-0.3-1-0.3c-0.7,0-1.2,0.3-1.5,0.9v5.3h-1.7v-7.5L522.1,135.2L522.1,135.2z"/>
	<path class="st3" d="M528.2,138.9c0-1.2,0.3-2.1,0.8-2.8s1.3-1,2.2-1c0.8,0,1.5,0.3,2,0.9l0.1-0.8h1.5v7.3c0,1-0.3,1.8-0.9,2.3
		s-1.4,0.9-2.5,0.9c-0.5,0-1.1-0.1-1.6-0.3c-0.5-0.2-0.9-0.5-1.2-0.9l0.8-1c0.5,0.6,1.2,0.9,1.9,0.9c0.6,0,1-0.1,1.3-0.4
		s0.5-0.8,0.5-1.3v-0.5c-0.5,0.5-1.1,0.8-1.9,0.8c-0.9,0-1.6-0.4-2.2-1.1S528.2,140.2,528.2,138.9L528.2,138.9z M529.8,139.1
		c0,0.8,0.2,1.3,0.5,1.8c0.3,0.4,0.7,0.6,1.3,0.6c0.7,0,1.2-0.3,1.5-0.9v-3.3c-0.3-0.6-0.8-0.9-1.5-0.9c-0.5,0-1,0.2-1.3,0.7
		C530,137.6,529.9,138.2,529.8,139.1L529.8,139.1z"/>
</g>
<g>
	<path class="st3" d="M49,475.1v-10.1h3c0.9,0,1.7,0.2,2.4,0.6s1.2,1,1.6,1.7c0.4,0.7,0.6,1.6,0.6,2.5v0.5c0,1-0.2,1.8-0.6,2.5
		s-0.9,1.3-1.6,1.7s-1.5,0.6-2.4,0.6L49,475.1L49,475.1z M50.8,466.5v7.3h1.1c0.9,0,1.6-0.3,2.1-0.9s0.7-1.4,0.8-2.5v-0.6
		c0-1.1-0.2-1.9-0.7-2.5s-1.2-0.9-2.1-0.9L50.8,466.5L50.8,466.5z"/>
	<path class="st3" d="M62.6,475.1c-0.1-0.1-0.1-0.4-0.2-0.7c-0.5,0.6-1.2,0.8-2,0.8s-1.4-0.2-1.8-0.6s-0.7-1-0.7-1.6
		c0-0.8,0.3-1.4,0.9-1.8s1.4-0.6,2.5-0.6h1v-0.5c0-0.4-0.1-0.7-0.3-0.9c-0.2-0.2-0.5-0.4-1-0.4c-0.4,0-0.7,0.1-0.9,0.3
		s-0.4,0.4-0.4,0.7H58c0-0.4,0.1-0.8,0.4-1.1s0.6-0.6,1.1-0.8s1-0.3,1.6-0.3c0.9,0,1.6,0.2,2.1,0.7s0.8,1.1,0.8,1.9v3.4
		c0,0.7,0.1,1.2,0.3,1.6v0.1L62.6,475.1L62.6,475.1z M60.7,473.9c0.3,0,0.7-0.1,0.9-0.2c0.3-0.2,0.5-0.4,0.7-0.6v-1.4h-0.9
		c-0.6,0-1.1,0.1-1.4,0.3c-0.3,0.2-0.5,0.5-0.5,0.9c0,0.3,0.1,0.6,0.3,0.8S60.4,474,60.7,473.9L60.7,473.9z"/>
	<path class="st3" d="M67.9,465.8v1.8h1.3v1.2h-1.3v4.2c0,0.3,0.1,0.5,0.2,0.6s0.3,0.2,0.6,0.2c0.2,0,0.4,0,0.6-0.1v1.3
		c-0.4,0.1-0.8,0.2-1.1,0.2c-1.3,0-1.9-0.7-1.9-2.1v-4.2H65v-1.2h1.2v-1.8L67.9,465.8L67.9,465.8z"/>
	<path class="st3" d="M75,475.1c-0.1-0.1-0.1-0.4-0.2-0.7c-0.5,0.6-1.2,0.8-2,0.8s-1.4-0.2-1.8-0.6s-0.7-1-0.7-1.6
		c0-0.8,0.3-1.4,0.9-1.8s1.4-0.6,2.6-0.6h1v-0.5c0-0.4-0.1-0.7-0.3-0.9c-0.2-0.2-0.6-0.4-1-0.4c-0.4,0-0.7,0.1-0.9,0.3
		s-0.4,0.4-0.4,0.7h-1.7c0-0.4,0.1-0.8,0.4-1.1c0.3-0.4,0.6-0.6,1.1-0.8s1-0.3,1.6-0.3c0.9,0,1.6,0.2,2.1,0.7s0.8,1.1,0.8,1.9v3.4
		c0,0.7,0.1,1.2,0.3,1.6v0.1L75,475.1L75,475.1z M73.1,473.9c0.3,0,0.7-0.1,0.9-0.2s0.5-0.4,0.7-0.6v-1.4h-0.9
		c-0.6,0-1.1,0.1-1.4,0.3c-0.3,0.2-0.5,0.5-0.5,0.9c0,0.3,0.1,0.6,0.3,0.8S72.8,474,73.1,473.9L73.1,473.9z"/>
	<path class="st3" d="M85.9,473.1c0-0.3-0.1-0.5-0.4-0.7s-0.7-0.3-1.2-0.4s-1.1-0.3-1.4-0.5c-0.8-0.4-1.3-1-1.3-1.8
		c0-0.6,0.3-1.2,0.8-1.6c0.5-0.4,1.2-0.6,2.1-0.6c0.9,0,1.6,0.2,2.2,0.7c0.6,0.4,0.8,1,0.8,1.7h-1.7c0-0.3-0.1-0.6-0.4-0.8
		s-0.6-0.3-1-0.3c-0.4,0-0.7,0.1-0.9,0.3s-0.3,0.4-0.3,0.7c0,0.3,0.1,0.5,0.3,0.6s0.7,0.3,1.3,0.4c0.7,0.1,1.2,0.3,1.6,0.5
		c0.4,0.2,0.7,0.4,0.8,0.7c0.2,0.3,0.3,0.6,0.3,1c0,0.7-0.3,1.2-0.8,1.6s-1.3,0.6-2.2,0.6c-0.6,0-1.2-0.1-1.6-0.3
		c-0.5-0.2-0.8-0.5-1.1-0.9c-0.3-0.4-0.4-0.8-0.4-1.2H83c0,0.4,0.2,0.7,0.4,0.9c0.3,0.2,0.6,0.3,1.1,0.3s0.8-0.1,1-0.2
		S85.9,473.4,85.9,473.1L85.9,473.1z"/>
	<path class="st3" d="M90.7,468.5c0.6-0.6,1.2-1,2.1-1c1.6,0,2.4,0.9,2.4,2.7v4.9h-1.7v-4.8c0-0.5-0.1-0.9-0.3-1.1
		c-0.2-0.2-0.6-0.3-1-0.3c-0.7,0-1.2,0.3-1.5,0.9v5.4H89v-10.6h1.7L90.7,468.5L90.7,468.5z"/>
	<path class="st3" d="M100.2,475.3c-1.1,0-1.9-0.3-2.6-1s-1-1.6-1-2.7v-0.2c0-0.8,0.1-1.4,0.4-2s0.7-1,1.2-1.4
		c0.5-0.3,1.1-0.5,1.8-0.5c1,0,1.8,0.3,2.4,1c0.6,0.6,0.8,1.6,0.8,2.8v0.7h-4.9c0.1,0.6,0.3,1.1,0.6,1.5c0.4,0.4,0.8,0.5,1.4,0.5
		c0.8,0,1.4-0.3,1.9-0.9l0.9,0.9c-0.3,0.5-0.7,0.8-1.2,1S100.9,475.3,100.2,475.3L100.2,475.3z M100,468.9c-0.5,0-0.8,0.2-1.1,0.5
		c-0.3,0.3-0.5,0.8-0.5,1.4h3.2v-0.1c0-0.6-0.2-1-0.4-1.3C100.8,469,100.5,468.9,100,468.9L100,468.9z"/>
	<path class="st3" d="M107.8,475.3c-1.1,0-1.9-0.3-2.6-1s-1-1.6-1-2.7v-0.2c0-0.8,0.1-1.4,0.4-2s0.7-1,1.2-1.4
		c0.5-0.3,1.1-0.5,1.8-0.5c1,0,1.8,0.3,2.4,1c0.6,0.6,0.8,1.6,0.8,2.8v0.7h-4.9c0.1,0.6,0.3,1.1,0.6,1.5c0.4,0.4,0.8,0.5,1.4,0.5
		c0.8,0,1.4-0.3,1.9-0.9l0.9,0.9c-0.3,0.5-0.7,0.8-1.2,1S108.5,475.3,107.8,475.3L107.8,475.3z M107.6,468.9c-0.5,0-0.8,0.2-1.1,0.5
		c-0.3,0.3-0.5,0.8-0.5,1.4h3.2v-0.1c0-0.6-0.2-1-0.4-1.3C108.5,469,108.1,468.9,107.6,468.9L107.6,468.9z"/>
	<path class="st3" d="M114.2,465.8v1.8h1.3v1.2h-1.3v4.2c0,0.3,0.1,0.5,0.2,0.6s0.3,0.2,0.6,0.2c0.2,0,0.4,0,0.6-0.1v1.3
		c-0.4,0.1-0.8,0.2-1.1,0.2c-1.3,0-1.9-0.7-1.9-2.1v-4.2h-1.2v-1.2h1.2v-1.8L114.2,465.8L114.2,465.8z"/>
	<path class="st3" d="M121.1,473.1c0-0.3-0.1-0.5-0.4-0.7s-0.7-0.3-1.2-0.4s-1.1-0.3-1.4-0.5c-0.8-0.4-1.3-1-1.3-1.8
		c0-0.6,0.3-1.2,0.8-1.6c0.5-0.4,1.2-0.6,2.1-0.6c0.9,0,1.6,0.2,2.2,0.7c0.6,0.4,0.8,1,0.8,1.7H121c0-0.3-0.1-0.6-0.4-0.8
		s-0.6-0.3-1-0.3c-0.4,0-0.7,0.1-0.9,0.3s-0.3,0.4-0.3,0.7c0,0.3,0.1,0.5,0.3,0.6s0.7,0.3,1.3,0.4c0.7,0.1,1.2,0.3,1.6,0.5
		c0.4,0.2,0.7,0.4,0.8,0.7c0.2,0.3,0.3,0.6,0.3,1c0,0.7-0.3,1.2-0.8,1.6s-1.3,0.6-2.2,0.6c-0.6,0-1.2-0.1-1.6-0.3
		c-0.5-0.2-0.8-0.5-1.1-0.9c-0.3-0.4-0.4-0.8-0.4-1.2h1.6c0,0.4,0.2,0.7,0.4,0.9c0.3,0.2,0.6,0.3,1.1,0.3s0.8-0.1,1-0.2
		S121.1,473.4,121.1,473.1L121.1,473.1z"/>
</g>
<g>
	<path class="st3" d="M52.7,139.4c-0.1,1.1-0.5,1.9-1.2,2.5s-1.6,0.9-2.8,0.9c-0.8,0-1.5-0.2-2.1-0.6s-1.1-0.9-1.4-1.6
		c-0.3-0.7-0.5-1.5-0.5-2.4v-0.9c0-0.9,0.2-1.8,0.5-2.5s0.8-1.3,1.5-1.7c0.6-0.4,1.4-0.6,2.2-0.6c1.1,0,2,0.3,2.7,0.9
		c0.7,0.6,1.1,1.5,1.2,2.6H51c-0.1-0.7-0.3-1.2-0.6-1.6s-0.8-0.5-1.5-0.5c-0.8,0-1.3,0.3-1.8,0.8c-0.4,0.6-0.6,1.4-0.6,2.4v0.9
		c0,1.1,0.2,1.9,0.6,2.5s1,0.9,1.7,0.9c0.7,0,1.2-0.1,1.5-0.5c0.3-0.3,0.6-0.8,0.7-1.5L52.7,139.4L52.7,139.4z"/>
	<path class="st3" d="M55.9,142.7h-1.7v-10.6h1.7V142.7z"/>
	<path class="st3" d="M57.5,138.9c0-0.7,0.2-1.4,0.4-2c0.3-0.6,0.7-1,1.2-1.4s1.1-0.5,1.8-0.5c1,0,1.8,0.3,2.5,1s1,1.5,1,2.6v0.4
		c0,0.7-0.1,1.4-0.4,2s-0.7,1-1.2,1.4c-0.5,0.3-1.1,0.5-1.8,0.5c-1.1,0-1.9-0.4-2.5-1.1S57.4,140.2,57.5,138.9L57.5,138.9
		L57.5,138.9z M59.1,139.1c0,0.8,0.2,1.4,0.5,1.8c0.3,0.4,0.8,0.6,1.3,0.6s1-0.2,1.3-0.7s0.5-1.1,0.5-1.9c0-0.8-0.2-1.4-0.5-1.8
		s-0.8-0.7-1.3-0.7s-1,0.2-1.3,0.6S59.1,138.2,59.1,139.1L59.1,139.1z"/>
	<path class="st3" d="M70.4,142c-0.5,0.6-1.2,0.9-2.1,0.9c-0.8,0-1.4-0.2-1.8-0.7s-0.6-1.2-0.6-2.1v-4.9h1.7v4.8
		c0,0.9,0.4,1.4,1.2,1.4s1.4-0.3,1.7-0.9v-5.4H72v7.5h-1.6L70.4,142L70.4,142z"/>
	<path class="st3" d="M73.4,138.9c0-1.1,0.3-2.1,0.8-2.8c0.5-0.7,1.2-1.1,2.2-1.1c0.8,0,1.4,0.3,1.9,0.8v-3.8H80v10.6h-1.5l-0.1-0.8
		c-0.5,0.6-1.2,0.9-2,0.9s-1.6-0.4-2.1-1.1C73.7,141.1,73.4,140.1,73.4,138.9L73.4,138.9z M75.1,139.1c0,0.8,0.2,1.4,0.4,1.8
		c0.3,0.4,0.7,0.6,1.2,0.6c0.7,0,1.2-0.3,1.5-0.9v-3.2c-0.3-0.6-0.8-0.9-1.5-0.9c-0.5,0-1,0.2-1.3,0.6
		C75.2,137.6,75.1,138.2,75.1,139.1z"/>
	<path class="st3" d="M86.8,135.2l0.1,0.8c0.5-0.6,1.2-0.9,2.2-0.9c1,0,1.7,0.4,2.1,1.1c0.5-0.8,1.3-1.1,2.3-1.1
		c0.8,0,1.4,0.2,1.8,0.7c0.4,0.5,0.6,1.1,0.6,2v4.9h-1.7v-4.9c0-0.5-0.1-0.8-0.3-1.1s-0.6-0.3-1-0.3c-0.4,0-0.7,0.1-0.9,0.3
		c-0.2,0.2-0.4,0.5-0.5,0.8v5.1h-1.7v-4.9c0-0.9-0.5-1.3-1.3-1.3c-0.7,0-1.2,0.3-1.4,0.8v5.4h-1.7v-7.5L86.8,135.2L86.8,135.2z"/>
	<path class="st3" d="M97.3,138.9c0-0.7,0.2-1.4,0.4-2c0.3-0.6,0.7-1,1.2-1.4c0.5-0.3,1.1-0.5,1.8-0.5c1,0,1.8,0.3,2.5,1
		s1,1.5,1,2.6v0.4c0,0.7-0.1,1.4-0.4,2s-0.7,1-1.2,1.4s-1.1,0.5-1.8,0.5c-1.1,0-1.9-0.4-2.5-1.1S97.3,140.2,97.3,138.9L97.3,138.9
		L97.3,138.9z M99,139.1c0,0.8,0.2,1.4,0.5,1.8c0.3,0.4,0.8,0.6,1.3,0.6s1-0.2,1.3-0.7s0.5-1.1,0.5-1.9c0-0.8-0.2-1.4-0.5-1.8
		c-0.3-0.4-0.8-0.7-1.3-0.7s-1,0.2-1.3,0.6S99,138.2,99,139.1L99,139.1z"/>
	<path class="st3" d="M105.4,138.9c0-1.1,0.3-2.1,0.8-2.8c0.5-0.7,1.2-1.1,2.2-1.1c0.8,0,1.4,0.3,1.9,0.8v-3.8h1.7v10.6h-1.5
		l-0.1-0.8c-0.5,0.6-1.2,0.9-2,0.9s-1.6-0.4-2.1-1.1C105.6,141.1,105.4,140.1,105.4,138.9L105.4,138.9z M107.1,139.1
		c0,0.8,0.2,1.4,0.4,1.8c0.3,0.4,0.7,0.6,1.2,0.6c0.7,0,1.2-0.3,1.5-0.9v-3.2c-0.3-0.6-0.8-0.9-1.5-0.9c-0.5,0-1,0.2-1.3,0.6
		C107.2,137.6,107.1,138.2,107.1,139.1z"/>
	<path class="st3" d="M117,142.9c-1.1,0-1.9-0.3-2.6-1s-1-1.6-1-2.7V139c0-0.8,0.1-1.4,0.4-2s0.7-1.1,1.2-1.4
		c0.5-0.3,1.1-0.5,1.8-0.5c1,0,1.8,0.3,2.4,1c0.6,0.6,0.8,1.6,0.8,2.8v0.7h-4.9c0.1,0.6,0.3,1.1,0.6,1.5s0.8,0.5,1.4,0.5
		c0.8,0,1.4-0.3,1.9-0.9l0.9,0.9c-0.3,0.4-0.7,0.8-1.2,1S117.6,142.9,117,142.9L117,142.9z M116.8,136.5c-0.5,0-0.8,0.2-1.1,0.5
		c-0.3,0.3-0.5,0.8-0.5,1.4h3.2v-0.1c0-0.6-0.2-1-0.4-1.3C117.6,136.6,117.3,136.5,116.8,136.5L116.8,136.5z"/>
	<path class="st3" d="M123.1,142.7h-1.7v-10.6h1.7V142.7z"/>
</g>
<g>
	<path class="st3" d="M491.6,468.6h-3.1v8.7h-1.7v-8.7h-3.1v-1.4h8L491.6,468.6L491.6,468.6z"/>
	<path class="st3" d="M496.1,477.2c-0.1-0.1-0.1-0.4-0.2-0.7c-0.5,0.6-1.2,0.8-2,0.8s-1.4-0.2-1.8-0.6s-0.7-1-0.7-1.6
		c0-0.8,0.3-1.4,0.9-1.8c0.6-0.4,1.4-0.6,2.5-0.6h1v-0.5c0-0.4-0.1-0.7-0.3-0.9s-0.5-0.4-1-0.4c-0.4,0-0.7,0.1-0.9,0.3
		s-0.4,0.4-0.4,0.7h-1.7c0-0.4,0.1-0.8,0.4-1.1s0.6-0.6,1.1-0.8s1-0.3,1.6-0.3c0.9,0,1.6,0.2,2.1,0.7s0.8,1.1,0.8,1.9v3.4
		c0,0.7,0.1,1.2,0.3,1.6v0.1L496.1,477.2L496.1,477.2z M494.3,476c0.3,0,0.6-0.1,0.9-0.2s0.5-0.4,0.7-0.6v-1.4H495
		c-0.6,0-1.1,0.1-1.4,0.3c-0.3,0.2-0.5,0.5-0.5,0.9c0,0.3,0.1,0.6,0.3,0.8C493.6,475.9,493.9,476,494.3,476L494.3,476z"/>
	<path class="st3" d="M505.9,473.6c0,1.2-0.3,2.1-0.8,2.8s-1.2,1-2.1,1s-1.6-0.3-2-1l-0.1,0.8h-1.5v-10.6h1.7v3.9
		c0.5-0.6,1.1-0.9,2-0.9c0.9,0,1.6,0.3,2.1,1S505.9,472.2,505.9,473.6L505.9,473.6L505.9,473.6z M504.2,473.4c0-0.8-0.1-1.4-0.4-1.8
		c-0.3-0.4-0.7-0.6-1.2-0.6c-0.7,0-1.2,0.3-1.5,1v3.1c0.3,0.6,0.8,1,1.5,1c0.5,0,0.9-0.2,1.2-0.6s0.4-1,0.4-1.8L504.2,473.4
		L504.2,473.4z"/>
	<path class="st3" d="M509.1,477.2h-1.7v-10.6h1.7V477.2z"/>
	<path class="st3" d="M514.2,477.4c-1.1,0-1.9-0.3-2.6-1s-1-1.6-1-2.7v-0.2c0-0.8,0.1-1.4,0.4-2c0.3-0.6,0.7-1,1.2-1.4
		c0.5-0.3,1.1-0.5,1.8-0.5c1,0,1.8,0.3,2.4,1c0.6,0.6,0.8,1.6,0.8,2.8v0.7h-4.9c0,0.6,0.3,1.1,0.6,1.5c0.4,0.4,0.8,0.5,1.4,0.5
		c0.8,0,1.4-0.3,1.9-0.9l0.9,0.9c-0.3,0.5-0.7,0.8-1.2,1S514.9,477.4,514.2,477.4L514.2,477.4z M514,470.9c-0.5,0-0.8,0.2-1.1,0.5
		c-0.3,0.3-0.5,0.8-0.5,1.4h3.2v-0.1c0-0.6-0.2-1-0.5-1.3S514.5,471,514,470.9L514,470.9z"/>
</g>
</svg>
